<?xml version="1.0" encoding="UTF-8"?>
<!DOCTYPE svg PUBLIC "-//W3C//DTD SVG 1.1//EN" "http://www.w3.org/Graphics/SVG/1.1/DTD/svg11.dtd">
<svg width="2325px" height="1303px" viewBox="0 0 2325 1303" version="1.1" xmlns="http://www.w3.org/2000/svg" xmlns:xlink="http://www.w3.org/1999/xlink">
  <g>
    <line stroke="#9999ff" stroke-width="1" stroke-dasharray="1,10" stroke-linecap="round" stroke-linejoin="round" x1="710.5" y1="0.5" x2="710.5" y2="1302.5" />
    <line stroke="#9999ff" stroke-width="1" stroke-dasharray="1,10" stroke-linecap="round" stroke-linejoin="round" x1="1356.5" y1="0.5" x2="1356.5" y2="1302.5" />
    <line stroke="#9999ff" stroke-width="1" stroke-dasharray="1,10" stroke-linecap="round" stroke-linejoin="round" x1="2002.5" y1="0.5" x2="2002.5" y2="1302.5" />
    <line stroke="#9999ff" stroke-width="1" stroke-dasharray="1,10" stroke-linecap="round" stroke-linejoin="round" x1="0.5" y1="1222.5" x2="2324.5" y2="1222.5" />
    <line stroke="#9999ff" stroke-width="1" stroke-dasharray="1,10" stroke-linecap="round" stroke-linejoin="round" x1="0.5" y1="1140.5" x2="2324.5" y2="1140.5" />
    <line stroke="#9999ff" stroke-width="1" stroke-dasharray="1,10" stroke-linecap="round" stroke-linejoin="round" x1="0.5" y1="1059.5" x2="2324.5" y2="1059.5" />
    <line stroke="#9999ff" stroke-width="1" stroke-dasharray="1,10" stroke-linecap="round" stroke-linejoin="round" x1="0.5" y1="896.5" x2="2324.5" y2="896.5" />
    <line stroke="#9999ff" stroke-width="1" stroke-dasharray="1,10" stroke-linecap="round" stroke-linejoin="round" x1="0.5" y1="814.5" x2="2324.5" y2="814.5" />
    <line stroke="#9999ff" stroke-width="1" stroke-dasharray="1,10" stroke-linecap="round" stroke-linejoin="round" x1="0.5" y1="733.5" x2="2324.5" y2="733.5" />
    <line stroke="#9999ff" stroke-width="1" stroke-dasharray="1,10" stroke-linecap="round" stroke-linejoin="round" x1="0.5" y1="652.5" x2="2324.5" y2="652.5" />
    <line stroke="#9999ff" stroke-width="1" stroke-dasharray="1,10" stroke-linecap="round" stroke-linejoin="round" x1="0.5" y1="570.5" x2="2324.5" y2="570.5" />
    <line stroke="#9999ff" stroke-width="1" stroke-dasharray="1,10" stroke-linecap="round" stroke-linejoin="round" x1="0.5" y1="489.5" x2="2324.5" y2="489.5" />
    <line stroke="#9999ff" stroke-width="1" stroke-dasharray="1,10" stroke-linecap="round" stroke-linejoin="round" x1="0.5" y1="407.5" x2="2324.5" y2="407.5" />
    <line stroke="#9999ff" stroke-width="1" stroke-dasharray="1,10" stroke-linecap="round" stroke-linejoin="round" x1="0.5" y1="326.5" x2="2324.5" y2="326.5" />
    <line stroke="#9999ff" stroke-width="1" stroke-dasharray="1,10" stroke-linecap="round" stroke-linejoin="round" x1="0.5" y1="244.5" x2="2324.5" y2="244.5" />
    <line stroke="#9999ff" stroke-width="1" stroke-dasharray="1,10" stroke-linecap="round" stroke-linejoin="round" x1="0.5" y1="163.5" x2="2324.5" y2="163.5" />
    <line stroke="#9999ff" stroke-width="1" stroke-dasharray="1,10" stroke-linecap="round" stroke-linejoin="round" x1="0.5" y1="81.5" x2="2324.5" y2="81.5" />
    <text x="705" y="999" font-family="Times New Roman" font-size="21" fill="#000000">1</text>
    <text x="1351" y="999" font-family="Times New Roman" font-size="21" fill="#000000">2</text>
    <text x="1997" y="999" font-family="Times New Roman" font-size="21" fill="#000000">3</text>
    <text x="2" y="1229" font-family="Times New Roman" font-size="21" fill="#000000">-0.015</text>
    <text x="13" y="1147" font-family="Times New Roman" font-size="21" fill="#000000">-0.01</text>
    <text x="2" y="1066" font-family="Times New Roman" font-size="21" fill="#000000">-0.005</text>
    <text x="9" y="903" font-family="Times New Roman" font-size="21" fill="#000000">0.005</text>
    <text x="20" y="821" font-family="Times New Roman" font-size="21" fill="#000000">0.01</text>
    <text x="9" y="740" font-family="Times New Roman" font-size="21" fill="#000000">0.015</text>
    <text x="20" y="658" font-family="Times New Roman" font-size="21" fill="#000000">0.02</text>
    <text x="9" y="577" font-family="Times New Roman" font-size="21" fill="#000000">0.025</text>
    <text x="20" y="496" font-family="Times New Roman" font-size="21" fill="#000000">0.03</text>
    <text x="9" y="414" font-family="Times New Roman" font-size="21" fill="#000000">0.035</text>
    <text x="20" y="333" font-family="Times New Roman" font-size="21" fill="#000000">0.04</text>
    <text x="9" y="251" font-family="Times New Roman" font-size="21" fill="#000000">0.045</text>
    <text x="20" y="170" font-family="Times New Roman" font-size="21" fill="#000000">0.05</text>
    <text x="9" y="88" font-family="Times New Roman" font-size="21" fill="#000000">0.055</text>
    <text x="2312" y="965" font-family="Times New Roman" font-size="21" font-weight="700" fill="#000000">x</text>
    <text x="77" y="15" font-family="Times New Roman" font-size="21" font-weight="700" fill="#000000">y</text>
    <line stroke="#0000ff" stroke-width="2" stroke-linecap="butt" stroke-linejoin="bevel" x1="0" y1="977" x2="2320" y2="977" />
    <polygon stroke="#0000ff" stroke-width="1" stroke-linecap="round" stroke-linejoin="round" fill="#0000ff" points="2318.5,970.5 2324.5,976.5 2324.5,977.5 2318.5,983.5 " />
    <line stroke="#0000ff" stroke-width="1" stroke-linecap="round" stroke-linejoin="round" x1="710.5" y1="982.5" x2="710.5" y2="971.5" />
    <line stroke="#0000ff" stroke-width="1" stroke-linecap="round" stroke-linejoin="round" x1="1356.5" y1="982.5" x2="1356.5" y2="971.5" />
    <line stroke="#0000ff" stroke-width="1" stroke-linecap="round" stroke-linejoin="round" x1="2002.5" y1="982.5" x2="2002.5" y2="971.5" />
    <line stroke="#0000ff" stroke-width="2" stroke-linecap="butt" stroke-linejoin="bevel" x1="65" y1="3" x2="65" y2="1302" />
    <polygon stroke="#0000ff" stroke-width="1" stroke-linecap="round" stroke-linejoin="round" fill="#0000ff" points="58.5,6.5 64.5,0.5 65.5,0.5 71.5,6.5 " />
    <line stroke="#0000ff" stroke-width="1" stroke-linecap="round" stroke-linejoin="round" x1="59.5" y1="1222.5" x2="70.5" y2="1222.5" />
    <line stroke="#0000ff" stroke-width="1" stroke-linecap="round" stroke-linejoin="round" x1="59.5" y1="1140.5" x2="70.5" y2="1140.5" />
    <line stroke="#0000ff" stroke-width="1" stroke-linecap="round" stroke-linejoin="round" x1="59.5" y1="1059.5" x2="70.5" y2="1059.5" />
    <line stroke="#0000ff" stroke-width="1" stroke-linecap="round" stroke-linejoin="round" x1="59.5" y1="896.5" x2="70.5" y2="896.5" />
    <line stroke="#0000ff" stroke-width="1" stroke-linecap="round" stroke-linejoin="round" x1="59.5" y1="814.5" x2="70.5" y2="814.5" />
    <line stroke="#0000ff" stroke-width="1" stroke-linecap="round" stroke-linejoin="round" x1="59.5" y1="733.5" x2="70.5" y2="733.5" />
    <line stroke="#0000ff" stroke-width="1" stroke-linecap="round" stroke-linejoin="round" x1="59.5" y1="652.5" x2="70.5" y2="652.5" />
    <line stroke="#0000ff" stroke-width="1" stroke-linecap="round" stroke-linejoin="round" x1="59.5" y1="570.5" x2="70.5" y2="570.5" />
    <line stroke="#0000ff" stroke-width="1" stroke-linecap="round" stroke-linejoin="round" x1="59.5" y1="489.5" x2="70.5" y2="489.5" />
    <line stroke="#0000ff" stroke-width="1" stroke-linecap="round" stroke-linejoin="round" x1="59.5" y1="407.5" x2="70.5" y2="407.5" />
    <line stroke="#0000ff" stroke-width="1" stroke-linecap="round" stroke-linejoin="round" x1="59.5" y1="326.5" x2="70.5" y2="326.5" />
    <line stroke="#0000ff" stroke-width="1" stroke-linecap="round" stroke-linejoin="round" x1="59.5" y1="244.5" x2="70.5" y2="244.5" />
    <line stroke="#0000ff" stroke-width="1" stroke-linecap="round" stroke-linejoin="round" x1="59.5" y1="163.5" x2="70.5" y2="163.5" />
    <line stroke="#0000ff" stroke-width="1" stroke-linecap="round" stroke-linejoin="round" x1="59.5" y1="81.5" x2="70.5" y2="81.5" />
    <polyline stroke="#000000" stroke-width="2" stroke-linecap="butt" stroke-linejoin="bevel" fill="none" points="710,453 1356,921 2002,973 " />
    <text x="622" y="446" font-family="Tahoma" font-size="16" fill="#000000">(1,0.03220)</text>
    <text x="1268" y="914" font-family="Tahoma" font-size="16" fill="#000000">(2,0.00348)</text>
    <text x="1914" y="966" font-family="Tahoma" font-size="16" fill="#000000">(3,0.00028)</text>
    <circle stroke="#000000" stroke-width="1" stroke-linecap="round" stroke-linejoin="round" fill="#000000" cx="710" cy="453" r="3" />
    <circle stroke="#000000" stroke-width="1" stroke-linecap="round" stroke-linejoin="round" fill="#000000" cx="1356" cy="921" r="3" />
    <circle stroke="#000000" stroke-width="1" stroke-linecap="round" stroke-linejoin="round" fill="#000000" cx="2002" cy="973" r="3" />
  </g>
</svg>
