<?xml version="1.0" encoding="UTF-8"?>
<!DOCTYPE svg PUBLIC "-//W3C//DTD SVG 1.1//EN" "http://www.w3.org/Graphics/SVG/1.1/DTD/svg11.dtd">
<svg width="2396px" height="1303px" viewBox="0 0 2396 1303" version="1.1" xmlns="http://www.w3.org/2000/svg" xmlns:xlink="http://www.w3.org/1999/xlink">
  <g>
    <polyline stroke="#000000" stroke-width="2" stroke-linecap="butt" stroke-linejoin="bevel" fill="none" points="2351,20 2391,20 " />
    <circle stroke="#000000" stroke-width="1" stroke-linecap="round" stroke-linejoin="round" fill="#000000" cx="2371" cy="20" r="3" />
    <text x="2351" y="16" font-family="Times New Roman" font-size="11" fill="#000000">Ряд 1</text>
    <rect stroke="#000000" stroke-width="1" stroke-linecap="round" stroke-linejoin="round" fill="none" x="2346.5" y="0.5" width="49" height="29" />
  </g>
  <clipPath id="clippath1">
    <path d="M-1,-1 H2396 V1302H-1 z M2345,-1 H2397 V31 H2345 z" clip-rule="evenodd" />
  </clipPath>
  <g clip-path="url(#clippath1)">
    <text x="324" y="1211" font-family="Times New Roman" font-size="13" fill="#000000">1</text>
    <text x="542" y="1211" font-family="Times New Roman" font-size="13" fill="#000000">2</text>
    <text x="759" y="1211" font-family="Times New Roman" font-size="13" fill="#000000">3</text>
    <text x="977" y="1211" font-family="Times New Roman" font-size="13" fill="#000000">4</text>
    <text x="1195" y="1211" font-family="Times New Roman" font-size="13" fill="#000000">5</text>
    <text x="1413" y="1211" font-family="Times New Roman" font-size="13" fill="#000000">6</text>
    <text x="1631" y="1211" font-family="Times New Roman" font-size="13" fill="#000000">7</text>
    <text x="1848" y="1211" font-family="Times New Roman" font-size="13" fill="#000000">8</text>
    <text x="2066" y="1211" font-family="Times New Roman" font-size="13" fill="#000000">9</text>
    <text x="2281" y="1211" font-family="Times New Roman" font-size="13" fill="#000000">10</text>
    <text x="77" y="1255" font-family="Times New Roman" font-size="13" fill="#000000">-0.05</text>
    <text x="81" y="1146" font-family="Times New Roman" font-size="13" fill="#000000">0.05</text>
    <text x="87" y="1092" font-family="Times New Roman" font-size="13" fill="#000000">0.1</text>
    <text x="81" y="1038" font-family="Times New Roman" font-size="13" fill="#000000">0.15</text>
    <text x="87" y="983" font-family="Times New Roman" font-size="13" fill="#000000">0.2</text>
    <text x="81" y="929" font-family="Times New Roman" font-size="13" fill="#000000">0.25</text>
    <text x="87" y="875" font-family="Times New Roman" font-size="13" fill="#000000">0.3</text>
    <text x="81" y="820" font-family="Times New Roman" font-size="13" fill="#000000">0.35</text>
    <text x="87" y="766" font-family="Times New Roman" font-size="13" fill="#000000">0.4</text>
    <text x="81" y="712" font-family="Times New Roman" font-size="13" fill="#000000">0.45</text>
    <text x="87" y="658" font-family="Times New Roman" font-size="13" fill="#000000">0.5</text>
    <text x="81" y="603" font-family="Times New Roman" font-size="13" fill="#000000">0.55</text>
    <text x="87" y="549" font-family="Times New Roman" font-size="13" fill="#000000">0.6</text>
    <text x="81" y="495" font-family="Times New Roman" font-size="13" fill="#000000">0.65</text>
    <text x="87" y="440" font-family="Times New Roman" font-size="13" fill="#000000">0.7</text>
    <text x="81" y="386" font-family="Times New Roman" font-size="13" fill="#000000">0.75</text>
    <text x="87" y="332" font-family="Times New Roman" font-size="13" fill="#000000">0.8</text>
    <text x="81" y="277" font-family="Times New Roman" font-size="13" fill="#000000">0.85</text>
    <text x="87" y="223" font-family="Times New Roman" font-size="13" fill="#000000">0.9</text>
    <text x="81" y="169" font-family="Times New Roman" font-size="13" fill="#000000">0.95</text>
    <text x="96" y="115" font-family="Times New Roman" font-size="13" fill="#000000">1</text>
    <text x="81" y="60" font-family="Times New Roman" font-size="13" fill="#000000">1.05</text>
    <text x="2384" y="1184" font-family="Times New Roman" font-size="16" font-weight="700" fill="#000000">k</text>
    <text x="121" y="13" font-family="Times New Roman" font-size="16" font-weight="700" fill="#000000">P(k)</text>
    <line stroke="#0000ff" stroke-width="2" stroke-linecap="butt" stroke-linejoin="bevel" x1="0" y1="1194" x2="2391" y2="1194" />
    <polygon stroke="#0000ff" stroke-width="1" stroke-linecap="round" stroke-linejoin="round" fill="#0000ff" points="2390.5,1188.5 2395.5,1193.5 2395.5,1194.5 2390.5,1199.5 " />
    <line stroke="#0000ff" stroke-width="1" stroke-linecap="round" stroke-linejoin="round" x1="327.5" y1="1199.5" x2="327.5" y2="1188.5" />
    <line stroke="#0000ff" stroke-width="1" stroke-linecap="round" stroke-linejoin="round" x1="545.5" y1="1199.5" x2="545.5" y2="1188.5" />
    <line stroke="#0000ff" stroke-width="1" stroke-linecap="round" stroke-linejoin="round" x1="762.5" y1="1199.5" x2="762.5" y2="1188.5" />
    <line stroke="#0000ff" stroke-width="1" stroke-linecap="round" stroke-linejoin="round" x1="980.5" y1="1199.5" x2="980.5" y2="1188.5" />
    <line stroke="#0000ff" stroke-width="1" stroke-linecap="round" stroke-linejoin="round" x1="1198.5" y1="1199.5" x2="1198.5" y2="1188.5" />
    <line stroke="#0000ff" stroke-width="1" stroke-linecap="round" stroke-linejoin="round" x1="1416.5" y1="1199.5" x2="1416.5" y2="1188.5" />
    <line stroke="#0000ff" stroke-width="1" stroke-linecap="round" stroke-linejoin="round" x1="1634.5" y1="1199.5" x2="1634.5" y2="1188.5" />
    <line stroke="#0000ff" stroke-width="1" stroke-linecap="round" stroke-linejoin="round" x1="1851.5" y1="1199.5" x2="1851.5" y2="1188.5" />
    <line stroke="#0000ff" stroke-width="1" stroke-linecap="round" stroke-linejoin="round" x1="2069.5" y1="1199.5" x2="2069.5" y2="1188.5" />
    <line stroke="#0000ff" stroke-width="1" stroke-linecap="round" stroke-linejoin="round" x1="2287.5" y1="1199.5" x2="2287.5" y2="1188.5" />
    <line stroke="#0000ff" stroke-width="2" stroke-linecap="butt" stroke-linejoin="bevel" x1="109" y1="3" x2="109" y2="1302" />
    <polygon stroke="#0000ff" stroke-width="1" stroke-linecap="round" stroke-linejoin="round" fill="#0000ff" points="103.5,5.5 108.5,0.5 109.5,0.5 114.5,5.5 " />
    <line stroke="#0000ff" stroke-width="1" stroke-linecap="round" stroke-linejoin="round" x1="103.5" y1="1249.5" x2="114.5" y2="1249.5" />
    <line stroke="#0000ff" stroke-width="1" stroke-linecap="round" stroke-linejoin="round" x1="103.5" y1="1140.5" x2="114.5" y2="1140.5" />
    <line stroke="#0000ff" stroke-width="1" stroke-linecap="round" stroke-linejoin="round" x1="103.5" y1="1086.5" x2="114.5" y2="1086.5" />
    <line stroke="#0000ff" stroke-width="1" stroke-linecap="round" stroke-linejoin="round" x1="103.5" y1="1032.5" x2="114.5" y2="1032.5" />
    <line stroke="#0000ff" stroke-width="1" stroke-linecap="round" stroke-linejoin="round" x1="103.5" y1="977.5" x2="114.5" y2="977.5" />
    <line stroke="#0000ff" stroke-width="1" stroke-linecap="round" stroke-linejoin="round" x1="103.5" y1="923.5" x2="114.5" y2="923.5" />
    <line stroke="#0000ff" stroke-width="1" stroke-linecap="round" stroke-linejoin="round" x1="103.5" y1="869.5" x2="114.5" y2="869.5" />
    <line stroke="#0000ff" stroke-width="1" stroke-linecap="round" stroke-linejoin="round" x1="103.5" y1="814.5" x2="114.5" y2="814.5" />
    <line stroke="#0000ff" stroke-width="1" stroke-linecap="round" stroke-linejoin="round" x1="103.5" y1="760.5" x2="114.5" y2="760.5" />
    <line stroke="#0000ff" stroke-width="1" stroke-linecap="round" stroke-linejoin="round" x1="103.5" y1="706.5" x2="114.5" y2="706.5" />
    <line stroke="#0000ff" stroke-width="1" stroke-linecap="round" stroke-linejoin="round" x1="103.5" y1="651.5" x2="114.5" y2="651.5" />
    <line stroke="#0000ff" stroke-width="1" stroke-linecap="round" stroke-linejoin="round" x1="103.5" y1="597.5" x2="114.5" y2="597.5" />
    <line stroke="#0000ff" stroke-width="1" stroke-linecap="round" stroke-linejoin="round" x1="103.5" y1="543.5" x2="114.5" y2="543.5" />
    <line stroke="#0000ff" stroke-width="1" stroke-linecap="round" stroke-linejoin="round" x1="103.5" y1="489.5" x2="114.5" y2="489.5" />
    <line stroke="#0000ff" stroke-width="1" stroke-linecap="round" stroke-linejoin="round" x1="103.5" y1="434.5" x2="114.5" y2="434.5" />
    <line stroke="#0000ff" stroke-width="1" stroke-linecap="round" stroke-linejoin="round" x1="103.5" y1="380.5" x2="114.5" y2="380.5" />
    <line stroke="#0000ff" stroke-width="1" stroke-linecap="round" stroke-linejoin="round" x1="103.5" y1="326.5" x2="114.5" y2="326.5" />
    <line stroke="#0000ff" stroke-width="1" stroke-linecap="round" stroke-linejoin="round" x1="103.5" y1="271.5" x2="114.5" y2="271.5" />
    <line stroke="#0000ff" stroke-width="1" stroke-linecap="round" stroke-linejoin="round" x1="103.5" y1="217.5" x2="114.5" y2="217.5" />
    <line stroke="#0000ff" stroke-width="1" stroke-linecap="round" stroke-linejoin="round" x1="103.5" y1="163.5" x2="114.5" y2="163.5" />
    <line stroke="#0000ff" stroke-width="1" stroke-linecap="round" stroke-linejoin="round" x1="103.5" y1="109.5" x2="114.5" y2="109.5" />
    <line stroke="#0000ff" stroke-width="1" stroke-linecap="round" stroke-linejoin="round" x1="103.5" y1="54.5" x2="114.5" y2="54.5" />
  </g>
  <clipPath id="clippath2">
    <path d="M-1,-1 H2396 V1302H-1 z M2345,-1 H2397 V31 H2345 z" clip-rule="evenodd" />
  </clipPath>
  <g clip-path="url(#clippath2)">
    <polyline stroke="#000000" stroke-width="2" stroke-linecap="butt" stroke-linejoin="bevel" fill="none" points="109,1194 110,1194 111,1194 112,1194 113,1194 114,1194 115,1194 116,1194 117,1194 118,1194 119,1194 120,1194 121,1194 122,1194 123,1194 124,1194 125,1194 126,1194 127,1194 128,1194 129,1194 130,1194 131,1194 132,1194 133,1194 134,1194 135,1194 136,1194 137,1194 138,1194 139,1194 140,1194 141,1194 142,1194 143,1194 144,1194 145,1194 146,1194 147,1194 148,1194 149,1194 150,1194 151,1194 152,1194 153,1194 154,1194 155,1194 156,1194 157,1194 158,1194 159,1194 160,1194 161,1194 162,1194 163,1194 164,1194 165,1194 166,1194 167,1194 168,1194 169,1194 170,1194 171,1194 172,1194 173,1194 174,1194 175,1194 176,1194 177,1194 178,1194 179,1194 180,1194 181,1194 182,1194 183,1194 184,1194 185,1194 186,1194 187,1194 188,1194 189,1194 190,1194 191,1194 192,1194 193,1194 194,1194 195,1194 196,1194 197,1194 198,1194 199,1194 200,1194 201,1194 202,1194 203,1194 204,1194 205,1194 206,1194 207,1194 208,1194 209,1194 210,1194 211,1194 212,1194 213,1194 214,1194 215,1194 216,1194 217,1194 218,1194 219,1194 220,1194 221,1194 222,1194 223,1194 224,1194 225,1194 226,1194 227,1194 228,1194 229,1194 230,1194 231,1194 232,1194 233,1194 234,1194 235,1194 236,1194 237,1194 238,1194 239,1194 240,1194 241,1194 242,1194 243,1194 244,1194 245,1194 246,1194 247,1194 248,1194 249,1194 250,1194 251,1194 252,1194 253,1194 254,1194 255,1194 256,1194 257,1194 258,1194 259,1194 260,1194 261,1194 262,1194 263,1194 264,1194 265,1194 266,1194 267,1194 268,1194 269,1194 270,1194 271,1194 272,1194 273,1194 274,1194 275,1194 276,1194 277,1194 278,1194 279,1194 280,1194 281,1194 282,1194 283,1194 284,1194 285,1194 286,1194 287,1194 288,1194 289,1194 290,1194 291,1194 292,1194 293,1194 294,1194 295,1194 296,1194 297,1194 298,1194 299,1194 300,1194 301,1194 302,1194 303,1194 304,1194 305,1194 306,1194 307,1194 308,1194 309,1194 310,1194 311,1194 312,1194 313,1194 314,1194 315,1194 316,1194 317,1194 318,1194 319,1194 320,1194 321,1194 322,1194 323,1194 324,1194 325,1194 326,1194 327,1194 327,1194 328,1194 329,1194 330,1194 331,1194 332,1194 333,1194 334,1194 335,1194 336,1194 337,1194 338,1194 339,1194 340,1194 341,1194 342,1194 343,1194 344,1194 345,1194 346,1194 347,1194 348,1194 349,1194 350,1194 351,1194 352,1194 353,1194 354,1194 355,1194 356,1194 357,1194 358,1194 359,1194 360,1194 361,1194 362,1194 363,1194 364,1194 365,1194 366,1194 367,1194 368,1194 369,1194 370,1194 371,1194 372,1194 373,1194 374,1194 375,1194 376,1194 377,1194 378,1194 379,1194 380,1194 381,1194 382,1194 383,1194 384,1194 385,1194 386,1194 387,1194 388,1194 389,1194 390,1194 391,1194 392,1194 393,1194 394,1194 395,1194 396,1194 397,1194 398,1194 399,1194 400,1194 401,1194 402,1194 403,1194 404,1194 405,1194 406,1194 407,1194 408,1194 409,1194 410,1194 411,1194 412,1194 413,1194 414,1194 415,1194 416,1194 417,1194 418,1194 419,1194 420,1194 421,1194 422,1194 423,1194 424,1194 425,1194 426,1194 427,1194 428,1194 429,1194 430,1194 431,1194 432,1194 433,1194 434,1194 435,1194 436,1194 437,1194 438,1194 439,1194 440,1194 441,1194 442,1194 443,1194 444,1194 445,1194 446,1194 447,1194 448,1194 449,1194 450,1194 451,1194 452,1194 453,1194 454,1194 455,1194 456,1194 457,1194 458,1194 459,1194 460,1194 461,1194 462,1194 463,1194 464,1194 465,1194 466,1194 467,1194 468,1194 469,1194 470,1194 471,1194 472,1194 473,1194 474,1194 475,1194 476,1194 477,1194 478,1194 479,1194 480,1194 481,1194 482,1194 483,1194 484,1194 485,1194 486,1194 487,1194 488,1194 489,1194 490,1194 491,1194 492,1194 493,1194 494,1194 495,1194 496,1194 497,1194 498,1194 499,1194 500,1194 501,1194 502,1194 503,1194 504,1194 505,1194 506,1194 507,1194 508,1194 509,1194 510,1194 511,1194 512,1194 513,1194 514,1194 515,1194 516,1194 517,1194 518,1194 519,1194 520,1194 521,1194 522,1194 523,1194 524,1194 525,1194 526,1194 527,1194 528,1194 529,1194 530,1194 531,1194 532,1194 533,1194 534,1194 535,1194 536,1194 537,1194 538,1194 539,1194 540,1194 541,1194 542,1194 543,1194 544,1194 545,1194 546,1194 547,1194 548,1194 549,1194 550,1194 551,1194 552,1194 553,1194 554,1194 555,1194 556,1194 557,1194 558,1194 559,1194 560,1194 561,1194 562,1194 563,1194 564,1194 565,1194 566,1194 567,1194 568,1194 569,1194 570,1194 571,1194 572,1194 573,1194 574,1194 575,1194 576,1194 577,1194 578,1194 579,1194 580,1194 581,1194 582,1194 583,1194 584,1194 585,1194 586,1194 587,1194 588,1194 589,1194 590,1194 591,1194 592,1194 593,1194 594,1194 595,1194 596,1194 597,1194 598,1194 599,1194 600,1194 601,1194 602,1194 603,1194 604,1194 605,1194 606,1194 607,1194 608,1194 609,1194 610,1194 611,1193 612,1193 613,1193 614,1193 615,1193 616,1193 617,1193 618,1193 619,1193 620,1193 621,1193 622,1193 623,1193 624,1193 625,1193 626,1193 627,1193 628,1193 629,1193 630,1193 631,1193 632,1193 633,1193 634,1193 635,1193 636,1193 637,1193 638,1193 639,1193 640,1193 641,1193 642,1193 643,1193 644,1193 645,1193 646,1193 647,1193 648,1193 649,1193 650,1193 651,1193 652,1193 653,1193 654,1193 655,1193 656,1193 657,1193 658,1193 659,1193 660,1193 661,1193 662,1193 663,1193 664,1192 665,1192 666,1192 667,1192 668,1192 669,1192 670,1192 671,1192 672,1192 673,1192 674,1192 675,1192 676,1192 677,1192 678,1192 679,1192 680,1192 681,1192 682,1192 683,1192 684,1192 685,1192 686,1192 687,1192 688,1192 689,1192 690,1192 691,1192 692,1192 693,1192 694,1192 695,1191 696,1191 697,1191 698,1191 699,1191 700,1191 701,1191 702,1191 703,1191 704,1191 705,1191 706,1191 707,1191 708,1191 709,1191 710,1191 711,1191 712,1191 713,1191 714,1191 715,1191 716,1191 717,1191 718,1191 719,1190 720,1190 721,1190 722,1190 723,1190 724,1190 725,1190 726,1190 727,1190 728,1190 729,1190 730,1190 731,1190 732,1190 733,1190 734,1190 735,1190 736,1190 737,1190 738,1189 739,1189 740,1189 741,1189 742,1189 743,1189 744,1189 745,1189 746,1189 747,1189 748,1189 749,1189 750,1189 751,1189 752,1189 753,1189 754,1189 755,1188 756,1188 757,1188 758,1188 759,1188 760,1188 761,1188 762,1188 762,1188 763,1188 764,1188 765,1188 766,1188 767,1188 768,1188 769,1188 770,1187 771,1187 772,1187 773,1187 774,1187 775,1187 776,1187 777,1187 778,1187 779,1187 780,1187 781,1187 782,1187 783,1186 784,1186 785,1186 786,1186 787,1186 788,1186 789,1186 790,1186 791,1186 792,1186 793,1186 794,1186 795,1185 796,1185 797,1185 798,1185 799,1185 800,1185 801,1185 802,1185 803,1185 804,1185 805,1185 806,1184 807,1184 808,1184 809,1184 810,1184 811,1184 812,1184 813,1184 814,1184 815,1184 816,1183 817,1183 818,1183 819,1183 820,1183 821,1183 822,1183 823,1183 824,1183 825,1182 826,1182 827,1182 828,1182 829,1182 830,1182 831,1182 832,1182 833,1182 834,1181 835,1181 836,1181 837,1181 838,1181 839,1181 840,1181 841,1181 842,1180 843,1180 844,1180 845,1180 846,1180 847,1180 848,1180 849,1179 850,1179 851,1179 852,1179 853,1179 854,1179 855,1179 856,1178 857,1178 858,1178 859,1178 860,1178 861,1178 862,1178 863,1177 864,1177 865,1177 866,1177 867,1177 868,1177 869,1176 870,1176 871,1176 872,1176 873,1176 874,1176 875,1176 876,1175 877,1175 878,1175 879,1175 880,1175 881,1174 882,1174 883,1174 884,1174 885,1174 886,1174 887,1173 888,1173 889,1173 890,1173 891,1173 892,1172 893,1172 894,1172 895,1172 896,1172 897,1172 898,1171 899,1171 900,1171 901,1171 902,1171 903,1170 904,1170 905,1170 906,1170 907,1170 908,1169 909,1169 910,1169 911,1169 912,1168 913,1168 914,1168 915,1168 916,1168 917,1167 918,1167 919,1167 920,1167 921,1166 922,1166 923,1166 924,1166 925,1165 926,1165 927,1165 928,1165 929,1165 930,1164 931,1164 932,1164 933,1164 934,1163 935,1163 936,1163 937,1163 938,1162 939,1162 940,1162 941,1162 942,1161 943,1161 944,1161 945,1160 946,1160 947,1160 948,1160 949,1159 950,1159 951,1159 952,1159 953,1158 954,1158 955,1158 956,1157 957,1157 958,1157 959,1157 960,1156 961,1156 962,1156 963,1155 964,1155 965,1155 966,1154 967,1154 968,1154 969,1154 970,1153 971,1153 972,1153 973,1152 974,1152 975,1152 976,1151 977,1151 978,1151 979,1150 980,1150 980,1150 981,1150 982,1149 983,1149 984,1149 985,1148 986,1148 987,1148 988,1147 989,1147 990,1147 991,1146 992,1146 993,1146 994,1145 995,1145 996,1144 997,1144 998,1144 999,1143 1000,1143 1001,1143 1002,1142 1003,1142 1004,1142 1005,1141 1006,1141 1007,1140 1008,1140 1009,1140 1010,1139 1011,1139 1012,1138 1013,1138 1014,1138 1015,1137 1016,1137 1017,1136 1018,1136 1019,1136 1020,1135 1021,1135 1022,1134 1023,1134 1024,1134 1025,1133 1026,1133 1027,1132 1028,1132 1029,1132 1030,1131 1031,1131 1032,1130 1033,1130 1034,1129 1035,1129 1036,1129 1037,1128 1038,1128 1039,1127 1040,1127 1041,1126 1042,1126 1043,1125 1044,1125 1045,1125 1046,1124 1047,1124 1048,1123 1049,1123 1050,1122 1051,1122 1052,1121 1053,1121 1054,1120 1055,1120 1056,1120 1057,1119 1058,1119 1059,1118 1060,1118 1061,1117 1062,1117 1063,1116 1064,1116 1065,1115 1066,1115 1067,1114 1068,1114 1069,1113 1070,1113 1071,1112 1072,1112 1073,1111 1074,1111 1075,1110 1076,1110 1077,1109 1078,1109 1079,1108 1080,1108 1081,1107 1082,1107 1083,1106 1084,1106 1085,1105 1086,1105 1087,1104 1088,1104 1089,1103 1090,1103 1091,1102 1092,1102 1093,1101 1094,1100 1095,1100 1096,1099 1097,1099 1098,1098 1099,1098 1100,1097 1101,1097 1102,1096 1103,1096 1104,1095 1105,1094 1106,1094 1107,1093 1108,1093 1109,1092 1110,1092 1111,1091 1112,1091 1113,1090 1114,1089 1115,1089 1116,1088 1117,1088 1118,1087 1119,1087 1120,1086 1121,1085 1122,1085 1123,1084 1124,1084 1125,1083 1126,1082 1127,1082 1128,1081 1129,1081 1130,1080 1131,1080 1132,1079 1133,1078 1134,1078 1135,1077 1136,1077 1137,1076 1138,1075 1139,1075 1140,1074 1141,1073 1142,1073 1143,1072 1144,1072 1145,1071 1146,1070 1147,1070 1148,1069 1149,1069 1150,1068 1151,1067 1152,1067 1153,1066 1154,1065 1155,1065 1156,1064 1157,1063 1158,1063 1159,1062 1160,1062 1161,1061 1162,1060 1163,1060 1164,1059 1165,1058 1166,1058 1167,1057 1168,1056 1169,1056 1170,1055 1171,1054 1172,1054 1173,1053 1174,1052 1175,1052 1176,1051 1177,1050 1178,1050 1179,1049 1180,1048 1181,1048 1182,1047 1183,1046 1184,1046 1185,1045 1186,1044 1187,1044 1188,1043 1189,1042 1190,1042 1191,1041 1192,1040 1193,1039 1194,1039 1195,1038 1196,1037 1197,1037 1198,1036 1198,1036 1199,1035 1200,1035 1201,1034 1202,1033 1203,1032 1204,1032 1205,1031 1206,1030 1207,1030 1208,1029 1209,1028 1210,1027 1211,1027 1212,1026 1213,1025 1214,1025 1215,1024 1216,1023 1217,1022 1218,1022 1219,1021 1220,1020 1221,1020 1222,1019 1223,1018 1224,1017 1225,1017 1226,1016 1227,1015 1228,1014 1229,1014 1230,1013 1231,1012 1232,1011 1233,1011 1234,1010 1235,1009 1236,1008 1237,1008 1238,1007 1239,1006 1240,1005 1241,1005 1242,1004 1243,1003 1244,1002 1245,1002 1246,1001 1247,1000 1248,999 1249,999 1250,998 1251,997 1252,996 1253,996 1254,995 1255,994 1256,993 1257,993 1258,992 1259,991 1260,990 1261,990 1262,989 1263,988 1264,987 1265,987 1266,986 1267,985 1268,984 1269,984 1270,983 1271,982 1272,981 1273,981 1274,980 1275,979 1276,978 1277,978 1278,977 1279,976 1280,975 1281,975 1282,974 1283,973 1284,972 1285,972 1286,971 1287,970 1288,969 1289,969 1290,968 1291,967 1292,966 1293,966 1294,965 1295,964 1296,964 1297,963 1298,962 1299,961 1300,961 1301,960 1302,959 1303,958 1304,958 1305,957 1306,956 1307,955 1308,955 1309,954 1310,953 1311,952 1312,952 1313,951 1314,950 1315,950 1316,949 1317,948 1318,947 1319,947 1320,946 1321,945 1322,945 1323,944 1324,943 1325,942 1326,942 1327,941 1328,940 1329,940 1330,939 1331,938 1332,937 1333,937 1334,936 1335,935 1336,935 1337,934 1338,933 1339,933 1340,932 1341,931 1342,930 1343,930 1344,929 1345,928 1346,928 1347,927 1348,926 1349,926 1350,925 1351,924 1352,924 1353,923 1354,922 1355,922 1356,921 1357,920 1358,920 1359,919 1360,918 1361,918 1362,917 1363,917 1364,916 1365,915 1366,915 1367,914 1368,913 1369,913 1370,912 1371,911 1372,911 1373,910 1374,910 1375,909 1376,908 1377,908 1378,907 1379,906 1380,906 1381,905 1382,905 1383,904 1384,903 1385,903 1386,902 1387,902 1388,901 1389,901 1390,900 1391,899 1392,899 1393,898 1394,898 1395,897 1396,897 1397,896 1398,895 1399,895 1400,894 1401,894 1402,893 1403,893 1404,892 1405,892 1406,891 1407,891 1408,890 1409,890 1410,889 1411,889 1412,888 1413,888 1414,887 1415,886 1416,886 1416,886 1417,886 1418,885 1419,885 1420,884 1421,884 1422,883 1423,883 1424,882 1425,882 1426,881 1427,881 1428,880 1429,880 1430,879 1431,879 1432,879 1433,878 1434,878 1435,877 1436,877 1437,876 1438,876 1439,876 1440,875 1441,875 1442,874 1443,874 1444,873 1445,873 1446,873 1447,872 1448,872 1449,872 1450,871 1451,871 1452,870 1453,870 1454,870 1455,869 1456,869 1457,869 1458,868 1459,868 1460,868 1461,867 1462,867 1463,867 1464,866 1465,866 1466,866 1467,865 1468,865 1469,865 1470,864 1471,864 1472,864 1473,863 1474,863 1475,863 1476,863 1477,862 1478,862 1479,862 1480,861 1481,861 1482,861 1483,861 1484,860 1485,860 1486,860 1487,860 1488,859 1489,859 1490,859 1491,859 1492,858 1493,858 1494,858 1495,858 1496,858 1497,857 1498,857 1499,857 1500,857 1501,857 1502,856 1503,856 1504,856 1505,856 1506,856 1507,856 1508,855 1509,855 1510,855 1511,855 1512,855 1513,855 1514,854 1515,854 1516,854 1517,854 1518,854 1519,854 1520,854 1521,854 1522,853 1523,853 1524,853 1525,853 1526,853 1527,853 1528,853 1529,853 1530,853 1531,853 1532,853 1533,853 1534,852 1535,852 1536,852 1537,852 1538,852 1539,852 1540,852 1541,852 1542,852 1543,852 1544,852 1545,852 1546,852 1547,852 1548,852 1549,852 1550,852 1551,852 1552,852 1553,852 1554,852 1555,852 1556,852 1557,852 1558,852 1559,852 1560,852 1561,852 1562,852 1563,852 1564,852 1565,853 1566,853 1567,853 1568,853 1569,853 1570,853 1571,853 1572,853 1573,853 1574,853 1575,853 1576,853 1577,854 1578,854 1579,854 1580,854 1581,854 1582,854 1583,854 1584,854 1585,855 1586,855 1587,855 1588,855 1589,855 1590,855 1591,856 1592,856 1593,856 1594,856 1595,856 1596,857 1597,857 1598,857 1599,857 1600,857 1601,858 1602,858 1603,858 1604,858 1605,858 1606,859 1607,859 1608,859 1609,859 1610,860 1611,860 1612,860 1613,860 1614,861 1615,861 1616,861 1617,862 1618,862 1619,862 1620,862 1621,863 1622,863 1623,863 1624,864 1625,864 1626,864 1627,865 1628,865 1629,865 1630,866 1631,866 1632,866 1633,867 1634,867 1634,867 1635,867 1636,868 1637,868 1638,868 1639,869 1640,869 1641,870 1642,870 1643,870 1644,871 1645,871 1646,872 1647,872 1648,872 1649,873 1650,873 1651,874 1652,874 1653,875 1654,875 1655,876 1656,876 1657,876 1658,877 1659,877 1660,878 1661,878 1662,879 1663,879 1664,880 1665,880 1666,881 1667,881 1668,882 1669,882 1670,883 1671,883 1672,884 1673,884 1674,885 1675,885 1676,886 1677,886 1678,887 1679,887 1680,888 1681,889 1682,889 1683,890 1684,890 1685,891 1686,891 1687,892 1688,892 1689,893 1690,894 1691,894 1692,895 1693,895 1694,896 1695,896 1696,897 1697,898 1698,898 1699,899 1700,899 1701,900 1702,901 1703,901 1704,902 1705,903 1706,903 1707,904 1708,904 1709,905 1710,906 1711,906 1712,907 1713,908 1714,908 1715,909 1716,910 1717,910 1718,911 1719,911 1720,912 1721,913 1722,913 1723,914 1724,915 1725,915 1726,916 1727,917 1728,917 1729,918 1730,919 1731,919 1732,920 1733,921 1734,922 1735,922 1736,923 1737,924 1738,924 1739,925 1740,926 1741,926 1742,927 1743,928 1744,929 1745,929 1746,930 1747,931 1748,931 1749,932 1750,933 1751,934 1752,934 1753,935 1754,936 1755,936 1756,937 1757,938 1758,939 1759,939 1760,940 1761,941 1762,942 1763,942 1764,943 1765,944 1766,945 1767,945 1768,946 1769,947 1770,948 1771,948 1772,949 1773,950 1774,951 1775,951 1776,952 1777,953 1778,954 1779,954 1780,955 1781,956 1782,957 1783,957 1784,958 1785,959 1786,960 1787,960 1788,961 1789,962 1790,963 1791,963 1792,964 1793,965 1794,966 1795,967 1796,967 1797,968 1798,969 1799,970 1800,970 1801,971 1802,972 1803,973 1804,974 1805,974 1806,975 1807,976 1808,977 1809,977 1810,978 1811,979 1812,980 1813,981 1814,981 1815,982 1816,983 1817,984 1818,984 1819,985 1820,986 1821,987 1822,988 1823,988 1824,989 1825,990 1826,991 1827,991 1828,992 1829,993 1830,994 1831,995 1832,995 1833,996 1834,997 1835,998 1836,998 1837,999 1838,1000 1839,1001 1840,1002 1841,1002 1842,1003 1843,1004 1844,1005 1845,1005 1846,1006 1847,1007 1848,1008 1849,1008 1850,1009 1851,1010 1851,1010 1852,1011 1853,1012 1854,1012 1855,1013 1856,1014 1857,1015 1858,1015 1859,1016 1860,1017 1861,1018 1862,1018 1863,1019 1864,1020 1865,1021 1866,1021 1867,1022 1868,1023 1869,1024 1870,1024 1871,1025 1872,1026 1873,1027 1874,1027 1875,1028 1876,1029 1877,1030 1878,1030 1879,1031 1880,1032 1881,1033 1882,1033 1883,1034 1884,1035 1885,1035 1886,1036 1887,1037 1888,1038 1889,1038 1890,1039 1891,1040 1892,1041 1893,1041 1894,1042 1895,1043 1896,1043 1897,1044 1898,1045 1899,1046 1900,1046 1901,1047 1902,1048 1903,1049 1904,1049 1905,1050 1906,1051 1907,1051 1908,1052 1909,1053 1910,1053 1911,1054 1912,1055 1913,1056 1914,1056 1915,1057 1916,1058 1917,1058 1918,1059 1919,1060 1920,1060 1921,1061 1922,1062 1923,1063 1924,1063 1925,1064 1926,1065 1927,1065 1928,1066 1929,1067 1930,1067 1931,1068 1932,1069 1933,1069 1934,1070 1935,1071 1936,1071 1937,1072 1938,1073 1939,1073 1940,1074 1941,1075 1942,1075 1943,1076 1944,1077 1945,1077 1946,1078 1947,1079 1948,1079 1949,1080 1950,1081 1951,1081 1952,1082 1953,1083 1954,1083 1955,1084 1956,1084 1957,1085 1958,1086 1959,1086 1960,1087 1961,1088 1962,1088 1963,1089 1964,1090 1965,1090 1966,1091 1967,1091 1968,1092 1969,1093 1970,1093 1971,1094 1972,1094 1973,1095 1974,1096 1975,1096 1976,1097 1977,1097 1978,1098 1979,1099 1980,1099 1981,1100 1982,1100 1983,1101 1984,1102 1985,1102 1986,1103 1987,1103 1988,1104 1989,1105 1990,1105 1991,1106 1992,1106 1993,1107 1994,1107 1995,1108 1996,1109 1997,1109 1998,1110 1999,1110 2000,1111 2001,1111 2002,1112 2003,1112 2004,1113 2005,1114 2006,1114 2007,1115 2008,1115 2009,1116 2010,1116 2011,1117 2012,1117 2013,1118 2014,1118 2015,1119 2016,1119 2017,1120 2018,1121 2019,1121 2020,1122 2021,1122 2022,1123 2023,1123 2024,1124 2025,1124 2026,1125 2027,1125 2028,1126 2029,1126 2030,1127 2031,1127 2032,1128 2033,1128 2034,1129 2035,1129 2036,1130 2037,1130 2038,1130 2039,1131 2040,1131 2041,1132 2042,1132 2043,1133 2044,1133 2045,1134 2046,1134 2047,1135 2048,1135 2049,1136 2050,1136 2051,1136 2052,1137 2053,1137 2054,1138 2055,1138 2056,1139 2057,1139 2058,1139 2059,1140 2060,1140 2061,1141 2062,1141 2063,1142 2064,1142 2065,1142 2066,1143 2067,1143 2068,1144 2069,1144 2070,1144 2071,1145 2072,1145 2073,1146 2074,1146 2075,1146 2076,1147 2077,1147 2078,1147 2079,1148 2080,1148 2081,1149 2082,1149 2083,1149 2084,1150 2085,1150 2086,1150 2087,1151 2088,1151 2089,1151 2090,1152 2091,1152 2092,1152 2093,1153 2094,1153 2095,1153 2096,1154 2097,1154 2098,1154 2099,1155 2100,1155 2101,1155 2102,1156 2103,1156 2104,1156 2105,1157 2106,1157 2107,1157 2108,1158 2109,1158 2110,1158 2111,1159 2112,1159 2113,1159 2114,1159 2115,1160 2116,1160 2117,1160 2118,1161 2119,1161 2120,1161 2121,1161 2122,1162 2123,1162 2124,1162 2125,1162 2126,1163 2127,1163 2128,1163 2129,1164 2130,1164 2131,1164 2132,1164 2133,1165 2134,1165 2135,1165 2136,1165 2137,1166 2138,1166 2139,1166 2140,1166 2141,1167 2142,1167 2143,1167 2144,1167 2145,1167 2146,1168 2147,1168 2148,1168 2149,1168 2150,1169 2151,1169 2152,1169 2153,1169 2154,1170 2155,1170 2156,1170 2157,1170 2158,1170 2159,1171 2160,1171 2161,1171 2162,1171 2163,1171 2164,1172 2165,1172 2166,1172 2167,1172 2168,1172 2169,1173 2170,1173 2171,1173 2172,1173 2173,1173 2174,1174 2175,1174 2176,1174 2177,1174 2178,1174 2179,1174 2180,1175 2181,1175 2182,1175 2183,1175 2184,1175 2185,1176 2186,1176 2187,1176 2188,1176 2189,1176 2190,1176 2191,1177 2192,1177 2193,1177 2194,1177 2195,1177 2196,1177 2197,1178 2198,1178 2199,1178 2200,1178 2201,1178 2202,1178 2203,1178 2204,1179 2205,1179 2206,1179 2207,1179 2208,1179 2209,1179 2210,1180 2211,1180 2212,1180 2213,1180 2214,1180 2215,1180 2216,1180 2217,1181 2218,1181 2219,1181 2220,1181 2221,1181 2222,1181 2223,1181 2224,1182 2225,1182 2226,1182 2227,1182 2228,1182 2229,1182 2230,1182 2231,1182 2232,1183 2233,1183 2234,1183 2235,1183 2236,1183 2237,1183 2238,1183 2239,1183 2240,1184 2241,1184 2242,1184 2243,1184 2244,1184 2245,1184 2246,1184 2247,1184 2248,1185 2249,1185 2250,1185 2251,1185 2252,1185 2253,1185 2254,1185 2255,1185 2256,1185 2257,1186 2258,1186 2259,1186 2260,1186 2261,1186 2262,1186 2263,1186 2264,1186 2265,1187 2266,1187 2267,1187 2268,1187 2269,1187 2270,1187 2271,1187 2272,1187 2273,1187 2274,1188 2275,1188 2276,1188 2277,1188 2278,1188 2279,1188 2280,1188 2281,1188 2282,1188 2283,1189 2284,1189 2285,1189 2286,1189 2287,1189 " />
    <text x="18" y="1208" font-family="Tahoma" font-size="11" fill="#000000">(0,0.0000000499)</text>
    <text x="236" y="1208" font-family="Tahoma" font-size="11" fill="#000000">(1,0.0000094858)</text>
    <text x="454" y="1208" font-family="Tahoma" font-size="11" fill="#000000">(2,0.0003841735)</text>
    <text x="671" y="1202" font-family="Tahoma" font-size="11" fill="#000000">(3,0.0058052892)</text>
    <text x="889" y="1164" font-family="Tahoma" font-size="11" fill="#000000">(4,0.0406370241)</text>
    <text x="1107" y="1050" font-family="Tahoma" font-size="11" fill="#000000">(5,0.1462932869)</text>
    <text x="1325" y="900" font-family="Tahoma" font-size="11" fill="#000000">(6,0.2844591690)</text>
    <text x="1543" y="881" font-family="Tahoma" font-size="11" fill="#000000">(7,0.3018750365)</text>
    <text x="1760" y="1024" font-family="Tahoma" font-size="11" fill="#000000">(8,0.1698047080)</text>
    <text x="1978" y="1158" font-family="Tahoma" font-size="11" fill="#000000">(9,0.0461197972)</text>
    <text x="2190" y="1203" font-family="Tahoma" font-size="11" fill="#000000">(10,0.0046119797)</text>
    <circle stroke="#000000" stroke-width="1" stroke-linecap="round" stroke-linejoin="round" fill="#000000" cx="109" cy="1194" r="3" />
    <circle stroke="#000000" stroke-width="1" stroke-linecap="round" stroke-linejoin="round" fill="#000000" cx="327" cy="1194" r="3" />
    <circle stroke="#000000" stroke-width="1" stroke-linecap="round" stroke-linejoin="round" fill="#000000" cx="545" cy="1194" r="3" />
    <circle stroke="#000000" stroke-width="1" stroke-linecap="round" stroke-linejoin="round" fill="#000000" cx="762" cy="1188" r="3" />
    <circle stroke="#000000" stroke-width="1" stroke-linecap="round" stroke-linejoin="round" fill="#000000" cx="980" cy="1150" r="3" />
    <circle stroke="#000000" stroke-width="1" stroke-linecap="round" stroke-linejoin="round" fill="#000000" cx="1198" cy="1036" r="3" />
    <circle stroke="#000000" stroke-width="1" stroke-linecap="round" stroke-linejoin="round" fill="#000000" cx="1416" cy="886" r="3" />
    <circle stroke="#000000" stroke-width="1" stroke-linecap="round" stroke-linejoin="round" fill="#000000" cx="1634" cy="867" r="3" />
    <circle stroke="#000000" stroke-width="1" stroke-linecap="round" stroke-linejoin="round" fill="#000000" cx="1851" cy="1010" r="3" />
    <circle stroke="#000000" stroke-width="1" stroke-linecap="round" stroke-linejoin="round" fill="#000000" cx="2069" cy="1144" r="3" />
    <circle stroke="#000000" stroke-width="1" stroke-linecap="round" stroke-linejoin="round" fill="#000000" cx="2287" cy="1189" r="3" />
  </g>
</svg>
