<?xml version="1.0" encoding="UTF-8"?>
<!DOCTYPE svg PUBLIC "-//W3C//DTD SVG 1.1//EN" "http://www.w3.org/Graphics/SVG/1.1/DTD/svg11.dtd">
<svg width="2396px" height="1303px" viewBox="0 0 2396 1303" version="1.1" xmlns="http://www.w3.org/2000/svg" xmlns:xlink="http://www.w3.org/1999/xlink">
  <g>
    <text x="136" y="1207" font-family="Times New Roman" font-size="21" fill="#000000">5</text>
    <text x="247" y="1207" font-family="Times New Roman" font-size="21" fill="#000000">10</text>
    <text x="365" y="1207" font-family="Times New Roman" font-size="21" fill="#000000">15</text>
    <text x="482" y="1207" font-family="Times New Roman" font-size="21" fill="#000000">20</text>
    <text x="600" y="1207" font-family="Times New Roman" font-size="21" fill="#000000">25</text>
    <text x="717" y="1207" font-family="Times New Roman" font-size="21" fill="#000000">30</text>
    <text x="835" y="1207" font-family="Times New Roman" font-size="21" fill="#000000">35</text>
    <text x="952" y="1207" font-family="Times New Roman" font-size="21" fill="#000000">40</text>
    <text x="1070" y="1207" font-family="Times New Roman" font-size="21" fill="#000000">45</text>
    <text x="1187" y="1207" font-family="Times New Roman" font-size="21" fill="#000000">50</text>
    <text x="1304" y="1207" font-family="Times New Roman" font-size="21" fill="#000000">55</text>
    <text x="1422" y="1207" font-family="Times New Roman" font-size="21" fill="#000000">60</text>
    <text x="1539" y="1207" font-family="Times New Roman" font-size="21" fill="#000000">65</text>
    <text x="1657" y="1207" font-family="Times New Roman" font-size="21" fill="#000000">70</text>
    <text x="1774" y="1207" font-family="Times New Roman" font-size="21" fill="#000000">75</text>
    <text x="1892" y="1207" font-family="Times New Roman" font-size="21" fill="#000000">80</text>
    <text x="2009" y="1207" font-family="Times New Roman" font-size="21" fill="#000000">85</text>
    <text x="2127" y="1207" font-family="Times New Roman" font-size="21" fill="#000000">90</text>
    <text x="2244" y="1207" font-family="Times New Roman" font-size="21" fill="#000000">95</text>
    <text x="2357" y="1207" font-family="Times New Roman" font-size="21" fill="#000000">100</text>
    <text x="-11" y="1073" font-family="Times New Roman" font-size="21" fill="#000000">0.1</text>
    <text x="-11" y="955" font-family="Times New Roman" font-size="21" fill="#000000">0.2</text>
    <text x="-11" y="836" font-family="Times New Roman" font-size="21" fill="#000000">0.3</text>
    <text x="-11" y="718" font-family="Times New Roman" font-size="21" fill="#000000">0.4</text>
    <text x="-11" y="599" font-family="Times New Roman" font-size="21" fill="#000000">0.5</text>
    <text x="-11" y="481" font-family="Times New Roman" font-size="21" fill="#000000">0.6</text>
    <text x="-11" y="362" font-family="Times New Roman" font-size="21" fill="#000000">0.7</text>
    <text x="-11" y="244" font-family="Times New Roman" font-size="21" fill="#000000">0.8</text>
    <text x="-11" y="125" font-family="Times New Roman" font-size="21" fill="#000000">0.9</text>
    <text x="2382" y="1173" font-family="Times New Roman" font-size="21" font-weight="700" fill="#000000">k</text>
    <text x="35" y="15" font-family="Times New Roman" font-size="21" font-weight="700" fill="#000000">P(k)</text>
    <line stroke="#0000ff" stroke-width="2" stroke-linecap="butt" stroke-linejoin="bevel" x1="0" y1="1185" x2="2391" y2="1185" />
    <polygon stroke="#0000ff" stroke-width="1" stroke-linecap="round" stroke-linejoin="round" fill="#0000ff" points="2389.5,1178.5 2395.5,1184.5 2395.5,1185.5 2389.5,1191.5 " />
    <line stroke="#0000ff" stroke-width="1" stroke-linecap="round" stroke-linejoin="round" x1="141.5" y1="1190.5" x2="141.5" y2="1179.5" />
    <line stroke="#0000ff" stroke-width="1" stroke-linecap="round" stroke-linejoin="round" x1="258.5" y1="1190.5" x2="258.5" y2="1179.5" />
    <line stroke="#0000ff" stroke-width="1" stroke-linecap="round" stroke-linejoin="round" x1="376.5" y1="1190.5" x2="376.5" y2="1179.5" />
    <line stroke="#0000ff" stroke-width="1" stroke-linecap="round" stroke-linejoin="round" x1="493.5" y1="1190.5" x2="493.5" y2="1179.5" />
    <line stroke="#0000ff" stroke-width="1" stroke-linecap="round" stroke-linejoin="round" x1="611.5" y1="1190.5" x2="611.5" y2="1179.5" />
    <line stroke="#0000ff" stroke-width="1" stroke-linecap="round" stroke-linejoin="round" x1="728.5" y1="1190.5" x2="728.5" y2="1179.5" />
    <line stroke="#0000ff" stroke-width="1" stroke-linecap="round" stroke-linejoin="round" x1="846.5" y1="1190.5" x2="846.5" y2="1179.5" />
    <line stroke="#0000ff" stroke-width="1" stroke-linecap="round" stroke-linejoin="round" x1="963.5" y1="1190.5" x2="963.5" y2="1179.5" />
    <line stroke="#0000ff" stroke-width="1" stroke-linecap="round" stroke-linejoin="round" x1="1081.5" y1="1190.5" x2="1081.5" y2="1179.5" />
    <line stroke="#0000ff" stroke-width="1" stroke-linecap="round" stroke-linejoin="round" x1="1198.5" y1="1190.5" x2="1198.5" y2="1179.5" />
    <line stroke="#0000ff" stroke-width="1" stroke-linecap="round" stroke-linejoin="round" x1="1315.5" y1="1190.5" x2="1315.5" y2="1179.5" />
    <line stroke="#0000ff" stroke-width="1" stroke-linecap="round" stroke-linejoin="round" x1="1433.5" y1="1190.5" x2="1433.5" y2="1179.5" />
    <line stroke="#0000ff" stroke-width="1" stroke-linecap="round" stroke-linejoin="round" x1="1550.5" y1="1190.5" x2="1550.5" y2="1179.5" />
    <line stroke="#0000ff" stroke-width="1" stroke-linecap="round" stroke-linejoin="round" x1="1668.5" y1="1190.5" x2="1668.5" y2="1179.5" />
    <line stroke="#0000ff" stroke-width="1" stroke-linecap="round" stroke-linejoin="round" x1="1785.5" y1="1190.5" x2="1785.5" y2="1179.5" />
    <line stroke="#0000ff" stroke-width="1" stroke-linecap="round" stroke-linejoin="round" x1="1903.5" y1="1190.5" x2="1903.5" y2="1179.5" />
    <line stroke="#0000ff" stroke-width="1" stroke-linecap="round" stroke-linejoin="round" x1="2020.5" y1="1190.5" x2="2020.5" y2="1179.5" />
    <line stroke="#0000ff" stroke-width="1" stroke-linecap="round" stroke-linejoin="round" x1="2138.5" y1="1190.5" x2="2138.5" y2="1179.5" />
    <line stroke="#0000ff" stroke-width="1" stroke-linecap="round" stroke-linejoin="round" x1="2255.5" y1="1190.5" x2="2255.5" y2="1179.5" />
    <line stroke="#0000ff" stroke-width="1" stroke-linecap="round" stroke-linejoin="round" x1="2373.5" y1="1190.5" x2="2373.5" y2="1179.5" />
    <line stroke="#0000ff" stroke-width="2" stroke-linecap="butt" stroke-linejoin="bevel" x1="23" y1="3" x2="23" y2="1302" />
    <polygon stroke="#0000ff" stroke-width="1" stroke-linecap="round" stroke-linejoin="round" fill="#0000ff" points="16.5,6.5 22.5,0.5 23.5,0.5 29.5,6.5 " />
    <line stroke="#0000ff" stroke-width="1" stroke-linecap="round" stroke-linejoin="round" x1="17.5" y1="1066.5" x2="28.5" y2="1066.5" />
    <line stroke="#0000ff" stroke-width="1" stroke-linecap="round" stroke-linejoin="round" x1="17.5" y1="948.5" x2="28.5" y2="948.5" />
    <line stroke="#0000ff" stroke-width="1" stroke-linecap="round" stroke-linejoin="round" x1="17.5" y1="829.5" x2="28.5" y2="829.5" />
    <line stroke="#0000ff" stroke-width="1" stroke-linecap="round" stroke-linejoin="round" x1="17.5" y1="711.5" x2="28.5" y2="711.5" />
    <line stroke="#0000ff" stroke-width="1" stroke-linecap="round" stroke-linejoin="round" x1="17.5" y1="592.5" x2="28.5" y2="592.5" />
    <line stroke="#0000ff" stroke-width="1" stroke-linecap="round" stroke-linejoin="round" x1="17.5" y1="474.5" x2="28.5" y2="474.5" />
    <line stroke="#0000ff" stroke-width="1" stroke-linecap="round" stroke-linejoin="round" x1="17.5" y1="355.5" x2="28.5" y2="355.5" />
    <line stroke="#0000ff" stroke-width="1" stroke-linecap="round" stroke-linejoin="round" x1="17.5" y1="237.5" x2="28.5" y2="237.5" />
    <line stroke="#0000ff" stroke-width="1" stroke-linecap="round" stroke-linejoin="round" x1="17.5" y1="118.5" x2="28.5" y2="118.5" />
    <polyline stroke="#000000" stroke-width="1" stroke-linecap="round" stroke-linejoin="round" fill="none" points="329,1185 330,1185 331,1185 332,1185 333,1185 334,1185 335,1185 336,1185 337,1185 338,1185 339,1185 340,1185 341,1185 342,1185 343,1185 344,1185 345,1185 346,1185 347,1185 348,1185 349,1185 350,1185 351,1185 352,1185 353,1186 354,1186 355,1186 356,1186 357,1186 358,1186 359,1186 360,1186 361,1186 362,1186 363,1186 364,1186 365,1186 366,1186 367,1186 368,1186 369,1186 370,1186 371,1186 372,1186 373,1186 374,1186 375,1186 376,1186 377,1186 378,1186 379,1186 380,1186 381,1186 382,1186 383,1186 384,1186 385,1186 386,1186 387,1186 388,1186 389,1186 390,1186 391,1186 392,1186 393,1186 394,1186 395,1186 396,1186 397,1186 398,1186 399,1186 400,1186 401,1186 402,1186 403,1186 404,1186 405,1186 406,1186 407,1186 408,1186 409,1186 410,1186 411,1186 412,1186 413,1186 414,1186 415,1186 416,1186 417,1186 418,1186 419,1186 420,1186 421,1186 422,1186 423,1186 424,1186 425,1186 426,1186 427,1186 428,1186 429,1186 430,1186 431,1186 432,1186 433,1186 434,1186 435,1186 436,1186 437,1186 438,1186 439,1186 440,1186 441,1186 442,1186 443,1186 444,1186 445,1186 446,1186 447,1186 448,1186 449,1186 450,1186 451,1186 452,1186 453,1186 454,1186 455,1186 456,1186 457,1186 458,1186 459,1186 460,1186 461,1186 462,1186 463,1186 464,1186 465,1186 466,1186 467,1186 468,1186 469,1185 470,1185 471,1185 472,1185 473,1185 474,1185 475,1185 476,1185 477,1185 478,1185 479,1185 480,1185 481,1185 482,1185 483,1185 484,1185 485,1185 486,1185 487,1185 488,1185 489,1185 490,1185 491,1185 492,1184 493,1184 494,1184 495,1184 496,1184 497,1184 498,1184 499,1184 500,1184 501,1184 502,1184 503,1184 504,1184 505,1184 506,1184 507,1184 508,1184 509,1183 510,1183 511,1183 512,1183 513,1183 514,1183 515,1183 516,1183 517,1183 518,1183 519,1183 520,1183 521,1183 522,1182 523,1182 524,1182 525,1182 526,1182 527,1182 528,1182 529,1182 530,1182 531,1182 532,1182 533,1181 534,1181 535,1181 536,1181 537,1181 538,1181 539,1181 540,1181 541,1181 542,1181 543,1180 544,1180 545,1180 546,1180 547,1180 548,1180 549,1180 550,1180 551,1180 552,1179 553,1179 554,1179 555,1179 556,1179 557,1179 558,1179 559,1179 560,1178 561,1178 562,1178 563,1178 564,1178 565,1178 566,1178 567,1177 568,1177 569,1177 570,1177 571,1177 572,1177 573,1177 574,1176 575,1176 576,1176 577,1176 578,1176 579,1176 580,1176 581,1175 582,1175 583,1175 584,1175 585,1175 586,1175 587,1174 588,1174 589,1174 590,1174 591,1174 592,1174 593,1173 594,1173 595,1173 596,1173 597,1173 598,1173 599,1172 600,1172 601,1172 602,1172 603,1172 604,1171 605,1171 606,1171 607,1171 608,1171 609,1170 610,1170 611,1170 612,1170 613,1170 614,1169 615,1169 616,1169 617,1169 618,1169 619,1168 620,1168 621,1168 622,1168 623,1167 624,1167 625,1167 626,1167 627,1167 628,1166 629,1166 630,1166 631,1166 632,1165 633,1165 634,1165 635,1165 636,1164 637,1164 638,1164 639,1164 640,1163 641,1163 642,1163 643,1163 644,1163 645,1162 646,1162 647,1162 648,1162 649,1161 650,1161 651,1161 652,1161 653,1160 654,1160 655,1160 656,1159 657,1159 658,1159 659,1159 660,1158 661,1158 662,1158 663,1158 664,1157 665,1157 666,1157 667,1157 668,1156 669,1156 670,1156 671,1156 672,1155 673,1155 674,1155 675,1154 676,1154 677,1154 678,1154 679,1153 680,1153 681,1153 682,1152 683,1152 684,1152 685,1152 686,1151 687,1151 688,1151 689,1151 690,1150 691,1150 692,1150 693,1149 694,1149 695,1149 696,1149 697,1148 698,1148 699,1148 700,1147 701,1147 702,1147 703,1147 704,1146 705,1146 706,1146 707,1145 708,1145 709,1145 710,1145 711,1144 712,1144 713,1144 714,1144 715,1143 716,1143 717,1143 718,1142 719,1142 720,1142 721,1142 722,1141 723,1141 724,1141 725,1140 726,1140 727,1140 728,1140 729,1139 730,1139 731,1139 732,1138 733,1138 734,1138 735,1138 736,1137 737,1137 738,1137 739,1137 740,1136 741,1136 742,1136 743,1135 744,1135 745,1135 746,1135 747,1134 748,1134 749,1134 750,1134 751,1133 752,1133 753,1133 754,1132 755,1132 756,1132 757,1132 758,1131 759,1131 760,1131 761,1131 762,1130 763,1130 764,1130 765,1130 766,1129 767,1129 768,1129 769,1129 770,1128 771,1128 772,1128 773,1128 774,1127 775,1127 776,1127 777,1127 778,1126 779,1126 780,1126 781,1126 782,1125 783,1125 784,1125 785,1125 786,1124 787,1124 788,1124 789,1124 790,1123 791,1123 792,1123 793,1123 794,1123 795,1122 796,1122 797,1122 798,1122 799,1121 800,1121 801,1121 802,1121 803,1121 804,1120 805,1120 806,1120 807,1120 808,1119 809,1119 810,1119 811,1119 812,1119 813,1118 814,1118 815,1118 816,1118 817,1118 818,1118 819,1117 820,1117 821,1117 822,1117 823,1117 824,1116 825,1116 826,1116 827,1116 828,1116 829,1116 830,1115 831,1115 832,1115 833,1115 834,1115 835,1115 836,1114 837,1114 838,1114 839,1114 840,1114 841,1114 842,1114 843,1113 844,1113 845,1113 846,1113 847,1113 848,1113 849,1113 850,1112 851,1112 852,1112 853,1112 854,1112 855,1112 856,1112 857,1112 858,1112 859,1111 860,1111 861,1111 862,1111 863,1111 864,1111 865,1111 866,1111 867,1111 868,1111 869,1111 870,1110 871,1110 872,1110 873,1110 874,1110 875,1110 876,1110 877,1110 878,1110 879,1110 880,1110 881,1110 882,1110 883,1110 884,1110 885,1110 886,1110 887,1110 888,1110 889,1110 890,1110 891,1109 892,1109 893,1109 894,1109 895,1109 896,1109 897,1109 898,1109 899,1109 900,1109 901,1109 902,1109 903,1109 904,1110 905,1110 906,1110 907,1110 908,1110 909,1110 910,1110 911,1110 912,1110 913,1110 914,1110 915,1110 916,1110 917,1110 918,1110 919,1110 920,1110 921,1110 922,1110 923,1111 924,1111 925,1111 926,1111 927,1111 928,1111 929,1111 930,1111 931,1111 932,1111 933,1111 934,1112 935,1112 936,1112 937,1112 938,1112 939,1112 940,1112 941,1112 942,1113 943,1113 944,1113 945,1113 946,1113 947,1113 948,1114 949,1114 950,1114 951,1114 952,1114 953,1114 954,1115 955,1115 956,1115 957,1115 958,1115 959,1115 960,1116 961,1116 962,1116 963,1116 964,1116 965,1117 966,1117 967,1117 968,1117 969,1117 970,1118 971,1118 972,1118 973,1118 974,1118 975,1119 976,1119 977,1119 978,1119 979,1120 980,1120 981,1120 982,1120 983,1121 984,1121 985,1121 986,1121 987,1121 988,1122 989,1122 990,1122 991,1122 992,1123 993,1123 994,1123 995,1123 996,1124 997,1124 998,1124 999,1125 1000,1125 1001,1125 1002,1125 1003,1126 1004,1126 1005,1126 1006,1126 1007,1127 1008,1127 1009,1127 1010,1128 1011,1128 1012,1128 1013,1128 1014,1129 1015,1129 1016,1129 1017,1130 1018,1130 1019,1130 1020,1130 1021,1131 1022,1131 1023,1131 1024,1132 1025,1132 1026,1132 1027,1133 1028,1133 1029,1133 1030,1134 1031,1134 1032,1134 1033,1134 1034,1135 1035,1135 1036,1135 1037,1136 1038,1136 1039,1136 1040,1137 1041,1137 1042,1137 1043,1138 1044,1138 1045,1138 1046,1139 1047,1139 1048,1139 1049,1140 1050,1140 1051,1140 1052,1141 1053,1141 1054,1141 1055,1142 1056,1142 1057,1142 1058,1142 1059,1143 1060,1143 1061,1143 1062,1144 1063,1144 1064,1144 1065,1145 1066,1145 1067,1145 1068,1146 1069,1146 1070,1146 1071,1147 1072,1147 1073,1147 1074,1148 1075,1148 1076,1148 1077,1149 1078,1149 1079,1149 1080,1150 1081,1150 1082,1150 1083,1151 1084,1151 1085,1152 1086,1152 1087,1152 1088,1153 1089,1153 1090,1153 1091,1154 1092,1154 1093,1154 1094,1155 1095,1155 1096,1155 1097,1156 1098,1156 1099,1156 1100,1157 1101,1157 1102,1157 1103,1157 1104,1158 1105,1158 1106,1158 1107,1159 1108,1159 1109,1159 1110,1160 1111,1160 1112,1160 1113,1161 1114,1161 1115,1161 1116,1162 1117,1162 1118,1162 1119,1163 1120,1163 1121,1163 1122,1164 1123,1164 1124,1164 1125,1165 1126,1165 1127,1165 1128,1166 1129,1166 1130,1166 1131,1166 1132,1167 1133,1167 1134,1167 1135,1168 1136,1168 1137,1168 1138,1169 1139,1169 1140,1169 1141,1170 1142,1170 1143,1170 1144,1170 1145,1171 1146,1171 1147,1171 1148,1172 1149,1172 1150,1172 1151,1172 1152,1173 1153,1173 1154,1173 1155,1174 1156,1174 1157,1174 1158,1174 1159,1175 1160,1175 1161,1175 1162,1176 1163,1176 1164,1176 1165,1176 1166,1177 1167,1177 1168,1177 1169,1177 1170,1178 1171,1178 1172,1178 1173,1178 1174,1179 1175,1179 1176,1179 1177,1179 1178,1180 1179,1180 1180,1180 1181,1180 1182,1181 1183,1181 1184,1181 1185,1181 1186,1181 1187,1182 1188,1182 1189,1182 1190,1182 1191,1183 1192,1183 1193,1183 1194,1183 1195,1183 1196,1184 1197,1184 1198,1184 1199,1184 1200,1184 1201,1185 1202,1185 1203,1185 1204,1185 1205,1185 1206,1186 1207,1186 1208,1186 1209,1186 1210,1186 1211,1186 1212,1187 1213,1187 1214,1187 1215,1187 1216,1187 1217,1187 1218,1187 1219,1188 1220,1188 1221,1188 1222,1188 1223,1188 1224,1188 1225,1189 1226,1189 1227,1189 1228,1189 1229,1189 1230,1189 1231,1189 1232,1189 1233,1190 1234,1190 1235,1190 1236,1190 1237,1190 1238,1190 1239,1190 1240,1190 1241,1190 1242,1191 1243,1191 1244,1191 1245,1191 1246,1191 1247,1191 1248,1191 1249,1191 1250,1191 1251,1191 1252,1192 1253,1192 1254,1192 1255,1192 1256,1192 1257,1192 1258,1192 1259,1192 1260,1192 1261,1192 1262,1192 1263,1192 1264,1192 1265,1192 1266,1193 1267,1193 1268,1193 1269,1193 1270,1193 1271,1193 1272,1193 1273,1193 1274,1193 1275,1193 1276,1193 1277,1193 1278,1193 1279,1193 1280,1193 1281,1193 1282,1193 1283,1193 1284,1193 1285,1193 1286,1193 1287,1193 1288,1193 1289,1194 1290,1194 1291,1194 1292,1194 1293,1194 1294,1194 1295,1194 1296,1194 1297,1194 1298,1194 1299,1194 1300,1194 1301,1194 1302,1194 1303,1194 1304,1194 1305,1194 1306,1194 1307,1194 1308,1194 1309,1194 1310,1194 1311,1194 1312,1194 1313,1194 1314,1194 1315,1194 1316,1194 1317,1194 1318,1194 1319,1194 1320,1194 1321,1194 1322,1194 1323,1194 1324,1194 1325,1194 1326,1194 1327,1194 1328,1194 1329,1194 1330,1194 1331,1194 1332,1193 1333,1193 1334,1193 1335,1193 1336,1193 1337,1193 1338,1193 1339,1193 1340,1193 1341,1193 1342,1193 1343,1193 1344,1193 1345,1193 1346,1193 1347,1193 1348,1193 1349,1193 1350,1193 1351,1193 1352,1193 1353,1193 1354,1193 1355,1193 1356,1193 1357,1193 1358,1193 1359,1193 1360,1192 1361,1192 1362,1192 1363,1192 1364,1192 1365,1192 1366,1192 1367,1192 1368,1192 1369,1192 1370,1192 1371,1192 1372,1192 1373,1192 1374,1192 1375,1192 1376,1192 1377,1192 1378,1192 1379,1191 1380,1191 1381,1191 1382,1191 1383,1191 1384,1191 1385,1191 1386,1191 1387,1191 1388,1191 1389,1191 1390,1191 1391,1191 1392,1191 1393,1191 1394,1191 1395,1190 1396,1190 1397,1190 1398,1190 1399,1190 1400,1190 1401,1190 1402,1190 1403,1190 1404,1190 1405,1190 1406,1190 1407,1190 1408,1190 1409,1190 1410,1189 1411,1189 1412,1189 1413,1189 1414,1189 1415,1189 1416,1189 1417,1189 1418,1189 1419,1189 1420,1189 1421,1189 1422,1189 1423,1189 1424,1189 1425,1188 1426,1188 1427,1188 1428,1188 1429,1188 1430,1188 1431,1188 1432,1188 1433,1188 1434,1188 1435,1188 1436,1188 1437,1188 1438,1188 1439,1188 1440,1187 1441,1187 1442,1187 1443,1187 1444,1187 1445,1187 1446,1187 1447,1187 1448,1187 1449,1187 1450,1187 1451,1187 1452,1187 1453,1187 1454,1187 1455,1186 1456,1186 1457,1186 1458,1186 1459,1186 1460,1186 1461,1186 1462,1186 1463,1186 1464,1186 1465,1186 1466,1186 1467,1186 1468,1186 1469,1186 1470,1186 1471,1185 1472,1185 1473,1185 1474,1185 1475,1185 1476,1185 1477,1185 1478,1185 1479,1185 1480,1185 1481,1185 1482,1185 1483,1185 1484,1185 1485,1185 1486,1185 1487,1185 1488,1185 1489,1185 1490,1185 1491,1184 1492,1184 1493,1184 1494,1184 1495,1184 1496,1184 1497,1184 1498,1184 1499,1184 1500,1184 1501,1184 1502,1184 1503,1184 1504,1184 1505,1184 1506,1184 1507,1184 1508,1184 1509,1184 1510,1184 1511,1184 1512,1184 1513,1184 1514,1184 1515,1184 1516,1183 1517,1183 1518,1183 1519,1183 1520,1183 1521,1183 1522,1183 1523,1183 1524,1183 1525,1183 1526,1183 1527,1183 1528,1183 1529,1183 1530,1183 1531,1183 1532,1183 1533,1183 1534,1183 1535,1183 1536,1183 1537,1183 1538,1183 1539,1183 1540,1183 1541,1183 1542,1183 1543,1183 1544,1183 1545,1183 1546,1183 1547,1183 1548,1183 1549,1183 1550,1183 1551,1183 1552,1183 1553,1183 1554,1183 1555,1183 1556,1183 1557,1183 1558,1183 1559,1183 1560,1183 1561,1182 1562,1182 1563,1182 1564,1182 1565,1182 1566,1182 1567,1182 1568,1182 1569,1182 1570,1182 1571,1182 1572,1182 1573,1182 1574,1182 1575,1182 1576,1182 1577,1182 1578,1182 1579,1182 1580,1182 1581,1182 1582,1182 1583,1182 1584,1182 1585,1182 1586,1182 1587,1182 1588,1182 1589,1182 1590,1182 1591,1182 1592,1182 1593,1182 1594,1182 1595,1182 1596,1182 1597,1182 1598,1182 1599,1182 1600,1182 1601,1182 1602,1182 1603,1182 1604,1182 1605,1182 1606,1182 1607,1182 1608,1182 1609,1182 1610,1182 1611,1182 1612,1182 1613,1182 1614,1182 1615,1182 1616,1182 1617,1182 1618,1182 1619,1182 1620,1182 1621,1182 1622,1182 1623,1182 1624,1182 1625,1182 1626,1182 1627,1182 1628,1182 1629,1182 1630,1182 1631,1182 1632,1182 1633,1182 1634,1182 1635,1182 1636,1182 1637,1182 1638,1182 1639,1183 1640,1183 1641,1183 1642,1183 1643,1183 1644,1183 1645,1183 1646,1183 1647,1183 1648,1183 1649,1183 1650,1183 1651,1183 1652,1183 1653,1183 1654,1183 1655,1183 1656,1183 1657,1183 1658,1183 1659,1183 1660,1183 1661,1183 1662,1183 1663,1183 1664,1183 1665,1183 1666,1183 1667,1183 1668,1183 1669,1183 1670,1183 1671,1183 1672,1183 1673,1183 1674,1183 1675,1183 1676,1183 1677,1183 1678,1183 1679,1183 1680,1183 1681,1183 1682,1183 1683,1183 1684,1183 1685,1183 1686,1183 1687,1183 1688,1183 1689,1183 1690,1183 1691,1183 1692,1183 1693,1183 1694,1183 1695,1183 1696,1183 1697,1183 1698,1183 1699,1183 1700,1183 1701,1183 1702,1183 1703,1184 1704,1184 1705,1184 1706,1184 1707,1184 1708,1184 1709,1184 1710,1184 1711,1184 1712,1184 1713,1184 1714,1184 1715,1184 1716,1184 1717,1184 1718,1184 1719,1184 1720,1184 1721,1184 1722,1184 1723,1184 1724,1184 1725,1184 1726,1184 1727,1184 1728,1184 1729,1184 1730,1184 1731,1184 1732,1184 1733,1184 1734,1184 1735,1184 1736,1184 1737,1184 1738,1184 1739,1184 1740,1184 1741,1184 1742,1184 1743,1184 1744,1184 1745,1184 1746,1184 1747,1184 1748,1184 1749,1184 1750,1184 1751,1184 1752,1184 1753,1184 1754,1184 1755,1184 1756,1185 1757,1185 1758,1185 1759,1185 1760,1185 1761,1185 1762,1185 1763,1185 1764,1185 1765,1185 1766,1185 1767,1185 1768,1185 1769,1185 1770,1185 1771,1185 1772,1185 1773,1185 1774,1185 1775,1185 1776,1185 1777,1185 1778,1185 1779,1185 1780,1185 1781,1185 1782,1185 1783,1185 1784,1185 1785,1185 1786,1185 1787,1185 1788,1185 1789,1185 1790,1185 1791,1185 1792,1185 1793,1185 1794,1185 1795,1185 1796,1185 1797,1185 1798,1185 1799,1185 1800,1185 1801,1185 1802,1185 1803,1185 1804,1185 1805,1185 1806,1185 1807,1185 1808,1185 1809,1185 1810,1185 1811,1185 1812,1185 1813,1185 1814,1185 1815,1185 1816,1185 1817,1185 1818,1185 1819,1185 1820,1185 1821,1185 1822,1185 1823,1185 1824,1185 1825,1185 1826,1185 1827,1186 1828,1186 1829,1186 1830,1186 1831,1186 1832,1186 1833,1186 1834,1186 1835,1186 1836,1186 1837,1186 1838,1186 1839,1186 1840,1186 1841,1186 1842,1186 1843,1186 1844,1186 1845,1186 1846,1186 1847,1186 1848,1186 1849,1186 1850,1186 1851,1186 1852,1186 1853,1186 1854,1186 1855,1186 1856,1186 1857,1186 1858,1186 1859,1186 1860,1186 1861,1186 1862,1186 1863,1186 1864,1186 1865,1186 1866,1186 1867,1186 1868,1186 1869,1186 1870,1186 1871,1186 1872,1186 1873,1186 1874,1186 1875,1186 1876,1186 1877,1186 1878,1186 1879,1186 1880,1186 1881,1186 1882,1186 1883,1186 1884,1186 1885,1186 1886,1186 1887,1186 1888,1186 1889,1186 1890,1186 1891,1186 1892,1186 1893,1186 1894,1186 1895,1186 1896,1186 1897,1186 1898,1186 1899,1186 1900,1186 1901,1186 1902,1186 1903,1186 1904,1186 1905,1186 1906,1186 1907,1186 1908,1186 1909,1186 1910,1186 1911,1186 1912,1186 1913,1186 1914,1186 1915,1186 1916,1186 1917,1186 1918,1186 1919,1186 1920,1186 1921,1186 1922,1186 1923,1186 1924,1186 1925,1186 1926,1186 1927,1186 1928,1186 1929,1186 1930,1186 1931,1186 1932,1186 1933,1186 1934,1186 1935,1186 1936,1186 1937,1186 1938,1186 1939,1186 1940,1186 1941,1186 1942,1186 1943,1186 1944,1186 1945,1186 1946,1186 1947,1186 1948,1186 1949,1186 1950,1186 1951,1186 1952,1186 1953,1186 1954,1186 1955,1186 1956,1186 1957,1186 1958,1186 1959,1186 1960,1186 1961,1186 1962,1186 1963,1186 1964,1186 1965,1186 1966,1186 1967,1186 1968,1186 1969,1186 1970,1186 1971,1186 1972,1186 1973,1186 1974,1186 1975,1186 1976,1186 1977,1186 1978,1186 1979,1186 1980,1186 1981,1186 1982,1186 1983,1186 1984,1186 1985,1186 1986,1186 1987,1186 1988,1186 1989,1186 1990,1186 1991,1186 1992,1186 1993,1186 1994,1186 1995,1186 1996,1186 1997,1186 1998,1186 1999,1186 2000,1186 2001,1186 2002,1186 2003,1186 2004,1186 2005,1186 2006,1186 2007,1186 2008,1186 2009,1186 2010,1186 2011,1186 2012,1186 2013,1186 2014,1186 2015,1186 2016,1186 2017,1186 2018,1186 2019,1186 2020,1186 2021,1185 2022,1185 2023,1185 2024,1185 2025,1185 2026,1185 2027,1185 2028,1185 2029,1185 2030,1185 2031,1185 2032,1185 2033,1185 2034,1185 2035,1185 2036,1185 2037,1185 2038,1185 2039,1185 2040,1185 2041,1185 2042,1185 2043,1185 2044,1185 2045,1185 2046,1185 2047,1185 2048,1185 2049,1185 2050,1185 2051,1185 2052,1185 2053,1185 2054,1185 2055,1185 2056,1185 2057,1185 2058,1185 2059,1185 2060,1185 2061,1185 2062,1185 2063,1185 2064,1185 2065,1185 2066,1185 2067,1185 2068,1185 2069,1185 2070,1185 2071,1185 2072,1185 2073,1185 2074,1185 2075,1185 2076,1185 2077,1185 2078,1185 2079,1185 2080,1185 2081,1185 2082,1185 2083,1185 2084,1185 2085,1185 2086,1185 2087,1185 2088,1185 2089,1185 2090,1185 2091,1185 " />
    <circle stroke="#000000" stroke-width="1" stroke-linecap="round" stroke-linejoin="round" fill="#000000" cx="329" cy="1185" r="3" />
    <circle stroke="#000000" stroke-width="1" stroke-linecap="round" stroke-linejoin="round" fill="#000000" cx="611" cy="1170" r="3" />
    <circle stroke="#000000" stroke-width="1" stroke-linecap="round" stroke-linejoin="round" fill="#000000" cx="916" cy="1110" r="3" />
    <circle stroke="#000000" stroke-width="1" stroke-linecap="round" stroke-linejoin="round" fill="#000000" cx="1198" cy="1184" r="3" />
    <circle stroke="#000000" stroke-width="1" stroke-linecap="round" stroke-linejoin="round" fill="#000000" cx="1480" cy="1185" r="3" />
    <circle stroke="#000000" stroke-width="1" stroke-linecap="round" stroke-linejoin="round" fill="#000000" cx="1785" cy="1185" r="3" />
    <circle stroke="#000000" stroke-width="1" stroke-linecap="round" stroke-linejoin="round" fill="#000000" cx="2091" cy="1185" r="3" />
  </g>
</svg>
