<?xml version="1.0" encoding="UTF-8"?>
<!DOCTYPE svg PUBLIC "-//W3C//DTD SVG 1.1//EN" "http://www.w3.org/Graphics/SVG/1.1/DTD/svg11.dtd">
<svg width="2396px" height="1303px" viewBox="0 0 2396 1303" version="1.1" xmlns="http://www.w3.org/2000/svg" xmlns:xlink="http://www.w3.org/1999/xlink">
  <g>
    <text x="111" y="1207" font-family="Times New Roman" font-size="21" fill="#000000">25</text>
    <text x="166" y="1207" font-family="Times New Roman" font-size="21" fill="#000000">50</text>
    <text x="222" y="1207" font-family="Times New Roman" font-size="21" fill="#000000">75</text>
    <text x="272" y="1207" font-family="Times New Roman" font-size="21" fill="#000000">100</text>
    <text x="328" y="1207" font-family="Times New Roman" font-size="21" fill="#000000">125</text>
    <text x="383" y="1207" font-family="Times New Roman" font-size="21" fill="#000000">150</text>
    <text x="439" y="1207" font-family="Times New Roman" font-size="21" fill="#000000">175</text>
    <text x="494" y="1207" font-family="Times New Roman" font-size="21" fill="#000000">200</text>
    <text x="550" y="1207" font-family="Times New Roman" font-size="21" fill="#000000">225</text>
    <text x="605" y="1207" font-family="Times New Roman" font-size="21" fill="#000000">250</text>
    <text x="661" y="1207" font-family="Times New Roman" font-size="21" fill="#000000">275</text>
    <text x="716" y="1207" font-family="Times New Roman" font-size="21" fill="#000000">300</text>
    <text x="772" y="1207" font-family="Times New Roman" font-size="21" fill="#000000">325</text>
    <text x="827" y="1207" font-family="Times New Roman" font-size="21" fill="#000000">350</text>
    <text x="882" y="1207" font-family="Times New Roman" font-size="21" fill="#000000">375</text>
    <text x="938" y="1207" font-family="Times New Roman" font-size="21" fill="#000000">400</text>
    <text x="993" y="1207" font-family="Times New Roman" font-size="21" fill="#000000">425</text>
    <text x="1049" y="1207" font-family="Times New Roman" font-size="21" fill="#000000">450</text>
    <text x="1104" y="1207" font-family="Times New Roman" font-size="21" fill="#000000">475</text>
    <text x="1160" y="1207" font-family="Times New Roman" font-size="21" fill="#000000">500</text>
    <text x="1215" y="1207" font-family="Times New Roman" font-size="21" fill="#000000">525</text>
    <text x="1271" y="1207" font-family="Times New Roman" font-size="21" fill="#000000">550</text>
    <text x="1326" y="1207" font-family="Times New Roman" font-size="21" fill="#000000">575</text>
    <text x="1382" y="1207" font-family="Times New Roman" font-size="21" fill="#000000">600</text>
    <text x="1437" y="1207" font-family="Times New Roman" font-size="21" fill="#000000">625</text>
    <text x="1493" y="1207" font-family="Times New Roman" font-size="21" fill="#000000">650</text>
    <text x="1548" y="1207" font-family="Times New Roman" font-size="21" fill="#000000">675</text>
    <text x="1604" y="1207" font-family="Times New Roman" font-size="21" fill="#000000">700</text>
    <text x="1659" y="1207" font-family="Times New Roman" font-size="21" fill="#000000">725</text>
    <text x="1714" y="1207" font-family="Times New Roman" font-size="21" fill="#000000">750</text>
    <text x="1770" y="1207" font-family="Times New Roman" font-size="21" fill="#000000">775</text>
    <text x="1825" y="1207" font-family="Times New Roman" font-size="21" fill="#000000">800</text>
    <text x="1881" y="1207" font-family="Times New Roman" font-size="21" fill="#000000">825</text>
    <text x="1936" y="1207" font-family="Times New Roman" font-size="21" fill="#000000">850</text>
    <text x="1992" y="1207" font-family="Times New Roman" font-size="21" fill="#000000">875</text>
    <text x="2047" y="1207" font-family="Times New Roman" font-size="21" fill="#000000">900</text>
    <text x="2103" y="1207" font-family="Times New Roman" font-size="21" fill="#000000">925</text>
    <text x="2158" y="1207" font-family="Times New Roman" font-size="21" fill="#000000">950</text>
    <text x="2214" y="1207" font-family="Times New Roman" font-size="21" fill="#000000">975</text>
    <text x="2263" y="1207" font-family="Times New Roman" font-size="21" fill="#000000">1000</text>
    <text x="2319" y="1207" font-family="Times New Roman" font-size="21" fill="#000000">1025</text>
    <text x="33" y="1073" font-family="Times New Roman" font-size="21" fill="#000000">0.1</text>
    <text x="33" y="955" font-family="Times New Roman" font-size="21" fill="#000000">0.2</text>
    <text x="33" y="836" font-family="Times New Roman" font-size="21" fill="#000000">0.3</text>
    <text x="33" y="718" font-family="Times New Roman" font-size="21" fill="#000000">0.4</text>
    <text x="33" y="599" font-family="Times New Roman" font-size="21" fill="#000000">0.5</text>
    <text x="33" y="481" font-family="Times New Roman" font-size="21" fill="#000000">0.6</text>
    <text x="33" y="362" font-family="Times New Roman" font-size="21" fill="#000000">0.7</text>
    <text x="33" y="244" font-family="Times New Roman" font-size="21" fill="#000000">0.8</text>
    <text x="33" y="125" font-family="Times New Roman" font-size="21" fill="#000000">0.9</text>
    <text x="2382" y="1173" font-family="Times New Roman" font-size="21" font-weight="700" fill="#000000">k</text>
    <text x="79" y="15" font-family="Times New Roman" font-size="21" font-weight="700" fill="#000000">P(k)</text>
    <line stroke="#0000ff" stroke-width="2" stroke-linecap="butt" stroke-linejoin="bevel" x1="0" y1="1185" x2="2391" y2="1185" />
    <polygon stroke="#0000ff" stroke-width="1" stroke-linecap="round" stroke-linejoin="round" fill="#0000ff" points="2389.5,1178.5 2395.5,1184.5 2395.5,1185.5 2389.5,1191.5 " />
    <line stroke="#0000ff" stroke-width="1" stroke-linecap="round" stroke-linejoin="round" x1="11.5" y1="1190.5" x2="11.5" y2="1179.5" />
    <line stroke="#0000ff" stroke-width="1" stroke-linecap="round" stroke-linejoin="round" x1="122.5" y1="1190.5" x2="122.5" y2="1179.5" />
    <line stroke="#0000ff" stroke-width="1" stroke-linecap="round" stroke-linejoin="round" x1="177.5" y1="1190.5" x2="177.5" y2="1179.5" />
    <line stroke="#0000ff" stroke-width="1" stroke-linecap="round" stroke-linejoin="round" x1="233.5" y1="1190.5" x2="233.5" y2="1179.5" />
    <line stroke="#0000ff" stroke-width="1" stroke-linecap="round" stroke-linejoin="round" x1="288.5" y1="1190.5" x2="288.5" y2="1179.5" />
    <line stroke="#0000ff" stroke-width="1" stroke-linecap="round" stroke-linejoin="round" x1="344.5" y1="1190.5" x2="344.5" y2="1179.5" />
    <line stroke="#0000ff" stroke-width="1" stroke-linecap="round" stroke-linejoin="round" x1="399.5" y1="1190.5" x2="399.5" y2="1179.5" />
    <line stroke="#0000ff" stroke-width="1" stroke-linecap="round" stroke-linejoin="round" x1="455.5" y1="1190.5" x2="455.5" y2="1179.5" />
    <line stroke="#0000ff" stroke-width="1" stroke-linecap="round" stroke-linejoin="round" x1="510.5" y1="1190.5" x2="510.5" y2="1179.5" />
    <line stroke="#0000ff" stroke-width="1" stroke-linecap="round" stroke-linejoin="round" x1="566.5" y1="1190.5" x2="566.5" y2="1179.5" />
    <line stroke="#0000ff" stroke-width="1" stroke-linecap="round" stroke-linejoin="round" x1="621.5" y1="1190.5" x2="621.5" y2="1179.5" />
    <line stroke="#0000ff" stroke-width="1" stroke-linecap="round" stroke-linejoin="round" x1="677.5" y1="1190.5" x2="677.5" y2="1179.5" />
    <line stroke="#0000ff" stroke-width="1" stroke-linecap="round" stroke-linejoin="round" x1="732.5" y1="1190.5" x2="732.5" y2="1179.5" />
    <line stroke="#0000ff" stroke-width="1" stroke-linecap="round" stroke-linejoin="round" x1="788.5" y1="1190.5" x2="788.5" y2="1179.5" />
    <line stroke="#0000ff" stroke-width="1" stroke-linecap="round" stroke-linejoin="round" x1="843.5" y1="1190.5" x2="843.5" y2="1179.5" />
    <line stroke="#0000ff" stroke-width="1" stroke-linecap="round" stroke-linejoin="round" x1="898.5" y1="1190.5" x2="898.5" y2="1179.5" />
    <line stroke="#0000ff" stroke-width="1" stroke-linecap="round" stroke-linejoin="round" x1="954.5" y1="1190.5" x2="954.5" y2="1179.5" />
    <line stroke="#0000ff" stroke-width="1" stroke-linecap="round" stroke-linejoin="round" x1="1009.5" y1="1190.5" x2="1009.5" y2="1179.5" />
    <line stroke="#0000ff" stroke-width="1" stroke-linecap="round" stroke-linejoin="round" x1="1065.5" y1="1190.5" x2="1065.5" y2="1179.5" />
    <line stroke="#0000ff" stroke-width="1" stroke-linecap="round" stroke-linejoin="round" x1="1120.5" y1="1190.5" x2="1120.5" y2="1179.5" />
    <line stroke="#0000ff" stroke-width="1" stroke-linecap="round" stroke-linejoin="round" x1="1176.5" y1="1190.5" x2="1176.5" y2="1179.5" />
    <line stroke="#0000ff" stroke-width="1" stroke-linecap="round" stroke-linejoin="round" x1="1231.5" y1="1190.5" x2="1231.5" y2="1179.5" />
    <line stroke="#0000ff" stroke-width="1" stroke-linecap="round" stroke-linejoin="round" x1="1287.5" y1="1190.5" x2="1287.5" y2="1179.5" />
    <line stroke="#0000ff" stroke-width="1" stroke-linecap="round" stroke-linejoin="round" x1="1342.5" y1="1190.5" x2="1342.5" y2="1179.5" />
    <line stroke="#0000ff" stroke-width="1" stroke-linecap="round" stroke-linejoin="round" x1="1398.5" y1="1190.5" x2="1398.5" y2="1179.5" />
    <line stroke="#0000ff" stroke-width="1" stroke-linecap="round" stroke-linejoin="round" x1="1453.5" y1="1190.5" x2="1453.5" y2="1179.5" />
    <line stroke="#0000ff" stroke-width="1" stroke-linecap="round" stroke-linejoin="round" x1="1509.5" y1="1190.5" x2="1509.5" y2="1179.5" />
    <line stroke="#0000ff" stroke-width="1" stroke-linecap="round" stroke-linejoin="round" x1="1564.5" y1="1190.5" x2="1564.5" y2="1179.5" />
    <line stroke="#0000ff" stroke-width="1" stroke-linecap="round" stroke-linejoin="round" x1="1620.5" y1="1190.5" x2="1620.5" y2="1179.5" />
    <line stroke="#0000ff" stroke-width="1" stroke-linecap="round" stroke-linejoin="round" x1="1675.5" y1="1190.5" x2="1675.5" y2="1179.5" />
    <line stroke="#0000ff" stroke-width="1" stroke-linecap="round" stroke-linejoin="round" x1="1730.5" y1="1190.5" x2="1730.5" y2="1179.5" />
    <line stroke="#0000ff" stroke-width="1" stroke-linecap="round" stroke-linejoin="round" x1="1786.5" y1="1190.5" x2="1786.5" y2="1179.5" />
    <line stroke="#0000ff" stroke-width="1" stroke-linecap="round" stroke-linejoin="round" x1="1841.5" y1="1190.5" x2="1841.5" y2="1179.5" />
    <line stroke="#0000ff" stroke-width="1" stroke-linecap="round" stroke-linejoin="round" x1="1897.5" y1="1190.5" x2="1897.5" y2="1179.5" />
    <line stroke="#0000ff" stroke-width="1" stroke-linecap="round" stroke-linejoin="round" x1="1952.5" y1="1190.5" x2="1952.5" y2="1179.5" />
    <line stroke="#0000ff" stroke-width="1" stroke-linecap="round" stroke-linejoin="round" x1="2008.5" y1="1190.5" x2="2008.5" y2="1179.5" />
    <line stroke="#0000ff" stroke-width="1" stroke-linecap="round" stroke-linejoin="round" x1="2063.5" y1="1190.5" x2="2063.5" y2="1179.5" />
    <line stroke="#0000ff" stroke-width="1" stroke-linecap="round" stroke-linejoin="round" x1="2119.5" y1="1190.5" x2="2119.5" y2="1179.5" />
    <line stroke="#0000ff" stroke-width="1" stroke-linecap="round" stroke-linejoin="round" x1="2174.5" y1="1190.5" x2="2174.5" y2="1179.5" />
    <line stroke="#0000ff" stroke-width="1" stroke-linecap="round" stroke-linejoin="round" x1="2230.5" y1="1190.5" x2="2230.5" y2="1179.5" />
    <line stroke="#0000ff" stroke-width="1" stroke-linecap="round" stroke-linejoin="round" x1="2285.5" y1="1190.5" x2="2285.5" y2="1179.5" />
    <line stroke="#0000ff" stroke-width="1" stroke-linecap="round" stroke-linejoin="round" x1="2341.5" y1="1190.5" x2="2341.5" y2="1179.5" />
    <line stroke="#0000ff" stroke-width="2" stroke-linecap="butt" stroke-linejoin="bevel" x1="67" y1="3" x2="67" y2="1302" />
    <polygon stroke="#0000ff" stroke-width="1" stroke-linecap="round" stroke-linejoin="round" fill="#0000ff" points="60.5,6.5 66.5,0.5 67.5,0.5 73.5,6.5 " />
    <line stroke="#0000ff" stroke-width="1" stroke-linecap="round" stroke-linejoin="round" x1="61.5" y1="1066.5" x2="72.5" y2="1066.5" />
    <line stroke="#0000ff" stroke-width="1" stroke-linecap="round" stroke-linejoin="round" x1="61.5" y1="948.5" x2="72.5" y2="948.5" />
    <line stroke="#0000ff" stroke-width="1" stroke-linecap="round" stroke-linejoin="round" x1="61.5" y1="829.5" x2="72.5" y2="829.5" />
    <line stroke="#0000ff" stroke-width="1" stroke-linecap="round" stroke-linejoin="round" x1="61.5" y1="711.5" x2="72.5" y2="711.5" />
    <line stroke="#0000ff" stroke-width="1" stroke-linecap="round" stroke-linejoin="round" x1="61.5" y1="592.5" x2="72.5" y2="592.5" />
    <line stroke="#0000ff" stroke-width="1" stroke-linecap="round" stroke-linejoin="round" x1="61.5" y1="474.5" x2="72.5" y2="474.5" />
    <line stroke="#0000ff" stroke-width="1" stroke-linecap="round" stroke-linejoin="round" x1="61.5" y1="355.5" x2="72.5" y2="355.5" />
    <line stroke="#0000ff" stroke-width="1" stroke-linecap="round" stroke-linejoin="round" x1="61.5" y1="237.5" x2="72.5" y2="237.5" />
    <line stroke="#0000ff" stroke-width="1" stroke-linecap="round" stroke-linejoin="round" x1="61.5" y1="118.5" x2="72.5" y2="118.5" />
    <polyline stroke="#000000" stroke-width="1" stroke-linecap="round" stroke-linejoin="round" fill="none" points="344,1185 345,1185 346,1185 347,1185 348,1185 349,1185 350,1185 351,1185 352,1185 353,1185 354,1185 355,1185 356,1185 357,1185 358,1185 359,1185 360,1185 361,1185 362,1185 363,1185 364,1185 365,1185 366,1185 367,1185 368,1185 369,1185 370,1185 371,1185 372,1185 373,1185 374,1185 375,1185 376,1185 377,1185 378,1185 379,1185 380,1185 381,1185 382,1185 383,1185 384,1185 385,1185 386,1185 387,1185 388,1185 389,1185 390,1185 391,1185 392,1185 393,1185 394,1185 395,1185 396,1185 397,1185 398,1185 399,1185 400,1185 401,1185 402,1185 403,1185 404,1185 405,1185 406,1185 407,1185 408,1185 409,1185 410,1185 411,1185 412,1185 413,1185 414,1185 415,1185 416,1185 417,1185 418,1185 419,1185 420,1185 421,1185 422,1185 423,1185 424,1185 425,1185 426,1185 427,1185 428,1185 429,1185 430,1185 431,1185 432,1185 433,1185 434,1186 435,1186 436,1186 437,1186 438,1186 439,1186 440,1186 441,1186 442,1186 443,1186 444,1186 445,1186 446,1186 447,1186 448,1186 449,1186 450,1186 451,1186 452,1186 453,1186 454,1186 455,1186 456,1186 457,1186 458,1186 459,1186 460,1186 461,1186 462,1186 463,1186 464,1186 465,1186 466,1186 467,1186 468,1186 469,1186 470,1186 471,1186 472,1186 473,1186 474,1186 475,1186 476,1186 477,1186 478,1186 479,1186 480,1186 481,1186 482,1186 483,1186 484,1186 485,1186 486,1186 487,1186 488,1186 489,1186 490,1186 491,1186 492,1186 493,1186 494,1186 495,1186 496,1186 497,1186 498,1186 499,1186 500,1186 501,1186 502,1186 503,1186 504,1186 505,1186 506,1186 507,1186 508,1186 509,1186 510,1186 511,1186 512,1186 513,1186 514,1186 515,1186 516,1186 517,1186 518,1186 519,1186 520,1186 521,1186 522,1186 523,1186 524,1186 525,1186 526,1186 527,1186 528,1186 529,1186 530,1186 531,1186 532,1186 533,1186 534,1186 535,1186 536,1186 537,1186 538,1186 539,1186 540,1186 541,1186 542,1186 543,1186 544,1186 545,1186 546,1186 547,1186 548,1186 549,1186 550,1186 551,1186 552,1186 553,1186 554,1186 555,1186 556,1186 557,1186 558,1186 559,1186 560,1186 561,1186 562,1186 563,1186 564,1186 565,1185 566,1185 567,1185 568,1185 569,1185 570,1185 571,1185 572,1185 573,1185 574,1185 575,1185 576,1185 577,1185 578,1185 579,1185 580,1185 581,1185 582,1185 583,1185 584,1185 585,1185 586,1185 587,1185 588,1185 589,1185 590,1185 591,1185 592,1185 593,1185 594,1185 595,1185 596,1185 597,1185 598,1185 599,1185 600,1185 601,1185 602,1185 603,1185 604,1185 605,1185 606,1185 607,1185 608,1185 609,1185 610,1185 611,1185 612,1185 613,1185 614,1185 615,1185 616,1185 617,1185 618,1185 619,1185 620,1185 621,1185 622,1185 623,1185 624,1185 625,1185 626,1185 627,1185 628,1185 629,1185 630,1185 631,1185 632,1185 633,1185 634,1185 635,1185 636,1185 637,1185 638,1185 639,1185 640,1185 641,1185 642,1185 643,1185 644,1185 645,1185 646,1185 647,1185 648,1185 649,1185 650,1185 651,1185 652,1185 653,1185 654,1185 655,1185 656,1184 657,1184 658,1184 659,1184 660,1184 661,1184 662,1184 663,1184 664,1184 665,1184 666,1184 667,1184 668,1184 669,1184 670,1184 671,1184 672,1184 673,1184 674,1184 675,1184 676,1184 677,1184 678,1184 679,1184 680,1184 681,1184 682,1184 683,1184 684,1184 685,1184 686,1184 687,1184 688,1184 689,1184 690,1184 691,1184 692,1184 693,1184 694,1184 695,1184 696,1184 697,1184 698,1184 699,1184 700,1184 701,1184 702,1184 703,1184 704,1184 705,1184 706,1184 707,1184 708,1184 709,1184 710,1184 711,1183 712,1183 713,1183 714,1183 715,1183 716,1183 717,1183 718,1183 719,1183 720,1183 721,1183 722,1183 723,1183 724,1183 725,1183 726,1183 727,1183 728,1183 729,1183 730,1183 731,1183 732,1183 733,1183 734,1183 735,1183 736,1183 737,1183 738,1183 739,1183 740,1183 741,1183 742,1183 743,1183 744,1183 745,1183 746,1183 747,1183 748,1183 749,1183 750,1183 751,1183 752,1183 753,1183 754,1183 755,1183 756,1183 757,1183 758,1183 759,1183 760,1183 761,1183 762,1183 763,1182 764,1182 765,1182 766,1182 767,1182 768,1182 769,1182 770,1182 771,1182 772,1182 773,1182 774,1182 775,1182 776,1182 777,1182 778,1182 779,1182 780,1182 781,1182 782,1182 783,1182 784,1182 785,1182 786,1182 787,1182 788,1182 789,1182 790,1182 791,1182 792,1182 793,1182 794,1182 795,1182 796,1182 797,1182 798,1182 799,1182 800,1182 801,1182 802,1182 803,1182 804,1182 805,1182 806,1182 807,1182 808,1182 809,1182 810,1182 811,1182 812,1182 813,1182 814,1182 815,1182 816,1182 817,1182 818,1182 819,1182 820,1182 821,1182 822,1182 823,1182 824,1182 825,1182 826,1181 827,1181 828,1181 829,1181 830,1181 831,1181 832,1181 833,1181 834,1181 835,1181 836,1181 837,1181 838,1181 839,1181 840,1181 841,1181 842,1181 843,1181 844,1181 845,1181 846,1181 847,1181 848,1181 849,1181 850,1181 851,1181 852,1181 853,1181 854,1181 855,1181 856,1181 857,1181 858,1181 859,1181 860,1181 861,1181 862,1181 863,1181 864,1181 865,1181 866,1181 867,1181 868,1181 869,1181 870,1181 871,1181 872,1181 873,1181 874,1181 875,1181 876,1181 877,1181 878,1181 879,1181 880,1181 881,1181 882,1181 883,1181 884,1181 885,1181 886,1181 887,1181 888,1181 889,1181 890,1181 891,1181 892,1181 893,1181 894,1181 895,1181 896,1181 897,1181 898,1181 899,1181 900,1181 901,1181 902,1181 903,1181 904,1181 905,1181 906,1181 907,1181 908,1181 909,1181 910,1181 911,1181 912,1181 913,1181 914,1181 915,1181 916,1181 917,1181 918,1181 919,1181 920,1181 921,1181 922,1181 923,1181 924,1181 925,1181 926,1181 927,1181 928,1181 929,1181 930,1181 931,1181 932,1181 933,1181 934,1181 935,1181 936,1181 937,1181 938,1181 939,1181 940,1181 941,1181 942,1181 943,1181 944,1181 945,1181 946,1181 947,1181 948,1181 949,1181 950,1181 951,1181 952,1181 953,1181 954,1181 955,1181 956,1181 957,1181 958,1181 959,1181 960,1181 961,1181 962,1181 963,1181 964,1181 965,1181 966,1181 967,1181 968,1181 969,1182 970,1182 971,1182 972,1182 973,1182 974,1182 975,1182 976,1182 977,1182 978,1182 979,1182 980,1182 981,1182 982,1182 983,1182 984,1182 985,1182 986,1182 987,1182 988,1182 989,1182 990,1182 991,1182 992,1182 993,1182 994,1182 995,1182 996,1182 997,1182 998,1182 999,1182 1000,1182 1001,1182 1002,1182 1003,1182 1004,1182 1005,1182 1006,1182 1007,1182 1008,1182 1009,1182 1010,1182 1011,1182 1012,1182 1013,1182 1014,1182 1015,1182 1016,1182 1017,1182 1018,1182 1019,1182 1020,1182 1021,1182 1022,1182 1023,1182 1024,1182 1025,1182 1026,1182 1027,1182 1028,1182 1029,1182 1030,1182 1031,1182 1032,1183 1033,1183 1034,1183 1035,1183 1036,1183 1037,1183 1038,1183 1039,1183 1040,1183 1041,1183 1042,1183 1043,1183 1044,1183 1045,1183 1046,1183 1047,1183 1048,1183 1049,1183 1050,1183 1051,1183 1052,1183 1053,1183 1054,1183 1055,1183 1056,1183 1057,1183 1058,1183 1059,1183 1060,1183 1061,1183 1062,1183 1063,1183 1064,1183 1065,1183 1066,1183 1067,1183 1068,1183 1069,1183 1070,1183 1071,1183 1072,1183 1073,1183 1074,1183 1075,1183 1076,1183 1077,1183 1078,1183 1079,1183 1080,1183 1081,1183 1082,1183 1083,1183 1084,1184 1085,1184 1086,1184 1087,1184 1088,1184 1089,1184 1090,1184 1091,1184 1092,1184 1093,1184 1094,1184 1095,1184 1096,1184 1097,1184 1098,1184 1099,1184 1100,1184 1101,1184 1102,1184 1103,1184 1104,1184 1105,1184 1106,1184 1107,1184 1108,1184 1109,1184 1110,1184 1111,1184 1112,1184 1113,1184 1114,1184 1115,1184 1116,1184 1117,1184 1118,1184 1119,1184 1120,1184 1121,1184 1122,1184 1123,1184 1124,1184 1125,1184 1126,1184 1127,1184 1128,1184 1129,1184 1130,1184 1131,1184 1132,1184 1133,1184 1134,1184 1135,1184 1136,1184 1137,1184 1138,1184 1139,1184 1140,1185 1141,1185 1142,1185 1143,1185 1144,1185 1145,1185 1146,1185 1147,1185 1148,1185 1149,1185 1150,1185 1151,1185 1152,1185 1153,1185 1154,1185 1155,1185 1156,1185 1157,1185 1158,1185 1159,1185 1160,1185 1161,1185 1162,1185 1163,1185 1164,1185 1165,1185 1166,1185 1167,1185 1168,1185 1169,1185 1170,1185 1171,1185 1172,1185 1173,1185 1174,1185 1175,1185 1176,1185 1177,1185 1178,1185 1179,1185 1180,1185 1181,1185 1182,1185 1183,1185 1184,1185 1185,1185 1186,1185 1187,1185 1188,1185 1189,1185 1190,1185 1191,1185 1192,1185 1193,1185 1194,1185 1195,1185 1196,1185 1197,1185 1198,1185 1199,1185 1200,1185 1201,1185 1202,1185 1203,1185 1204,1185 1205,1185 1206,1185 1207,1185 1208,1185 1209,1185 1210,1185 1211,1185 1212,1185 1213,1185 1214,1185 1215,1185 1216,1185 1217,1185 1218,1185 1219,1185 1220,1185 1221,1185 1222,1185 1223,1185 1224,1185 1225,1185 1226,1185 1227,1185 1228,1185 1229,1185 1230,1185 1231,1185 1232,1185 1233,1185 1234,1185 1235,1185 1236,1185 1237,1185 1238,1185 1239,1185 1240,1185 1241,1185 1242,1185 1243,1185 1244,1185 1245,1185 1246,1185 1247,1185 1248,1185 1249,1185 1250,1186 1251,1186 1252,1186 1253,1186 1254,1186 1255,1186 1256,1186 1257,1186 1258,1186 1259,1186 1260,1186 1261,1186 1262,1186 1263,1186 1264,1186 1265,1186 1266,1186 1267,1186 1268,1186 1269,1186 1270,1186 1271,1186 1272,1186 1273,1186 1274,1186 1275,1186 1276,1186 1277,1186 1278,1186 1279,1186 1280,1186 1281,1186 1282,1186 1283,1186 1284,1186 1285,1186 1286,1186 1287,1186 1288,1186 1289,1186 1290,1186 1291,1186 1292,1186 1293,1186 1294,1186 1295,1186 1296,1186 1297,1186 1298,1186 1299,1186 1300,1186 1301,1186 1302,1186 1303,1186 1304,1186 1305,1186 1306,1186 1307,1186 1308,1186 1309,1186 1310,1186 1311,1186 1312,1186 1313,1186 1314,1186 1315,1186 1316,1186 1317,1186 1318,1185 1319,1185 1320,1185 1321,1185 1322,1185 1323,1185 1324,1185 1325,1185 1326,1185 1327,1185 1328,1185 1329,1185 1330,1185 1331,1185 1332,1185 1333,1185 1334,1185 1335,1185 1336,1185 1337,1185 1338,1185 1339,1185 1340,1185 1341,1185 1342,1185 1343,1185 1344,1185 1345,1185 1346,1185 1347,1185 1348,1185 1349,1185 1350,1185 1351,1185 1352,1185 1353,1185 1354,1185 1355,1185 1356,1185 1357,1185 1358,1185 1359,1185 1360,1185 1361,1185 1362,1185 1363,1185 1364,1185 1365,1185 1366,1185 1367,1185 1368,1185 1369,1185 1370,1185 1371,1185 1372,1185 1373,1185 1374,1185 1375,1185 1376,1185 1377,1185 1378,1185 1379,1185 1380,1185 1381,1185 1382,1185 1383,1185 1384,1185 1385,1185 1386,1185 1387,1185 1388,1185 1389,1185 1390,1185 1391,1185 1392,1185 1393,1185 1394,1185 1395,1185 1396,1185 1397,1185 1398,1185 1399,1185 1400,1185 1401,1185 1402,1185 1403,1185 1404,1185 1405,1185 1406,1185 1407,1185 1408,1185 1409,1185 1410,1185 1411,1185 1412,1185 1413,1185 1414,1185 1415,1185 1416,1185 1417,1185 1418,1185 1419,1185 1420,1185 1421,1185 1422,1185 1423,1185 1424,1185 1425,1185 1426,1185 1427,1185 1428,1185 1429,1185 1430,1185 1431,1185 1432,1185 1433,1185 1434,1185 1435,1185 1436,1185 1437,1185 1438,1185 1439,1185 1440,1185 1441,1185 1442,1185 1443,1185 1444,1185 1445,1185 1446,1185 1447,1185 1448,1185 1449,1185 1450,1185 1451,1185 1452,1185 1453,1185 1454,1185 1455,1185 1456,1185 1457,1185 1458,1185 1459,1185 1460,1185 1461,1185 1462,1185 1463,1185 1464,1185 1465,1185 1466,1185 1467,1185 1468,1185 1469,1185 1470,1185 1471,1185 1472,1185 1473,1185 1474,1185 1475,1185 1476,1185 1477,1185 1478,1185 1479,1185 1480,1185 1481,1185 1482,1185 1483,1185 1484,1185 1485,1185 1486,1185 1487,1185 1488,1185 1489,1185 1490,1185 1491,1185 1492,1185 1493,1185 1494,1185 1495,1185 1496,1185 1497,1185 1498,1185 1499,1185 1500,1185 1501,1185 1502,1185 1503,1185 1504,1185 1505,1185 1506,1185 1507,1185 1508,1185 1509,1185 1510,1185 1511,1185 1512,1185 1513,1185 1514,1185 1515,1185 1516,1185 1517,1185 1518,1185 1519,1185 1520,1185 1521,1185 1522,1185 1523,1185 1524,1185 1525,1185 1526,1185 1527,1185 1528,1185 1529,1185 1530,1185 1531,1185 1532,1185 1533,1185 1534,1185 1535,1185 1536,1185 1537,1185 1538,1185 1539,1185 1540,1185 1541,1185 1542,1185 1543,1185 1544,1185 1545,1185 1546,1185 1547,1185 1548,1185 1549,1185 1550,1185 1551,1185 1552,1185 1553,1185 1554,1185 1555,1185 1556,1185 1557,1185 1558,1185 1559,1185 1560,1185 1561,1185 1562,1185 1563,1185 1564,1185 1565,1185 1566,1185 1567,1185 1568,1185 1569,1185 1570,1185 1571,1185 1572,1185 1573,1185 1574,1185 1575,1185 1576,1185 1577,1185 1578,1185 1579,1185 1580,1185 1581,1185 1582,1185 1583,1185 1584,1185 1585,1185 1586,1185 1587,1185 1588,1185 1589,1185 1590,1185 1591,1185 1592,1185 1593,1185 1594,1185 1595,1185 1596,1185 1597,1185 1598,1185 1599,1185 1600,1185 1601,1185 1602,1185 1603,1185 1604,1185 1605,1185 1606,1185 1607,1185 1608,1185 1609,1185 1610,1185 1611,1185 1612,1185 1613,1185 1614,1185 1615,1185 1616,1185 1617,1185 1618,1185 1619,1185 1620,1185 1621,1185 1622,1185 1623,1185 1624,1185 1625,1185 1626,1185 1627,1185 1628,1185 1629,1185 1630,1185 1631,1185 1632,1185 1633,1185 1634,1185 1635,1185 1636,1185 1637,1185 1638,1185 1639,1185 1640,1185 1641,1185 1642,1185 1643,1185 1644,1185 1645,1185 1646,1185 1647,1185 1648,1185 1649,1185 1650,1185 1651,1185 1652,1185 1653,1185 1654,1185 1655,1185 1656,1185 1657,1185 1658,1185 1659,1185 1660,1185 1661,1185 1662,1185 1663,1185 1664,1185 1665,1185 1666,1185 1667,1185 1668,1185 1669,1185 1670,1185 1671,1185 1672,1185 1673,1185 1674,1185 1675,1185 1676,1185 1677,1185 1678,1185 1679,1185 1680,1185 1681,1185 1682,1185 1683,1185 1684,1185 1685,1185 1686,1185 1687,1185 1688,1185 1689,1185 1690,1185 1691,1185 1692,1185 1693,1185 1694,1185 1695,1185 1696,1185 1697,1185 1698,1185 1699,1185 1700,1185 1701,1185 1702,1185 1703,1185 1704,1185 1705,1185 1706,1185 1707,1185 1708,1185 1709,1185 1710,1185 1711,1185 1712,1185 1713,1185 1714,1185 1715,1185 1716,1185 1717,1185 1718,1185 1719,1185 1720,1185 1721,1185 1722,1185 1723,1185 1724,1185 1725,1185 1726,1185 1727,1185 1728,1185 1729,1185 1730,1185 1731,1185 1732,1185 1733,1185 1734,1185 1735,1185 1736,1185 1737,1185 1738,1185 1739,1185 1740,1185 1741,1185 1742,1185 1743,1185 1744,1185 1745,1185 1746,1185 1747,1185 1748,1185 1749,1185 1750,1185 1751,1185 1752,1185 1753,1185 1754,1185 1755,1185 1756,1185 1757,1185 1758,1185 1759,1185 1760,1185 1761,1185 1762,1185 1763,1185 1764,1185 1765,1185 1766,1185 1767,1185 1768,1185 1769,1185 1770,1185 1771,1185 1772,1185 1773,1185 1774,1185 1775,1185 1776,1185 1777,1185 1778,1185 1779,1185 1780,1185 1781,1185 1782,1185 1783,1185 1784,1185 1785,1185 1786,1185 1787,1185 1788,1185 1789,1185 1790,1185 1791,1185 1792,1185 1793,1185 1794,1185 1795,1185 1796,1185 1797,1185 1798,1185 1799,1185 1800,1185 1801,1185 1802,1185 1803,1185 1804,1185 1805,1185 1806,1185 1807,1185 1808,1185 1809,1185 1810,1185 1811,1185 1812,1185 1813,1185 1814,1185 1815,1185 1816,1185 1817,1185 1818,1185 1819,1185 1820,1185 1821,1185 1822,1185 1823,1185 1824,1185 1825,1185 1826,1185 1827,1185 1828,1185 1829,1185 1830,1185 1831,1185 1832,1185 1833,1185 1834,1185 1835,1185 1836,1185 1837,1185 1838,1185 1839,1185 1840,1185 1841,1185 1842,1185 1843,1185 1844,1185 1845,1185 1846,1185 1847,1185 1848,1185 1849,1185 1850,1185 1851,1185 1852,1185 1853,1185 1854,1185 1855,1185 1856,1185 1857,1185 1858,1185 1859,1185 1860,1185 1861,1185 1862,1185 1863,1185 1864,1185 1865,1185 1866,1185 1867,1185 1868,1185 1869,1185 1870,1185 1871,1185 1872,1185 1873,1185 1874,1185 1875,1185 1876,1185 1877,1185 1878,1185 1879,1185 1880,1185 1881,1185 1882,1185 1883,1185 1884,1185 1885,1185 1886,1185 1887,1185 1888,1185 1889,1185 1890,1185 1891,1185 1892,1185 1893,1185 1894,1185 1895,1185 1896,1185 1897,1185 1898,1185 1899,1185 1900,1185 1901,1185 1902,1185 1903,1185 1904,1185 1905,1185 1906,1185 1907,1185 1908,1185 1909,1185 1910,1185 1911,1185 1912,1185 1913,1185 1914,1185 1915,1185 1916,1185 1917,1185 1918,1185 1919,1185 1920,1185 1921,1185 1922,1185 1923,1185 1924,1185 1925,1185 1926,1185 1927,1185 1928,1185 1929,1185 1930,1185 1931,1185 1932,1185 1933,1185 1934,1185 1935,1185 1936,1185 1937,1185 1938,1185 1939,1185 1940,1185 1941,1185 1942,1185 1943,1185 1944,1185 1945,1185 1946,1185 1947,1185 1948,1185 1949,1185 1950,1185 1951,1185 1952,1185 1953,1185 1954,1185 1955,1185 1956,1185 1957,1185 1958,1185 1959,1185 1960,1185 1961,1185 1962,1185 1963,1185 1964,1185 1965,1185 1966,1185 1967,1185 1968,1185 1969,1185 1970,1185 1971,1185 1972,1185 1973,1185 1974,1185 1975,1185 1976,1185 1977,1185 1978,1185 1979,1185 1980,1185 1981,1185 1982,1185 1983,1185 1984,1185 1985,1185 1986,1185 1987,1185 1988,1185 1989,1185 1990,1185 1991,1185 1992,1185 1993,1185 1994,1185 1995,1185 1996,1185 1997,1185 1998,1185 1999,1185 2000,1185 2001,1185 2002,1185 2003,1185 2004,1185 2005,1185 2006,1185 2007,1185 2008,1185 " />
    <circle stroke="#000000" stroke-width="1" stroke-linecap="round" stroke-linejoin="round" fill="#000000" cx="344" cy="1185" r="3" />
    <circle stroke="#000000" stroke-width="1" stroke-linecap="round" stroke-linejoin="round" fill="#000000" cx="621" cy="1185" r="3" />
    <circle stroke="#000000" stroke-width="1" stroke-linecap="round" stroke-linejoin="round" fill="#000000" cx="898" cy="1181" r="3" />
    <circle stroke="#000000" stroke-width="1" stroke-linecap="round" stroke-linejoin="round" fill="#000000" cx="1176" cy="1185" r="3" />
    <circle stroke="#000000" stroke-width="1" stroke-linecap="round" stroke-linejoin="round" fill="#000000" cx="1453" cy="1185" r="3" />
    <circle stroke="#000000" stroke-width="1" stroke-linecap="round" stroke-linejoin="round" fill="#000000" cx="1730" cy="1185" r="3" />
    <circle stroke="#000000" stroke-width="1" stroke-linecap="round" stroke-linejoin="round" fill="#000000" cx="2008" cy="1185" r="3" />
  </g>
</svg>
