<?xml version="1.0" encoding="UTF-8"?>
<!DOCTYPE svg PUBLIC "-//W3C//DTD SVG 1.1//EN" "http://www.w3.org/Graphics/SVG/1.1/DTD/svg11.dtd">
<svg width="2396px" height="1303px" viewBox="0 0 2396 1303" version="1.1" xmlns="http://www.w3.org/2000/svg" xmlns:xlink="http://www.w3.org/1999/xlink">
  <g>
    <text x="65" y="1207" font-family="Times New Roman" font-size="21" fill="#000000">5</text>
    <text x="117" y="1207" font-family="Times New Roman" font-size="21" fill="#000000">10</text>
    <text x="175" y="1207" font-family="Times New Roman" font-size="21" fill="#000000">15</text>
    <text x="233" y="1207" font-family="Times New Roman" font-size="21" fill="#000000">20</text>
    <text x="291" y="1207" font-family="Times New Roman" font-size="21" fill="#000000">25</text>
    <text x="350" y="1207" font-family="Times New Roman" font-size="21" fill="#000000">30</text>
    <text x="408" y="1207" font-family="Times New Roman" font-size="21" fill="#000000">35</text>
    <text x="466" y="1207" font-family="Times New Roman" font-size="21" fill="#000000">40</text>
    <text x="524" y="1207" font-family="Times New Roman" font-size="21" fill="#000000">45</text>
    <text x="582" y="1207" font-family="Times New Roman" font-size="21" fill="#000000">50</text>
    <text x="640" y="1207" font-family="Times New Roman" font-size="21" fill="#000000">55</text>
    <text x="698" y="1207" font-family="Times New Roman" font-size="21" fill="#000000">60</text>
    <text x="757" y="1207" font-family="Times New Roman" font-size="21" fill="#000000">65</text>
    <text x="815" y="1207" font-family="Times New Roman" font-size="21" fill="#000000">70</text>
    <text x="873" y="1207" font-family="Times New Roman" font-size="21" fill="#000000">75</text>
    <text x="931" y="1207" font-family="Times New Roman" font-size="21" fill="#000000">80</text>
    <text x="989" y="1207" font-family="Times New Roman" font-size="21" fill="#000000">85</text>
    <text x="1047" y="1207" font-family="Times New Roman" font-size="21" fill="#000000">90</text>
    <text x="1106" y="1207" font-family="Times New Roman" font-size="21" fill="#000000">95</text>
    <text x="1159" y="1207" font-family="Times New Roman" font-size="21" fill="#000000">100</text>
    <text x="1217" y="1207" font-family="Times New Roman" font-size="21" fill="#000000">105</text>
    <text x="1275" y="1207" font-family="Times New Roman" font-size="21" fill="#000000">110</text>
    <text x="1333" y="1207" font-family="Times New Roman" font-size="21" fill="#000000">115</text>
    <text x="1391" y="1207" font-family="Times New Roman" font-size="21" fill="#000000">120</text>
    <text x="1450" y="1207" font-family="Times New Roman" font-size="21" fill="#000000">125</text>
    <text x="1508" y="1207" font-family="Times New Roman" font-size="21" fill="#000000">130</text>
    <text x="1566" y="1207" font-family="Times New Roman" font-size="21" fill="#000000">135</text>
    <text x="1624" y="1207" font-family="Times New Roman" font-size="21" fill="#000000">140</text>
    <text x="1682" y="1207" font-family="Times New Roman" font-size="21" fill="#000000">145</text>
    <text x="1740" y="1207" font-family="Times New Roman" font-size="21" fill="#000000">150</text>
    <text x="1798" y="1207" font-family="Times New Roman" font-size="21" fill="#000000">155</text>
    <text x="1857" y="1207" font-family="Times New Roman" font-size="21" fill="#000000">160</text>
    <text x="1915" y="1207" font-family="Times New Roman" font-size="21" fill="#000000">165</text>
    <text x="1973" y="1207" font-family="Times New Roman" font-size="21" fill="#000000">170</text>
    <text x="2031" y="1207" font-family="Times New Roman" font-size="21" fill="#000000">175</text>
    <text x="2089" y="1207" font-family="Times New Roman" font-size="21" fill="#000000">180</text>
    <text x="2147" y="1207" font-family="Times New Roman" font-size="21" fill="#000000">185</text>
    <text x="2206" y="1207" font-family="Times New Roman" font-size="21" fill="#000000">190</text>
    <text x="2264" y="1207" font-family="Times New Roman" font-size="21" fill="#000000">195</text>
    <text x="2322" y="1207" font-family="Times New Roman" font-size="21" fill="#000000">200</text>
    <text x="-22" y="1073" font-family="Times New Roman" font-size="21" fill="#000000">0.1</text>
    <text x="-22" y="955" font-family="Times New Roman" font-size="21" fill="#000000">0.2</text>
    <text x="-22" y="836" font-family="Times New Roman" font-size="21" fill="#000000">0.3</text>
    <text x="-22" y="718" font-family="Times New Roman" font-size="21" fill="#000000">0.4</text>
    <text x="-22" y="599" font-family="Times New Roman" font-size="21" fill="#000000">0.5</text>
    <text x="-22" y="481" font-family="Times New Roman" font-size="21" fill="#000000">0.6</text>
    <text x="-22" y="362" font-family="Times New Roman" font-size="21" fill="#000000">0.7</text>
    <text x="-22" y="244" font-family="Times New Roman" font-size="21" fill="#000000">0.8</text>
    <text x="-22" y="125" font-family="Times New Roman" font-size="21" fill="#000000">0.9</text>
    <text x="2382" y="1173" font-family="Times New Roman" font-size="21" font-weight="700" fill="#000000">k</text>
    <text x="24" y="15" font-family="Times New Roman" font-size="21" font-weight="700" fill="#000000">P(k)</text>
    <line stroke="#0000ff" stroke-width="2" stroke-linecap="butt" stroke-linejoin="bevel" x1="0" y1="1185" x2="2391" y2="1185" />
    <polygon stroke="#0000ff" stroke-width="1" stroke-linecap="round" stroke-linejoin="round" fill="#0000ff" points="2389.5,1178.5 2395.5,1184.5 2395.5,1185.5 2389.5,1191.5 " />
    <line stroke="#0000ff" stroke-width="1" stroke-linecap="round" stroke-linejoin="round" x1="70.5" y1="1190.5" x2="70.5" y2="1179.5" />
    <line stroke="#0000ff" stroke-width="1" stroke-linecap="round" stroke-linejoin="round" x1="128.5" y1="1190.5" x2="128.5" y2="1179.5" />
    <line stroke="#0000ff" stroke-width="1" stroke-linecap="round" stroke-linejoin="round" x1="186.5" y1="1190.5" x2="186.5" y2="1179.5" />
    <line stroke="#0000ff" stroke-width="1" stroke-linecap="round" stroke-linejoin="round" x1="244.5" y1="1190.5" x2="244.5" y2="1179.5" />
    <line stroke="#0000ff" stroke-width="1" stroke-linecap="round" stroke-linejoin="round" x1="302.5" y1="1190.5" x2="302.5" y2="1179.5" />
    <line stroke="#0000ff" stroke-width="1" stroke-linecap="round" stroke-linejoin="round" x1="361.5" y1="1190.5" x2="361.5" y2="1179.5" />
    <line stroke="#0000ff" stroke-width="1" stroke-linecap="round" stroke-linejoin="round" x1="419.5" y1="1190.5" x2="419.5" y2="1179.5" />
    <line stroke="#0000ff" stroke-width="1" stroke-linecap="round" stroke-linejoin="round" x1="477.5" y1="1190.5" x2="477.5" y2="1179.5" />
    <line stroke="#0000ff" stroke-width="1" stroke-linecap="round" stroke-linejoin="round" x1="535.5" y1="1190.5" x2="535.5" y2="1179.5" />
    <line stroke="#0000ff" stroke-width="1" stroke-linecap="round" stroke-linejoin="round" x1="593.5" y1="1190.5" x2="593.5" y2="1179.5" />
    <line stroke="#0000ff" stroke-width="1" stroke-linecap="round" stroke-linejoin="round" x1="651.5" y1="1190.5" x2="651.5" y2="1179.5" />
    <line stroke="#0000ff" stroke-width="1" stroke-linecap="round" stroke-linejoin="round" x1="709.5" y1="1190.5" x2="709.5" y2="1179.5" />
    <line stroke="#0000ff" stroke-width="1" stroke-linecap="round" stroke-linejoin="round" x1="768.5" y1="1190.5" x2="768.5" y2="1179.5" />
    <line stroke="#0000ff" stroke-width="1" stroke-linecap="round" stroke-linejoin="round" x1="826.5" y1="1190.5" x2="826.5" y2="1179.5" />
    <line stroke="#0000ff" stroke-width="1" stroke-linecap="round" stroke-linejoin="round" x1="884.5" y1="1190.5" x2="884.5" y2="1179.5" />
    <line stroke="#0000ff" stroke-width="1" stroke-linecap="round" stroke-linejoin="round" x1="942.5" y1="1190.5" x2="942.5" y2="1179.5" />
    <line stroke="#0000ff" stroke-width="1" stroke-linecap="round" stroke-linejoin="round" x1="1000.5" y1="1190.5" x2="1000.5" y2="1179.5" />
    <line stroke="#0000ff" stroke-width="1" stroke-linecap="round" stroke-linejoin="round" x1="1058.5" y1="1190.5" x2="1058.5" y2="1179.5" />
    <line stroke="#0000ff" stroke-width="1" stroke-linecap="round" stroke-linejoin="round" x1="1117.5" y1="1190.5" x2="1117.5" y2="1179.5" />
    <line stroke="#0000ff" stroke-width="1" stroke-linecap="round" stroke-linejoin="round" x1="1175.5" y1="1190.5" x2="1175.5" y2="1179.5" />
    <line stroke="#0000ff" stroke-width="1" stroke-linecap="round" stroke-linejoin="round" x1="1233.5" y1="1190.5" x2="1233.5" y2="1179.5" />
    <line stroke="#0000ff" stroke-width="1" stroke-linecap="round" stroke-linejoin="round" x1="1291.5" y1="1190.5" x2="1291.5" y2="1179.5" />
    <line stroke="#0000ff" stroke-width="1" stroke-linecap="round" stroke-linejoin="round" x1="1349.5" y1="1190.5" x2="1349.5" y2="1179.5" />
    <line stroke="#0000ff" stroke-width="1" stroke-linecap="round" stroke-linejoin="round" x1="1407.5" y1="1190.5" x2="1407.5" y2="1179.5" />
    <line stroke="#0000ff" stroke-width="1" stroke-linecap="round" stroke-linejoin="round" x1="1466.5" y1="1190.5" x2="1466.5" y2="1179.5" />
    <line stroke="#0000ff" stroke-width="1" stroke-linecap="round" stroke-linejoin="round" x1="1524.5" y1="1190.5" x2="1524.5" y2="1179.5" />
    <line stroke="#0000ff" stroke-width="1" stroke-linecap="round" stroke-linejoin="round" x1="1582.5" y1="1190.5" x2="1582.5" y2="1179.5" />
    <line stroke="#0000ff" stroke-width="1" stroke-linecap="round" stroke-linejoin="round" x1="1640.5" y1="1190.5" x2="1640.5" y2="1179.5" />
    <line stroke="#0000ff" stroke-width="1" stroke-linecap="round" stroke-linejoin="round" x1="1698.5" y1="1190.5" x2="1698.5" y2="1179.5" />
    <line stroke="#0000ff" stroke-width="1" stroke-linecap="round" stroke-linejoin="round" x1="1756.5" y1="1190.5" x2="1756.5" y2="1179.5" />
    <line stroke="#0000ff" stroke-width="1" stroke-linecap="round" stroke-linejoin="round" x1="1814.5" y1="1190.5" x2="1814.5" y2="1179.5" />
    <line stroke="#0000ff" stroke-width="1" stroke-linecap="round" stroke-linejoin="round" x1="1873.5" y1="1190.5" x2="1873.5" y2="1179.5" />
    <line stroke="#0000ff" stroke-width="1" stroke-linecap="round" stroke-linejoin="round" x1="1931.5" y1="1190.5" x2="1931.5" y2="1179.5" />
    <line stroke="#0000ff" stroke-width="1" stroke-linecap="round" stroke-linejoin="round" x1="1989.5" y1="1190.5" x2="1989.5" y2="1179.5" />
    <line stroke="#0000ff" stroke-width="1" stroke-linecap="round" stroke-linejoin="round" x1="2047.5" y1="1190.5" x2="2047.5" y2="1179.5" />
    <line stroke="#0000ff" stroke-width="1" stroke-linecap="round" stroke-linejoin="round" x1="2105.5" y1="1190.5" x2="2105.5" y2="1179.5" />
    <line stroke="#0000ff" stroke-width="1" stroke-linecap="round" stroke-linejoin="round" x1="2163.5" y1="1190.5" x2="2163.5" y2="1179.5" />
    <line stroke="#0000ff" stroke-width="1" stroke-linecap="round" stroke-linejoin="round" x1="2222.5" y1="1190.5" x2="2222.5" y2="1179.5" />
    <line stroke="#0000ff" stroke-width="1" stroke-linecap="round" stroke-linejoin="round" x1="2280.5" y1="1190.5" x2="2280.5" y2="1179.5" />
    <line stroke="#0000ff" stroke-width="1" stroke-linecap="round" stroke-linejoin="round" x1="2338.5" y1="1190.5" x2="2338.5" y2="1179.5" />
    <line stroke="#0000ff" stroke-width="2" stroke-linecap="butt" stroke-linejoin="bevel" x1="12" y1="3" x2="12" y2="1302" />
    <polygon stroke="#0000ff" stroke-width="1" stroke-linecap="round" stroke-linejoin="round" fill="#0000ff" points="5.5,6.5 11.5,0.5 12.5,0.5 18.5,6.5 " />
    <line stroke="#0000ff" stroke-width="1" stroke-linecap="round" stroke-linejoin="round" x1="6.5" y1="1066.5" x2="17.5" y2="1066.5" />
    <line stroke="#0000ff" stroke-width="1" stroke-linecap="round" stroke-linejoin="round" x1="6.5" y1="948.5" x2="17.5" y2="948.5" />
    <line stroke="#0000ff" stroke-width="1" stroke-linecap="round" stroke-linejoin="round" x1="6.5" y1="829.5" x2="17.5" y2="829.5" />
    <line stroke="#0000ff" stroke-width="1" stroke-linecap="round" stroke-linejoin="round" x1="6.5" y1="711.5" x2="17.5" y2="711.5" />
    <line stroke="#0000ff" stroke-width="1" stroke-linecap="round" stroke-linejoin="round" x1="6.5" y1="592.5" x2="17.5" y2="592.5" />
    <line stroke="#0000ff" stroke-width="1" stroke-linecap="round" stroke-linejoin="round" x1="6.5" y1="474.5" x2="17.5" y2="474.5" />
    <line stroke="#0000ff" stroke-width="1" stroke-linecap="round" stroke-linejoin="round" x1="6.5" y1="355.5" x2="17.5" y2="355.5" />
    <line stroke="#0000ff" stroke-width="1" stroke-linecap="round" stroke-linejoin="round" x1="6.5" y1="237.5" x2="17.5" y2="237.5" />
    <line stroke="#0000ff" stroke-width="1" stroke-linecap="round" stroke-linejoin="round" x1="6.5" y1="118.5" x2="17.5" y2="118.5" />
    <polyline stroke="#000000" stroke-width="1" stroke-linecap="round" stroke-linejoin="round" fill="none" points="302,1185 303,1185 304,1185 305,1185 306,1185 307,1185 308,1185 309,1185 310,1185 311,1186 312,1186 313,1186 314,1186 315,1186 316,1186 317,1186 318,1186 319,1186 320,1186 321,1186 322,1186 323,1186 324,1186 325,1186 326,1186 327,1186 328,1186 329,1187 330,1187 331,1187 332,1187 333,1187 334,1187 335,1187 336,1187 337,1187 338,1187 339,1187 340,1187 341,1187 342,1187 343,1187 344,1187 345,1187 346,1187 347,1187 348,1188 349,1188 350,1188 351,1188 352,1188 353,1188 354,1188 355,1188 356,1188 357,1188 358,1188 359,1188 360,1188 361,1188 362,1188 363,1188 364,1188 365,1188 366,1188 367,1189 368,1189 369,1189 370,1189 371,1189 372,1189 373,1189 374,1189 375,1189 376,1189 377,1189 378,1189 379,1189 380,1189 381,1189 382,1189 383,1189 384,1189 385,1189 386,1189 387,1189 388,1189 389,1189 390,1190 391,1190 392,1190 393,1190 394,1190 395,1190 396,1190 397,1190 398,1190 399,1190 400,1190 401,1190 402,1190 403,1190 404,1190 405,1190 406,1190 407,1190 408,1190 409,1190 410,1190 411,1190 412,1190 413,1190 414,1190 415,1190 416,1190 417,1190 418,1190 419,1190 420,1190 421,1191 422,1191 423,1191 424,1191 425,1191 426,1191 427,1191 428,1191 429,1191 430,1191 431,1191 432,1191 433,1191 434,1191 435,1191 436,1191 437,1191 438,1191 439,1191 440,1191 441,1191 442,1191 443,1191 444,1191 445,1191 446,1191 447,1191 448,1191 449,1191 450,1191 451,1191 452,1191 453,1191 454,1191 455,1191 456,1191 457,1191 458,1191 459,1191 460,1191 461,1191 462,1191 463,1191 464,1191 465,1191 466,1191 467,1191 468,1191 469,1191 470,1191 471,1191 472,1191 473,1191 474,1191 475,1191 476,1191 477,1191 478,1191 479,1191 480,1191 481,1191 482,1191 483,1191 484,1191 485,1191 486,1191 487,1191 488,1191 489,1191 490,1191 491,1191 492,1191 493,1191 494,1191 495,1191 496,1191 497,1191 498,1190 499,1190 500,1190 501,1190 502,1190 503,1190 504,1190 505,1190 506,1190 507,1190 508,1190 509,1190 510,1190 511,1190 512,1190 513,1190 514,1190 515,1190 516,1190 517,1190 518,1190 519,1190 520,1190 521,1190 522,1190 523,1189 524,1189 525,1189 526,1189 527,1189 528,1189 529,1189 530,1189 531,1189 532,1189 533,1189 534,1189 535,1189 536,1189 537,1189 538,1189 539,1188 540,1188 541,1188 542,1188 543,1188 544,1188 545,1188 546,1188 547,1188 548,1188 549,1188 550,1188 551,1188 552,1187 553,1187 554,1187 555,1187 556,1187 557,1187 558,1187 559,1187 560,1187 561,1187 562,1187 563,1186 564,1186 565,1186 566,1186 567,1186 568,1186 569,1186 570,1186 571,1186 572,1186 573,1185 574,1185 575,1185 576,1185 577,1185 578,1185 579,1185 580,1185 581,1185 582,1184 583,1184 584,1184 585,1184 586,1184 587,1184 588,1184 589,1184 590,1183 591,1183 592,1183 593,1183 594,1183 595,1183 596,1183 597,1182 598,1182 599,1182 600,1182 601,1182 602,1182 603,1182 604,1181 605,1181 606,1181 607,1181 608,1181 609,1181 610,1181 611,1180 612,1180 613,1180 614,1180 615,1180 616,1180 617,1179 618,1179 619,1179 620,1179 621,1179 622,1179 623,1178 624,1178 625,1178 626,1178 627,1178 628,1178 629,1177 630,1177 631,1177 632,1177 633,1177 634,1177 635,1176 636,1176 637,1176 638,1176 639,1176 640,1175 641,1175 642,1175 643,1175 644,1175 645,1175 646,1174 647,1174 648,1174 649,1174 650,1174 651,1173 652,1173 653,1173 654,1173 655,1173 656,1172 657,1172 658,1172 659,1172 660,1172 661,1171 662,1171 663,1171 664,1171 665,1171 666,1170 667,1170 668,1170 669,1170 670,1170 671,1169 672,1169 673,1169 674,1169 675,1169 676,1168 677,1168 678,1168 679,1168 680,1168 681,1167 682,1167 683,1167 684,1167 685,1167 686,1166 687,1166 688,1166 689,1166 690,1166 691,1165 692,1165 693,1165 694,1165 695,1165 696,1164 697,1164 698,1164 699,1164 700,1164 701,1163 702,1163 703,1163 704,1163 705,1163 706,1162 707,1162 708,1162 709,1162 710,1162 711,1161 712,1161 713,1161 714,1161 715,1161 716,1160 717,1160 718,1160 719,1160 720,1160 721,1159 722,1159 723,1159 724,1159 725,1158 726,1158 727,1158 728,1158 729,1158 730,1157 731,1157 732,1157 733,1157 734,1157 735,1157 736,1156 737,1156 738,1156 739,1156 740,1156 741,1155 742,1155 743,1155 744,1155 745,1155 746,1154 747,1154 748,1154 749,1154 750,1154 751,1153 752,1153 753,1153 754,1153 755,1153 756,1152 757,1152 758,1152 759,1152 760,1152 761,1152 762,1151 763,1151 764,1151 765,1151 766,1151 767,1151 768,1150 769,1150 770,1150 771,1150 772,1150 773,1149 774,1149 775,1149 776,1149 777,1149 778,1149 779,1148 780,1148 781,1148 782,1148 783,1148 784,1148 785,1147 786,1147 787,1147 788,1147 789,1147 790,1147 791,1147 792,1146 793,1146 794,1146 795,1146 796,1146 797,1146 798,1146 799,1145 800,1145 801,1145 802,1145 803,1145 804,1145 805,1145 806,1144 807,1144 808,1144 809,1144 810,1144 811,1144 812,1144 813,1144 814,1143 815,1143 816,1143 817,1143 818,1143 819,1143 820,1143 821,1143 822,1142 823,1142 824,1142 825,1142 826,1142 827,1142 828,1142 829,1142 830,1142 831,1142 832,1141 833,1141 834,1141 835,1141 836,1141 837,1141 838,1141 839,1141 840,1141 841,1141 842,1141 843,1140 844,1140 845,1140 846,1140 847,1140 848,1140 849,1140 850,1140 851,1140 852,1140 853,1140 854,1140 855,1140 856,1140 857,1140 858,1140 859,1139 860,1139 861,1139 862,1139 863,1139 864,1139 865,1139 866,1139 867,1139 868,1139 869,1139 870,1139 871,1139 872,1139 873,1139 874,1139 875,1139 876,1139 877,1139 878,1139 879,1139 880,1139 881,1139 882,1139 883,1139 884,1139 885,1139 886,1139 887,1139 888,1139 889,1139 890,1139 891,1139 892,1139 893,1139 894,1139 895,1139 896,1139 897,1139 898,1139 899,1139 900,1139 901,1139 902,1139 903,1140 904,1140 905,1140 906,1140 907,1140 908,1140 909,1140 910,1140 911,1140 912,1140 913,1140 914,1140 915,1140 916,1140 917,1140 918,1140 919,1141 920,1141 921,1141 922,1141 923,1141 924,1141 925,1141 926,1141 927,1141 928,1141 929,1141 930,1142 931,1142 932,1142 933,1142 934,1142 935,1142 936,1142 937,1142 938,1142 939,1143 940,1143 941,1143 942,1143 943,1143 944,1143 945,1143 946,1143 947,1143 948,1144 949,1144 950,1144 951,1144 952,1144 953,1144 954,1144 955,1145 956,1145 957,1145 958,1145 959,1145 960,1145 961,1145 962,1146 963,1146 964,1146 965,1146 966,1146 967,1146 968,1146 969,1147 970,1147 971,1147 972,1147 973,1147 974,1147 975,1148 976,1148 977,1148 978,1148 979,1148 980,1148 981,1149 982,1149 983,1149 984,1149 985,1149 986,1149 987,1150 988,1150 989,1150 990,1150 991,1150 992,1150 993,1151 994,1151 995,1151 996,1151 997,1151 998,1152 999,1152 1000,1152 1001,1152 1002,1152 1003,1153 1004,1153 1005,1153 1006,1153 1007,1153 1008,1153 1009,1154 1010,1154 1011,1154 1012,1154 1013,1154 1014,1155 1015,1155 1016,1155 1017,1155 1018,1155 1019,1156 1020,1156 1021,1156 1022,1156 1023,1156 1024,1157 1025,1157 1026,1157 1027,1157 1028,1157 1029,1158 1030,1158 1031,1158 1032,1158 1033,1158 1034,1159 1035,1159 1036,1159 1037,1159 1038,1159 1039,1160 1040,1160 1041,1160 1042,1160 1043,1161 1044,1161 1045,1161 1046,1161 1047,1161 1048,1162 1049,1162 1050,1162 1051,1162 1052,1162 1053,1163 1054,1163 1055,1163 1056,1163 1057,1163 1058,1164 1059,1164 1060,1164 1061,1164 1062,1164 1063,1165 1064,1165 1065,1165 1066,1165 1067,1166 1068,1166 1069,1166 1070,1166 1071,1166 1072,1167 1073,1167 1074,1167 1075,1167 1076,1167 1077,1168 1078,1168 1079,1168 1080,1168 1081,1168 1082,1169 1083,1169 1084,1169 1085,1169 1086,1170 1087,1170 1088,1170 1089,1170 1090,1170 1091,1171 1092,1171 1093,1171 1094,1171 1095,1171 1096,1172 1097,1172 1098,1172 1099,1172 1100,1172 1101,1173 1102,1173 1103,1173 1104,1173 1105,1173 1106,1174 1107,1174 1108,1174 1109,1174 1110,1174 1111,1175 1112,1175 1113,1175 1114,1175 1115,1175 1116,1175 1117,1176 1118,1176 1119,1176 1120,1176 1121,1176 1122,1177 1123,1177 1124,1177 1125,1177 1126,1177 1127,1178 1128,1178 1129,1178 1130,1178 1131,1178 1132,1178 1133,1179 1134,1179 1135,1179 1136,1179 1137,1179 1138,1179 1139,1180 1140,1180 1141,1180 1142,1180 1143,1180 1144,1180 1145,1181 1146,1181 1147,1181 1148,1181 1149,1181 1150,1181 1151,1182 1152,1182 1153,1182 1154,1182 1155,1182 1156,1182 1157,1183 1158,1183 1159,1183 1160,1183 1161,1183 1162,1183 1163,1183 1164,1184 1165,1184 1166,1184 1167,1184 1168,1184 1169,1184 1170,1184 1171,1184 1172,1185 1173,1185 1174,1185 1175,1185 1176,1185 1177,1185 1178,1185 1179,1185 1180,1186 1181,1186 1182,1186 1183,1186 1184,1186 1185,1186 1186,1186 1187,1186 1188,1187 1189,1187 1190,1187 1191,1187 1192,1187 1193,1187 1194,1187 1195,1187 1196,1187 1197,1187 1198,1187 1199,1188 1200,1188 1201,1188 1202,1188 1203,1188 1204,1188 1205,1188 1206,1188 1207,1188 1208,1188 1209,1188 1210,1189 1211,1189 1212,1189 1213,1189 1214,1189 1215,1189 1216,1189 1217,1189 1218,1189 1219,1189 1220,1189 1221,1189 1222,1189 1223,1189 1224,1189 1225,1190 1226,1190 1227,1190 1228,1190 1229,1190 1230,1190 1231,1190 1232,1190 1233,1190 1234,1190 1235,1190 1236,1190 1237,1190 1238,1190 1239,1190 1240,1190 1241,1190 1242,1190 1243,1190 1244,1190 1245,1190 1246,1191 1247,1191 1248,1191 1249,1191 1250,1191 1251,1191 1252,1191 1253,1191 1254,1191 1255,1191 1256,1191 1257,1191 1258,1191 1259,1191 1260,1191 1261,1191 1262,1191 1263,1191 1264,1191 1265,1191 1266,1191 1267,1191 1268,1191 1269,1191 1270,1191 1271,1191 1272,1191 1273,1191 1274,1191 1275,1191 1276,1191 1277,1191 1278,1191 1279,1191 1280,1191 1281,1191 1282,1191 1283,1191 1284,1191 1285,1191 1286,1191 1287,1191 1288,1191 1289,1191 1290,1191 1291,1191 1292,1191 1293,1191 1294,1191 1295,1191 1296,1191 1297,1191 1298,1191 1299,1191 1300,1191 1301,1191 1302,1191 1303,1191 1304,1191 1305,1191 1306,1191 1307,1191 1308,1191 1309,1191 1310,1191 1311,1191 1312,1191 1313,1191 1314,1191 1315,1191 1316,1191 1317,1191 1318,1191 1319,1191 1320,1191 1321,1191 1322,1191 1323,1191 1324,1191 1325,1191 1326,1191 1327,1191 1328,1191 1329,1191 1330,1191 1331,1191 1332,1190 1333,1190 1334,1190 1335,1190 1336,1190 1337,1190 1338,1190 1339,1190 1340,1190 1341,1190 1342,1190 1343,1190 1344,1190 1345,1190 1346,1190 1347,1190 1348,1190 1349,1190 1350,1190 1351,1190 1352,1190 1353,1190 1354,1190 1355,1190 1356,1190 1357,1190 1358,1190 1359,1190 1360,1190 1361,1189 1362,1189 1363,1189 1364,1189 1365,1189 1366,1189 1367,1189 1368,1189 1369,1189 1370,1189 1371,1189 1372,1189 1373,1189 1374,1189 1375,1189 1376,1189 1377,1189 1378,1189 1379,1189 1380,1189 1381,1189 1382,1189 1383,1189 1384,1188 1385,1188 1386,1188 1387,1188 1388,1188 1389,1188 1390,1188 1391,1188 1392,1188 1393,1188 1394,1188 1395,1188 1396,1188 1397,1188 1398,1188 1399,1188 1400,1188 1401,1188 1402,1188 1403,1188 1404,1188 1405,1188 1406,1187 1407,1187 1408,1187 1409,1187 1410,1187 1411,1187 1412,1187 1413,1187 1414,1187 1415,1187 1416,1187 1417,1187 1418,1187 1419,1187 1420,1187 1421,1187 1422,1187 1423,1187 1424,1187 1425,1187 1426,1187 1427,1187 1428,1187 1429,1186 1430,1186 1431,1186 1432,1186 1433,1186 1434,1186 1435,1186 1436,1186 1437,1186 1438,1186 1439,1186 1440,1186 1441,1186 1442,1186 1443,1186 1444,1186 1445,1186 1446,1186 1447,1186 1448,1186 1449,1186 1450,1186 1451,1186 1452,1186 1453,1185 1454,1185 1455,1185 1456,1185 1457,1185 1458,1185 1459,1185 1460,1185 1461,1185 1462,1185 1463,1185 1464,1185 1465,1185 1466,1185 1467,1185 1468,1185 1469,1185 1470,1185 1471,1185 1472,1185 1473,1185 1474,1185 1475,1185 1476,1185 1477,1185 1478,1185 1479,1185 1480,1185 1481,1185 1482,1185 1483,1184 1484,1184 1485,1184 1486,1184 1487,1184 1488,1184 1489,1184 1490,1184 1491,1184 1492,1184 1493,1184 1494,1184 1495,1184 1496,1184 1497,1184 1498,1184 1499,1184 1500,1184 1501,1184 1502,1184 1503,1184 1504,1184 1505,1184 1506,1184 1507,1184 1508,1184 1509,1184 1510,1184 1511,1184 1512,1184 1513,1184 1514,1184 1515,1184 1516,1184 1517,1184 1518,1184 1519,1184 1520,1184 1521,1184 1522,1184 1523,1184 1524,1184 1525,1184 1526,1184 1527,1184 1528,1184 1529,1184 1530,1184 1531,1184 1532,1184 1533,1184 1534,1184 1535,1184 1536,1184 1537,1184 1538,1184 1539,1183 1540,1183 1541,1183 1542,1183 1543,1183 1544,1183 1545,1183 1546,1183 1547,1183 1548,1183 1549,1183 1550,1183 1551,1183 1552,1183 1553,1183 1554,1183 1555,1183 1556,1183 1557,1183 1558,1183 1559,1183 1560,1183 1561,1183 1562,1183 1563,1183 1564,1183 1565,1183 1566,1183 1567,1183 1568,1183 1569,1183 1570,1183 1571,1183 1572,1183 1573,1183 1574,1183 1575,1183 1576,1183 1577,1183 1578,1183 1579,1183 1580,1183 1581,1183 1582,1183 1583,1183 1584,1183 1585,1183 1586,1183 1587,1183 1588,1183 1589,1183 1590,1183 1591,1183 1592,1183 1593,1183 1594,1183 1595,1183 1596,1183 1597,1183 1598,1183 1599,1183 1600,1183 1601,1183 1602,1183 1603,1183 1604,1183 1605,1183 1606,1183 1607,1183 1608,1183 1609,1183 1610,1183 1611,1183 1612,1183 1613,1183 1614,1183 1615,1183 1616,1183 1617,1183 1618,1183 1619,1183 1620,1183 1621,1183 1622,1184 1623,1184 1624,1184 1625,1184 1626,1184 1627,1184 1628,1184 1629,1184 1630,1184 1631,1184 1632,1184 1633,1184 1634,1184 1635,1184 1636,1184 1637,1184 1638,1184 1639,1184 1640,1184 1641,1184 1642,1184 1643,1184 1644,1184 1645,1184 1646,1184 1647,1184 1648,1184 1649,1184 1650,1184 1651,1184 1652,1184 1653,1184 1654,1184 1655,1184 1656,1184 1657,1184 1658,1184 1659,1184 1660,1184 1661,1184 1662,1184 1663,1184 1664,1184 1665,1184 1666,1184 1667,1184 1668,1184 1669,1184 1670,1184 1671,1184 1672,1184 1673,1184 1674,1184 1675,1184 1676,1184 1677,1184 1678,1184 1679,1184 1680,1184 1681,1184 1682,1184 1683,1184 1684,1184 1685,1184 1686,1184 1687,1184 1688,1184 1689,1184 1690,1184 1691,1184 1692,1184 1693,1184 1694,1184 1695,1184 1696,1184 1697,1184 1698,1184 1699,1184 1700,1184 1701,1184 1702,1184 1703,1184 1704,1184 1705,1184 1706,1184 1707,1184 1708,1184 1709,1184 1710,1184 1711,1184 1712,1185 1713,1185 1714,1185 1715,1185 1716,1185 1717,1185 1718,1185 1719,1185 1720,1185 1721,1185 1722,1185 1723,1185 1724,1185 1725,1185 1726,1185 1727,1185 1728,1185 1729,1185 1730,1185 1731,1185 1732,1185 1733,1185 1734,1185 1735,1185 1736,1185 1737,1185 1738,1185 1739,1185 1740,1185 1741,1185 1742,1185 1743,1185 1744,1185 1745,1185 1746,1185 1747,1185 1748,1185 1749,1185 1750,1185 1751,1185 1752,1185 1753,1185 1754,1185 1755,1185 1756,1185 1757,1185 1758,1185 1759,1185 1760,1185 1761,1185 1762,1185 1763,1185 1764,1185 1765,1185 1766,1185 1767,1185 1768,1185 1769,1185 1770,1185 1771,1185 1772,1185 1773,1185 1774,1185 1775,1185 1776,1185 1777,1185 1778,1185 1779,1185 1780,1185 1781,1185 1782,1185 1783,1185 1784,1185 1785,1185 1786,1185 1787,1185 1788,1185 1789,1185 1790,1185 1791,1185 1792,1185 1793,1185 1794,1185 1795,1185 1796,1185 1797,1185 1798,1185 1799,1185 1800,1185 1801,1185 1802,1185 1803,1185 1804,1185 1805,1185 1806,1185 1807,1185 1808,1185 1809,1185 1810,1185 1811,1185 1812,1185 1813,1185 1814,1185 1815,1185 1816,1185 1817,1185 1818,1185 1819,1185 1820,1185 1821,1185 1822,1185 1823,1185 1824,1185 1825,1185 1826,1185 1827,1185 1828,1185 1829,1185 1830,1185 1831,1185 1832,1185 1833,1185 1834,1185 1835,1185 1836,1185 1837,1185 1838,1185 1839,1185 1840,1185 1841,1185 1842,1185 1843,1185 1844,1186 1845,1186 1846,1186 1847,1186 1848,1186 1849,1186 1850,1186 1851,1186 1852,1186 1853,1186 1854,1186 1855,1186 1856,1186 1857,1186 1858,1186 1859,1186 1860,1186 1861,1186 1862,1186 1863,1186 1864,1186 1865,1186 1866,1186 1867,1186 1868,1186 1869,1186 1870,1186 1871,1186 1872,1186 1873,1186 1874,1186 1875,1186 1876,1186 1877,1186 1878,1186 1879,1186 1880,1186 1881,1186 1882,1186 1883,1186 1884,1186 1885,1186 1886,1186 1887,1186 1888,1186 1889,1186 1890,1186 1891,1186 1892,1186 1893,1186 1894,1186 1895,1186 1896,1186 1897,1186 1898,1186 1899,1186 1900,1186 1901,1186 1902,1186 1903,1186 1904,1186 1905,1186 1906,1186 1907,1186 1908,1186 1909,1186 1910,1186 1911,1186 1912,1186 1913,1186 1914,1186 1915,1186 1916,1186 1917,1186 1918,1185 1919,1185 1920,1185 1921,1185 1922,1185 1923,1185 1924,1185 1925,1185 1926,1185 1927,1185 1928,1185 1929,1185 1930,1185 1931,1185 1932,1185 1933,1185 1934,1185 1935,1185 1936,1185 1937,1185 1938,1185 1939,1185 1940,1185 1941,1185 1942,1185 1943,1185 1944,1185 1945,1185 1946,1185 1947,1185 1948,1185 1949,1185 1950,1185 1951,1185 1952,1185 1953,1185 1954,1185 1955,1185 1956,1185 1957,1185 1958,1185 1959,1185 1960,1185 1961,1185 1962,1185 1963,1185 1964,1185 1965,1185 1966,1185 1967,1185 1968,1185 1969,1185 1970,1185 1971,1185 1972,1185 1973,1185 1974,1185 1975,1185 1976,1185 1977,1185 1978,1185 1979,1185 1980,1185 1981,1185 1982,1185 1983,1185 1984,1185 1985,1185 1986,1185 1987,1185 1988,1185 1989,1185 1990,1185 1991,1185 1992,1185 1993,1185 1994,1185 1995,1185 1996,1185 1997,1185 1998,1185 1999,1185 2000,1185 2001,1185 2002,1185 2003,1185 2004,1185 2005,1185 2006,1185 2007,1185 2008,1185 2009,1185 2010,1185 2011,1185 2012,1185 2013,1185 2014,1185 2015,1185 2016,1185 2017,1185 2018,1185 2019,1185 2020,1185 2021,1185 2022,1185 2023,1185 2024,1185 2025,1185 2026,1185 2027,1185 2028,1185 2029,1185 2030,1185 2031,1185 2032,1185 2033,1185 2034,1185 2035,1185 2036,1185 2037,1185 2038,1185 2039,1185 2040,1185 2041,1185 2042,1185 2043,1185 2044,1185 2045,1185 2046,1185 2047,1185 " />
    <circle stroke="#000000" stroke-width="1" stroke-linecap="round" stroke-linejoin="round" fill="#000000" cx="302" cy="1185" r="3" />
    <circle stroke="#000000" stroke-width="1" stroke-linecap="round" stroke-linejoin="round" fill="#000000" cx="593" cy="1183" r="3" />
    <circle stroke="#000000" stroke-width="1" stroke-linecap="round" stroke-linejoin="round" fill="#000000" cx="884" cy="1139" r="3" />
    <circle stroke="#000000" stroke-width="1" stroke-linecap="round" stroke-linejoin="round" fill="#000000" cx="1175" cy="1185" r="3" />
    <circle stroke="#000000" stroke-width="1" stroke-linecap="round" stroke-linejoin="round" fill="#000000" cx="1466" cy="1185" r="3" />
    <circle stroke="#000000" stroke-width="1" stroke-linecap="round" stroke-linejoin="round" fill="#000000" cx="1756" cy="1185" r="3" />
    <circle stroke="#000000" stroke-width="1" stroke-linecap="round" stroke-linejoin="round" fill="#000000" cx="2047" cy="1185" r="3" />
  </g>
</svg>
