<?xml version="1.0" encoding="UTF-8"?>
<!DOCTYPE svg PUBLIC "-//W3C//DTD SVG 1.1//EN" "http://www.w3.org/Graphics/SVG/1.1/DTD/svg11.dtd">
<svg width="2396px" height="1303px" viewBox="0 0 2396 1303" version="1.1" xmlns="http://www.w3.org/2000/svg" xmlns:xlink="http://www.w3.org/1999/xlink">
  <g>
    <text x="172" y="1207" font-family="Times New Roman" font-size="21" fill="#000000">1</text>
    <text x="261" y="1207" font-family="Times New Roman" font-size="21" fill="#000000">2</text>
    <text x="350" y="1207" font-family="Times New Roman" font-size="21" fill="#000000">3</text>
    <text x="439" y="1207" font-family="Times New Roman" font-size="21" fill="#000000">4</text>
    <text x="527" y="1207" font-family="Times New Roman" font-size="21" fill="#000000">5</text>
    <text x="616" y="1207" font-family="Times New Roman" font-size="21" fill="#000000">6</text>
    <text x="705" y="1207" font-family="Times New Roman" font-size="21" fill="#000000">7</text>
    <text x="794" y="1207" font-family="Times New Roman" font-size="21" fill="#000000">8</text>
    <text x="882" y="1207" font-family="Times New Roman" font-size="21" fill="#000000">9</text>
    <text x="965" y="1207" font-family="Times New Roman" font-size="21" fill="#000000">10</text>
    <text x="1054" y="1207" font-family="Times New Roman" font-size="21" fill="#000000">11</text>
    <text x="1143" y="1207" font-family="Times New Roman" font-size="21" fill="#000000">12</text>
    <text x="1231" y="1207" font-family="Times New Roman" font-size="21" fill="#000000">13</text>
    <text x="1320" y="1207" font-family="Times New Roman" font-size="21" fill="#000000">14</text>
    <text x="1409" y="1207" font-family="Times New Roman" font-size="21" fill="#000000">15</text>
    <text x="1498" y="1207" font-family="Times New Roman" font-size="21" fill="#000000">16</text>
    <text x="1586" y="1207" font-family="Times New Roman" font-size="21" fill="#000000">17</text>
    <text x="1675" y="1207" font-family="Times New Roman" font-size="21" fill="#000000">18</text>
    <text x="1764" y="1207" font-family="Times New Roman" font-size="21" fill="#000000">19</text>
    <text x="1853" y="1207" font-family="Times New Roman" font-size="21" fill="#000000">20</text>
    <text x="1941" y="1207" font-family="Times New Roman" font-size="21" fill="#000000">21</text>
    <text x="2030" y="1207" font-family="Times New Roman" font-size="21" fill="#000000">22</text>
    <text x="2119" y="1207" font-family="Times New Roman" font-size="21" fill="#000000">23</text>
    <text x="2208" y="1207" font-family="Times New Roman" font-size="21" fill="#000000">24</text>
    <text x="2296" y="1207" font-family="Times New Roman" font-size="21" fill="#000000">25</text>
    <text x="55" y="1073" font-family="Times New Roman" font-size="21" fill="#000000">0.1</text>
    <text x="55" y="955" font-family="Times New Roman" font-size="21" fill="#000000">0.2</text>
    <text x="55" y="836" font-family="Times New Roman" font-size="21" fill="#000000">0.3</text>
    <text x="55" y="718" font-family="Times New Roman" font-size="21" fill="#000000">0.4</text>
    <text x="55" y="599" font-family="Times New Roman" font-size="21" fill="#000000">0.5</text>
    <text x="55" y="481" font-family="Times New Roman" font-size="21" fill="#000000">0.6</text>
    <text x="55" y="362" font-family="Times New Roman" font-size="21" fill="#000000">0.7</text>
    <text x="55" y="244" font-family="Times New Roman" font-size="21" fill="#000000">0.8</text>
    <text x="55" y="125" font-family="Times New Roman" font-size="21" fill="#000000">0.9</text>
    <text x="2382" y="1173" font-family="Times New Roman" font-size="21" font-weight="700" fill="#000000">k</text>
    <text x="101" y="15" font-family="Times New Roman" font-size="21" font-weight="700" fill="#000000">P(k)</text>
    <line stroke="#0000ff" stroke-width="2" stroke-linecap="butt" stroke-linejoin="bevel" x1="0" y1="1185" x2="2391" y2="1185" />
    <polygon stroke="#0000ff" stroke-width="1" stroke-linecap="round" stroke-linejoin="round" fill="#0000ff" points="2389.5,1178.5 2395.5,1184.5 2395.5,1185.5 2389.5,1191.5 " />
    <line stroke="#0000ff" stroke-width="1" stroke-linecap="round" stroke-linejoin="round" x1="177.5" y1="1190.5" x2="177.5" y2="1179.5" />
    <line stroke="#0000ff" stroke-width="1" stroke-linecap="round" stroke-linejoin="round" x1="266.5" y1="1190.5" x2="266.5" y2="1179.5" />
    <line stroke="#0000ff" stroke-width="1" stroke-linecap="round" stroke-linejoin="round" x1="355.5" y1="1190.5" x2="355.5" y2="1179.5" />
    <line stroke="#0000ff" stroke-width="1" stroke-linecap="round" stroke-linejoin="round" x1="444.5" y1="1190.5" x2="444.5" y2="1179.5" />
    <line stroke="#0000ff" stroke-width="1" stroke-linecap="round" stroke-linejoin="round" x1="532.5" y1="1190.5" x2="532.5" y2="1179.5" />
    <line stroke="#0000ff" stroke-width="1" stroke-linecap="round" stroke-linejoin="round" x1="621.5" y1="1190.5" x2="621.5" y2="1179.5" />
    <line stroke="#0000ff" stroke-width="1" stroke-linecap="round" stroke-linejoin="round" x1="710.5" y1="1190.5" x2="710.5" y2="1179.5" />
    <line stroke="#0000ff" stroke-width="1" stroke-linecap="round" stroke-linejoin="round" x1="799.5" y1="1190.5" x2="799.5" y2="1179.5" />
    <line stroke="#0000ff" stroke-width="1" stroke-linecap="round" stroke-linejoin="round" x1="887.5" y1="1190.5" x2="887.5" y2="1179.5" />
    <line stroke="#0000ff" stroke-width="1" stroke-linecap="round" stroke-linejoin="round" x1="976.5" y1="1190.5" x2="976.5" y2="1179.5" />
    <line stroke="#0000ff" stroke-width="1" stroke-linecap="round" stroke-linejoin="round" x1="1065.5" y1="1190.5" x2="1065.5" y2="1179.5" />
    <line stroke="#0000ff" stroke-width="1" stroke-linecap="round" stroke-linejoin="round" x1="1154.5" y1="1190.5" x2="1154.5" y2="1179.5" />
    <line stroke="#0000ff" stroke-width="1" stroke-linecap="round" stroke-linejoin="round" x1="1242.5" y1="1190.5" x2="1242.5" y2="1179.5" />
    <line stroke="#0000ff" stroke-width="1" stroke-linecap="round" stroke-linejoin="round" x1="1331.5" y1="1190.5" x2="1331.5" y2="1179.5" />
    <line stroke="#0000ff" stroke-width="1" stroke-linecap="round" stroke-linejoin="round" x1="1420.5" y1="1190.5" x2="1420.5" y2="1179.5" />
    <line stroke="#0000ff" stroke-width="1" stroke-linecap="round" stroke-linejoin="round" x1="1509.5" y1="1190.5" x2="1509.5" y2="1179.5" />
    <line stroke="#0000ff" stroke-width="1" stroke-linecap="round" stroke-linejoin="round" x1="1597.5" y1="1190.5" x2="1597.5" y2="1179.5" />
    <line stroke="#0000ff" stroke-width="1" stroke-linecap="round" stroke-linejoin="round" x1="1686.5" y1="1190.5" x2="1686.5" y2="1179.5" />
    <line stroke="#0000ff" stroke-width="1" stroke-linecap="round" stroke-linejoin="round" x1="1775.5" y1="1190.5" x2="1775.5" y2="1179.5" />
    <line stroke="#0000ff" stroke-width="1" stroke-linecap="round" stroke-linejoin="round" x1="1864.5" y1="1190.5" x2="1864.5" y2="1179.5" />
    <line stroke="#0000ff" stroke-width="1" stroke-linecap="round" stroke-linejoin="round" x1="1952.5" y1="1190.5" x2="1952.5" y2="1179.5" />
    <line stroke="#0000ff" stroke-width="1" stroke-linecap="round" stroke-linejoin="round" x1="2041.5" y1="1190.5" x2="2041.5" y2="1179.5" />
    <line stroke="#0000ff" stroke-width="1" stroke-linecap="round" stroke-linejoin="round" x1="2130.5" y1="1190.5" x2="2130.5" y2="1179.5" />
    <line stroke="#0000ff" stroke-width="1" stroke-linecap="round" stroke-linejoin="round" x1="2219.5" y1="1190.5" x2="2219.5" y2="1179.5" />
    <line stroke="#0000ff" stroke-width="1" stroke-linecap="round" stroke-linejoin="round" x1="2307.5" y1="1190.5" x2="2307.5" y2="1179.5" />
    <line stroke="#0000ff" stroke-width="2" stroke-linecap="butt" stroke-linejoin="bevel" x1="89" y1="3" x2="89" y2="1302" />
    <polygon stroke="#0000ff" stroke-width="1" stroke-linecap="round" stroke-linejoin="round" fill="#0000ff" points="82.5,6.5 88.5,0.5 89.5,0.5 95.5,6.5 " />
    <line stroke="#0000ff" stroke-width="1" stroke-linecap="round" stroke-linejoin="round" x1="83.5" y1="1066.5" x2="94.5" y2="1066.5" />
    <line stroke="#0000ff" stroke-width="1" stroke-linecap="round" stroke-linejoin="round" x1="83.5" y1="948.5" x2="94.5" y2="948.5" />
    <line stroke="#0000ff" stroke-width="1" stroke-linecap="round" stroke-linejoin="round" x1="83.5" y1="829.5" x2="94.5" y2="829.5" />
    <line stroke="#0000ff" stroke-width="1" stroke-linecap="round" stroke-linejoin="round" x1="83.5" y1="711.5" x2="94.5" y2="711.5" />
    <line stroke="#0000ff" stroke-width="1" stroke-linecap="round" stroke-linejoin="round" x1="83.5" y1="592.5" x2="94.5" y2="592.5" />
    <line stroke="#0000ff" stroke-width="1" stroke-linecap="round" stroke-linejoin="round" x1="83.5" y1="474.5" x2="94.5" y2="474.5" />
    <line stroke="#0000ff" stroke-width="1" stroke-linecap="round" stroke-linejoin="round" x1="83.5" y1="355.5" x2="94.5" y2="355.5" />
    <line stroke="#0000ff" stroke-width="1" stroke-linecap="round" stroke-linejoin="round" x1="83.5" y1="237.5" x2="94.5" y2="237.5" />
    <line stroke="#0000ff" stroke-width="1" stroke-linecap="round" stroke-linejoin="round" x1="83.5" y1="118.5" x2="94.5" y2="118.5" />
    <polyline stroke="#000000" stroke-width="1" stroke-linecap="round" stroke-linejoin="round" fill="none" points="89,1184 90,1184 91,1184 92,1184 93,1184 94,1184 95,1184 96,1184 97,1184 98,1184 99,1184 100,1184 101,1184 102,1184 103,1184 104,1184 105,1184 106,1184 107,1184 108,1184 109,1184 110,1184 111,1184 112,1184 113,1184 114,1184 115,1184 116,1185 117,1185 118,1185 119,1185 120,1185 121,1185 122,1185 123,1185 124,1185 125,1185 126,1185 127,1185 128,1185 129,1185 130,1185 131,1185 132,1185 133,1185 134,1185 135,1185 136,1185 137,1185 138,1185 139,1185 140,1185 141,1185 142,1185 143,1185 144,1185 145,1185 146,1185 147,1185 148,1185 149,1185 150,1185 151,1185 152,1185 153,1185 154,1185 155,1185 156,1185 157,1185 158,1185 159,1185 160,1185 161,1185 162,1185 163,1185 164,1185 165,1185 166,1185 167,1185 168,1185 169,1185 170,1185 171,1185 172,1185 173,1185 174,1185 175,1185 176,1185 177,1185 178,1185 179,1185 180,1185 181,1185 182,1185 183,1185 184,1185 185,1185 186,1185 187,1185 188,1185 189,1185 190,1185 191,1185 192,1185 193,1185 194,1185 195,1185 196,1185 197,1185 198,1185 199,1185 200,1185 201,1185 202,1185 203,1185 204,1185 205,1185 206,1185 207,1185 208,1185 209,1185 210,1185 211,1185 212,1185 213,1185 214,1185 215,1185 216,1185 217,1185 218,1185 219,1185 220,1184 221,1184 222,1184 223,1184 224,1184 225,1184 226,1184 227,1184 228,1184 229,1184 230,1184 231,1184 232,1184 233,1184 234,1184 235,1184 236,1184 237,1184 238,1184 239,1184 240,1184 241,1184 242,1184 243,1184 244,1184 245,1184 246,1184 247,1183 248,1183 249,1183 250,1183 251,1183 252,1183 253,1183 254,1183 255,1183 256,1183 257,1183 258,1183 259,1183 260,1183 261,1183 262,1183 263,1183 264,1182 265,1182 266,1182 267,1182 268,1182 269,1182 270,1182 271,1182 272,1182 273,1182 274,1182 275,1182 276,1182 277,1182 278,1181 279,1181 280,1181 281,1181 282,1181 283,1181 284,1181 285,1181 286,1181 287,1181 288,1181 289,1181 290,1180 291,1180 292,1180 293,1180 294,1180 295,1180 296,1180 297,1180 298,1180 299,1180 300,1180 301,1179 302,1179 303,1179 304,1179 305,1179 306,1179 307,1179 308,1179 309,1179 310,1178 311,1178 312,1178 313,1178 314,1178 315,1178 316,1178 317,1178 318,1177 319,1177 320,1177 321,1177 322,1177 323,1177 324,1177 325,1177 326,1176 327,1176 328,1176 329,1176 330,1176 331,1176 332,1176 333,1175 334,1175 335,1175 336,1175 337,1175 338,1175 339,1175 340,1174 341,1174 342,1174 343,1174 344,1174 345,1174 346,1174 347,1173 348,1173 349,1173 350,1173 351,1173 352,1173 353,1172 354,1172 355,1172 356,1172 357,1172 358,1171 359,1171 360,1171 361,1171 362,1171 363,1171 364,1170 365,1170 366,1170 367,1170 368,1170 369,1169 370,1169 371,1169 372,1169 373,1169 374,1168 375,1168 376,1168 377,1168 378,1168 379,1167 380,1167 381,1167 382,1167 383,1167 384,1166 385,1166 386,1166 387,1166 388,1165 389,1165 390,1165 391,1165 392,1165 393,1164 394,1164 395,1164 396,1164 397,1163 398,1163 399,1163 400,1163 401,1163 402,1162 403,1162 404,1162 405,1162 406,1161 407,1161 408,1161 409,1161 410,1160 411,1160 412,1160 413,1160 414,1159 415,1159 416,1159 417,1159 418,1158 419,1158 420,1158 421,1157 422,1157 423,1157 424,1157 425,1156 426,1156 427,1156 428,1156 429,1155 430,1155 431,1155 432,1155 433,1154 434,1154 435,1154 436,1153 437,1153 438,1153 439,1153 440,1152 441,1152 442,1152 443,1151 444,1151 445,1151 446,1151 447,1150 448,1150 449,1150 450,1149 451,1149 452,1149 453,1148 454,1148 455,1148 456,1148 457,1147 458,1147 459,1147 460,1146 461,1146 462,1146 463,1145 464,1145 465,1145 466,1144 467,1144 468,1144 469,1143 470,1143 471,1143 472,1142 473,1142 474,1142 475,1141 476,1141 477,1141 478,1140 479,1140 480,1140 481,1139 482,1139 483,1139 484,1138 485,1138 486,1138 487,1137 488,1137 489,1137 490,1136 491,1136 492,1136 493,1135 494,1135 495,1135 496,1134 497,1134 498,1134 499,1133 500,1133 501,1133 502,1132 503,1132 504,1131 505,1131 506,1131 507,1130 508,1130 509,1130 510,1129 511,1129 512,1129 513,1128 514,1128 515,1127 516,1127 517,1127 518,1126 519,1126 520,1126 521,1125 522,1125 523,1124 524,1124 525,1124 526,1123 527,1123 528,1123 529,1122 530,1122 531,1121 532,1121 533,1121 534,1120 535,1120 536,1119 537,1119 538,1119 539,1118 540,1118 541,1117 542,1117 543,1117 544,1116 545,1116 546,1115 547,1115 548,1115 549,1114 550,1114 551,1113 552,1113 553,1113 554,1112 555,1112 556,1111 557,1111 558,1111 559,1110 560,1110 561,1109 562,1109 563,1109 564,1108 565,1108 566,1107 567,1107 568,1106 569,1106 570,1106 571,1105 572,1105 573,1104 574,1104 575,1104 576,1103 577,1103 578,1102 579,1102 580,1101 581,1101 582,1101 583,1100 584,1100 585,1099 586,1099 587,1098 588,1098 589,1098 590,1097 591,1097 592,1096 593,1096 594,1096 595,1095 596,1095 597,1094 598,1094 599,1093 600,1093 601,1093 602,1092 603,1092 604,1091 605,1091 606,1090 607,1090 608,1090 609,1089 610,1089 611,1088 612,1088 613,1087 614,1087 615,1087 616,1086 617,1086 618,1085 619,1085 620,1084 621,1084 622,1084 623,1083 624,1083 625,1082 626,1082 627,1081 628,1081 629,1081 630,1080 631,1080 632,1079 633,1079 634,1078 635,1078 636,1078 637,1077 638,1077 639,1076 640,1076 641,1075 642,1075 643,1075 644,1074 645,1074 646,1073 647,1073 648,1072 649,1072 650,1072 651,1071 652,1071 653,1070 654,1070 655,1069 656,1069 657,1069 658,1068 659,1068 660,1067 661,1067 662,1066 663,1066 664,1066 665,1065 666,1065 667,1064 668,1064 669,1064 670,1063 671,1063 672,1062 673,1062 674,1061 675,1061 676,1061 677,1060 678,1060 679,1059 680,1059 681,1059 682,1058 683,1058 684,1057 685,1057 686,1057 687,1056 688,1056 689,1055 690,1055 691,1055 692,1054 693,1054 694,1053 695,1053 696,1053 697,1052 698,1052 699,1051 700,1051 701,1051 702,1050 703,1050 704,1049 705,1049 706,1049 707,1048 708,1048 709,1048 710,1047 711,1047 712,1046 713,1046 714,1046 715,1045 716,1045 717,1044 718,1044 719,1044 720,1043 721,1043 722,1043 723,1042 724,1042 725,1042 726,1041 727,1041 728,1040 729,1040 730,1040 731,1039 732,1039 733,1039 734,1038 735,1038 736,1038 737,1037 738,1037 739,1037 740,1036 741,1036 742,1035 743,1035 744,1035 745,1034 746,1034 747,1034 748,1033 749,1033 750,1033 751,1032 752,1032 753,1032 754,1031 755,1031 756,1031 757,1030 758,1030 759,1030 760,1030 761,1029 762,1029 763,1029 764,1028 765,1028 766,1028 767,1027 768,1027 769,1027 770,1026 771,1026 772,1026 773,1026 774,1025 775,1025 776,1025 777,1024 778,1024 779,1024 780,1024 781,1023 782,1023 783,1023 784,1022 785,1022 786,1022 787,1022 788,1021 789,1021 790,1021 791,1021 792,1020 793,1020 794,1020 795,1019 796,1019 797,1019 798,1019 799,1018 800,1018 801,1018 802,1018 803,1017 804,1017 805,1017 806,1017 807,1017 808,1016 809,1016 810,1016 811,1016 812,1015 813,1015 814,1015 815,1015 816,1015 817,1014 818,1014 819,1014 820,1014 821,1014 822,1013 823,1013 824,1013 825,1013 826,1013 827,1012 828,1012 829,1012 830,1012 831,1012 832,1012 833,1011 834,1011 835,1011 836,1011 837,1011 838,1011 839,1010 840,1010 841,1010 842,1010 843,1010 844,1010 845,1009 846,1009 847,1009 848,1009 849,1009 850,1009 851,1009 852,1009 853,1008 854,1008 855,1008 856,1008 857,1008 858,1008 859,1008 860,1008 861,1008 862,1007 863,1007 864,1007 865,1007 866,1007 867,1007 868,1007 869,1007 870,1007 871,1007 872,1007 873,1007 874,1006 875,1006 876,1006 877,1006 878,1006 879,1006 880,1006 881,1006 882,1006 883,1006 884,1006 885,1006 886,1006 887,1006 888,1006 889,1006 890,1006 891,1006 892,1006 893,1006 894,1006 895,1006 896,1006 897,1006 898,1006 899,1006 900,1006 901,1006 902,1006 903,1006 904,1006 905,1006 906,1006 907,1006 908,1006 909,1006 910,1006 911,1006 912,1006 913,1006 914,1006 915,1006 916,1007 917,1007 918,1007 919,1007 920,1007 921,1007 922,1007 923,1007 924,1007 925,1007 926,1007 927,1007 928,1008 929,1008 930,1008 931,1008 932,1008 933,1008 934,1008 935,1008 936,1009 937,1009 938,1009 939,1009 940,1009 941,1009 942,1009 943,1010 944,1010 945,1010 946,1010 947,1010 948,1010 949,1011 950,1011 951,1011 952,1011 953,1011 954,1012 955,1012 956,1012 957,1012 958,1012 959,1013 960,1013 961,1013 962,1013 963,1014 964,1014 965,1014 966,1014 967,1015 968,1015 969,1015 970,1015 971,1016 972,1016 973,1016 974,1016 975,1017 976,1017 977,1017 978,1018 979,1018 980,1018 981,1018 982,1019 983,1019 984,1019 985,1020 986,1020 987,1020 988,1021 989,1021 990,1021 991,1022 992,1022 993,1022 994,1023 995,1023 996,1024 997,1024 998,1024 999,1025 1000,1025 1001,1025 1002,1026 1003,1026 1004,1027 1005,1027 1006,1027 1007,1028 1008,1028 1009,1029 1010,1029 1011,1029 1012,1030 1013,1030 1014,1031 1015,1031 1016,1031 1017,1032 1018,1032 1019,1033 1020,1033 1021,1034 1022,1034 1023,1035 1024,1035 1025,1035 1026,1036 1027,1036 1028,1037 1029,1037 1030,1038 1031,1038 1032,1039 1033,1039 1034,1040 1035,1040 1036,1041 1037,1041 1038,1042 1039,1042 1040,1042 1041,1043 1042,1043 1043,1044 1044,1044 1045,1045 1046,1045 1047,1046 1048,1046 1049,1047 1050,1047 1051,1048 1052,1049 1053,1049 1054,1050 1055,1050 1056,1051 1057,1051 1058,1052 1059,1052 1060,1053 1061,1053 1062,1054 1063,1054 1064,1055 1065,1055 1066,1056 1067,1056 1068,1057 1069,1057 1070,1058 1071,1059 1072,1059 1073,1060 1074,1060 1075,1061 1076,1061 1077,1062 1078,1062 1079,1063 1080,1064 1081,1064 1082,1065 1083,1065 1084,1066 1085,1066 1086,1067 1087,1067 1088,1068 1089,1069 1090,1069 1091,1070 1092,1070 1093,1071 1094,1071 1095,1072 1096,1073 1097,1073 1098,1074 1099,1074 1100,1075 1101,1075 1102,1076 1103,1077 1104,1077 1105,1078 1106,1078 1107,1079 1108,1079 1109,1080 1110,1081 1111,1081 1112,1082 1113,1082 1114,1083 1115,1084 1116,1084 1117,1085 1118,1085 1119,1086 1120,1086 1121,1087 1122,1088 1123,1088 1124,1089 1125,1089 1126,1090 1127,1090 1128,1091 1129,1092 1130,1092 1131,1093 1132,1093 1133,1094 1134,1095 1135,1095 1136,1096 1137,1096 1138,1097 1139,1097 1140,1098 1141,1099 1142,1099 1143,1100 1144,1100 1145,1101 1146,1101 1147,1102 1148,1103 1149,1103 1150,1104 1151,1104 1152,1105 1153,1105 1154,1106 1155,1107 1156,1107 1157,1108 1158,1108 1159,1109 1160,1109 1161,1110 1162,1110 1163,1111 1164,1112 1165,1112 1166,1113 1167,1113 1168,1114 1169,1114 1170,1115 1171,1115 1172,1116 1173,1117 1174,1117 1175,1118 1176,1118 1177,1119 1178,1119 1179,1120 1180,1120 1181,1121 1182,1121 1183,1122 1184,1122 1185,1123 1186,1123 1187,1124 1188,1124 1189,1125 1190,1125 1191,1126 1192,1127 1193,1127 1194,1128 1195,1128 1196,1129 1197,1129 1198,1130 1199,1130 1200,1131 1201,1131 1202,1132 1203,1132 1204,1132 1205,1133 1206,1133 1207,1134 1208,1134 1209,1135 1210,1135 1211,1136 1212,1136 1213,1137 1214,1137 1215,1138 1216,1138 1217,1139 1218,1139 1219,1139 1220,1140 1221,1140 1222,1141 1223,1141 1224,1142 1225,1142 1226,1143 1227,1143 1228,1143 1229,1144 1230,1144 1231,1145 1232,1145 1233,1145 1234,1146 1235,1146 1236,1147 1237,1147 1238,1147 1239,1148 1240,1148 1241,1149 1242,1149 1243,1149 1244,1150 1245,1150 1246,1150 1247,1151 1248,1151 1249,1152 1250,1152 1251,1152 1252,1153 1253,1153 1254,1153 1255,1154 1256,1154 1257,1154 1258,1155 1259,1155 1260,1155 1261,1156 1262,1156 1263,1156 1264,1157 1265,1157 1266,1157 1267,1157 1268,1158 1269,1158 1270,1158 1271,1159 1272,1159 1273,1159 1274,1159 1275,1160 1276,1160 1277,1160 1278,1161 1279,1161 1280,1161 1281,1161 1282,1162 1283,1162 1284,1162 1285,1162 1286,1163 1287,1163 1288,1163 1289,1163 1290,1164 1291,1164 1292,1164 1293,1164 1294,1164 1295,1165 1296,1165 1297,1165 1298,1165 1299,1166 1300,1166 1301,1166 1302,1166 1303,1166 1304,1167 1305,1167 1306,1167 1307,1167 1308,1167 1309,1168 1310,1168 1311,1168 1312,1168 1313,1168 1314,1169 1315,1169 1316,1169 1317,1169 1318,1169 1319,1169 1320,1170 1321,1170 1322,1170 1323,1170 1324,1170 1325,1170 1326,1171 1327,1171 1328,1171 1329,1171 1330,1171 1331,1171 1332,1171 1333,1172 1334,1172 1335,1172 1336,1172 1337,1172 1338,1172 1339,1172 1340,1173 1341,1173 1342,1173 1343,1173 1344,1173 1345,1173 1346,1173 1347,1173 1348,1174 1349,1174 1350,1174 1351,1174 1352,1174 1353,1174 1354,1174 1355,1174 1356,1174 1357,1175 1358,1175 1359,1175 1360,1175 1361,1175 1362,1175 1363,1175 1364,1175 1365,1175 1366,1175 1367,1176 1368,1176 1369,1176 1370,1176 1371,1176 1372,1176 1373,1176 1374,1176 1375,1176 1376,1176 1377,1176 1378,1176 1379,1177 1380,1177 1381,1177 1382,1177 1383,1177 1384,1177 1385,1177 1386,1177 1387,1177 1388,1177 1389,1177 1390,1177 1391,1177 1392,1177 1393,1178 1394,1178 1395,1178 1396,1178 1397,1178 1398,1178 1399,1178 1400,1178 1401,1178 1402,1178 1403,1178 1404,1178 1405,1178 1406,1178 1407,1178 1408,1178 1409,1178 1410,1178 1411,1179 1412,1179 1413,1179 1414,1179 1415,1179 1416,1179 1417,1179 1418,1179 1419,1179 1420,1179 1421,1179 1422,1179 1423,1179 1424,1179 1425,1179 1426,1179 1427,1179 1428,1179 1429,1179 1430,1179 1431,1180 1432,1180 1433,1180 1434,1180 1435,1180 1436,1180 1437,1180 1438,1180 1439,1180 1440,1180 1441,1180 1442,1180 1443,1180 1444,1180 1445,1180 1446,1180 1447,1180 1448,1180 1449,1180 1450,1180 1451,1180 1452,1180 1453,1180 1454,1180 1455,1181 1456,1181 1457,1181 1458,1181 1459,1181 1460,1181 1461,1181 1462,1181 1463,1181 1464,1181 1465,1181 1466,1181 1467,1181 1468,1181 1469,1181 1470,1181 1471,1181 1472,1181 1473,1181 1474,1181 1475,1181 1476,1181 1477,1181 1478,1181 1479,1181 1480,1181 1481,1181 1482,1181 1483,1181 1484,1181 1485,1182 1486,1182 1487,1182 1488,1182 1489,1182 1490,1182 1491,1182 1492,1182 1493,1182 1494,1182 1495,1182 1496,1182 1497,1182 1498,1182 1499,1182 1500,1182 1501,1182 1502,1182 1503,1182 1504,1182 1505,1182 1506,1182 1507,1182 1508,1182 1509,1182 1510,1182 1511,1182 1512,1182 1513,1182 1514,1182 1515,1182 1516,1182 1517,1182 1518,1182 1519,1182 1520,1182 1521,1182 1522,1183 1523,1183 1524,1183 1525,1183 1526,1183 1527,1183 1528,1183 1529,1183 1530,1183 1531,1183 1532,1183 1533,1183 1534,1183 1535,1183 1536,1183 1537,1183 1538,1183 1539,1183 1540,1183 1541,1183 1542,1183 1543,1183 1544,1183 1545,1183 1546,1183 1547,1183 1548,1183 1549,1183 1550,1183 1551,1183 1552,1183 1553,1183 1554,1183 1555,1183 1556,1183 1557,1183 1558,1183 1559,1183 1560,1183 1561,1183 1562,1183 1563,1183 1564,1183 1565,1183 1566,1183 1567,1183 1568,1183 1569,1183 1570,1184 1571,1184 1572,1184 1573,1184 1574,1184 1575,1184 1576,1184 1577,1184 1578,1184 1579,1184 1580,1184 1581,1184 1582,1184 1583,1184 1584,1184 1585,1184 1586,1184 1587,1184 1588,1184 1589,1184 1590,1184 1591,1184 1592,1184 1593,1184 1594,1184 1595,1184 1596,1184 1597,1184 " />
    <circle stroke="#000000" stroke-width="1" stroke-linecap="round" stroke-linejoin="round" fill="#000000" cx="89" cy="1184" r="3" />
    <circle stroke="#000000" stroke-width="1" stroke-linecap="round" stroke-linejoin="round" fill="#000000" cx="355" cy="1172" r="3" />
    <circle stroke="#000000" stroke-width="1" stroke-linecap="round" stroke-linejoin="round" fill="#000000" cx="532" cy="1121" r="3" />
    <circle stroke="#000000" stroke-width="1" stroke-linecap="round" stroke-linejoin="round" fill="#000000" cx="976" cy="1017" r="3" />
    <circle stroke="#000000" stroke-width="1" stroke-linecap="round" stroke-linejoin="round" fill="#000000" cx="1242" cy="1149" r="3" />
    <circle stroke="#000000" stroke-width="1" stroke-linecap="round" stroke-linejoin="round" fill="#000000" cx="1420" cy="1179" r="3" />
    <circle stroke="#000000" stroke-width="1" stroke-linecap="round" stroke-linejoin="round" fill="#000000" cx="1597" cy="1184" r="3" />
  </g>
</svg>
