<?xml version="1.0" encoding="UTF-8"?>
<!DOCTYPE svg PUBLIC "-//W3C//DTD SVG 1.1//EN" "http://www.w3.org/Graphics/SVG/1.1/DTD/svg11.dtd">
<svg width="2396px" height="1303px" viewBox="0 0 2396 1303" version="1.1" xmlns="http://www.w3.org/2000/svg" xmlns:xlink="http://www.w3.org/1999/xlink">
  <g>
    <text x="103" y="1207" font-family="Times New Roman" font-size="21" fill="#000000">10</text>
    <text x="160" y="1207" font-family="Times New Roman" font-size="21" fill="#000000">20</text>
    <text x="217" y="1207" font-family="Times New Roman" font-size="21" fill="#000000">30</text>
    <text x="274" y="1207" font-family="Times New Roman" font-size="21" fill="#000000">40</text>
    <text x="331" y="1207" font-family="Times New Roman" font-size="21" fill="#000000">50</text>
    <text x="388" y="1207" font-family="Times New Roman" font-size="21" fill="#000000">60</text>
    <text x="445" y="1207" font-family="Times New Roman" font-size="21" fill="#000000">70</text>
    <text x="502" y="1207" font-family="Times New Roman" font-size="21" fill="#000000">80</text>
    <text x="559" y="1207" font-family="Times New Roman" font-size="21" fill="#000000">90</text>
    <text x="612" y="1207" font-family="Times New Roman" font-size="21" fill="#000000">100</text>
    <text x="669" y="1207" font-family="Times New Roman" font-size="21" fill="#000000">110</text>
    <text x="726" y="1207" font-family="Times New Roman" font-size="21" fill="#000000">120</text>
    <text x="783" y="1207" font-family="Times New Roman" font-size="21" fill="#000000">130</text>
    <text x="840" y="1207" font-family="Times New Roman" font-size="21" fill="#000000">140</text>
    <text x="897" y="1207" font-family="Times New Roman" font-size="21" fill="#000000">150</text>
    <text x="954" y="1207" font-family="Times New Roman" font-size="21" fill="#000000">160</text>
    <text x="1011" y="1207" font-family="Times New Roman" font-size="21" fill="#000000">170</text>
    <text x="1068" y="1207" font-family="Times New Roman" font-size="21" fill="#000000">180</text>
    <text x="1125" y="1207" font-family="Times New Roman" font-size="21" fill="#000000">190</text>
    <text x="1182" y="1207" font-family="Times New Roman" font-size="21" fill="#000000">200</text>
    <text x="1239" y="1207" font-family="Times New Roman" font-size="21" fill="#000000">210</text>
    <text x="1296" y="1207" font-family="Times New Roman" font-size="21" fill="#000000">220</text>
    <text x="1353" y="1207" font-family="Times New Roman" font-size="21" fill="#000000">230</text>
    <text x="1410" y="1207" font-family="Times New Roman" font-size="21" fill="#000000">240</text>
    <text x="1467" y="1207" font-family="Times New Roman" font-size="21" fill="#000000">250</text>
    <text x="1524" y="1207" font-family="Times New Roman" font-size="21" fill="#000000">260</text>
    <text x="1581" y="1207" font-family="Times New Roman" font-size="21" fill="#000000">270</text>
    <text x="1638" y="1207" font-family="Times New Roman" font-size="21" fill="#000000">280</text>
    <text x="1695" y="1207" font-family="Times New Roman" font-size="21" fill="#000000">290</text>
    <text x="1752" y="1207" font-family="Times New Roman" font-size="21" fill="#000000">300</text>
    <text x="1810" y="1207" font-family="Times New Roman" font-size="21" fill="#000000">310</text>
    <text x="1867" y="1207" font-family="Times New Roman" font-size="21" fill="#000000">320</text>
    <text x="1924" y="1207" font-family="Times New Roman" font-size="21" fill="#000000">330</text>
    <text x="1981" y="1207" font-family="Times New Roman" font-size="21" fill="#000000">340</text>
    <text x="2038" y="1207" font-family="Times New Roman" font-size="21" fill="#000000">350</text>
    <text x="2095" y="1207" font-family="Times New Roman" font-size="21" fill="#000000">360</text>
    <text x="2152" y="1207" font-family="Times New Roman" font-size="21" fill="#000000">370</text>
    <text x="2209" y="1207" font-family="Times New Roman" font-size="21" fill="#000000">380</text>
    <text x="2266" y="1207" font-family="Times New Roman" font-size="21" fill="#000000">390</text>
    <text x="2323" y="1207" font-family="Times New Roman" font-size="21" fill="#000000">400</text>
    <text x="23" y="1073" font-family="Times New Roman" font-size="21" fill="#000000">0.1</text>
    <text x="23" y="955" font-family="Times New Roman" font-size="21" fill="#000000">0.2</text>
    <text x="23" y="836" font-family="Times New Roman" font-size="21" fill="#000000">0.3</text>
    <text x="23" y="718" font-family="Times New Roman" font-size="21" fill="#000000">0.4</text>
    <text x="23" y="599" font-family="Times New Roman" font-size="21" fill="#000000">0.5</text>
    <text x="23" y="481" font-family="Times New Roman" font-size="21" fill="#000000">0.6</text>
    <text x="23" y="362" font-family="Times New Roman" font-size="21" fill="#000000">0.7</text>
    <text x="23" y="244" font-family="Times New Roman" font-size="21" fill="#000000">0.8</text>
    <text x="23" y="125" font-family="Times New Roman" font-size="21" fill="#000000">0.9</text>
    <text x="2382" y="1173" font-family="Times New Roman" font-size="21" font-weight="700" fill="#000000">k</text>
    <text x="69" y="15" font-family="Times New Roman" font-size="21" font-weight="700" fill="#000000">P(k)</text>
    <line stroke="#0000ff" stroke-width="2" stroke-linecap="butt" stroke-linejoin="bevel" x1="0" y1="1185" x2="2391" y2="1185" />
    <polygon stroke="#0000ff" stroke-width="1" stroke-linecap="round" stroke-linejoin="round" fill="#0000ff" points="2389.5,1178.5 2395.5,1184.5 2395.5,1185.5 2389.5,1191.5 " />
    <line stroke="#0000ff" stroke-width="1" stroke-linecap="round" stroke-linejoin="round" x1="114.5" y1="1190.5" x2="114.5" y2="1179.5" />
    <line stroke="#0000ff" stroke-width="1" stroke-linecap="round" stroke-linejoin="round" x1="171.5" y1="1190.5" x2="171.5" y2="1179.5" />
    <line stroke="#0000ff" stroke-width="1" stroke-linecap="round" stroke-linejoin="round" x1="228.5" y1="1190.5" x2="228.5" y2="1179.5" />
    <line stroke="#0000ff" stroke-width="1" stroke-linecap="round" stroke-linejoin="round" x1="285.5" y1="1190.5" x2="285.5" y2="1179.5" />
    <line stroke="#0000ff" stroke-width="1" stroke-linecap="round" stroke-linejoin="round" x1="342.5" y1="1190.5" x2="342.5" y2="1179.5" />
    <line stroke="#0000ff" stroke-width="1" stroke-linecap="round" stroke-linejoin="round" x1="399.5" y1="1190.5" x2="399.5" y2="1179.5" />
    <line stroke="#0000ff" stroke-width="1" stroke-linecap="round" stroke-linejoin="round" x1="456.5" y1="1190.5" x2="456.5" y2="1179.5" />
    <line stroke="#0000ff" stroke-width="1" stroke-linecap="round" stroke-linejoin="round" x1="513.5" y1="1190.5" x2="513.5" y2="1179.5" />
    <line stroke="#0000ff" stroke-width="1" stroke-linecap="round" stroke-linejoin="round" x1="570.5" y1="1190.5" x2="570.5" y2="1179.5" />
    <line stroke="#0000ff" stroke-width="1" stroke-linecap="round" stroke-linejoin="round" x1="628.5" y1="1190.5" x2="628.5" y2="1179.5" />
    <line stroke="#0000ff" stroke-width="1" stroke-linecap="round" stroke-linejoin="round" x1="685.5" y1="1190.5" x2="685.5" y2="1179.5" />
    <line stroke="#0000ff" stroke-width="1" stroke-linecap="round" stroke-linejoin="round" x1="742.5" y1="1190.5" x2="742.5" y2="1179.5" />
    <line stroke="#0000ff" stroke-width="1" stroke-linecap="round" stroke-linejoin="round" x1="799.5" y1="1190.5" x2="799.5" y2="1179.5" />
    <line stroke="#0000ff" stroke-width="1" stroke-linecap="round" stroke-linejoin="round" x1="856.5" y1="1190.5" x2="856.5" y2="1179.5" />
    <line stroke="#0000ff" stroke-width="1" stroke-linecap="round" stroke-linejoin="round" x1="913.5" y1="1190.5" x2="913.5" y2="1179.5" />
    <line stroke="#0000ff" stroke-width="1" stroke-linecap="round" stroke-linejoin="round" x1="970.5" y1="1190.5" x2="970.5" y2="1179.5" />
    <line stroke="#0000ff" stroke-width="1" stroke-linecap="round" stroke-linejoin="round" x1="1027.5" y1="1190.5" x2="1027.5" y2="1179.5" />
    <line stroke="#0000ff" stroke-width="1" stroke-linecap="round" stroke-linejoin="round" x1="1084.5" y1="1190.5" x2="1084.5" y2="1179.5" />
    <line stroke="#0000ff" stroke-width="1" stroke-linecap="round" stroke-linejoin="round" x1="1141.5" y1="1190.5" x2="1141.5" y2="1179.5" />
    <line stroke="#0000ff" stroke-width="1" stroke-linecap="round" stroke-linejoin="round" x1="1198.5" y1="1190.5" x2="1198.5" y2="1179.5" />
    <line stroke="#0000ff" stroke-width="1" stroke-linecap="round" stroke-linejoin="round" x1="1255.5" y1="1190.5" x2="1255.5" y2="1179.5" />
    <line stroke="#0000ff" stroke-width="1" stroke-linecap="round" stroke-linejoin="round" x1="1312.5" y1="1190.5" x2="1312.5" y2="1179.5" />
    <line stroke="#0000ff" stroke-width="1" stroke-linecap="round" stroke-linejoin="round" x1="1369.5" y1="1190.5" x2="1369.5" y2="1179.5" />
    <line stroke="#0000ff" stroke-width="1" stroke-linecap="round" stroke-linejoin="round" x1="1426.5" y1="1190.5" x2="1426.5" y2="1179.5" />
    <line stroke="#0000ff" stroke-width="1" stroke-linecap="round" stroke-linejoin="round" x1="1483.5" y1="1190.5" x2="1483.5" y2="1179.5" />
    <line stroke="#0000ff" stroke-width="1" stroke-linecap="round" stroke-linejoin="round" x1="1540.5" y1="1190.5" x2="1540.5" y2="1179.5" />
    <line stroke="#0000ff" stroke-width="1" stroke-linecap="round" stroke-linejoin="round" x1="1597.5" y1="1190.5" x2="1597.5" y2="1179.5" />
    <line stroke="#0000ff" stroke-width="1" stroke-linecap="round" stroke-linejoin="round" x1="1654.5" y1="1190.5" x2="1654.5" y2="1179.5" />
    <line stroke="#0000ff" stroke-width="1" stroke-linecap="round" stroke-linejoin="round" x1="1711.5" y1="1190.5" x2="1711.5" y2="1179.5" />
    <line stroke="#0000ff" stroke-width="1" stroke-linecap="round" stroke-linejoin="round" x1="1768.5" y1="1190.5" x2="1768.5" y2="1179.5" />
    <line stroke="#0000ff" stroke-width="1" stroke-linecap="round" stroke-linejoin="round" x1="1826.5" y1="1190.5" x2="1826.5" y2="1179.5" />
    <line stroke="#0000ff" stroke-width="1" stroke-linecap="round" stroke-linejoin="round" x1="1883.5" y1="1190.5" x2="1883.5" y2="1179.5" />
    <line stroke="#0000ff" stroke-width="1" stroke-linecap="round" stroke-linejoin="round" x1="1940.5" y1="1190.5" x2="1940.5" y2="1179.5" />
    <line stroke="#0000ff" stroke-width="1" stroke-linecap="round" stroke-linejoin="round" x1="1997.5" y1="1190.5" x2="1997.5" y2="1179.5" />
    <line stroke="#0000ff" stroke-width="1" stroke-linecap="round" stroke-linejoin="round" x1="2054.5" y1="1190.5" x2="2054.5" y2="1179.5" />
    <line stroke="#0000ff" stroke-width="1" stroke-linecap="round" stroke-linejoin="round" x1="2111.5" y1="1190.5" x2="2111.5" y2="1179.5" />
    <line stroke="#0000ff" stroke-width="1" stroke-linecap="round" stroke-linejoin="round" x1="2168.5" y1="1190.5" x2="2168.5" y2="1179.5" />
    <line stroke="#0000ff" stroke-width="1" stroke-linecap="round" stroke-linejoin="round" x1="2225.5" y1="1190.5" x2="2225.5" y2="1179.5" />
    <line stroke="#0000ff" stroke-width="1" stroke-linecap="round" stroke-linejoin="round" x1="2282.5" y1="1190.5" x2="2282.5" y2="1179.5" />
    <line stroke="#0000ff" stroke-width="1" stroke-linecap="round" stroke-linejoin="round" x1="2339.5" y1="1190.5" x2="2339.5" y2="1179.5" />
    <line stroke="#0000ff" stroke-width="2" stroke-linecap="butt" stroke-linejoin="bevel" x1="57" y1="3" x2="57" y2="1302" />
    <polygon stroke="#0000ff" stroke-width="1" stroke-linecap="round" stroke-linejoin="round" fill="#0000ff" points="50.5,6.5 56.5,0.5 57.5,0.5 63.5,6.5 " />
    <line stroke="#0000ff" stroke-width="1" stroke-linecap="round" stroke-linejoin="round" x1="51.5" y1="1066.5" x2="62.5" y2="1066.5" />
    <line stroke="#0000ff" stroke-width="1" stroke-linecap="round" stroke-linejoin="round" x1="51.5" y1="948.5" x2="62.5" y2="948.5" />
    <line stroke="#0000ff" stroke-width="1" stroke-linecap="round" stroke-linejoin="round" x1="51.5" y1="829.5" x2="62.5" y2="829.5" />
    <line stroke="#0000ff" stroke-width="1" stroke-linecap="round" stroke-linejoin="round" x1="51.5" y1="711.5" x2="62.5" y2="711.5" />
    <line stroke="#0000ff" stroke-width="1" stroke-linecap="round" stroke-linejoin="round" x1="51.5" y1="592.5" x2="62.5" y2="592.5" />
    <line stroke="#0000ff" stroke-width="1" stroke-linecap="round" stroke-linejoin="round" x1="51.5" y1="474.5" x2="62.5" y2="474.5" />
    <line stroke="#0000ff" stroke-width="1" stroke-linecap="round" stroke-linejoin="round" x1="51.5" y1="355.5" x2="62.5" y2="355.5" />
    <line stroke="#0000ff" stroke-width="1" stroke-linecap="round" stroke-linejoin="round" x1="51.5" y1="237.5" x2="62.5" y2="237.5" />
    <line stroke="#0000ff" stroke-width="1" stroke-linecap="round" stroke-linejoin="round" x1="51.5" y1="118.5" x2="62.5" y2="118.5" />
    <polyline stroke="#000000" stroke-width="1" stroke-linecap="round" stroke-linejoin="round" fill="none" points="342,1185 343,1185 344,1185 345,1185 346,1185 347,1185 348,1185 349,1185 350,1185 351,1185 352,1185 353,1185 354,1185 355,1185 356,1185 357,1185 358,1186 359,1186 360,1186 361,1186 362,1186 363,1186 364,1186 365,1186 366,1186 367,1186 368,1186 369,1186 370,1186 371,1186 372,1186 373,1186 374,1186 375,1186 376,1186 377,1186 378,1186 379,1186 380,1186 381,1186 382,1186 383,1186 384,1186 385,1186 386,1186 387,1186 388,1186 389,1186 390,1186 391,1187 392,1187 393,1187 394,1187 395,1187 396,1187 397,1187 398,1187 399,1187 400,1187 401,1187 402,1187 403,1187 404,1187 405,1187 406,1187 407,1187 408,1187 409,1187 410,1187 411,1187 412,1187 413,1187 414,1187 415,1187 416,1187 417,1187 418,1187 419,1187 420,1187 421,1187 422,1187 423,1187 424,1187 425,1187 426,1187 427,1187 428,1187 429,1188 430,1188 431,1188 432,1188 433,1188 434,1188 435,1188 436,1188 437,1188 438,1188 439,1188 440,1188 441,1188 442,1188 443,1188 444,1188 445,1188 446,1188 447,1188 448,1188 449,1188 450,1188 451,1188 452,1188 453,1188 454,1188 455,1188 456,1188 457,1188 458,1188 459,1188 460,1188 461,1188 462,1188 463,1188 464,1188 465,1188 466,1188 467,1188 468,1188 469,1188 470,1188 471,1188 472,1188 473,1188 474,1188 475,1188 476,1188 477,1188 478,1188 479,1188 480,1188 481,1188 482,1188 483,1188 484,1188 485,1188 486,1188 487,1188 488,1188 489,1188 490,1188 491,1188 492,1188 493,1188 494,1188 495,1188 496,1188 497,1188 498,1188 499,1188 500,1188 501,1188 502,1188 503,1188 504,1188 505,1188 506,1188 507,1188 508,1188 509,1188 510,1188 511,1188 512,1188 513,1188 514,1188 515,1188 516,1188 517,1188 518,1188 519,1188 520,1188 521,1188 522,1188 523,1188 524,1188 525,1188 526,1188 527,1188 528,1188 529,1188 530,1188 531,1188 532,1188 533,1188 534,1188 535,1188 536,1188 537,1188 538,1188 539,1188 540,1188 541,1188 542,1188 543,1188 544,1188 545,1188 546,1188 547,1188 548,1188 549,1188 550,1188 551,1188 552,1188 553,1188 554,1188 555,1188 556,1188 557,1188 558,1188 559,1188 560,1188 561,1188 562,1188 563,1188 564,1188 565,1188 566,1188 567,1188 568,1188 569,1188 570,1188 571,1188 572,1188 573,1188 574,1188 575,1187 576,1187 577,1187 578,1187 579,1187 580,1187 581,1187 582,1187 583,1187 584,1187 585,1187 586,1187 587,1187 588,1187 589,1187 590,1187 591,1187 592,1187 593,1187 594,1187 595,1187 596,1187 597,1187 598,1187 599,1187 600,1187 601,1186 602,1186 603,1186 604,1186 605,1186 606,1186 607,1186 608,1186 609,1186 610,1186 611,1186 612,1186 613,1186 614,1186 615,1186 616,1186 617,1186 618,1186 619,1186 620,1185 621,1185 622,1185 623,1185 624,1185 625,1185 626,1185 627,1185 628,1185 629,1185 630,1185 631,1185 632,1185 633,1185 634,1185 635,1185 636,1184 637,1184 638,1184 639,1184 640,1184 641,1184 642,1184 643,1184 644,1184 645,1184 646,1184 647,1184 648,1184 649,1184 650,1183 651,1183 652,1183 653,1183 654,1183 655,1183 656,1183 657,1183 658,1183 659,1183 660,1183 661,1183 662,1182 663,1182 664,1182 665,1182 666,1182 667,1182 668,1182 669,1182 670,1182 671,1182 672,1182 673,1182 674,1181 675,1181 676,1181 677,1181 678,1181 679,1181 680,1181 681,1181 682,1181 683,1181 684,1181 685,1180 686,1180 687,1180 688,1180 689,1180 690,1180 691,1180 692,1180 693,1180 694,1180 695,1180 696,1179 697,1179 698,1179 699,1179 700,1179 701,1179 702,1179 703,1179 704,1179 705,1179 706,1179 707,1178 708,1178 709,1178 710,1178 711,1178 712,1178 713,1178 714,1178 715,1178 716,1178 717,1177 718,1177 719,1177 720,1177 721,1177 722,1177 723,1177 724,1177 725,1177 726,1177 727,1176 728,1176 729,1176 730,1176 731,1176 732,1176 733,1176 734,1176 735,1176 736,1176 737,1175 738,1175 739,1175 740,1175 741,1175 742,1175 743,1175 744,1175 745,1175 746,1175 747,1174 748,1174 749,1174 750,1174 751,1174 752,1174 753,1174 754,1174 755,1174 756,1174 757,1173 758,1173 759,1173 760,1173 761,1173 762,1173 763,1173 764,1173 765,1173 766,1173 767,1173 768,1172 769,1172 770,1172 771,1172 772,1172 773,1172 774,1172 775,1172 776,1172 777,1172 778,1171 779,1171 780,1171 781,1171 782,1171 783,1171 784,1171 785,1171 786,1171 787,1171 788,1171 789,1170 790,1170 791,1170 792,1170 793,1170 794,1170 795,1170 796,1170 797,1170 798,1170 799,1170 800,1170 801,1169 802,1169 803,1169 804,1169 805,1169 806,1169 807,1169 808,1169 809,1169 810,1169 811,1169 812,1169 813,1168 814,1168 815,1168 816,1168 817,1168 818,1168 819,1168 820,1168 821,1168 822,1168 823,1168 824,1168 825,1168 826,1167 827,1167 828,1167 829,1167 830,1167 831,1167 832,1167 833,1167 834,1167 835,1167 836,1167 837,1167 838,1167 839,1167 840,1166 841,1166 842,1166 843,1166 844,1166 845,1166 846,1166 847,1166 848,1166 849,1166 850,1166 851,1166 852,1166 853,1166 854,1166 855,1166 856,1166 857,1166 858,1165 859,1165 860,1165 861,1165 862,1165 863,1165 864,1165 865,1165 866,1165 867,1165 868,1165 869,1165 870,1165 871,1165 872,1165 873,1165 874,1165 875,1165 876,1165 877,1165 878,1165 879,1165 880,1165 881,1165 882,1164 883,1164 884,1164 885,1164 886,1164 887,1164 888,1164 889,1164 890,1164 891,1164 892,1164 893,1164 894,1164 895,1164 896,1164 897,1164 898,1164 899,1164 900,1164 901,1164 902,1164 903,1164 904,1164 905,1164 906,1164 907,1164 908,1164 909,1164 910,1164 911,1164 912,1164 913,1164 914,1164 915,1164 916,1164 917,1164 918,1164 919,1164 920,1164 921,1164 922,1164 923,1164 924,1164 925,1164 926,1164 927,1164 928,1164 929,1164 930,1164 931,1164 932,1164 933,1164 934,1164 935,1164 936,1164 937,1164 938,1164 939,1164 940,1164 941,1164 942,1164 943,1165 944,1165 945,1165 946,1165 947,1165 948,1165 949,1165 950,1165 951,1165 952,1165 953,1165 954,1165 955,1165 956,1165 957,1165 958,1165 959,1165 960,1165 961,1165 962,1165 963,1165 964,1165 965,1165 966,1165 967,1166 968,1166 969,1166 970,1166 971,1166 972,1166 973,1166 974,1166 975,1166 976,1166 977,1166 978,1166 979,1166 980,1166 981,1166 982,1166 983,1166 984,1167 985,1167 986,1167 987,1167 988,1167 989,1167 990,1167 991,1167 992,1167 993,1167 994,1167 995,1167 996,1167 997,1167 998,1167 999,1168 1000,1168 1001,1168 1002,1168 1003,1168 1004,1168 1005,1168 1006,1168 1007,1168 1008,1168 1009,1168 1010,1168 1011,1168 1012,1169 1013,1169 1014,1169 1015,1169 1016,1169 1017,1169 1018,1169 1019,1169 1020,1169 1021,1169 1022,1169 1023,1169 1024,1170 1025,1170 1026,1170 1027,1170 1028,1170 1029,1170 1030,1170 1031,1170 1032,1170 1033,1170 1034,1170 1035,1171 1036,1171 1037,1171 1038,1171 1039,1171 1040,1171 1041,1171 1042,1171 1043,1171 1044,1171 1045,1171 1046,1172 1047,1172 1048,1172 1049,1172 1050,1172 1051,1172 1052,1172 1053,1172 1054,1172 1055,1172 1056,1172 1057,1173 1058,1173 1059,1173 1060,1173 1061,1173 1062,1173 1063,1173 1064,1173 1065,1173 1066,1173 1067,1174 1068,1174 1069,1174 1070,1174 1071,1174 1072,1174 1073,1174 1074,1174 1075,1174 1076,1174 1077,1175 1078,1175 1079,1175 1080,1175 1081,1175 1082,1175 1083,1175 1084,1175 1085,1175 1086,1175 1087,1176 1088,1176 1089,1176 1090,1176 1091,1176 1092,1176 1093,1176 1094,1176 1095,1176 1096,1176 1097,1177 1098,1177 1099,1177 1100,1177 1101,1177 1102,1177 1103,1177 1104,1177 1105,1177 1106,1177 1107,1177 1108,1178 1109,1178 1110,1178 1111,1178 1112,1178 1113,1178 1114,1178 1115,1178 1116,1178 1117,1178 1118,1179 1119,1179 1120,1179 1121,1179 1122,1179 1123,1179 1124,1179 1125,1179 1126,1179 1127,1179 1128,1179 1129,1180 1130,1180 1131,1180 1132,1180 1133,1180 1134,1180 1135,1180 1136,1180 1137,1180 1138,1180 1139,1180 1140,1181 1141,1181 1142,1181 1143,1181 1144,1181 1145,1181 1146,1181 1147,1181 1148,1181 1149,1181 1150,1181 1151,1182 1152,1182 1153,1182 1154,1182 1155,1182 1156,1182 1157,1182 1158,1182 1159,1182 1160,1182 1161,1182 1162,1182 1163,1183 1164,1183 1165,1183 1166,1183 1167,1183 1168,1183 1169,1183 1170,1183 1171,1183 1172,1183 1173,1183 1174,1183 1175,1183 1176,1184 1177,1184 1178,1184 1179,1184 1180,1184 1181,1184 1182,1184 1183,1184 1184,1184 1185,1184 1186,1184 1187,1184 1188,1184 1189,1184 1190,1185 1191,1185 1192,1185 1193,1185 1194,1185 1195,1185 1196,1185 1197,1185 1198,1185 1199,1185 1200,1185 1201,1185 1202,1185 1203,1185 1204,1185 1205,1185 1206,1185 1207,1186 1208,1186 1209,1186 1210,1186 1211,1186 1212,1186 1213,1186 1214,1186 1215,1186 1216,1186 1217,1186 1218,1186 1219,1186 1220,1186 1221,1186 1222,1186 1223,1186 1224,1186 1225,1186 1226,1186 1227,1186 1228,1186 1229,1186 1230,1187 1231,1187 1232,1187 1233,1187 1234,1187 1235,1187 1236,1187 1237,1187 1238,1187 1239,1187 1240,1187 1241,1187 1242,1187 1243,1187 1244,1187 1245,1187 1246,1187 1247,1187 1248,1187 1249,1187 1250,1187 1251,1187 1252,1187 1253,1187 1254,1187 1255,1187 1256,1187 1257,1187 1258,1187 1259,1187 1260,1187 1261,1187 1262,1187 1263,1187 1264,1187 1265,1188 1266,1188 1267,1188 1268,1188 1269,1188 1270,1188 1271,1188 1272,1188 1273,1188 1274,1188 1275,1188 1276,1188 1277,1188 1278,1188 1279,1188 1280,1188 1281,1188 1282,1188 1283,1188 1284,1188 1285,1188 1286,1188 1287,1188 1288,1188 1289,1188 1290,1188 1291,1188 1292,1188 1293,1188 1294,1188 1295,1188 1296,1188 1297,1188 1298,1188 1299,1188 1300,1188 1301,1188 1302,1188 1303,1188 1304,1188 1305,1188 1306,1188 1307,1188 1308,1188 1309,1188 1310,1188 1311,1188 1312,1188 1313,1188 1314,1188 1315,1188 1316,1188 1317,1188 1318,1188 1319,1188 1320,1188 1321,1188 1322,1188 1323,1188 1324,1188 1325,1188 1326,1188 1327,1188 1328,1188 1329,1188 1330,1188 1331,1188 1332,1188 1333,1188 1334,1188 1335,1188 1336,1188 1337,1188 1338,1188 1339,1188 1340,1188 1341,1188 1342,1188 1343,1188 1344,1188 1345,1188 1346,1188 1347,1188 1348,1188 1349,1188 1350,1188 1351,1188 1352,1188 1353,1188 1354,1187 1355,1187 1356,1187 1357,1187 1358,1187 1359,1187 1360,1187 1361,1187 1362,1187 1363,1187 1364,1187 1365,1187 1366,1187 1367,1187 1368,1187 1369,1187 1370,1187 1371,1187 1372,1187 1373,1187 1374,1187 1375,1187 1376,1187 1377,1187 1378,1187 1379,1187 1380,1187 1381,1187 1382,1187 1383,1187 1384,1187 1385,1187 1386,1187 1387,1187 1388,1187 1389,1187 1390,1187 1391,1187 1392,1187 1393,1187 1394,1187 1395,1187 1396,1187 1397,1187 1398,1187 1399,1187 1400,1187 1401,1187 1402,1187 1403,1187 1404,1187 1405,1187 1406,1187 1407,1187 1408,1187 1409,1186 1410,1186 1411,1186 1412,1186 1413,1186 1414,1186 1415,1186 1416,1186 1417,1186 1418,1186 1419,1186 1420,1186 1421,1186 1422,1186 1423,1186 1424,1186 1425,1186 1426,1186 1427,1186 1428,1186 1429,1186 1430,1186 1431,1186 1432,1186 1433,1186 1434,1186 1435,1186 1436,1186 1437,1186 1438,1186 1439,1186 1440,1186 1441,1186 1442,1186 1443,1186 1444,1186 1445,1186 1446,1186 1447,1186 1448,1186 1449,1186 1450,1186 1451,1186 1452,1186 1453,1186 1454,1186 1455,1186 1456,1185 1457,1185 1458,1185 1459,1185 1460,1185 1461,1185 1462,1185 1463,1185 1464,1185 1465,1185 1466,1185 1467,1185 1468,1185 1469,1185 1470,1185 1471,1185 1472,1185 1473,1185 1474,1185 1475,1185 1476,1185 1477,1185 1478,1185 1479,1185 1480,1185 1481,1185 1482,1185 1483,1185 1484,1185 1485,1185 1486,1185 1487,1185 1488,1185 1489,1185 1490,1185 1491,1185 1492,1185 1493,1185 1494,1185 1495,1185 1496,1185 1497,1185 1498,1185 1499,1185 1500,1185 1501,1185 1502,1185 1503,1185 1504,1185 1505,1185 1506,1185 1507,1185 1508,1185 1509,1185 1510,1185 1511,1185 1512,1185 1513,1185 1514,1185 1515,1185 1516,1185 1517,1185 1518,1185 1519,1185 1520,1185 1521,1185 1522,1185 1523,1185 1524,1185 1525,1184 1526,1184 1527,1184 1528,1184 1529,1184 1530,1184 1531,1184 1532,1184 1533,1184 1534,1184 1535,1184 1536,1184 1537,1184 1538,1184 1539,1184 1540,1184 1541,1184 1542,1184 1543,1184 1544,1184 1545,1184 1546,1184 1547,1184 1548,1184 1549,1184 1550,1184 1551,1184 1552,1184 1553,1184 1554,1184 1555,1184 1556,1184 1557,1184 1558,1184 1559,1184 1560,1184 1561,1184 1562,1184 1563,1184 1564,1184 1565,1184 1566,1184 1567,1184 1568,1184 1569,1184 1570,1184 1571,1184 1572,1184 1573,1184 1574,1184 1575,1184 1576,1184 1577,1184 1578,1184 1579,1184 1580,1184 1581,1184 1582,1184 1583,1184 1584,1184 1585,1184 1586,1184 1587,1184 1588,1184 1589,1184 1590,1184 1591,1184 1592,1184 1593,1184 1594,1184 1595,1184 1596,1184 1597,1184 1598,1184 1599,1184 1600,1184 1601,1184 1602,1184 1603,1184 1604,1184 1605,1184 1606,1184 1607,1184 1608,1184 1609,1184 1610,1184 1611,1184 1612,1184 1613,1184 1614,1184 1615,1184 1616,1184 1617,1184 1618,1184 1619,1184 1620,1184 1621,1184 1622,1184 1623,1184 1624,1184 1625,1184 1626,1184 1627,1184 1628,1184 1629,1184 1630,1184 1631,1184 1632,1184 1633,1184 1634,1184 1635,1184 1636,1184 1637,1184 1638,1184 1639,1184 1640,1184 1641,1184 1642,1184 1643,1184 1644,1184 1645,1184 1646,1184 1647,1184 1648,1184 1649,1184 1650,1184 1651,1184 1652,1184 1653,1184 1654,1184 1655,1184 1656,1184 1657,1184 1658,1184 1659,1184 1660,1184 1661,1184 1662,1184 1663,1184 1664,1184 1665,1184 1666,1184 1667,1184 1668,1184 1669,1184 1670,1184 1671,1184 1672,1184 1673,1184 1674,1184 1675,1184 1676,1184 1677,1184 1678,1185 1679,1185 1680,1185 1681,1185 1682,1185 1683,1185 1684,1185 1685,1185 1686,1185 1687,1185 1688,1185 1689,1185 1690,1185 1691,1185 1692,1185 1693,1185 1694,1185 1695,1185 1696,1185 1697,1185 1698,1185 1699,1185 1700,1185 1701,1185 1702,1185 1703,1185 1704,1185 1705,1185 1706,1185 1707,1185 1708,1185 1709,1185 1710,1185 1711,1185 1712,1185 1713,1185 1714,1185 1715,1185 1716,1185 1717,1185 1718,1185 1719,1185 1720,1185 1721,1185 1722,1185 1723,1185 1724,1185 1725,1185 1726,1185 1727,1185 1728,1185 1729,1185 1730,1185 1731,1185 1732,1185 1733,1185 1734,1185 1735,1185 1736,1185 1737,1185 1738,1185 1739,1185 1740,1185 1741,1185 1742,1185 1743,1185 1744,1185 1745,1185 1746,1185 1747,1185 1748,1185 1749,1185 1750,1185 1751,1185 1752,1185 1753,1185 1754,1185 1755,1185 1756,1185 1757,1185 1758,1185 1759,1185 1760,1185 1761,1185 1762,1185 1763,1185 1764,1185 1765,1185 1766,1185 1767,1185 1768,1185 1769,1185 1770,1185 1771,1185 1772,1185 1773,1185 1774,1185 1775,1185 1776,1185 1777,1185 1778,1185 1779,1185 1780,1185 1781,1185 1782,1185 1783,1185 1784,1185 1785,1185 1786,1185 1787,1185 1788,1185 1789,1185 1790,1185 1791,1185 1792,1185 1793,1185 1794,1185 1795,1185 1796,1185 1797,1185 1798,1185 1799,1185 1800,1185 1801,1185 1802,1185 1803,1185 1804,1185 1805,1185 1806,1185 1807,1185 1808,1185 1809,1185 1810,1185 1811,1185 1812,1185 1813,1185 1814,1185 1815,1185 1816,1185 1817,1185 1818,1185 1819,1185 1820,1185 1821,1185 1822,1185 1823,1185 1824,1185 1825,1185 1826,1185 1827,1185 1828,1185 1829,1185 1830,1185 1831,1185 1832,1185 1833,1185 1834,1185 1835,1185 1836,1185 1837,1185 1838,1185 1839,1185 1840,1185 1841,1185 1842,1185 1843,1185 1844,1185 1845,1185 1846,1185 1847,1185 1848,1185 1849,1185 1850,1185 1851,1185 1852,1185 1853,1185 1854,1185 1855,1185 1856,1185 1857,1185 1858,1185 1859,1185 1860,1185 1861,1185 1862,1185 1863,1185 1864,1185 1865,1185 1866,1185 1867,1185 1868,1185 1869,1185 1870,1185 1871,1185 1872,1185 1873,1185 1874,1185 1875,1185 1876,1185 1877,1185 1878,1185 1879,1185 1880,1185 1881,1185 1882,1185 1883,1185 1884,1185 1885,1185 1886,1185 1887,1185 1888,1185 1889,1185 1890,1185 1891,1185 1892,1185 1893,1185 1894,1185 1895,1185 1896,1185 1897,1185 1898,1185 1899,1185 1900,1185 1901,1185 1902,1185 1903,1185 1904,1185 1905,1185 1906,1185 1907,1185 1908,1185 1909,1185 1910,1185 1911,1185 1912,1185 1913,1185 1914,1185 1915,1185 1916,1185 1917,1185 1918,1185 1919,1185 1920,1185 1921,1185 1922,1185 1923,1185 1924,1185 1925,1185 1926,1185 1927,1185 1928,1185 1929,1185 1930,1185 1931,1185 1932,1185 1933,1185 1934,1185 1935,1185 1936,1185 1937,1185 1938,1185 1939,1185 1940,1185 1941,1185 1942,1185 1943,1185 1944,1185 1945,1185 1946,1185 1947,1185 1948,1185 1949,1185 1950,1185 1951,1185 1952,1185 1953,1185 1954,1185 1955,1185 1956,1185 1957,1185 1958,1185 1959,1185 1960,1185 1961,1185 1962,1185 1963,1185 1964,1185 1965,1185 1966,1185 1967,1185 1968,1185 1969,1185 1970,1185 1971,1185 1972,1185 1973,1185 1974,1185 1975,1185 1976,1185 1977,1185 1978,1185 1979,1185 1980,1185 1981,1185 1982,1185 1983,1185 1984,1185 1985,1185 1986,1185 1987,1185 1988,1185 1989,1185 1990,1185 1991,1185 1992,1185 1993,1185 1994,1185 1995,1185 1996,1185 1997,1185 1998,1185 1999,1185 2000,1185 2001,1185 2002,1185 2003,1185 2004,1185 2005,1185 2006,1185 2007,1185 2008,1185 2009,1185 2010,1185 2011,1185 2012,1185 2013,1185 2014,1185 2015,1185 2016,1185 2017,1185 2018,1185 2019,1185 2020,1185 2021,1185 2022,1185 2023,1185 2024,1185 2025,1185 2026,1185 2027,1185 2028,1185 2029,1185 2030,1185 2031,1185 2032,1185 2033,1185 2034,1185 2035,1185 2036,1185 2037,1185 2038,1185 2039,1185 2040,1185 2041,1185 2042,1185 2043,1185 2044,1185 2045,1185 2046,1185 2047,1185 2048,1185 2049,1185 2050,1185 2051,1185 2052,1185 2053,1185 2054,1185 " />
    <circle stroke="#000000" stroke-width="1" stroke-linecap="round" stroke-linejoin="round" fill="#000000" cx="342" cy="1185" r="3" />
    <circle stroke="#000000" stroke-width="1" stroke-linecap="round" stroke-linejoin="round" fill="#000000" cx="628" cy="1185" r="3" />
    <circle stroke="#000000" stroke-width="1" stroke-linecap="round" stroke-linejoin="round" fill="#000000" cx="913" cy="1164" r="3" />
    <circle stroke="#000000" stroke-width="1" stroke-linecap="round" stroke-linejoin="round" fill="#000000" cx="1198" cy="1185" r="3" />
    <circle stroke="#000000" stroke-width="1" stroke-linecap="round" stroke-linejoin="round" fill="#000000" cx="1483" cy="1185" r="3" />
    <circle stroke="#000000" stroke-width="1" stroke-linecap="round" stroke-linejoin="round" fill="#000000" cx="1768" cy="1185" r="3" />
    <circle stroke="#000000" stroke-width="1" stroke-linecap="round" stroke-linejoin="round" fill="#000000" cx="2054" cy="1185" r="3" />
  </g>
</svg>
