<?xml version="1.0" encoding="UTF-8"?>
<!DOCTYPE svg PUBLIC "-//W3C//DTD SVG 1.1//EN" "http://www.w3.org/Graphics/SVG/1.1/DTD/svg11.dtd">
<svg width="2396px" height="1303px" viewBox="0 0 2396 1303" version="1.1" xmlns="http://www.w3.org/2000/svg" xmlns:xlink="http://www.w3.org/1999/xlink">
  <g>
    <text x="271" y="1207" font-family="Times New Roman" font-size="21" fill="#000000">5</text>
    <text x="496" y="1207" font-family="Times New Roman" font-size="21" fill="#000000">10</text>
    <text x="726" y="1207" font-family="Times New Roman" font-size="21" fill="#000000">15</text>
    <text x="957" y="1207" font-family="Times New Roman" font-size="21" fill="#000000">20</text>
    <text x="1187" y="1207" font-family="Times New Roman" font-size="21" fill="#000000">25</text>
    <text x="1417" y="1207" font-family="Times New Roman" font-size="21" fill="#000000">30</text>
    <text x="1648" y="1207" font-family="Times New Roman" font-size="21" fill="#000000">35</text>
    <text x="1878" y="1207" font-family="Times New Roman" font-size="21" fill="#000000">40</text>
    <text x="2109" y="1207" font-family="Times New Roman" font-size="21" fill="#000000">45</text>
    <text x="2339" y="1207" font-family="Times New Roman" font-size="21" fill="#000000">50</text>
    <text x="12" y="1073" font-family="Times New Roman" font-size="21" fill="#000000">0.1</text>
    <text x="12" y="955" font-family="Times New Roman" font-size="21" fill="#000000">0.2</text>
    <text x="12" y="836" font-family="Times New Roman" font-size="21" fill="#000000">0.3</text>
    <text x="12" y="718" font-family="Times New Roman" font-size="21" fill="#000000">0.4</text>
    <text x="12" y="599" font-family="Times New Roman" font-size="21" fill="#000000">0.5</text>
    <text x="12" y="481" font-family="Times New Roman" font-size="21" fill="#000000">0.6</text>
    <text x="12" y="362" font-family="Times New Roman" font-size="21" fill="#000000">0.7</text>
    <text x="12" y="244" font-family="Times New Roman" font-size="21" fill="#000000">0.8</text>
    <text x="12" y="125" font-family="Times New Roman" font-size="21" fill="#000000">0.9</text>
    <text x="2382" y="1173" font-family="Times New Roman" font-size="21" font-weight="700" fill="#000000">k</text>
    <text x="58" y="15" font-family="Times New Roman" font-size="21" font-weight="700" fill="#000000">P(k)</text>
    <line stroke="#0000ff" stroke-width="2" stroke-linecap="butt" stroke-linejoin="bevel" x1="0" y1="1185" x2="2391" y2="1185" />
    <polygon stroke="#0000ff" stroke-width="1" stroke-linecap="round" stroke-linejoin="round" fill="#0000ff" points="2389.5,1178.5 2395.5,1184.5 2395.5,1185.5 2389.5,1191.5 " />
    <line stroke="#0000ff" stroke-width="1" stroke-linecap="round" stroke-linejoin="round" x1="276.5" y1="1190.5" x2="276.5" y2="1179.5" />
    <line stroke="#0000ff" stroke-width="1" stroke-linecap="round" stroke-linejoin="round" x1="507.5" y1="1190.5" x2="507.5" y2="1179.5" />
    <line stroke="#0000ff" stroke-width="1" stroke-linecap="round" stroke-linejoin="round" x1="737.5" y1="1190.5" x2="737.5" y2="1179.5" />
    <line stroke="#0000ff" stroke-width="1" stroke-linecap="round" stroke-linejoin="round" x1="968.5" y1="1190.5" x2="968.5" y2="1179.5" />
    <line stroke="#0000ff" stroke-width="1" stroke-linecap="round" stroke-linejoin="round" x1="1198.5" y1="1190.5" x2="1198.5" y2="1179.5" />
    <line stroke="#0000ff" stroke-width="1" stroke-linecap="round" stroke-linejoin="round" x1="1428.5" y1="1190.5" x2="1428.5" y2="1179.5" />
    <line stroke="#0000ff" stroke-width="1" stroke-linecap="round" stroke-linejoin="round" x1="1659.5" y1="1190.5" x2="1659.5" y2="1179.5" />
    <line stroke="#0000ff" stroke-width="1" stroke-linecap="round" stroke-linejoin="round" x1="1889.5" y1="1190.5" x2="1889.5" y2="1179.5" />
    <line stroke="#0000ff" stroke-width="1" stroke-linecap="round" stroke-linejoin="round" x1="2120.5" y1="1190.5" x2="2120.5" y2="1179.5" />
    <line stroke="#0000ff" stroke-width="1" stroke-linecap="round" stroke-linejoin="round" x1="2350.5" y1="1190.5" x2="2350.5" y2="1179.5" />
    <line stroke="#0000ff" stroke-width="2" stroke-linecap="butt" stroke-linejoin="bevel" x1="46" y1="3" x2="46" y2="1302" />
    <polygon stroke="#0000ff" stroke-width="1" stroke-linecap="round" stroke-linejoin="round" fill="#0000ff" points="39.5,6.5 45.5,0.5 46.5,0.5 52.5,6.5 " />
    <line stroke="#0000ff" stroke-width="1" stroke-linecap="round" stroke-linejoin="round" x1="40.5" y1="1066.5" x2="51.5" y2="1066.5" />
    <line stroke="#0000ff" stroke-width="1" stroke-linecap="round" stroke-linejoin="round" x1="40.5" y1="948.5" x2="51.5" y2="948.5" />
    <line stroke="#0000ff" stroke-width="1" stroke-linecap="round" stroke-linejoin="round" x1="40.5" y1="829.5" x2="51.5" y2="829.5" />
    <line stroke="#0000ff" stroke-width="1" stroke-linecap="round" stroke-linejoin="round" x1="40.5" y1="711.5" x2="51.5" y2="711.5" />
    <line stroke="#0000ff" stroke-width="1" stroke-linecap="round" stroke-linejoin="round" x1="40.5" y1="592.5" x2="51.5" y2="592.5" />
    <line stroke="#0000ff" stroke-width="1" stroke-linecap="round" stroke-linejoin="round" x1="40.5" y1="474.5" x2="51.5" y2="474.5" />
    <line stroke="#0000ff" stroke-width="1" stroke-linecap="round" stroke-linejoin="round" x1="40.5" y1="355.5" x2="51.5" y2="355.5" />
    <line stroke="#0000ff" stroke-width="1" stroke-linecap="round" stroke-linejoin="round" x1="40.5" y1="237.5" x2="51.5" y2="237.5" />
    <line stroke="#0000ff" stroke-width="1" stroke-linecap="round" stroke-linejoin="round" x1="40.5" y1="118.5" x2="51.5" y2="118.5" />
    <polyline stroke="#000000" stroke-width="1" stroke-linecap="round" stroke-linejoin="round" fill="none" points="323,1184 324,1184 325,1184 326,1184 327,1184 328,1184 329,1184 330,1184 331,1184 332,1184 333,1184 334,1183 335,1183 336,1183 337,1183 338,1183 339,1183 340,1183 341,1183 342,1183 343,1183 344,1183 345,1183 346,1183 347,1183 348,1183 349,1183 350,1183 351,1183 352,1183 353,1183 354,1183 355,1182 356,1182 357,1182 358,1182 359,1182 360,1182 361,1182 362,1182 363,1182 364,1182 365,1182 366,1182 367,1182 368,1182 369,1182 370,1182 371,1182 372,1182 373,1182 374,1181 375,1181 376,1181 377,1181 378,1181 379,1181 380,1181 381,1181 382,1181 383,1181 384,1181 385,1181 386,1181 387,1181 388,1181 389,1181 390,1180 391,1180 392,1180 393,1180 394,1180 395,1180 396,1180 397,1180 398,1180 399,1180 400,1180 401,1180 402,1180 403,1180 404,1179 405,1179 406,1179 407,1179 408,1179 409,1179 410,1179 411,1179 412,1179 413,1179 414,1179 415,1179 416,1179 417,1178 418,1178 419,1178 420,1178 421,1178 422,1178 423,1178 424,1178 425,1178 426,1178 427,1178 428,1178 429,1177 430,1177 431,1177 432,1177 433,1177 434,1177 435,1177 436,1177 437,1177 438,1177 439,1176 440,1176 441,1176 442,1176 443,1176 444,1176 445,1176 446,1176 447,1176 448,1175 449,1175 450,1175 451,1175 452,1175 453,1175 454,1175 455,1175 456,1175 457,1174 458,1174 459,1174 460,1174 461,1174 462,1174 463,1174 464,1174 465,1173 466,1173 467,1173 468,1173 469,1173 470,1173 471,1173 472,1172 473,1172 474,1172 475,1172 476,1172 477,1172 478,1172 479,1171 480,1171 481,1171 482,1171 483,1171 484,1171 485,1171 486,1170 487,1170 488,1170 489,1170 490,1170 491,1170 492,1169 493,1169 494,1169 495,1169 496,1169 497,1169 498,1168 499,1168 500,1168 501,1168 502,1168 503,1168 504,1167 505,1167 506,1167 507,1167 508,1167 509,1166 510,1166 511,1166 512,1166 513,1166 514,1165 515,1165 516,1165 517,1165 518,1165 519,1164 520,1164 521,1164 522,1164 523,1164 524,1163 525,1163 526,1163 527,1163 528,1163 529,1162 530,1162 531,1162 532,1162 533,1161 534,1161 535,1161 536,1161 537,1160 538,1160 539,1160 540,1160 541,1159 542,1159 543,1159 544,1159 545,1159 546,1158 547,1158 548,1158 549,1157 550,1157 551,1157 552,1157 553,1156 554,1156 555,1156 556,1156 557,1155 558,1155 559,1155 560,1155 561,1154 562,1154 563,1154 564,1153 565,1153 566,1153 567,1153 568,1152 569,1152 570,1152 571,1151 572,1151 573,1151 574,1150 575,1150 576,1150 577,1149 578,1149 579,1149 580,1149 581,1148 582,1148 583,1148 584,1147 585,1147 586,1147 587,1146 588,1146 589,1146 590,1145 591,1145 592,1144 593,1144 594,1144 595,1143 596,1143 597,1143 598,1142 599,1142 600,1142 601,1141 602,1141 603,1141 604,1140 605,1140 606,1139 607,1139 608,1139 609,1138 610,1138 611,1137 612,1137 613,1137 614,1136 615,1136 616,1136 617,1135 618,1135 619,1134 620,1134 621,1133 622,1133 623,1133 624,1132 625,1132 626,1131 627,1131 628,1131 629,1130 630,1130 631,1129 632,1129 633,1128 634,1128 635,1128 636,1127 637,1127 638,1126 639,1126 640,1125 641,1125 642,1125 643,1124 644,1124 645,1123 646,1123 647,1122 648,1122 649,1122 650,1121 651,1121 652,1120 653,1120 654,1119 655,1119 656,1118 657,1118 658,1117 659,1117 660,1117 661,1116 662,1116 663,1115 664,1115 665,1114 666,1114 667,1113 668,1113 669,1112 670,1112 671,1112 672,1111 673,1111 674,1110 675,1110 676,1109 677,1109 678,1108 679,1108 680,1107 681,1107 682,1106 683,1106 684,1106 685,1105 686,1105 687,1104 688,1104 689,1103 690,1103 691,1102 692,1102 693,1101 694,1101 695,1100 696,1100 697,1100 698,1099 699,1099 700,1098 701,1098 702,1097 703,1097 704,1096 705,1096 706,1095 707,1095 708,1095 709,1094 710,1094 711,1093 712,1093 713,1092 714,1092 715,1091 716,1091 717,1090 718,1090 719,1090 720,1089 721,1089 722,1088 723,1088 724,1087 725,1087 726,1086 727,1086 728,1086 729,1085 730,1085 731,1084 732,1084 733,1083 734,1083 735,1083 736,1082 737,1082 738,1081 739,1081 740,1080 741,1080 742,1080 743,1079 744,1079 745,1078 746,1078 747,1077 748,1077 749,1077 750,1076 751,1076 752,1075 753,1075 754,1075 755,1074 756,1074 757,1073 758,1073 759,1073 760,1072 761,1072 762,1072 763,1071 764,1071 765,1070 766,1070 767,1070 768,1069 769,1069 770,1069 771,1068 772,1068 773,1067 774,1067 775,1067 776,1066 777,1066 778,1066 779,1065 780,1065 781,1065 782,1064 783,1064 784,1064 785,1063 786,1063 787,1063 788,1062 789,1062 790,1062 791,1061 792,1061 793,1061 794,1061 795,1060 796,1060 797,1060 798,1059 799,1059 800,1059 801,1058 802,1058 803,1058 804,1058 805,1057 806,1057 807,1057 808,1057 809,1056 810,1056 811,1056 812,1056 813,1055 814,1055 815,1055 816,1055 817,1054 818,1054 819,1054 820,1054 821,1054 822,1053 823,1053 824,1053 825,1053 826,1052 827,1052 828,1052 829,1052 830,1052 831,1052 832,1051 833,1051 834,1051 835,1051 836,1051 837,1051 838,1050 839,1050 840,1050 841,1050 842,1050 843,1050 844,1050 845,1049 846,1049 847,1049 848,1049 849,1049 850,1049 851,1049 852,1049 853,1049 854,1049 855,1049 856,1048 857,1048 858,1048 859,1048 860,1048 861,1048 862,1048 863,1048 864,1048 865,1048 866,1048 867,1048 868,1048 869,1048 870,1048 871,1048 872,1048 873,1048 874,1048 875,1048 876,1048 877,1048 878,1048 879,1048 880,1048 881,1048 882,1048 883,1048 884,1048 885,1048 886,1049 887,1049 888,1049 889,1049 890,1049 891,1049 892,1049 893,1049 894,1049 895,1049 896,1050 897,1050 898,1050 899,1050 900,1050 901,1050 902,1050 903,1051 904,1051 905,1051 906,1051 907,1051 908,1051 909,1052 910,1052 911,1052 912,1052 913,1052 914,1052 915,1053 916,1053 917,1053 918,1053 919,1054 920,1054 921,1054 922,1054 923,1054 924,1055 925,1055 926,1055 927,1055 928,1056 929,1056 930,1056 931,1056 932,1057 933,1057 934,1057 935,1058 936,1058 937,1058 938,1058 939,1059 940,1059 941,1059 942,1060 943,1060 944,1060 945,1061 946,1061 947,1061 948,1062 949,1062 950,1062 951,1063 952,1063 953,1063 954,1064 955,1064 956,1064 957,1065 958,1065 959,1065 960,1066 961,1066 962,1066 963,1067 964,1067 965,1068 966,1068 967,1068 968,1069 969,1069 970,1069 971,1070 972,1070 973,1071 974,1071 975,1071 976,1072 977,1072 978,1073 979,1073 980,1073 981,1074 982,1074 983,1075 984,1075 985,1076 986,1076 987,1076 988,1077 989,1077 990,1078 991,1078 992,1079 993,1079 994,1079 995,1080 996,1080 997,1081 998,1081 999,1082 1000,1082 1001,1083 1002,1083 1003,1084 1004,1084 1005,1084 1006,1085 1007,1085 1008,1086 1009,1086 1010,1087 1011,1087 1012,1088 1013,1088 1014,1089 1015,1089 1016,1090 1017,1090 1018,1091 1019,1091 1020,1092 1021,1092 1022,1093 1023,1093 1024,1094 1025,1094 1026,1095 1027,1095 1028,1096 1029,1096 1030,1097 1031,1097 1032,1098 1033,1098 1034,1099 1035,1099 1036,1100 1037,1100 1038,1101 1039,1101 1040,1102 1041,1102 1042,1103 1043,1103 1044,1104 1045,1104 1046,1105 1047,1105 1048,1106 1049,1106 1050,1107 1051,1107 1052,1108 1053,1108 1054,1109 1055,1109 1056,1110 1057,1110 1058,1111 1059,1111 1060,1112 1061,1112 1062,1113 1063,1113 1064,1114 1065,1115 1066,1115 1067,1116 1068,1116 1069,1117 1070,1117 1071,1118 1072,1118 1073,1119 1074,1119 1075,1120 1076,1120 1077,1121 1078,1121 1079,1122 1080,1122 1081,1123 1082,1123 1083,1124 1084,1124 1085,1125 1086,1125 1087,1126 1088,1126 1089,1127 1090,1128 1091,1128 1092,1129 1093,1129 1094,1130 1095,1130 1096,1131 1097,1131 1098,1132 1099,1132 1100,1133 1101,1133 1102,1134 1103,1134 1104,1135 1105,1135 1106,1136 1107,1136 1108,1137 1109,1137 1110,1138 1111,1138 1112,1139 1113,1139 1114,1140 1115,1140 1116,1141 1117,1141 1118,1142 1119,1142 1120,1143 1121,1143 1122,1144 1123,1144 1124,1145 1125,1145 1126,1146 1127,1146 1128,1147 1129,1147 1130,1148 1131,1148 1132,1148 1133,1149 1134,1149 1135,1150 1136,1150 1137,1151 1138,1151 1139,1152 1140,1152 1141,1153 1142,1153 1143,1154 1144,1154 1145,1154 1146,1155 1147,1155 1148,1156 1149,1156 1150,1157 1151,1157 1152,1158 1153,1158 1154,1158 1155,1159 1156,1159 1157,1160 1158,1160 1159,1161 1160,1161 1161,1161 1162,1162 1163,1162 1164,1163 1165,1163 1166,1163 1167,1164 1168,1164 1169,1165 1170,1165 1171,1165 1172,1166 1173,1166 1174,1167 1175,1167 1176,1167 1177,1168 1178,1168 1179,1169 1180,1169 1181,1169 1182,1170 1183,1170 1184,1170 1185,1171 1186,1171 1187,1171 1188,1172 1189,1172 1190,1172 1191,1173 1192,1173 1193,1173 1194,1174 1195,1174 1196,1174 1197,1175 1198,1175 1199,1175 1200,1176 1201,1176 1202,1176 1203,1177 1204,1177 1205,1177 1206,1177 1207,1178 1208,1178 1209,1178 1210,1179 1211,1179 1212,1179 1213,1179 1214,1180 1215,1180 1216,1180 1217,1180 1218,1181 1219,1181 1220,1181 1221,1181 1222,1182 1223,1182 1224,1182 1225,1182 1226,1182 1227,1183 1228,1183 1229,1183 1230,1183 1231,1184 1232,1184 1233,1184 1234,1184 1235,1184 1236,1185 1237,1185 1238,1185 1239,1185 1240,1185 1241,1186 1242,1186 1243,1186 1244,1186 1245,1186 1246,1186 1247,1187 1248,1187 1249,1187 1250,1187 1251,1187 1252,1187 1253,1188 1254,1188 1255,1188 1256,1188 1257,1188 1258,1188 1259,1188 1260,1189 1261,1189 1262,1189 1263,1189 1264,1189 1265,1189 1266,1189 1267,1189 1268,1190 1269,1190 1270,1190 1271,1190 1272,1190 1273,1190 1274,1190 1275,1190 1276,1190 1277,1190 1278,1191 1279,1191 1280,1191 1281,1191 1282,1191 1283,1191 1284,1191 1285,1191 1286,1191 1287,1191 1288,1191 1289,1191 1290,1192 1291,1192 1292,1192 1293,1192 1294,1192 1295,1192 1296,1192 1297,1192 1298,1192 1299,1192 1300,1192 1301,1192 1302,1192 1303,1192 1304,1192 1305,1192 1306,1192 1307,1192 1308,1192 1309,1192 1310,1193 1311,1193 1312,1193 1313,1193 1314,1193 1315,1193 1316,1193 1317,1193 1318,1193 1319,1193 1320,1193 1321,1193 1322,1193 1323,1193 1324,1193 1325,1193 1326,1193 1327,1193 1328,1193 1329,1193 1330,1193 1331,1193 1332,1193 1333,1193 1334,1193 1335,1193 1336,1193 1337,1193 1338,1193 1339,1193 1340,1193 1341,1193 1342,1193 1343,1193 1344,1193 1345,1193 1346,1193 1347,1193 1348,1193 1349,1193 1350,1193 1351,1192 1352,1192 1353,1192 1354,1192 1355,1192 1356,1192 1357,1192 1358,1192 1359,1192 1360,1192 1361,1192 1362,1192 1363,1192 1364,1192 1365,1192 1366,1192 1367,1192 1368,1192 1369,1192 1370,1192 1371,1192 1372,1192 1373,1192 1374,1192 1375,1192 1376,1191 1377,1191 1378,1191 1379,1191 1380,1191 1381,1191 1382,1191 1383,1191 1384,1191 1385,1191 1386,1191 1387,1191 1388,1191 1389,1191 1390,1191 1391,1191 1392,1191 1393,1191 1394,1190 1395,1190 1396,1190 1397,1190 1398,1190 1399,1190 1400,1190 1401,1190 1402,1190 1403,1190 1404,1190 1405,1190 1406,1190 1407,1190 1408,1190 1409,1189 1410,1189 1411,1189 1412,1189 1413,1189 1414,1189 1415,1189 1416,1189 1417,1189 1418,1189 1419,1189 1420,1189 1421,1189 1422,1189 1423,1188 1424,1188 1425,1188 1426,1188 1427,1188 1428,1188 1429,1188 1430,1188 1431,1188 1432,1188 1433,1188 1434,1188 1435,1188 1436,1188 1437,1187 1438,1187 1439,1187 1440,1187 1441,1187 1442,1187 1443,1187 1444,1187 1445,1187 1446,1187 1447,1187 1448,1187 1449,1187 1450,1187 1451,1186 1452,1186 1453,1186 1454,1186 1455,1186 1456,1186 1457,1186 1458,1186 1459,1186 1460,1186 1461,1186 1462,1186 1463,1186 1464,1186 1465,1186 1466,1185 1467,1185 1468,1185 1469,1185 1470,1185 1471,1185 1472,1185 1473,1185 1474,1185 1475,1185 1476,1185 1477,1185 1478,1185 1479,1185 1480,1185 1481,1185 1482,1185 1483,1184 1484,1184 1485,1184 1486,1184 1487,1184 1488,1184 1489,1184 1490,1184 1491,1184 1492,1184 1493,1184 1494,1184 1495,1184 1496,1184 1497,1184 1498,1184 1499,1184 1500,1184 1501,1184 1502,1184 1503,1184 1504,1184 1505,1183 1506,1183 1507,1183 1508,1183 1509,1183 1510,1183 1511,1183 1512,1183 1513,1183 1514,1183 1515,1183 1516,1183 1517,1183 1518,1183 1519,1183 1520,1183 1521,1183 1522,1183 1523,1183 1524,1183 1525,1183 1526,1183 1527,1183 1528,1183 1529,1183 1530,1183 1531,1183 1532,1183 1533,1183 1534,1183 1535,1182 1536,1182 1537,1182 1538,1182 1539,1182 1540,1182 1541,1182 1542,1182 1543,1182 1544,1182 1545,1182 1546,1182 1547,1182 1548,1182 1549,1182 1550,1182 1551,1182 1552,1182 1553,1182 1554,1182 1555,1182 1556,1182 1557,1182 1558,1182 1559,1182 1560,1182 1561,1182 1562,1182 1563,1182 1564,1182 1565,1182 1566,1182 1567,1182 1568,1182 1569,1182 1570,1182 1571,1182 1572,1182 1573,1182 1574,1182 1575,1182 1576,1182 1577,1182 1578,1182 1579,1182 1580,1182 1581,1182 1582,1182 1583,1182 1584,1182 1585,1182 1586,1182 1587,1182 1588,1182 1589,1182 1590,1182 1591,1182 1592,1182 1593,1182 1594,1182 1595,1182 1596,1182 1597,1182 1598,1182 1599,1182 1600,1182 1601,1182 1602,1182 1603,1182 1604,1182 1605,1182 1606,1182 1607,1182 1608,1182 1609,1182 1610,1182 1611,1182 1612,1182 1613,1182 1614,1182 1615,1182 1616,1182 1617,1182 1618,1182 1619,1182 1620,1182 1621,1182 1622,1182 1623,1182 1624,1182 1625,1182 1626,1182 1627,1182 1628,1182 1629,1182 1630,1182 1631,1182 1632,1182 1633,1182 1634,1182 1635,1182 1636,1182 1637,1182 1638,1182 1639,1182 1640,1182 1641,1182 1642,1182 1643,1182 1644,1182 1645,1182 1646,1182 1647,1182 1648,1182 1649,1182 1650,1182 1651,1182 1652,1182 1653,1182 1654,1182 1655,1182 1656,1182 1657,1182 1658,1182 1659,1182 1660,1182 1661,1182 1662,1182 1663,1182 1664,1182 1665,1182 1666,1182 1667,1182 1668,1182 1669,1182 1670,1182 1671,1182 1672,1182 1673,1182 1674,1183 1675,1183 1676,1183 1677,1183 1678,1183 1679,1183 1680,1183 1681,1183 1682,1183 1683,1183 1684,1183 1685,1183 1686,1183 1687,1183 1688,1183 1689,1183 1690,1183 1691,1183 1692,1183 1693,1183 1694,1183 1695,1183 1696,1183 1697,1183 1698,1183 1699,1183 1700,1183 1701,1183 1702,1183 1703,1183 1704,1183 1705,1183 1706,1183 1707,1183 1708,1183 1709,1183 1710,1183 1711,1183 1712,1183 1713,1183 1714,1183 1715,1183 1716,1183 1717,1183 1718,1183 1719,1183 1720,1183 1721,1183 1722,1183 1723,1183 1724,1184 1725,1184 1726,1184 1727,1184 1728,1184 1729,1184 1730,1184 1731,1184 1732,1184 1733,1184 1734,1184 1735,1184 1736,1184 1737,1184 1738,1184 1739,1184 1740,1184 1741,1184 1742,1184 1743,1184 1744,1184 1745,1184 1746,1184 1747,1184 1748,1184 1749,1184 1750,1184 1751,1184 1752,1184 1753,1184 1754,1184 1755,1184 1756,1184 1757,1184 1758,1184 1759,1184 1760,1184 1761,1184 1762,1184 1763,1184 1764,1184 1765,1184 1766,1184 1767,1184 1768,1184 1769,1184 1770,1184 1771,1185 1772,1185 1773,1185 1774,1185 1775,1185 1776,1185 1777,1185 1778,1185 1779,1185 1780,1185 1781,1185 1782,1185 1783,1185 1784,1185 1785,1185 1786,1185 1787,1185 1788,1185 1789,1185 1790,1185 1791,1185 1792,1185 1793,1185 1794,1185 1795,1185 1796,1185 1797,1185 1798,1185 1799,1185 1800,1185 1801,1185 1802,1185 1803,1185 1804,1185 1805,1185 1806,1185 1807,1185 1808,1185 1809,1185 1810,1185 1811,1185 1812,1185 1813,1185 1814,1185 1815,1185 1816,1185 1817,1185 1818,1185 1819,1185 1820,1185 1821,1185 1822,1185 1823,1185 1824,1185 1825,1185 1826,1185 1827,1185 1828,1185 1829,1185 1830,1185 1831,1185 1832,1185 1833,1186 1834,1186 1835,1186 1836,1186 1837,1186 1838,1186 1839,1186 1840,1186 1841,1186 1842,1186 1843,1186 1844,1186 1845,1186 1846,1186 1847,1186 1848,1186 1849,1186 1850,1186 1851,1186 1852,1186 1853,1186 1854,1186 1855,1186 1856,1186 1857,1186 1858,1186 1859,1186 1860,1186 1861,1186 1862,1186 1863,1186 1864,1186 1865,1186 1866,1186 1867,1186 1868,1186 1869,1186 1870,1186 1871,1186 1872,1186 1873,1186 1874,1186 1875,1186 1876,1186 1877,1186 1878,1186 1879,1186 1880,1186 1881,1186 1882,1186 1883,1186 1884,1186 1885,1186 1886,1186 1887,1186 1888,1186 1889,1186 1890,1186 1891,1186 1892,1186 1893,1186 1894,1186 1895,1186 1896,1186 1897,1186 1898,1186 1899,1186 1900,1186 1901,1186 1902,1186 1903,1186 1904,1186 1905,1186 1906,1186 1907,1186 1908,1186 1909,1186 1910,1186 1911,1186 1912,1186 1913,1186 1914,1186 1915,1186 1916,1186 1917,1186 1918,1186 1919,1186 1920,1186 1921,1186 1922,1186 1923,1186 1924,1186 1925,1186 1926,1186 1927,1186 1928,1186 1929,1186 1930,1186 1931,1186 1932,1186 1933,1186 1934,1186 1935,1186 1936,1186 1937,1186 1938,1186 1939,1186 1940,1186 1941,1186 1942,1186 1943,1186 1944,1186 1945,1186 1946,1186 1947,1186 1948,1186 1949,1186 1950,1186 1951,1186 1952,1186 1953,1186 1954,1186 1955,1186 1956,1186 1957,1186 1958,1186 1959,1186 1960,1186 1961,1186 1962,1186 1963,1186 1964,1186 1965,1186 1966,1186 1967,1186 1968,1186 1969,1186 1970,1186 1971,1186 1972,1186 1973,1186 1974,1186 1975,1186 1976,1186 1977,1186 1978,1186 1979,1186 1980,1186 1981,1186 1982,1186 1983,1186 1984,1186 1985,1186 1986,1186 1987,1186 1988,1186 1989,1186 1990,1186 1991,1186 1992,1186 1993,1186 1994,1186 1995,1186 1996,1186 1997,1186 1998,1186 1999,1186 2000,1186 2001,1186 2002,1186 2003,1186 2004,1186 2005,1186 2006,1186 2007,1186 2008,1186 2009,1186 2010,1186 2011,1186 2012,1186 2013,1186 2014,1186 2015,1186 2016,1186 2017,1186 2018,1186 2019,1186 2020,1186 2021,1186 2022,1186 2023,1186 2024,1186 2025,1186 2026,1186 2027,1186 2028,1186 2029,1186 2030,1186 2031,1186 2032,1186 2033,1186 2034,1186 2035,1186 2036,1186 2037,1186 2038,1186 2039,1186 2040,1186 2041,1186 2042,1186 2043,1186 2044,1186 2045,1186 2046,1186 2047,1186 2048,1186 2049,1186 2050,1186 2051,1186 2052,1186 2053,1186 2054,1186 2055,1186 2056,1186 2057,1186 2058,1185 2059,1185 2060,1185 2061,1185 2062,1185 2063,1185 2064,1185 2065,1185 2066,1185 2067,1185 2068,1185 2069,1185 2070,1185 2071,1185 2072,1185 2073,1185 2074,1185 2075,1185 2076,1185 2077,1185 2078,1185 2079,1185 2080,1185 2081,1185 2082,1185 2083,1185 2084,1185 2085,1185 2086,1185 2087,1185 2088,1185 2089,1185 2090,1185 2091,1185 2092,1185 2093,1185 2094,1185 2095,1185 2096,1185 2097,1185 2098,1185 2099,1185 2100,1185 2101,1185 2102,1185 2103,1185 2104,1185 2105,1185 2106,1185 2107,1185 2108,1185 2109,1185 2110,1185 2111,1185 2112,1185 2113,1185 2114,1185 2115,1185 2116,1185 2117,1185 2118,1185 2119,1185 2120,1185 " />
    <circle stroke="#000000" stroke-width="1" stroke-linecap="round" stroke-linejoin="round" fill="#000000" cx="323" cy="1184" r="3" />
    <circle stroke="#000000" stroke-width="1" stroke-linecap="round" stroke-linejoin="round" fill="#000000" cx="599" cy="1142" r="3" />
    <circle stroke="#000000" stroke-width="1" stroke-linecap="round" stroke-linejoin="round" fill="#000000" cx="875" cy="1048" r="3" />
    <circle stroke="#000000" stroke-width="1" stroke-linecap="round" stroke-linejoin="round" fill="#000000" cx="1198" cy="1175" r="3" />
    <circle stroke="#000000" stroke-width="1" stroke-linecap="round" stroke-linejoin="round" fill="#000000" cx="1474" cy="1185" r="3" />
    <circle stroke="#000000" stroke-width="1" stroke-linecap="round" stroke-linejoin="round" fill="#000000" cx="1797" cy="1185" r="3" />
    <circle stroke="#000000" stroke-width="1" stroke-linecap="round" stroke-linejoin="round" fill="#000000" cx="2120" cy="1185" r="3" />
  </g>
</svg>
