<?xml version="1.0" encoding="UTF-8"?>
<!DOCTYPE svg PUBLIC "-//W3C//DTD SVG 1.1//EN" "http://www.w3.org/Graphics/SVG/1.1/DTD/svg11.dtd">
<svg width="2396px" height="1303px" viewBox="0 0 2396 1303" version="1.1" xmlns="http://www.w3.org/2000/svg" xmlns:xlink="http://www.w3.org/1999/xlink">
  <g>
    <polyline stroke="#000000" stroke-width="2" stroke-linecap="butt" stroke-linejoin="bevel" fill="none" points="2351,20 2391,20 " />
    <circle stroke="#000000" stroke-width="1" stroke-linecap="round" stroke-linejoin="round" fill="#000000" cx="2371" cy="20" r="3" />
    <text x="2351" y="16" font-family="Times New Roman" font-size="11" fill="#000000">Ряд 1</text>
    <rect stroke="#000000" stroke-width="1" stroke-linecap="round" stroke-linejoin="round" fill="none" x="2346.5" y="0.5" width="49" height="29" />
  </g>
  <clipPath id="clippath1">
    <path d="M-1,-1 H2396 V1302H-1 z M2345,-1 H2397 V31 H2345 z" clip-rule="evenodd" />
  </clipPath>
  <g clip-path="url(#clippath1)">
    <line stroke="#9999ff" stroke-width="1" stroke-dasharray="1,10" stroke-linecap="round" stroke-linejoin="round" x1="194.5" y1="0.5" x2="194.5" y2="1302.5" />
    <line stroke="#9999ff" stroke-width="1" stroke-dasharray="1,10" stroke-linecap="round" stroke-linejoin="round" x1="324.5" y1="0.5" x2="324.5" y2="1302.5" />
    <line stroke="#9999ff" stroke-width="1" stroke-dasharray="1,10" stroke-linecap="round" stroke-linejoin="round" x1="453.5" y1="0.5" x2="453.5" y2="1302.5" />
    <line stroke="#9999ff" stroke-width="1" stroke-dasharray="1,10" stroke-linecap="round" stroke-linejoin="round" x1="583.5" y1="0.5" x2="583.5" y2="1302.5" />
    <line stroke="#9999ff" stroke-width="1" stroke-dasharray="1,10" stroke-linecap="round" stroke-linejoin="round" x1="712.5" y1="0.5" x2="712.5" y2="1302.5" />
    <line stroke="#9999ff" stroke-width="1" stroke-dasharray="1,10" stroke-linecap="round" stroke-linejoin="round" x1="842.5" y1="0.5" x2="842.5" y2="1302.5" />
    <line stroke="#9999ff" stroke-width="1" stroke-dasharray="1,10" stroke-linecap="round" stroke-linejoin="round" x1="971.5" y1="0.5" x2="971.5" y2="1302.5" />
    <line stroke="#9999ff" stroke-width="1" stroke-dasharray="1,10" stroke-linecap="round" stroke-linejoin="round" x1="1101.5" y1="0.5" x2="1101.5" y2="1302.5" />
    <line stroke="#9999ff" stroke-width="1" stroke-dasharray="1,10" stroke-linecap="round" stroke-linejoin="round" x1="1230.5" y1="0.5" x2="1230.5" y2="1302.5" />
    <line stroke="#9999ff" stroke-width="1" stroke-dasharray="1,10" stroke-linecap="round" stroke-linejoin="round" x1="1360.5" y1="0.5" x2="1360.5" y2="1302.5" />
    <line stroke="#9999ff" stroke-width="1" stroke-dasharray="1,10" stroke-linecap="round" stroke-linejoin="round" x1="1489.5" y1="0.5" x2="1489.5" y2="1302.5" />
    <line stroke="#9999ff" stroke-width="1" stroke-dasharray="1,10" stroke-linecap="round" stroke-linejoin="round" x1="1619.5" y1="0.5" x2="1619.5" y2="1302.5" />
    <line stroke="#9999ff" stroke-width="1" stroke-dasharray="1,10" stroke-linecap="round" stroke-linejoin="round" x1="1748.5" y1="0.5" x2="1748.5" y2="1302.5" />
    <line stroke="#9999ff" stroke-width="1" stroke-dasharray="1,10" stroke-linecap="round" stroke-linejoin="round" x1="1878.5" y1="0.5" x2="1878.5" y2="1302.5" />
    <line stroke="#9999ff" stroke-width="1" stroke-dasharray="1,10" stroke-linecap="round" stroke-linejoin="round" x1="2007.5" y1="0.5" x2="2007.5" y2="1302.5" />
    <line stroke="#9999ff" stroke-width="1" stroke-dasharray="1,10" stroke-linecap="round" stroke-linejoin="round" x1="2137.5" y1="0.5" x2="2137.5" y2="1302.5" />
    <line stroke="#9999ff" stroke-width="1" stroke-dasharray="1,10" stroke-linecap="round" stroke-linejoin="round" x1="2266.5" y1="0.5" x2="2266.5" y2="1302.5" />
    <line stroke="#9999ff" stroke-width="1" stroke-dasharray="1,10" stroke-linecap="round" stroke-linejoin="round" x1="0.5" y1="1185.5" x2="2395.5" y2="1185.5" />
    <line stroke="#9999ff" stroke-width="1" stroke-dasharray="1,10" stroke-linecap="round" stroke-linejoin="round" x1="0.5" y1="1125.5" x2="2395.5" y2="1125.5" />
    <line stroke="#9999ff" stroke-width="1" stroke-dasharray="1,10" stroke-linecap="round" stroke-linejoin="round" x1="0.5" y1="1066.5" x2="2395.5" y2="1066.5" />
    <line stroke="#9999ff" stroke-width="1" stroke-dasharray="1,10" stroke-linecap="round" stroke-linejoin="round" x1="0.5" y1="1007.5" x2="2395.5" y2="1007.5" />
    <line stroke="#9999ff" stroke-width="1" stroke-dasharray="1,10" stroke-linecap="round" stroke-linejoin="round" x1="0.5" y1="948.5" x2="2395.5" y2="948.5" />
    <line stroke="#9999ff" stroke-width="1" stroke-dasharray="1,10" stroke-linecap="round" stroke-linejoin="round" x1="0.5" y1="888.5" x2="2395.5" y2="888.5" />
    <line stroke="#9999ff" stroke-width="1" stroke-dasharray="1,10" stroke-linecap="round" stroke-linejoin="round" x1="0.5" y1="829.5" x2="2395.5" y2="829.5" />
    <line stroke="#9999ff" stroke-width="1" stroke-dasharray="1,10" stroke-linecap="round" stroke-linejoin="round" x1="0.5" y1="770.5" x2="2395.5" y2="770.5" />
    <line stroke="#9999ff" stroke-width="1" stroke-dasharray="1,10" stroke-linecap="round" stroke-linejoin="round" x1="0.5" y1="711.5" x2="2395.5" y2="711.5" />
    <line stroke="#9999ff" stroke-width="1" stroke-dasharray="1,10" stroke-linecap="round" stroke-linejoin="round" x1="0.5" y1="651.5" x2="2395.5" y2="651.5" />
    <line stroke="#9999ff" stroke-width="1" stroke-dasharray="1,10" stroke-linecap="round" stroke-linejoin="round" x1="0.5" y1="592.5" x2="2395.5" y2="592.5" />
    <line stroke="#9999ff" stroke-width="1" stroke-dasharray="1,10" stroke-linecap="round" stroke-linejoin="round" x1="0.5" y1="533.5" x2="2395.5" y2="533.5" />
    <line stroke="#9999ff" stroke-width="1" stroke-dasharray="1,10" stroke-linecap="round" stroke-linejoin="round" x1="0.5" y1="474.5" x2="2395.5" y2="474.5" />
    <line stroke="#9999ff" stroke-width="1" stroke-dasharray="1,10" stroke-linecap="round" stroke-linejoin="round" x1="0.5" y1="415.5" x2="2395.5" y2="415.5" />
    <line stroke="#9999ff" stroke-width="1" stroke-dasharray="1,10" stroke-linecap="round" stroke-linejoin="round" x1="0.5" y1="355.5" x2="2395.5" y2="355.5" />
    <line stroke="#9999ff" stroke-width="1" stroke-dasharray="1,10" stroke-linecap="round" stroke-linejoin="round" x1="0.5" y1="296.5" x2="2395.5" y2="296.5" />
    <line stroke="#9999ff" stroke-width="1" stroke-dasharray="1,10" stroke-linecap="round" stroke-linejoin="round" x1="0.5" y1="237.5" x2="2395.5" y2="237.5" />
    <line stroke="#9999ff" stroke-width="1" stroke-dasharray="1,10" stroke-linecap="round" stroke-linejoin="round" x1="0.5" y1="178.5" x2="2395.5" y2="178.5" />
    <line stroke="#9999ff" stroke-width="1" stroke-dasharray="1,10" stroke-linecap="round" stroke-linejoin="round" x1="0.5" y1="118.5" x2="2395.5" y2="118.5" />
    <line stroke="#9999ff" stroke-width="1" stroke-dasharray="1,10" stroke-linecap="round" stroke-linejoin="round" x1="0.5" y1="59.5" x2="2395.5" y2="59.5" />
    <text x="191" y="1261" font-family="Times New Roman" font-size="13" fill="#000000">9</text>
    <text x="318" y="1261" font-family="Times New Roman" font-size="13" fill="#000000">10</text>
    <text x="447" y="1261" font-family="Times New Roman" font-size="13" fill="#000000">11</text>
    <text x="577" y="1261" font-family="Times New Roman" font-size="13" fill="#000000">12</text>
    <text x="706" y="1261" font-family="Times New Roman" font-size="13" fill="#000000">13</text>
    <text x="836" y="1261" font-family="Times New Roman" font-size="13" fill="#000000">14</text>
    <text x="965" y="1261" font-family="Times New Roman" font-size="13" fill="#000000">15</text>
    <text x="1095" y="1261" font-family="Times New Roman" font-size="13" fill="#000000">16</text>
    <text x="1224" y="1261" font-family="Times New Roman" font-size="13" fill="#000000">17</text>
    <text x="1354" y="1261" font-family="Times New Roman" font-size="13" fill="#000000">18</text>
    <text x="1483" y="1261" font-family="Times New Roman" font-size="13" fill="#000000">19</text>
    <text x="1613" y="1261" font-family="Times New Roman" font-size="13" fill="#000000">20</text>
    <text x="1742" y="1261" font-family="Times New Roman" font-size="13" fill="#000000">21</text>
    <text x="1872" y="1261" font-family="Times New Roman" font-size="13" fill="#000000">22</text>
    <text x="2001" y="1261" font-family="Times New Roman" font-size="13" fill="#000000">23</text>
    <text x="2131" y="1261" font-family="Times New Roman" font-size="13" fill="#000000">24</text>
    <text x="2260" y="1261" font-family="Times New Roman" font-size="13" fill="#000000">25</text>
    <text x="37" y="1191" font-family="Times New Roman" font-size="13" fill="#000000">0.05</text>
    <text x="43" y="1131" font-family="Times New Roman" font-size="13" fill="#000000">0.1</text>
    <text x="37" y="1072" font-family="Times New Roman" font-size="13" fill="#000000">0.15</text>
    <text x="43" y="1013" font-family="Times New Roman" font-size="13" fill="#000000">0.2</text>
    <text x="37" y="954" font-family="Times New Roman" font-size="13" fill="#000000">0.25</text>
    <text x="43" y="894" font-family="Times New Roman" font-size="13" fill="#000000">0.3</text>
    <text x="37" y="835" font-family="Times New Roman" font-size="13" fill="#000000">0.35</text>
    <text x="43" y="776" font-family="Times New Roman" font-size="13" fill="#000000">0.4</text>
    <text x="37" y="717" font-family="Times New Roman" font-size="13" fill="#000000">0.45</text>
    <text x="43" y="658" font-family="Times New Roman" font-size="13" fill="#000000">0.5</text>
    <text x="37" y="598" font-family="Times New Roman" font-size="13" fill="#000000">0.55</text>
    <text x="43" y="539" font-family="Times New Roman" font-size="13" fill="#000000">0.6</text>
    <text x="37" y="480" font-family="Times New Roman" font-size="13" fill="#000000">0.65</text>
    <text x="43" y="421" font-family="Times New Roman" font-size="13" fill="#000000">0.7</text>
    <text x="37" y="361" font-family="Times New Roman" font-size="13" fill="#000000">0.75</text>
    <text x="43" y="302" font-family="Times New Roman" font-size="13" fill="#000000">0.8</text>
    <text x="37" y="243" font-family="Times New Roman" font-size="13" fill="#000000">0.85</text>
    <text x="43" y="184" font-family="Times New Roman" font-size="13" fill="#000000">0.9</text>
    <text x="37" y="124" font-family="Times New Roman" font-size="13" fill="#000000">0.95</text>
    <text x="52" y="65" font-family="Times New Roman" font-size="13" fill="#000000">1</text>
    <text x="2384" y="1234" font-family="Times New Roman" font-size="16" font-weight="700" fill="#000000">k</text>
    <text x="77" y="13" font-family="Times New Roman" font-size="16" font-weight="700" fill="#000000">P(k)</text>
    <line stroke="#0000ff" stroke-width="2" stroke-linecap="butt" stroke-linejoin="bevel" x1="0" y1="1244" x2="2391" y2="1244" />
    <polygon stroke="#0000ff" stroke-width="1" stroke-linecap="round" stroke-linejoin="round" fill="#0000ff" points="2390.5,1238.5 2395.5,1243.5 2395.5,1244.5 2390.5,1249.5 " />
    <line stroke="#0000ff" stroke-width="1" stroke-linecap="round" stroke-linejoin="round" x1="194.5" y1="1249.5" x2="194.5" y2="1238.5" />
    <line stroke="#0000ff" stroke-width="1" stroke-linecap="round" stroke-linejoin="round" x1="324.5" y1="1249.5" x2="324.5" y2="1238.5" />
    <line stroke="#0000ff" stroke-width="1" stroke-linecap="round" stroke-linejoin="round" x1="453.5" y1="1249.5" x2="453.5" y2="1238.5" />
    <line stroke="#0000ff" stroke-width="1" stroke-linecap="round" stroke-linejoin="round" x1="583.5" y1="1249.5" x2="583.5" y2="1238.5" />
    <line stroke="#0000ff" stroke-width="1" stroke-linecap="round" stroke-linejoin="round" x1="712.5" y1="1249.5" x2="712.5" y2="1238.5" />
    <line stroke="#0000ff" stroke-width="1" stroke-linecap="round" stroke-linejoin="round" x1="842.5" y1="1249.5" x2="842.5" y2="1238.5" />
    <line stroke="#0000ff" stroke-width="1" stroke-linecap="round" stroke-linejoin="round" x1="971.5" y1="1249.5" x2="971.5" y2="1238.5" />
    <line stroke="#0000ff" stroke-width="1" stroke-linecap="round" stroke-linejoin="round" x1="1101.5" y1="1249.5" x2="1101.5" y2="1238.5" />
    <line stroke="#0000ff" stroke-width="1" stroke-linecap="round" stroke-linejoin="round" x1="1230.5" y1="1249.5" x2="1230.5" y2="1238.5" />
    <line stroke="#0000ff" stroke-width="1" stroke-linecap="round" stroke-linejoin="round" x1="1360.5" y1="1249.5" x2="1360.5" y2="1238.5" />
    <line stroke="#0000ff" stroke-width="1" stroke-linecap="round" stroke-linejoin="round" x1="1489.5" y1="1249.5" x2="1489.5" y2="1238.5" />
    <line stroke="#0000ff" stroke-width="1" stroke-linecap="round" stroke-linejoin="round" x1="1619.5" y1="1249.5" x2="1619.5" y2="1238.5" />
    <line stroke="#0000ff" stroke-width="1" stroke-linecap="round" stroke-linejoin="round" x1="1748.5" y1="1249.5" x2="1748.5" y2="1238.5" />
    <line stroke="#0000ff" stroke-width="1" stroke-linecap="round" stroke-linejoin="round" x1="1878.5" y1="1249.5" x2="1878.5" y2="1238.5" />
    <line stroke="#0000ff" stroke-width="1" stroke-linecap="round" stroke-linejoin="round" x1="2007.5" y1="1249.5" x2="2007.5" y2="1238.5" />
    <line stroke="#0000ff" stroke-width="1" stroke-linecap="round" stroke-linejoin="round" x1="2137.5" y1="1249.5" x2="2137.5" y2="1238.5" />
    <line stroke="#0000ff" stroke-width="1" stroke-linecap="round" stroke-linejoin="round" x1="2266.5" y1="1249.5" x2="2266.5" y2="1238.5" />
    <line stroke="#0000ff" stroke-width="2" stroke-linecap="butt" stroke-linejoin="bevel" x1="65" y1="3" x2="65" y2="1302" />
    <polygon stroke="#0000ff" stroke-width="1" stroke-linecap="round" stroke-linejoin="round" fill="#0000ff" points="59.5,5.5 64.5,0.5 65.5,0.5 70.5,5.5 " />
    <line stroke="#0000ff" stroke-width="1" stroke-linecap="round" stroke-linejoin="round" x1="59.5" y1="1185.5" x2="70.5" y2="1185.5" />
    <line stroke="#0000ff" stroke-width="1" stroke-linecap="round" stroke-linejoin="round" x1="59.5" y1="1125.5" x2="70.5" y2="1125.5" />
    <line stroke="#0000ff" stroke-width="1" stroke-linecap="round" stroke-linejoin="round" x1="59.5" y1="1066.5" x2="70.5" y2="1066.5" />
    <line stroke="#0000ff" stroke-width="1" stroke-linecap="round" stroke-linejoin="round" x1="59.5" y1="1007.5" x2="70.5" y2="1007.5" />
    <line stroke="#0000ff" stroke-width="1" stroke-linecap="round" stroke-linejoin="round" x1="59.5" y1="948.5" x2="70.5" y2="948.5" />
    <line stroke="#0000ff" stroke-width="1" stroke-linecap="round" stroke-linejoin="round" x1="59.5" y1="888.5" x2="70.5" y2="888.5" />
    <line stroke="#0000ff" stroke-width="1" stroke-linecap="round" stroke-linejoin="round" x1="59.5" y1="829.5" x2="70.5" y2="829.5" />
    <line stroke="#0000ff" stroke-width="1" stroke-linecap="round" stroke-linejoin="round" x1="59.5" y1="770.5" x2="70.5" y2="770.5" />
    <line stroke="#0000ff" stroke-width="1" stroke-linecap="round" stroke-linejoin="round" x1="59.5" y1="711.5" x2="70.5" y2="711.5" />
    <line stroke="#0000ff" stroke-width="1" stroke-linecap="round" stroke-linejoin="round" x1="59.5" y1="651.5" x2="70.5" y2="651.5" />
    <line stroke="#0000ff" stroke-width="1" stroke-linecap="round" stroke-linejoin="round" x1="59.5" y1="592.5" x2="70.5" y2="592.5" />
    <line stroke="#0000ff" stroke-width="1" stroke-linecap="round" stroke-linejoin="round" x1="59.5" y1="533.5" x2="70.5" y2="533.5" />
    <line stroke="#0000ff" stroke-width="1" stroke-linecap="round" stroke-linejoin="round" x1="59.5" y1="474.5" x2="70.5" y2="474.5" />
    <line stroke="#0000ff" stroke-width="1" stroke-linecap="round" stroke-linejoin="round" x1="59.5" y1="415.5" x2="70.5" y2="415.5" />
    <line stroke="#0000ff" stroke-width="1" stroke-linecap="round" stroke-linejoin="round" x1="59.5" y1="355.5" x2="70.5" y2="355.5" />
    <line stroke="#0000ff" stroke-width="1" stroke-linecap="round" stroke-linejoin="round" x1="59.5" y1="296.5" x2="70.5" y2="296.5" />
    <line stroke="#0000ff" stroke-width="1" stroke-linecap="round" stroke-linejoin="round" x1="59.5" y1="237.5" x2="70.5" y2="237.5" />
    <line stroke="#0000ff" stroke-width="1" stroke-linecap="round" stroke-linejoin="round" x1="59.5" y1="178.5" x2="70.5" y2="178.5" />
    <line stroke="#0000ff" stroke-width="1" stroke-linecap="round" stroke-linejoin="round" x1="59.5" y1="118.5" x2="70.5" y2="118.5" />
    <line stroke="#0000ff" stroke-width="1" stroke-linecap="round" stroke-linejoin="round" x1="59.5" y1="59.5" x2="70.5" y2="59.5" />
  </g>
  <clipPath id="clippath2">
    <path d="M-1,-1 H2396 V1302H-1 z M2345,-1 H2397 V31 H2345 z" clip-rule="evenodd" />
  </clipPath>
  <g clip-path="url(#clippath2)">
    <polyline stroke="#000000" stroke-width="2" stroke-linecap="butt" stroke-linejoin="bevel" fill="none" points="194,1244 195,1244 196,1244 197,1244 198,1244 199,1244 200,1244 201,1244 202,1244 203,1244 204,1244 205,1244 206,1244 207,1244 208,1244 209,1244 210,1244 211,1244 212,1244 213,1244 214,1244 215,1244 216,1244 217,1244 218,1244 219,1244 220,1244 221,1244 222,1244 223,1244 224,1244 225,1244 226,1244 227,1244 228,1244 229,1244 230,1244 231,1244 232,1244 233,1244 234,1244 235,1244 236,1244 237,1244 238,1244 239,1244 240,1244 241,1244 242,1244 243,1244 244,1244 245,1244 246,1244 247,1244 248,1244 249,1244 250,1244 251,1244 252,1244 253,1244 254,1244 255,1244 256,1244 257,1244 258,1244 259,1244 260,1244 261,1244 262,1244 263,1244 264,1244 265,1244 266,1244 267,1244 268,1244 269,1244 270,1244 271,1244 272,1244 273,1244 274,1244 275,1244 276,1244 277,1244 278,1244 279,1244 280,1244 281,1244 282,1244 283,1244 284,1244 285,1244 286,1244 287,1244 288,1244 289,1244 290,1244 291,1244 292,1244 293,1244 294,1244 295,1244 296,1244 297,1244 298,1244 299,1244 300,1244 301,1244 302,1244 303,1244 304,1244 305,1244 306,1244 307,1244 308,1244 309,1244 310,1244 311,1244 312,1244 313,1244 314,1244 315,1244 316,1244 317,1244 318,1244 319,1244 320,1244 321,1244 322,1244 323,1244 324,1244 324,1244 325,1244 326,1244 327,1244 328,1244 329,1244 330,1244 331,1244 332,1244 333,1244 334,1244 335,1244 336,1244 337,1244 338,1244 339,1244 340,1244 341,1244 342,1244 343,1244 344,1244 345,1244 346,1244 347,1244 348,1244 349,1244 350,1244 351,1244 352,1244 353,1244 354,1244 355,1244 356,1244 357,1244 358,1244 359,1244 360,1244 361,1244 362,1244 363,1244 364,1244 365,1244 366,1244 367,1244 368,1244 369,1244 370,1244 371,1244 372,1244 373,1244 374,1244 375,1244 376,1244 377,1244 378,1244 379,1244 380,1244 381,1244 382,1244 383,1244 384,1244 385,1244 386,1244 387,1244 388,1244 389,1244 390,1244 391,1244 392,1244 393,1244 394,1244 395,1244 396,1244 397,1244 398,1244 399,1244 400,1244 401,1244 402,1244 403,1244 404,1244 405,1244 406,1244 407,1244 408,1244 409,1244 410,1244 411,1244 412,1244 413,1244 414,1244 415,1244 416,1244 417,1244 418,1244 419,1244 420,1244 421,1244 422,1244 423,1244 424,1244 425,1244 426,1244 427,1244 428,1244 429,1244 430,1244 431,1244 432,1244 433,1244 434,1244 435,1244 436,1244 437,1244 438,1244 439,1244 440,1244 441,1244 442,1244 443,1244 444,1244 445,1244 446,1244 447,1244 448,1244 449,1244 450,1244 451,1244 452,1244 453,1244 454,1244 455,1244 456,1244 457,1244 458,1244 459,1244 460,1244 461,1244 462,1244 463,1244 464,1244 465,1244 466,1244 467,1244 468,1244 469,1244 470,1244 471,1244 472,1244 473,1244 474,1244 475,1244 476,1244 477,1244 478,1244 479,1244 480,1244 481,1244 482,1244 483,1244 484,1244 485,1244 486,1244 487,1244 488,1244 489,1244 490,1244 491,1244 492,1244 493,1244 494,1244 495,1244 496,1244 497,1244 498,1244 499,1244 500,1244 501,1244 502,1244 503,1244 504,1244 505,1244 506,1244 507,1244 508,1244 509,1244 510,1244 511,1244 512,1244 513,1244 514,1244 515,1244 516,1244 517,1244 518,1244 519,1244 520,1244 521,1244 522,1244 523,1244 524,1244 525,1244 526,1244 527,1244 528,1244 529,1244 530,1244 531,1244 532,1244 533,1244 534,1244 535,1244 536,1244 537,1244 538,1244 539,1244 540,1244 541,1244 542,1244 543,1244 544,1244 545,1244 546,1244 547,1244 548,1244 549,1244 550,1244 551,1244 552,1244 553,1244 554,1244 555,1244 556,1244 557,1244 558,1244 559,1244 560,1244 561,1244 562,1244 563,1244 564,1244 565,1244 566,1244 567,1244 568,1244 569,1244 570,1244 571,1244 572,1244 573,1244 574,1244 575,1244 576,1244 577,1244 578,1244 579,1244 580,1244 581,1244 582,1244 583,1244 583,1244 584,1244 585,1244 586,1244 587,1244 588,1244 589,1244 590,1244 591,1244 592,1244 593,1244 594,1244 595,1244 596,1244 597,1244 598,1244 599,1244 600,1244 601,1244 602,1244 603,1244 604,1244 605,1244 606,1244 607,1244 608,1244 609,1244 610,1244 611,1244 612,1244 613,1244 614,1244 615,1244 616,1244 617,1244 618,1244 619,1244 620,1244 621,1244 622,1244 623,1244 624,1244 625,1244 626,1244 627,1244 628,1244 629,1244 630,1244 631,1244 632,1244 633,1244 634,1244 635,1244 636,1244 637,1244 638,1244 639,1244 640,1244 641,1244 642,1244 643,1244 644,1244 645,1244 646,1243 647,1243 648,1243 649,1243 650,1243 651,1243 652,1243 653,1243 654,1243 655,1243 656,1243 657,1243 658,1243 659,1243 660,1243 661,1243 662,1243 663,1243 664,1243 665,1243 666,1243 667,1243 668,1243 669,1243 670,1243 671,1243 672,1243 673,1243 674,1243 675,1243 676,1243 677,1243 678,1243 679,1243 680,1243 681,1243 682,1243 683,1243 684,1243 685,1243 686,1243 687,1243 688,1243 689,1243 690,1243 691,1243 692,1243 693,1243 694,1243 695,1243 696,1243 697,1243 698,1243 699,1243 700,1243 701,1243 702,1243 703,1243 704,1243 705,1243 706,1243 707,1243 708,1243 709,1243 710,1243 711,1243 712,1243 713,1243 714,1243 715,1243 716,1243 717,1243 718,1243 719,1243 720,1243 721,1243 722,1243 723,1243 724,1243 725,1243 726,1243 727,1243 728,1243 729,1243 730,1243 731,1243 732,1243 733,1243 734,1243 735,1243 736,1243 737,1243 738,1243 739,1243 740,1243 741,1243 742,1243 743,1243 744,1243 745,1243 746,1243 747,1243 748,1243 749,1243 750,1243 751,1243 752,1243 753,1243 754,1243 755,1243 756,1243 757,1243 758,1243 759,1243 760,1243 761,1243 762,1243 763,1243 764,1243 765,1243 766,1243 767,1243 768,1243 769,1243 770,1243 771,1243 772,1243 773,1243 774,1243 775,1243 776,1243 777,1243 778,1243 779,1243 780,1243 781,1243 782,1243 783,1243 784,1243 785,1243 786,1243 787,1243 788,1243 789,1243 790,1243 791,1243 792,1243 793,1243 794,1243 795,1243 796,1243 797,1243 798,1243 799,1243 800,1243 801,1243 802,1243 803,1243 804,1243 805,1243 806,1243 807,1243 808,1243 809,1243 810,1243 811,1243 812,1243 813,1243 814,1243 815,1243 816,1243 817,1243 818,1243 819,1243 820,1243 821,1243 822,1243 823,1243 824,1243 825,1243 826,1243 827,1243 828,1243 829,1243 830,1243 831,1243 832,1243 833,1243 834,1243 835,1243 836,1243 837,1243 838,1243 839,1243 840,1243 841,1243 842,1243 842,1243 843,1243 844,1243 845,1243 846,1243 847,1243 848,1243 849,1243 850,1243 851,1243 852,1243 853,1243 854,1243 855,1243 856,1243 857,1243 858,1243 859,1243 860,1243 861,1243 862,1243 863,1243 864,1243 865,1243 866,1243 867,1243 868,1243 869,1243 870,1243 871,1243 872,1243 873,1243 874,1243 875,1243 876,1243 877,1243 878,1243 879,1243 880,1243 881,1243 882,1243 883,1243 884,1243 885,1243 886,1243 887,1243 888,1243 889,1243 890,1243 891,1243 892,1243 893,1243 894,1243 895,1243 896,1243 897,1243 898,1243 899,1243 900,1243 901,1243 902,1243 903,1243 904,1243 905,1243 906,1243 907,1243 908,1243 909,1243 910,1243 911,1243 912,1243 913,1243 914,1243 915,1243 916,1243 917,1243 918,1243 919,1243 920,1243 921,1243 922,1243 923,1243 924,1242 925,1242 926,1242 927,1242 928,1242 929,1242 930,1242 931,1242 932,1242 933,1242 934,1242 935,1242 936,1242 937,1242 938,1242 939,1242 940,1242 941,1242 942,1242 943,1242 944,1242 945,1242 946,1242 947,1242 948,1242 949,1242 950,1242 951,1242 952,1242 953,1242 954,1242 955,1242 956,1242 957,1242 958,1242 959,1242 960,1242 961,1242 962,1242 963,1242 964,1242 965,1242 966,1242 967,1242 968,1242 969,1242 970,1242 971,1242 972,1242 973,1242 974,1242 975,1242 976,1242 977,1242 978,1242 979,1242 980,1242 981,1242 982,1242 983,1242 984,1242 985,1242 986,1242 987,1242 988,1242 989,1242 990,1242 991,1242 992,1242 993,1242 994,1242 995,1242 996,1242 997,1242 998,1242 999,1242 1000,1242 1001,1242 1002,1242 1003,1242 1004,1242 1005,1242 1006,1242 1007,1242 1008,1242 1009,1242 1010,1242 1011,1242 1012,1242 1013,1242 1014,1241 1015,1241 1016,1241 1017,1241 1018,1241 1019,1241 1020,1241 1021,1241 1022,1241 1023,1241 1024,1241 1025,1241 1026,1241 1027,1241 1028,1241 1029,1241 1030,1241 1031,1241 1032,1241 1033,1241 1034,1241 1035,1241 1036,1241 1037,1241 1038,1241 1039,1241 1040,1241 1041,1241 1042,1241 1043,1241 1044,1241 1045,1241 1046,1241 1047,1241 1048,1241 1049,1241 1050,1241 1051,1241 1052,1241 1053,1241 1054,1241 1055,1241 1056,1241 1057,1241 1058,1241 1059,1241 1060,1241 1061,1241 1062,1241 1063,1241 1064,1241 1065,1241 1066,1241 1067,1241 1068,1241 1069,1241 1070,1241 1071,1241 1072,1241 1073,1241 1074,1241 1075,1241 1076,1241 1077,1241 1078,1240 1079,1240 1080,1240 1081,1240 1082,1240 1083,1240 1084,1240 1085,1240 1086,1240 1087,1240 1088,1240 1089,1240 1090,1240 1091,1240 1092,1240 1093,1240 1094,1240 1095,1240 1096,1240 1097,1240 1098,1240 1099,1240 1100,1240 1101,1240 1101,1240 1102,1240 1103,1240 1104,1240 1105,1240 1106,1240 1107,1240 1108,1240 1109,1240 1110,1240 1111,1240 1112,1240 1113,1240 1114,1240 1115,1240 1116,1240 1117,1240 1118,1240 1119,1240 1120,1240 1121,1240 1122,1239 1123,1239 1124,1239 1125,1239 1126,1239 1127,1239 1128,1239 1129,1239 1130,1239 1131,1239 1132,1239 1133,1239 1134,1239 1135,1239 1136,1239 1137,1239 1138,1239 1139,1239 1140,1239 1141,1239 1142,1239 1143,1239 1144,1239 1145,1239 1146,1239 1147,1239 1148,1239 1149,1239 1150,1239 1151,1239 1152,1239 1153,1239 1154,1239 1155,1239 1156,1238 1157,1238 1158,1238 1159,1238 1160,1238 1161,1238 1162,1238 1163,1238 1164,1238 1165,1238 1166,1238 1167,1238 1168,1238 1169,1238 1170,1238 1171,1238 1172,1238 1173,1238 1174,1238 1175,1238 1176,1238 1177,1238 1178,1238 1179,1238 1180,1238 1181,1238 1182,1238 1183,1238 1184,1238 1185,1238 1186,1238 1187,1237 1188,1237 1189,1237 1190,1237 1191,1237 1192,1237 1193,1237 1194,1237 1195,1237 1196,1237 1197,1237 1198,1237 1199,1237 1200,1237 1201,1237 1202,1237 1203,1237 1204,1237 1205,1237 1206,1237 1207,1237 1208,1237 1209,1237 1210,1237 1211,1237 1212,1237 1213,1237 1214,1237 1215,1237 1216,1236 1217,1236 1218,1236 1219,1236 1220,1236 1221,1236 1222,1236 1223,1236 1224,1236 1225,1236 1226,1236 1227,1236 1228,1236 1229,1236 1230,1236 1231,1236 1232,1236 1233,1236 1234,1236 1235,1236 1236,1236 1237,1236 1238,1236 1239,1236 1240,1236 1241,1236 1242,1236 1243,1236 1244,1236 1245,1235 1246,1235 1247,1235 1248,1235 1249,1235 1250,1235 1251,1235 1252,1235 1253,1235 1254,1235 1255,1235 1256,1235 1257,1235 1258,1235 1259,1235 1260,1235 1261,1235 1262,1235 1263,1235 1264,1235 1265,1235 1266,1235 1267,1235 1268,1235 1269,1235 1270,1235 1271,1235 1272,1234 1273,1234 1274,1234 1275,1234 1276,1234 1277,1234 1278,1234 1279,1234 1280,1234 1281,1234 1282,1234 1283,1234 1284,1234 1285,1234 1286,1234 1287,1234 1288,1234 1289,1234 1290,1234 1291,1234 1292,1234 1293,1234 1294,1234 1295,1234 1296,1233 1297,1233 1298,1233 1299,1233 1300,1233 1301,1233 1302,1233 1303,1233 1304,1233 1305,1233 1306,1233 1307,1233 1308,1233 1309,1233 1310,1233 1311,1233 1312,1233 1313,1233 1314,1233 1315,1233 1316,1233 1317,1232 1318,1232 1319,1232 1320,1232 1321,1232 1322,1232 1323,1232 1324,1232 1325,1232 1326,1232 1327,1232 1328,1232 1329,1232 1330,1232 1331,1232 1332,1232 1333,1232 1334,1232 1335,1232 1336,1231 1337,1231 1338,1231 1339,1231 1340,1231 1341,1231 1342,1231 1343,1231 1344,1231 1345,1231 1346,1231 1347,1231 1348,1231 1349,1231 1350,1231 1351,1231 1352,1231 1353,1230 1354,1230 1355,1230 1356,1230 1357,1230 1358,1230 1359,1230 1360,1230 1360,1230 1361,1230 1362,1230 1363,1230 1364,1230 1365,1230 1366,1230 1367,1230 1368,1229 1369,1229 1370,1229 1371,1229 1372,1229 1373,1229 1374,1229 1375,1229 1376,1229 1377,1229 1378,1229 1379,1229 1380,1229 1381,1228 1382,1228 1383,1228 1384,1228 1385,1228 1386,1228 1387,1228 1388,1228 1389,1228 1390,1228 1391,1228 1392,1228 1393,1228 1394,1227 1395,1227 1396,1227 1397,1227 1398,1227 1399,1227 1400,1227 1401,1227 1402,1227 1403,1227 1404,1227 1405,1227 1406,1226 1407,1226 1408,1226 1409,1226 1410,1226 1411,1226 1412,1226 1413,1226 1414,1226 1415,1226 1416,1226 1417,1225 1418,1225 1419,1225 1420,1225 1421,1225 1422,1225 1423,1225 1424,1225 1425,1225 1426,1225 1427,1225 1428,1224 1429,1224 1430,1224 1431,1224 1432,1224 1433,1224 1434,1224 1435,1224 1436,1224 1437,1224 1438,1223 1439,1223 1440,1223 1441,1223 1442,1223 1443,1223 1444,1223 1445,1223 1446,1223 1447,1223 1448,1222 1449,1222 1450,1222 1451,1222 1452,1222 1453,1222 1454,1222 1455,1222 1456,1222 1457,1222 1458,1221 1459,1221 1460,1221 1461,1221 1462,1221 1463,1221 1464,1221 1465,1221 1466,1221 1467,1220 1468,1220 1469,1220 1470,1220 1471,1220 1472,1220 1473,1220 1474,1220 1475,1220 1476,1219 1477,1219 1478,1219 1479,1219 1480,1219 1481,1219 1482,1219 1483,1219 1484,1219 1485,1218 1486,1218 1487,1218 1488,1218 1489,1218 1490,1218 1491,1218 1492,1218 1493,1218 1494,1217 1495,1217 1496,1217 1497,1217 1498,1217 1499,1217 1500,1217 1501,1217 1502,1217 1503,1216 1504,1216 1505,1216 1506,1216 1507,1216 1508,1216 1509,1216 1510,1216 1511,1215 1512,1215 1513,1215 1514,1215 1515,1215 1516,1215 1517,1215 1518,1215 1519,1214 1520,1214 1521,1214 1522,1214 1523,1214 1524,1214 1525,1214 1526,1214 1527,1214 1528,1213 1529,1213 1530,1213 1531,1213 1532,1213 1533,1213 1534,1213 1535,1212 1536,1212 1537,1212 1538,1212 1539,1212 1540,1212 1541,1212 1542,1212 1543,1211 1544,1211 1545,1211 1546,1211 1547,1211 1548,1211 1549,1211 1550,1211 1551,1210 1552,1210 1553,1210 1554,1210 1555,1210 1556,1210 1557,1210 1558,1209 1559,1209 1560,1209 1561,1209 1562,1209 1563,1209 1564,1209 1565,1208 1566,1208 1567,1208 1568,1208 1569,1208 1570,1208 1571,1208 1572,1207 1573,1207 1574,1207 1575,1207 1576,1207 1577,1207 1578,1207 1579,1206 1580,1206 1581,1206 1582,1206 1583,1206 1584,1206 1585,1206 1586,1205 1587,1205 1588,1205 1589,1205 1590,1205 1591,1205 1592,1204 1593,1204 1594,1204 1595,1204 1596,1204 1597,1204 1598,1204 1599,1203 1600,1203 1601,1203 1602,1203 1603,1203 1604,1203 1605,1202 1606,1202 1607,1202 1608,1202 1609,1202 1610,1202 1611,1201 1612,1201 1613,1201 1614,1201 1615,1201 1616,1201 1617,1200 1618,1200 1619,1200 1619,1200 1620,1200 1621,1200 1622,1199 1623,1199 1624,1199 1625,1199 1626,1199 1627,1199 1628,1198 1629,1198 1630,1198 1631,1198 1632,1198 1633,1197 1634,1197 1635,1197 1636,1197 1637,1197 1638,1197 1639,1196 1640,1196 1641,1196 1642,1196 1643,1196 1644,1195 1645,1195 1646,1195 1647,1195 1648,1195 1649,1194 1650,1194 1651,1194 1652,1194 1653,1194 1654,1193 1655,1193 1656,1193 1657,1193 1658,1193 1659,1192 1660,1192 1661,1192 1662,1192 1663,1192 1664,1191 1665,1191 1666,1191 1667,1191 1668,1191 1669,1190 1670,1190 1671,1190 1672,1190 1673,1189 1674,1189 1675,1189 1676,1189 1677,1189 1678,1188 1679,1188 1680,1188 1681,1188 1682,1188 1683,1187 1684,1187 1685,1187 1686,1187 1687,1186 1688,1186 1689,1186 1690,1186 1691,1185 1692,1185 1693,1185 1694,1185 1695,1185 1696,1184 1697,1184 1698,1184 1699,1184 1700,1183 1701,1183 1702,1183 1703,1183 1704,1182 1705,1182 1706,1182 1707,1182 1708,1181 1709,1181 1710,1181 1711,1181 1712,1180 1713,1180 1714,1180 1715,1180 1716,1179 1717,1179 1718,1179 1719,1179 1720,1178 1721,1178 1722,1178 1723,1178 1724,1177 1725,1177 1726,1177 1727,1177 1728,1176 1729,1176 1730,1176 1731,1176 1732,1175 1733,1175 1734,1175 1735,1175 1736,1174 1737,1174 1738,1174 1739,1173 1740,1173 1741,1173 1742,1173 1743,1172 1744,1172 1745,1172 1746,1172 1747,1171 1748,1171 1749,1171 1750,1170 1751,1170 1752,1170 1753,1170 1754,1169 1755,1169 1756,1169 1757,1168 1758,1168 1759,1168 1760,1168 1761,1167 1762,1167 1763,1167 1764,1166 1765,1166 1766,1166 1767,1166 1768,1165 1769,1165 1770,1165 1771,1164 1772,1164 1773,1164 1774,1163 1775,1163 1776,1163 1777,1163 1778,1162 1779,1162 1780,1162 1781,1161 1782,1161 1783,1161 1784,1160 1785,1160 1786,1160 1787,1159 1788,1159 1789,1159 1790,1159 1791,1158 1792,1158 1793,1158 1794,1157 1795,1157 1796,1157 1797,1156 1798,1156 1799,1156 1800,1155 1801,1155 1802,1155 1803,1154 1804,1154 1805,1154 1806,1153 1807,1153 1808,1153 1809,1152 1810,1152 1811,1152 1812,1151 1813,1151 1814,1151 1815,1150 1816,1150 1817,1150 1818,1149 1819,1149 1820,1149 1821,1148 1822,1148 1823,1147 1824,1147 1825,1147 1826,1146 1827,1146 1828,1146 1829,1145 1830,1145 1831,1145 1832,1144 1833,1144 1834,1143 1835,1143 1836,1143 1837,1142 1838,1142 1839,1142 1840,1141 1841,1141 1842,1140 1843,1140 1844,1140 1845,1139 1846,1139 1847,1139 1848,1138 1849,1138 1850,1137 1851,1137 1852,1137 1853,1136 1854,1136 1855,1135 1856,1135 1857,1135 1858,1134 1859,1134 1860,1133 1861,1133 1862,1133 1863,1132 1864,1132 1865,1131 1866,1131 1867,1131 1868,1130 1869,1130 1870,1129 1871,1129 1872,1129 1873,1128 1874,1128 1875,1127 1876,1127 1877,1126 1878,1126 1878,1126 1879,1126 1880,1125 1881,1125 1882,1124 1883,1124 1884,1123 1885,1123 1886,1123 1887,1122 1888,1122 1889,1121 1890,1121 1891,1120 1892,1120 1893,1119 1894,1119 1895,1118 1896,1118 1897,1118 1898,1117 1899,1117 1900,1116 1901,1116 1902,1115 1903,1115 1904,1114 1905,1114 1906,1113 1907,1113 1908,1112 1909,1112 1910,1111 1911,1111 1912,1111 1913,1110 1914,1110 1915,1109 1916,1109 1917,1108 1918,1108 1919,1107 1920,1107 1921,1106 1922,1106 1923,1105 1924,1105 1925,1104 1926,1104 1927,1103 1928,1103 1929,1102 1930,1102 1931,1101 1932,1101 1933,1100 1934,1100 1935,1099 1936,1099 1937,1098 1938,1097 1939,1097 1940,1096 1941,1096 1942,1095 1943,1095 1944,1094 1945,1094 1946,1093 1947,1093 1948,1092 1949,1092 1950,1091 1951,1091 1952,1090 1953,1090 1954,1089 1955,1088 1956,1088 1957,1087 1958,1087 1959,1086 1960,1086 1961,1085 1962,1085 1963,1084 1964,1083 1965,1083 1966,1082 1967,1082 1968,1081 1969,1081 1970,1080 1971,1080 1972,1079 1973,1078 1974,1078 1975,1077 1976,1077 1977,1076 1978,1075 1979,1075 1980,1074 1981,1074 1982,1073 1983,1073 1984,1072 1985,1071 1986,1071 1987,1070 1988,1070 1989,1069 1990,1068 1991,1068 1992,1067 1993,1067 1994,1066 1995,1065 1996,1065 1997,1064 1998,1064 1999,1063 2000,1062 2001,1062 2002,1061 2003,1060 2004,1060 2005,1059 2006,1059 2007,1058 2008,1057 2009,1057 2010,1056 2011,1056 2012,1055 2013,1054 2014,1054 2015,1053 2016,1052 2017,1052 2018,1051 2019,1050 2020,1050 2021,1049 2022,1049 2023,1048 2024,1047 2025,1047 2026,1046 2027,1045 2028,1045 2029,1044 2030,1043 2031,1043 2032,1042 2033,1041 2034,1041 2035,1040 2036,1039 2037,1039 2038,1038 2039,1037 2040,1037 2041,1036 2042,1035 2043,1035 2044,1034 2045,1033 2046,1032 2047,1032 2048,1031 2049,1030 2050,1030 2051,1029 2052,1028 2053,1028 2054,1027 2055,1026 2056,1025 2057,1025 2058,1024 2059,1023 2060,1023 2061,1022 2062,1021 2063,1020 2064,1020 2065,1019 2066,1018 2067,1017 2068,1017 2069,1016 2070,1015 2071,1014 2072,1014 2073,1013 2074,1012 2075,1011 2076,1011 2077,1010 2078,1009 2079,1008 2080,1008 2081,1007 2082,1006 2083,1005 2084,1005 2085,1004 2086,1003 2087,1002 2088,1001 2089,1001 2090,1000 2091,999 2092,998 2093,997 2094,997 2095,996 2096,995 2097,994 2098,993 2099,993 2100,992 2101,991 2102,990 2103,989 2104,988 2105,988 2106,987 2107,986 2108,985 2109,984 2110,983 2111,982 2112,982 2113,981 2114,980 2115,979 2116,978 2117,977 2118,976 2119,975 2120,975 2121,974 2122,973 2123,972 2124,971 2125,970 2126,969 2127,968 2128,967 2129,966 2130,966 2131,965 2132,964 2133,963 2134,962 2135,961 2136,960 2137,959 2137,959 2138,958 2139,957 2140,956 2141,956 2142,955 2142,954 2143,953 2144,952 2145,951 2146,950 2147,949 2148,948 2149,948 2150,947 2151,946 2152,945 2153,944 2153,943 2154,942 2155,941 2156,940 2157,939 2158,938 2159,937 2160,937 2161,936 2162,935 2163,934 2163,933 2164,932 2165,931 2166,930 2167,929 2168,928 2169,927 2170,926 2171,925 2172,924 2173,923 2173,922 2174,921 2175,920 2176,919 2177,918 2178,918 2179,917 2180,916 2181,915 2182,914 2183,913 2183,912 2184,911 2185,910 2186,909 2187,908 2188,907 2189,906 2190,905 2191,904 2192,903 2193,902 2193,901 2194,900 2195,899 2196,898 2197,897 2198,896 2199,895 2200,894 2201,893 2202,892 2203,891 2203,890 2204,889 2205,888 2206,887 2207,885 2208,884 2209,883 2210,882 2211,881 2212,880 2213,879 2213,878 2214,877 2215,876 2216,875 2217,874 2218,873 2219,872 2220,871 2221,870 2222,869 2223,868 2223,867 2224,866 2225,865 2226,864 2227,863 2228,862 2229,861 2230,860 2231,858 2232,857 2232,856 2233,855 2234,854 2235,853 2236,852 2237,851 2238,850 2239,849 2240,848 2241,847 2242,846 2242,845 2243,844 2244,843 2245,842 2246,840 2247,839 2248,838 2249,837 2250,836 2251,835 2252,834 2252,833 2253,832 2254,831 2255,830 2256,829 2257,828 2258,827 2259,826 2260,824 2261,823 2261,822 2262,821 2263,820 2264,819 2265,818 2266,817 2266,817 " />
    <circle stroke="#000000" stroke-width="1" stroke-linecap="round" stroke-linejoin="round" fill="#000000" cx="194" cy="1244" r="3" />
    <circle stroke="#000000" stroke-width="1" stroke-linecap="round" stroke-linejoin="round" fill="#000000" cx="324" cy="1244" r="3" />
    <circle stroke="#000000" stroke-width="1" stroke-linecap="round" stroke-linejoin="round" fill="#000000" cx="453" cy="1244" r="3" />
    <circle stroke="#000000" stroke-width="1" stroke-linecap="round" stroke-linejoin="round" fill="#000000" cx="583" cy="1244" r="3" />
    <circle stroke="#000000" stroke-width="1" stroke-linecap="round" stroke-linejoin="round" fill="#000000" cx="712" cy="1243" r="3" />
    <circle stroke="#000000" stroke-width="1" stroke-linecap="round" stroke-linejoin="round" fill="#000000" cx="842" cy="1243" r="3" />
    <circle stroke="#000000" stroke-width="1" stroke-linecap="round" stroke-linejoin="round" fill="#000000" cx="971" cy="1242" r="3" />
    <circle stroke="#000000" stroke-width="1" stroke-linecap="round" stroke-linejoin="round" fill="#000000" cx="1101" cy="1240" r="3" />
    <circle stroke="#000000" stroke-width="1" stroke-linecap="round" stroke-linejoin="round" fill="#000000" cx="1230" cy="1236" r="3" />
    <circle stroke="#000000" stroke-width="1" stroke-linecap="round" stroke-linejoin="round" fill="#000000" cx="1360" cy="1230" r="3" />
    <circle stroke="#000000" stroke-width="1" stroke-linecap="round" stroke-linejoin="round" fill="#000000" cx="1489" cy="1218" r="3" />
    <circle stroke="#000000" stroke-width="1" stroke-linecap="round" stroke-linejoin="round" fill="#000000" cx="1619" cy="1200" r="3" />
    <circle stroke="#000000" stroke-width="1" stroke-linecap="round" stroke-linejoin="round" fill="#000000" cx="1748" cy="1171" r="3" />
    <circle stroke="#000000" stroke-width="1" stroke-linecap="round" stroke-linejoin="round" fill="#000000" cx="1878" cy="1126" r="3" />
    <circle stroke="#000000" stroke-width="1" stroke-linecap="round" stroke-linejoin="round" fill="#000000" cx="2007" cy="1058" r="3" />
    <circle stroke="#000000" stroke-width="1" stroke-linecap="round" stroke-linejoin="round" fill="#000000" cx="2137" cy="959" r="3" />
    <circle stroke="#000000" stroke-width="1" stroke-linecap="round" stroke-linejoin="round" fill="#000000" cx="2266" cy="817" r="3" />
  </g>
</svg>
