<?xml version="1.0" encoding="UTF-8"?>
<!DOCTYPE svg PUBLIC "-//W3C//DTD SVG 1.1//EN" "http://www.w3.org/Graphics/SVG/1.1/DTD/svg11.dtd">
<svg width="2325px" height="1303px" viewBox="0 0 2325 1303" version="1.1" xmlns="http://www.w3.org/2000/svg" xmlns:xlink="http://www.w3.org/1999/xlink">
  <g>
    <text x="1219" y="51" font-family="Calibri" font-size="37" fill="#000000">Зависит от числа каналов</text>
    <line stroke="#9999ff" stroke-width="1" stroke-dasharray="1,10" stroke-linecap="round" stroke-linejoin="round" x1="754.5" y1="0.5" x2="754.5" y2="1302.5" />
    <line stroke="#9999ff" stroke-width="1" stroke-dasharray="1,10" stroke-linecap="round" stroke-linejoin="round" x1="1382.5" y1="0.5" x2="1382.5" y2="1302.5" />
    <line stroke="#9999ff" stroke-width="1" stroke-dasharray="1,10" stroke-linecap="round" stroke-linejoin="round" x1="2011.5" y1="0.5" x2="2011.5" y2="1302.5" />
    <line stroke="#9999ff" stroke-width="1" stroke-dasharray="1,10" stroke-linecap="round" stroke-linejoin="round" x1="0.5" y1="1234.5" x2="2324.5" y2="1234.5" />
    <line stroke="#9999ff" stroke-width="1" stroke-dasharray="1,10" stroke-linecap="round" stroke-linejoin="round" x1="0.5" y1="1166.5" x2="2324.5" y2="1166.5" />
    <line stroke="#9999ff" stroke-width="1" stroke-dasharray="1,10" stroke-linecap="round" stroke-linejoin="round" x1="0.5" y1="1097.5" x2="2324.5" y2="1097.5" />
    <line stroke="#9999ff" stroke-width="1" stroke-dasharray="1,10" stroke-linecap="round" stroke-linejoin="round" x1="0.5" y1="960.5" x2="2324.5" y2="960.5" />
    <line stroke="#9999ff" stroke-width="1" stroke-dasharray="1,10" stroke-linecap="round" stroke-linejoin="round" x1="0.5" y1="892.5" x2="2324.5" y2="892.5" />
    <line stroke="#9999ff" stroke-width="1" stroke-dasharray="1,10" stroke-linecap="round" stroke-linejoin="round" x1="0.5" y1="823.5" x2="2324.5" y2="823.5" />
    <line stroke="#9999ff" stroke-width="1" stroke-dasharray="1,10" stroke-linecap="round" stroke-linejoin="round" x1="0.5" y1="754.5" x2="2324.5" y2="754.5" />
    <line stroke="#9999ff" stroke-width="1" stroke-dasharray="1,10" stroke-linecap="round" stroke-linejoin="round" x1="0.5" y1="686.5" x2="2324.5" y2="686.5" />
    <line stroke="#9999ff" stroke-width="1" stroke-dasharray="1,10" stroke-linecap="round" stroke-linejoin="round" x1="0.5" y1="617.5" x2="2324.5" y2="617.5" />
    <line stroke="#9999ff" stroke-width="1" stroke-dasharray="1,10" stroke-linecap="round" stroke-linejoin="round" x1="0.5" y1="549.5" x2="2324.5" y2="549.5" />
    <line stroke="#9999ff" stroke-width="1" stroke-dasharray="1,10" stroke-linecap="round" stroke-linejoin="round" x1="0.5" y1="480.5" x2="2324.5" y2="480.5" />
    <line stroke="#9999ff" stroke-width="1" stroke-dasharray="1,10" stroke-linecap="round" stroke-linejoin="round" x1="0.5" y1="411.5" x2="2324.5" y2="411.5" />
    <line stroke="#9999ff" stroke-width="1" stroke-dasharray="1,10" stroke-linecap="round" stroke-linejoin="round" x1="0.5" y1="343.5" x2="2324.5" y2="343.5" />
    <line stroke="#9999ff" stroke-width="1" stroke-dasharray="1,10" stroke-linecap="round" stroke-linejoin="round" x1="0.5" y1="274.5" x2="2324.5" y2="274.5" />
    <line stroke="#9999ff" stroke-width="1" stroke-dasharray="1,10" stroke-linecap="round" stroke-linejoin="round" x1="0.5" y1="206.5" x2="2324.5" y2="206.5" />
    <line stroke="#9999ff" stroke-width="1" stroke-dasharray="1,10" stroke-linecap="round" stroke-linejoin="round" x1="0.5" y1="137.5" x2="2324.5" y2="137.5" />
    <line stroke="#9999ff" stroke-width="1" stroke-dasharray="1,10" stroke-linecap="round" stroke-linejoin="round" x1="0.5" y1="69.5" x2="2324.5" y2="69.5" />
    <text x="749" y="1062" font-family="Calibri" font-size="37" fill="#000000">1</text>
    <text x="1377" y="1062" font-family="Calibri" font-size="37" fill="#000000">2</text>
    <text x="2006" y="1062" font-family="Calibri" font-size="37" fill="#000000">3</text>
    <text x="63" y="1252" font-family="Calibri" font-size="37" fill="#000000">-0.015</text>
    <text x="74" y="1184" font-family="Calibri" font-size="37" fill="#000000">-0.01</text>
    <text x="63" y="1115" font-family="Calibri" font-size="37" fill="#000000">-0.005</text>
    <text x="70" y="978" font-family="Calibri" font-size="37" fill="#000000">0.005</text>
    <text x="81" y="910" font-family="Calibri" font-size="37" fill="#000000">0.01</text>
    <text x="70" y="841" font-family="Calibri" font-size="37" fill="#000000">0.015</text>
    <text x="81" y="772" font-family="Calibri" font-size="37" fill="#000000">0.02</text>
    <text x="70" y="704" font-family="Calibri" font-size="37" fill="#000000">0.025</text>
    <text x="81" y="635" font-family="Calibri" font-size="37" fill="#000000">0.03</text>
    <text x="70" y="567" font-family="Calibri" font-size="37" fill="#000000">0.035</text>
    <text x="81" y="498" font-family="Calibri" font-size="37" fill="#000000">0.04</text>
    <text x="70" y="429" font-family="Calibri" font-size="37" fill="#000000">0.045</text>
    <text x="81" y="361" font-family="Calibri" font-size="37" fill="#000000">0.05</text>
    <text x="70" y="292" font-family="Calibri" font-size="37" fill="#000000">0.055</text>
    <text x="81" y="224" font-family="Calibri" font-size="37" fill="#000000">0.06</text>
    <text x="70" y="155" font-family="Calibri" font-size="37" fill="#000000">0.065</text>
    <text x="81" y="87" font-family="Calibri" font-size="37" fill="#000000">0.07</text>
    <text x="2312" y="1017" font-family="Times New Roman" font-size="21" font-weight="700" fill="#000000">x</text>
    <text x="138" y="15" font-family="Times New Roman" font-size="21" font-weight="700" fill="#000000">y</text>
    <line stroke="#000000" stroke-width="2" stroke-linecap="butt" stroke-linejoin="bevel" x1="0" y1="1029" x2="2320" y2="1029" />
    <polygon stroke="#000000" stroke-width="1" stroke-linecap="round" stroke-linejoin="round" fill="#000000" points="2318.5,1022.5 2324.5,1028.5 2324.5,1029.5 2318.5,1035.5 " />
    <line stroke="#000000" stroke-width="1" stroke-linecap="round" stroke-linejoin="round" x1="754.5" y1="1034.5" x2="754.5" y2="1023.5" />
    <line stroke="#000000" stroke-width="1" stroke-linecap="round" stroke-linejoin="round" x1="1382.5" y1="1034.5" x2="1382.5" y2="1023.5" />
    <line stroke="#000000" stroke-width="1" stroke-linecap="round" stroke-linejoin="round" x1="2011.5" y1="1034.5" x2="2011.5" y2="1023.5" />
    <line stroke="#000000" stroke-width="2" stroke-linecap="butt" stroke-linejoin="bevel" x1="126" y1="3" x2="126" y2="1302" />
    <polygon stroke="#000000" stroke-width="1" stroke-linecap="round" stroke-linejoin="round" fill="#000000" points="119.5,6.5 125.5,0.5 126.5,0.5 132.5,6.5 " />
    <line stroke="#000000" stroke-width="1" stroke-linecap="round" stroke-linejoin="round" x1="120.5" y1="1234.5" x2="131.5" y2="1234.5" />
    <line stroke="#000000" stroke-width="1" stroke-linecap="round" stroke-linejoin="round" x1="120.5" y1="1166.5" x2="131.5" y2="1166.5" />
    <line stroke="#000000" stroke-width="1" stroke-linecap="round" stroke-linejoin="round" x1="120.5" y1="1097.5" x2="131.5" y2="1097.5" />
    <line stroke="#000000" stroke-width="1" stroke-linecap="round" stroke-linejoin="round" x1="120.5" y1="960.5" x2="131.5" y2="960.5" />
    <line stroke="#000000" stroke-width="1" stroke-linecap="round" stroke-linejoin="round" x1="120.5" y1="892.5" x2="131.5" y2="892.5" />
    <line stroke="#000000" stroke-width="1" stroke-linecap="round" stroke-linejoin="round" x1="120.5" y1="823.5" x2="131.5" y2="823.5" />
    <line stroke="#000000" stroke-width="1" stroke-linecap="round" stroke-linejoin="round" x1="120.5" y1="754.5" x2="131.5" y2="754.5" />
    <line stroke="#000000" stroke-width="1" stroke-linecap="round" stroke-linejoin="round" x1="120.5" y1="686.5" x2="131.5" y2="686.5" />
    <line stroke="#000000" stroke-width="1" stroke-linecap="round" stroke-linejoin="round" x1="120.5" y1="617.5" x2="131.5" y2="617.5" />
    <line stroke="#000000" stroke-width="1" stroke-linecap="round" stroke-linejoin="round" x1="120.5" y1="549.5" x2="131.5" y2="549.5" />
    <line stroke="#000000" stroke-width="1" stroke-linecap="round" stroke-linejoin="round" x1="120.5" y1="480.5" x2="131.5" y2="480.5" />
    <line stroke="#000000" stroke-width="1" stroke-linecap="round" stroke-linejoin="round" x1="120.5" y1="411.5" x2="131.5" y2="411.5" />
    <line stroke="#000000" stroke-width="1" stroke-linecap="round" stroke-linejoin="round" x1="120.5" y1="343.5" x2="131.5" y2="343.5" />
    <line stroke="#000000" stroke-width="1" stroke-linecap="round" stroke-linejoin="round" x1="120.5" y1="274.5" x2="131.5" y2="274.5" />
    <line stroke="#000000" stroke-width="1" stroke-linecap="round" stroke-linejoin="round" x1="120.5" y1="206.5" x2="131.5" y2="206.5" />
    <line stroke="#000000" stroke-width="1" stroke-linecap="round" stroke-linejoin="round" x1="120.5" y1="137.5" x2="131.5" y2="137.5" />
    <line stroke="#000000" stroke-width="1" stroke-linecap="round" stroke-linejoin="round" x1="120.5" y1="69.5" x2="131.5" y2="69.5" />
    <polyline stroke="#ff0000" stroke-width="2" stroke-linecap="butt" stroke-linejoin="bevel" fill="none" points="754,79 1382,952 2011,1023 " />
    <text x="648" y="72" font-family="Tahoma" font-size="16" fill="#ff0000">(1,0.0692521)</text>
    <text x="1276" y="945" font-family="Tahoma" font-size="16" fill="#ff0000">(2,0.0055731)</text>
    <text x="1905" y="1016" font-family="Tahoma" font-size="16" fill="#ff0000">(3,0.0003876)</text>
    <circle stroke="#000000" stroke-width="1" stroke-linecap="round" stroke-linejoin="round" fill="#ff0000" cx="754" cy="79" r="3" />
    <circle stroke="#000000" stroke-width="1" stroke-linecap="round" stroke-linejoin="round" fill="#ff0000" cx="1382" cy="952" r="3" />
    <circle stroke="#000000" stroke-width="1" stroke-linecap="round" stroke-linejoin="round" fill="#ff0000" cx="2011" cy="1023" r="3" />
    <polyline stroke="#00ff00" stroke-width="2" stroke-linecap="butt" stroke-linejoin="bevel" fill="none" points="754,273 1382,979 2011,1025 " />
    <text x="760" y="266" font-family="Tahoma" font-size="16" fill="#00ff00">(1,0.0550754)</text>
    <text x="1388" y="972" font-family="Tahoma" font-size="16" fill="#00ff00">(2,0.0036548)</text>
    <text x="2017" y="1018" font-family="Tahoma" font-size="16" fill="#00ff00">(3,0.0002342)</text>
    <circle stroke="#000000" stroke-width="1" stroke-linecap="round" stroke-linejoin="round" fill="#00ff00" cx="754" cy="273" r="3" />
    <circle stroke="#000000" stroke-width="1" stroke-linecap="round" stroke-linejoin="round" fill="#00ff00" cx="1382" cy="979" r="3" />
    <circle stroke="#000000" stroke-width="1" stroke-linecap="round" stroke-linejoin="round" fill="#00ff00" cx="2011" cy="1025" r="3" />
    <polyline stroke="#0000ff" stroke-width="2" stroke-linecap="butt" stroke-linejoin="bevel" fill="none" points="754,438 1382,993 2011,1026 " />
    <text x="760" y="456" font-family="Tahoma" font-size="16" fill="#0000ff">(1,0.0430516)</text>
    <text x="1388" y="1011" font-family="Tahoma" font-size="16" fill="#0000ff">(2,0.0025719)</text>
    <text x="2017" y="1044" font-family="Tahoma" font-size="16" fill="#0000ff">(3,0.0001603)</text>
    <circle stroke="#000000" stroke-width="1" stroke-linecap="round" stroke-linejoin="round" fill="#0000ff" cx="754" cy="438" r="3" />
    <circle stroke="#000000" stroke-width="1" stroke-linecap="round" stroke-linejoin="round" fill="#0000ff" cx="1382" cy="993" r="3" />
    <circle stroke="#000000" stroke-width="1" stroke-linecap="round" stroke-linejoin="round" fill="#0000ff" cx="2011" cy="1026" r="3" />
  </g>
</svg>
