<?xml version="1.0" encoding="UTF-8"?>
<!DOCTYPE svg PUBLIC "-//W3C//DTD SVG 1.1//EN" "http://www.w3.org/Graphics/SVG/1.1/DTD/svg11.dtd">
<svg width="2396px" height="1303px" viewBox="0 0 2396 1303" version="1.1" xmlns="http://www.w3.org/2000/svg" xmlns:xlink="http://www.w3.org/1999/xlink">
  <g>
    <line stroke="#9999ff" stroke-width="1" stroke-dasharray="1,10" stroke-linecap="round" stroke-linejoin="round" x1="653.5" y1="0.5" x2="653.5" y2="1302.5" />
    <line stroke="#9999ff" stroke-width="1" stroke-dasharray="1,10" stroke-linecap="round" stroke-linejoin="round" x1="1198.5" y1="0.5" x2="1198.5" y2="1302.5" />
    <line stroke="#9999ff" stroke-width="1" stroke-dasharray="1,10" stroke-linecap="round" stroke-linejoin="round" x1="1743.5" y1="0.5" x2="1743.5" y2="1302.5" />
    <line stroke="#9999ff" stroke-width="1" stroke-dasharray="1,10" stroke-linecap="round" stroke-linejoin="round" x1="2287.5" y1="0.5" x2="2287.5" y2="1302.5" />
    <text x="647" y="1261" font-family="Times New Roman" font-size="13" fill="#000000">25</text>
    <text x="1192" y="1261" font-family="Times New Roman" font-size="13" fill="#000000">50</text>
    <text x="1737" y="1261" font-family="Times New Roman" font-size="13" fill="#000000">75</text>
    <text x="2278" y="1261" font-family="Times New Roman" font-size="13" fill="#000000">100</text>
    <text x="81" y="1191" font-family="Times New Roman" font-size="13" fill="#000000">0.05</text>
    <text x="87" y="1131" font-family="Times New Roman" font-size="13" fill="#000000">0.1</text>
    <text x="81" y="1072" font-family="Times New Roman" font-size="13" fill="#000000">0.15</text>
    <text x="87" y="1013" font-family="Times New Roman" font-size="13" fill="#000000">0.2</text>
    <text x="81" y="954" font-family="Times New Roman" font-size="13" fill="#000000">0.25</text>
    <text x="87" y="894" font-family="Times New Roman" font-size="13" fill="#000000">0.3</text>
    <text x="81" y="835" font-family="Times New Roman" font-size="13" fill="#000000">0.35</text>
    <text x="87" y="776" font-family="Times New Roman" font-size="13" fill="#000000">0.4</text>
    <text x="81" y="717" font-family="Times New Roman" font-size="13" fill="#000000">0.45</text>
    <text x="87" y="658" font-family="Times New Roman" font-size="13" fill="#000000">0.5</text>
    <text x="81" y="598" font-family="Times New Roman" font-size="13" fill="#000000">0.55</text>
    <text x="87" y="539" font-family="Times New Roman" font-size="13" fill="#000000">0.6</text>
    <text x="81" y="480" font-family="Times New Roman" font-size="13" fill="#000000">0.65</text>
    <text x="87" y="421" font-family="Times New Roman" font-size="13" fill="#000000">0.7</text>
    <text x="81" y="361" font-family="Times New Roman" font-size="13" fill="#000000">0.75</text>
    <text x="87" y="302" font-family="Times New Roman" font-size="13" fill="#000000">0.8</text>
    <text x="81" y="243" font-family="Times New Roman" font-size="13" fill="#000000">0.85</text>
    <text x="87" y="184" font-family="Times New Roman" font-size="13" fill="#000000">0.9</text>
    <text x="81" y="124" font-family="Times New Roman" font-size="13" fill="#000000">0.95</text>
    <text x="96" y="65" font-family="Times New Roman" font-size="13" fill="#000000">1</text>
    <text x="2385" y="1234" font-family="Times New Roman" font-size="16" font-weight="700" fill="#000000">x</text>
    <text x="121" y="13" font-family="Times New Roman" font-size="16" font-weight="700" fill="#000000">y</text>
    <line stroke="#0000ff" stroke-width="2" stroke-linecap="butt" stroke-linejoin="bevel" x1="0" y1="1244" x2="2391" y2="1244" />
    <polygon stroke="#0000ff" stroke-width="1" stroke-linecap="round" stroke-linejoin="round" fill="#0000ff" points="2390.5,1238.5 2395.5,1243.5 2395.5,1244.5 2390.5,1249.5 " />
    <line stroke="#0000ff" stroke-width="1" stroke-linecap="round" stroke-linejoin="round" x1="653.5" y1="1249.5" x2="653.5" y2="1238.5" />
    <line stroke="#0000ff" stroke-width="1" stroke-linecap="round" stroke-linejoin="round" x1="1198.5" y1="1249.5" x2="1198.5" y2="1238.5" />
    <line stroke="#0000ff" stroke-width="1" stroke-linecap="round" stroke-linejoin="round" x1="1743.5" y1="1249.5" x2="1743.5" y2="1238.5" />
    <line stroke="#0000ff" stroke-width="1" stroke-linecap="round" stroke-linejoin="round" x1="2287.5" y1="1249.5" x2="2287.5" y2="1238.5" />
    <line stroke="#0000ff" stroke-width="2" stroke-linecap="butt" stroke-linejoin="bevel" x1="109" y1="3" x2="109" y2="1302" />
    <polygon stroke="#0000ff" stroke-width="1" stroke-linecap="round" stroke-linejoin="round" fill="#0000ff" points="103.5,5.5 108.5,0.5 109.5,0.5 114.5,5.5 " />
    <line stroke="#0000ff" stroke-width="1" stroke-linecap="round" stroke-linejoin="round" x1="103.5" y1="1185.5" x2="114.5" y2="1185.5" />
    <line stroke="#0000ff" stroke-width="1" stroke-linecap="round" stroke-linejoin="round" x1="103.5" y1="1125.5" x2="114.5" y2="1125.5" />
    <line stroke="#0000ff" stroke-width="1" stroke-linecap="round" stroke-linejoin="round" x1="103.5" y1="1066.5" x2="114.5" y2="1066.5" />
    <line stroke="#0000ff" stroke-width="1" stroke-linecap="round" stroke-linejoin="round" x1="103.5" y1="1007.5" x2="114.5" y2="1007.5" />
    <line stroke="#0000ff" stroke-width="1" stroke-linecap="round" stroke-linejoin="round" x1="103.5" y1="948.5" x2="114.5" y2="948.5" />
    <line stroke="#0000ff" stroke-width="1" stroke-linecap="round" stroke-linejoin="round" x1="103.5" y1="888.5" x2="114.5" y2="888.5" />
    <line stroke="#0000ff" stroke-width="1" stroke-linecap="round" stroke-linejoin="round" x1="103.5" y1="829.5" x2="114.5" y2="829.5" />
    <line stroke="#0000ff" stroke-width="1" stroke-linecap="round" stroke-linejoin="round" x1="103.5" y1="770.5" x2="114.5" y2="770.5" />
    <line stroke="#0000ff" stroke-width="1" stroke-linecap="round" stroke-linejoin="round" x1="103.5" y1="711.5" x2="114.5" y2="711.5" />
    <line stroke="#0000ff" stroke-width="1" stroke-linecap="round" stroke-linejoin="round" x1="103.5" y1="651.5" x2="114.5" y2="651.5" />
    <line stroke="#0000ff" stroke-width="1" stroke-linecap="round" stroke-linejoin="round" x1="103.5" y1="592.5" x2="114.5" y2="592.5" />
    <line stroke="#0000ff" stroke-width="1" stroke-linecap="round" stroke-linejoin="round" x1="103.5" y1="533.5" x2="114.5" y2="533.5" />
    <line stroke="#0000ff" stroke-width="1" stroke-linecap="round" stroke-linejoin="round" x1="103.5" y1="474.5" x2="114.5" y2="474.5" />
    <line stroke="#0000ff" stroke-width="1" stroke-linecap="round" stroke-linejoin="round" x1="103.5" y1="415.5" x2="114.5" y2="415.5" />
    <line stroke="#0000ff" stroke-width="1" stroke-linecap="round" stroke-linejoin="round" x1="103.5" y1="355.5" x2="114.5" y2="355.5" />
    <line stroke="#0000ff" stroke-width="1" stroke-linecap="round" stroke-linejoin="round" x1="103.5" y1="296.5" x2="114.5" y2="296.5" />
    <line stroke="#0000ff" stroke-width="1" stroke-linecap="round" stroke-linejoin="round" x1="103.5" y1="237.5" x2="114.5" y2="237.5" />
    <line stroke="#0000ff" stroke-width="1" stroke-linecap="round" stroke-linejoin="round" x1="103.5" y1="178.5" x2="114.5" y2="178.5" />
    <line stroke="#0000ff" stroke-width="1" stroke-linecap="round" stroke-linejoin="round" x1="103.5" y1="118.5" x2="114.5" y2="118.5" />
    <line stroke="#0000ff" stroke-width="1" stroke-linecap="round" stroke-linejoin="round" x1="103.5" y1="59.5" x2="114.5" y2="59.5" />
    <polyline stroke="#000000" stroke-width="1" stroke-linecap="round" stroke-linejoin="round" fill="none" points="653,59 654,59 655,59 656,59 657,59 658,59 659,59 660,59 661,59 662,59 663,59 664,59 665,59 666,59 667,59 668,59 669,59 670,59 671,59 672,59 673,59 674,59 675,59 676,59 677,59 678,59 679,59 680,59 681,59 682,59 683,59 684,59 685,59 686,59 687,59 688,59 689,59 690,59 691,59 692,59 693,59 694,59 695,59 696,59 697,59 698,59 699,59 700,59 701,59 702,59 703,59 704,59 705,59 706,59 707,59 708,59 709,59 710,59 711,59 712,59 713,59 714,59 715,59 716,59 717,59 718,59 719,59 720,59 721,59 722,59 723,59 724,59 725,59 726,59 727,59 728,59 729,59 730,59 731,59 732,59 733,59 734,59 735,59 736,59 737,59 738,59 739,59 740,59 741,59 742,59 743,59 744,59 745,59 746,59 747,59 748,59 749,59 750,59 751,59 752,59 753,59 754,59 755,59 756,59 757,59 758,59 759,59 760,59 761,59 762,59 763,59 764,59 765,59 766,59 767,59 768,59 769,59 770,59 771,59 772,59 773,59 774,59 775,59 776,59 777,59 778,59 779,59 780,59 781,59 782,59 783,59 784,59 785,59 786,59 787,59 788,59 789,59 790,59 791,59 792,59 793,59 794,59 795,59 796,59 797,59 798,59 799,59 800,59 801,59 802,59 803,59 804,59 805,59 806,59 807,59 808,59 809,59 810,59 811,59 812,59 813,59 814,59 815,59 816,59 817,59 818,59 819,59 820,59 821,59 822,59 823,59 824,59 825,59 826,59 827,59 828,59 829,59 830,59 831,59 832,59 833,59 834,59 835,59 836,59 837,59 838,59 839,59 840,59 841,59 842,59 843,59 844,59 845,59 846,59 847,59 848,59 849,59 850,59 851,59 852,59 853,59 854,59 855,59 856,59 857,59 858,59 859,59 860,59 861,59 862,59 863,59 864,59 865,59 866,59 867,59 868,59 869,59 870,59 871,59 872,59 873,59 874,59 875,59 876,59 877,59 878,59 879,59 880,59 881,59 882,59 883,59 884,59 885,59 886,59 887,59 888,59 889,59 890,59 891,59 892,59 893,59 894,59 895,59 896,59 897,59 898,59 899,59 900,59 901,59 902,59 903,59 904,59 905,59 906,59 907,59 908,59 909,59 910,59 911,59 912,59 913,59 914,59 915,59 916,59 917,59 918,59 919,59 920,59 921,59 922,59 923,59 924,59 925,59 926,59 927,59 928,59 929,59 930,59 931,59 932,59 933,59 934,59 935,59 936,59 937,59 938,59 939,59 940,59 941,59 942,59 943,59 944,59 945,59 946,60 947,60 948,60 949,60 950,60 951,60 952,60 953,60 954,60 955,60 956,60 957,60 958,60 959,60 960,60 961,60 962,60 963,60 964,60 965,60 966,60 967,60 968,60 969,60 970,60 971,60 972,60 973,60 974,60 975,60 976,60 977,60 978,60 979,60 980,60 981,60 982,60 983,60 984,60 985,60 986,60 987,60 988,60 989,60 990,60 991,60 992,60 993,60 994,60 995,60 996,60 997,60 998,60 999,60 1000,60 1001,60 1002,60 1003,60 1004,60 1005,60 1006,60 1007,60 1008,60 1009,60 1010,60 1011,60 1012,60 1013,60 1014,60 1015,60 1016,60 1017,60 1018,60 1019,60 1020,60 1021,60 1022,60 1023,60 1024,60 1025,60 1026,60 1027,60 1028,60 1029,60 1030,60 1031,60 1032,60 1033,60 1034,60 1035,60 1036,60 1037,60 1038,60 1039,60 1040,60 1041,60 1042,60 1043,60 1044,60 1045,60 1046,60 1047,60 1048,60 1049,60 1050,60 1051,60 1052,60 1053,60 1054,60 1055,60 1056,60 1057,60 1058,60 1059,60 1060,60 1061,60 1062,60 1063,60 1064,60 1065,60 1066,60 1067,60 1068,60 1069,60 1070,60 1071,60 1072,60 1073,60 1074,60 1075,60 1076,60 1077,60 1078,60 1079,60 1080,60 1081,60 1082,60 1083,60 1084,60 1085,60 1086,60 1087,60 1088,60 1089,60 1090,60 1091,60 1092,60 1093,60 1094,60 1095,60 1096,60 1097,60 1098,60 1099,60 1100,60 1101,60 1102,60 1103,60 1104,60 1105,60 1106,60 1107,60 1108,60 1109,60 1110,60 1111,60 1112,60 1113,60 1114,60 1115,60 1116,60 1117,60 1118,60 1119,60 1120,60 1121,60 1122,60 1123,60 1124,60 1125,60 1126,60 1127,60 1128,60 1129,60 1130,60 1131,60 1132,60 1133,60 1134,60 1135,60 1136,60 1137,60 1138,61 1139,61 1140,61 1141,61 1142,61 1143,61 1144,61 1145,61 1146,61 1147,61 1148,61 1149,61 1150,61 1151,61 1152,61 1153,61 1154,61 1155,61 1156,61 1157,61 1158,61 1159,61 1160,61 1161,61 1162,61 1163,61 1164,61 1165,61 1166,61 1167,61 1168,61 1169,61 1170,61 1171,61 1172,61 1173,61 1174,61 1175,61 1176,61 1177,61 1178,61 1179,61 1180,61 1181,61 1182,61 1183,61 1184,61 1185,61 1186,61 1187,61 1188,61 1189,61 1190,61 1191,61 1192,61 1193,61 1194,61 1195,61 1196,61 1197,61 1198,61 1199,61 1200,61 1201,61 1202,61 1203,61 1204,61 1205,61 1206,61 1207,61 1208,61 1209,61 1210,61 1211,61 1212,61 1213,61 1214,61 1215,61 1216,61 1217,61 1218,61 1219,61 1220,61 1221,61 1222,61 1223,61 1224,61 1225,61 1226,61 1227,61 1228,61 1229,61 1230,61 1231,61 1232,61 1233,61 1234,61 1235,61 1236,61 1237,61 1238,61 1239,61 1240,61 1241,61 1242,61 1243,61 1244,61 1245,61 1246,61 1247,61 1248,61 1249,62 1250,62 1251,62 1252,62 1253,62 1254,62 1255,62 1256,62 1257,62 1258,62 1259,62 1260,62 1261,62 1262,62 1263,62 1264,62 1265,62 1266,62 1267,62 1268,62 1269,62 1270,62 1271,62 1272,62 1273,62 1274,62 1275,62 1276,62 1277,62 1278,62 1279,62 1280,62 1281,62 1282,62 1283,62 1284,62 1285,62 1286,62 1287,62 1288,62 1289,62 1290,62 1291,62 1292,62 1293,62 1294,62 1295,62 1296,62 1297,62 1298,62 1299,62 1300,62 1301,62 1302,62 1303,62 1304,62 1305,62 1306,62 1307,62 1308,62 1309,62 1310,62 1311,62 1312,62 1313,62 1314,62 1315,62 1316,62 1317,62 1318,62 1319,62 1320,62 1321,62 1322,62 1323,62 1324,62 1325,62 1326,62 1327,62 1328,62 1329,62 1330,62 1331,62 1332,62 1333,63 1334,63 1335,63 1336,63 1337,63 1338,63 1339,63 1340,63 1341,63 1342,63 1343,63 1344,63 1345,63 1346,63 1347,63 1348,63 1349,63 1350,63 1351,63 1352,63 1353,63 1354,63 1355,63 1356,63 1357,63 1358,63 1359,63 1360,63 1361,63 1362,63 1363,63 1364,63 1365,63 1366,63 1367,63 1368,63 1369,63 1370,63 1371,63 1372,63 1373,63 1374,63 1375,63 1376,63 1377,63 1378,63 1379,63 1380,63 1381,63 1382,63 1383,63 1384,63 1385,63 1386,63 1387,63 1388,63 1389,63 1390,63 1391,63 1392,63 1393,63 1394,63 1395,63 1396,63 1397,63 1398,63 1399,63 1400,63 1401,63 1402,63 1403,63 1404,63 1405,64 1406,64 1407,64 1408,64 1409,64 1410,64 1411,64 1412,64 1413,64 1414,64 1415,64 1416,64 1417,64 1418,64 1419,64 1420,64 1421,64 1422,64 1423,64 1424,64 1425,64 1426,64 1427,64 1428,64 1429,64 1430,64 1431,64 1432,64 1433,64 1434,64 1435,64 1436,64 1437,64 1438,64 1439,64 1440,64 1441,64 1442,64 1443,64 1444,64 1445,64 1446,64 1447,64 1448,64 1449,64 1450,64 1451,64 1452,64 1453,64 1454,64 1455,64 1456,64 1457,64 1458,64 1459,64 1460,64 1461,64 1462,64 1463,64 1464,64 1465,64 1466,64 1467,64 1468,64 1469,65 1470,65 1471,65 1472,65 1473,65 1474,65 1475,65 1476,65 1477,65 1478,65 1479,65 1480,65 1481,65 1482,65 1483,65 1484,65 1485,65 1486,65 1487,65 1488,65 1489,65 1490,65 1491,65 1492,65 1493,65 1494,65 1495,65 1496,65 1497,65 1498,65 1499,65 1500,65 1501,65 1502,65 1503,65 1504,65 1505,65 1506,65 1507,65 1508,65 1509,65 1510,65 1511,65 1512,65 1513,65 1514,65 1515,65 1516,65 1517,65 1518,65 1519,65 1520,65 1521,65 1522,65 1523,65 1524,65 1525,65 1526,65 1527,65 1528,66 1529,66 1530,66 1531,66 1532,66 1533,66 1534,66 1535,66 1536,66 1537,66 1538,66 1539,66 1540,66 1541,66 1542,66 1543,66 1544,66 1545,66 1546,66 1547,66 1548,66 1549,66 1550,66 1551,66 1552,66 1553,66 1554,66 1555,66 1556,66 1557,66 1558,66 1559,66 1560,66 1561,66 1562,66 1563,66 1564,66 1565,66 1566,66 1567,66 1568,66 1569,66 1570,66 1571,66 1572,66 1573,66 1574,66 1575,66 1576,66 1577,66 1578,66 1579,66 1580,66 1581,66 1582,67 1583,67 1584,67 1585,67 1586,67 1587,67 1588,67 1589,67 1590,67 1591,67 1592,67 1593,67 1594,67 1595,67 1596,67 1597,67 1598,67 1599,67 1600,67 1601,67 1602,67 1603,67 1604,67 1605,67 1606,67 1607,67 1608,67 1609,67 1610,67 1611,67 1612,67 1613,67 1614,67 1615,67 1616,67 1617,67 1618,67 1619,67 1620,67 1621,67 1622,67 1623,67 1624,67 1625,67 1626,67 1627,67 1628,67 1629,67 1630,67 1631,67 1632,67 1633,67 1634,68 1635,68 1636,68 1637,68 1638,68 1639,68 1640,68 1641,68 1642,68 1643,68 1644,68 1645,68 1646,68 1647,68 1648,68 1649,68 1650,68 1651,68 1652,68 1653,68 1654,68 1655,68 1656,68 1657,68 1658,68 1659,68 1660,68 1661,68 1662,68 1663,68 1664,68 1665,68 1666,68 1667,68 1668,68 1669,68 1670,68 1671,68 1672,68 1673,68 1674,68 1675,68 1676,68 1677,68 1678,68 1679,68 1680,68 1681,68 1682,68 1683,68 1684,69 1685,69 1686,69 1687,69 1688,69 1689,69 1690,69 1691,69 1692,69 1693,69 1694,69 1695,69 1696,69 1697,69 1698,69 1699,69 1700,69 1701,69 1702,69 1703,69 1704,69 1705,69 1706,69 1707,69 1708,69 1709,69 1710,69 1711,69 1712,69 1713,69 1714,69 1715,69 1716,69 1717,69 1718,69 1719,69 1720,69 1721,69 1722,69 1723,69 1724,69 1725,69 1726,69 1727,69 1728,69 1729,69 1730,69 1731,70 1732,70 1733,70 1734,70 1735,70 1736,70 1737,70 1738,70 1739,70 1740,70 1741,70 1742,70 1743,70 1744,70 1745,70 1746,70 1747,70 1748,70 1749,70 1750,70 1751,70 1752,70 1753,70 1754,70 1755,70 1756,70 1757,70 1758,70 1759,70 1760,70 1761,70 1762,70 1763,70 1764,70 1765,70 1766,70 1767,70 1768,70 1769,70 1770,70 1771,70 1772,70 1773,70 1774,70 1775,70 1776,70 1777,71 1778,71 1779,71 1780,71 1781,71 1782,71 1783,71 1784,71 1785,71 1786,71 1787,71 1788,71 1789,71 1790,71 1791,71 1792,71 1793,71 1794,71 1795,71 1796,71 1797,71 1798,71 1799,71 1800,71 1801,71 1802,71 1803,71 1804,71 1805,71 1806,71 1807,71 1808,71 1809,71 1810,71 1811,71 1812,71 1813,71 1814,71 1815,71 1816,71 1817,71 1818,71 1819,71 1820,71 1821,71 1822,72 1823,72 1824,72 1825,72 1826,72 1827,72 1828,72 1829,72 1830,72 1831,72 1832,72 1833,72 1834,72 1835,72 1836,72 1837,72 1838,72 1839,72 1840,72 1841,72 1842,72 1843,72 1844,72 1845,72 1846,72 1847,72 1848,72 1849,72 1850,72 1851,72 1852,72 1853,72 1854,72 1855,72 1856,72 1857,72 1858,72 1859,72 1860,72 1861,72 1862,72 1863,72 1864,72 1865,72 1866,73 1867,73 1868,73 1869,73 1870,73 1871,73 1872,73 1873,73 1874,73 1875,73 1876,73 1877,73 1878,73 1879,73 1880,73 1881,73 1882,73 1883,73 1884,73 1885,73 1886,73 1887,73 1888,73 1889,73 1890,73 1891,73 1892,73 1893,73 1894,73 1895,73 1896,73 1897,73 1898,73 1899,73 1900,73 1901,73 1902,73 1903,73 1904,73 1905,73 1906,73 1907,73 1908,74 1909,74 1910,74 1911,74 1912,74 1913,74 1914,74 1915,74 1916,74 1917,74 1918,74 1919,74 1920,74 1921,74 1922,74 1923,74 1924,74 1925,74 1926,74 1927,74 1928,74 1929,74 1930,74 1931,74 1932,74 1933,74 1934,74 1935,74 1936,74 1937,74 1938,74 1939,74 1940,74 1941,74 1942,74 1943,74 1944,74 1945,74 1946,74 1947,74 1948,74 1949,74 1950,75 1951,75 1952,75 1953,75 1954,75 1955,75 1956,75 1957,75 1958,75 1959,75 1960,75 1961,75 1962,75 1963,75 1964,75 1965,75 1966,75 1967,75 1968,75 1969,75 1970,75 1971,75 1972,75 1973,75 1974,75 1975,75 1976,75 1977,75 1978,75 1979,75 1980,75 1981,75 1982,75 1983,75 1984,75 1985,75 1986,75 1987,75 1988,75 1989,75 1990,75 1991,76 1992,76 1993,76 1994,76 1995,76 1996,76 1997,76 1998,76 1999,76 2000,76 2001,76 2002,76 2003,76 2004,76 2005,76 2006,76 2007,76 2008,76 2009,76 2010,76 2011,76 2012,76 2013,76 2014,76 2015,76 2016,76 2017,76 2018,76 2019,76 2020,76 2021,76 2022,76 2023,76 2024,76 2025,76 2026,76 2027,76 2028,76 2029,76 2030,76 2031,76 2032,77 2033,77 2034,77 2035,77 2036,77 2037,77 2038,77 2039,77 2040,77 2041,77 2042,77 2043,77 2044,77 2045,77 2046,77 2047,77 2048,77 2049,77 2050,77 2051,77 2052,77 2053,77 2054,77 2055,77 2056,77 2057,77 2058,77 2059,77 2060,77 2061,77 2062,77 2063,77 2064,77 2065,77 2066,77 2067,77 2068,77 2069,77 2070,77 2071,77 2072,78 2073,78 2074,78 2075,78 2076,78 2077,78 2078,78 2079,78 2080,78 2081,78 2082,78 2083,78 2084,78 2085,78 2086,78 2087,78 2088,78 2089,78 2090,78 2091,78 2092,78 2093,78 2094,78 2095,78 2096,78 2097,78 2098,78 2099,78 2100,78 2101,78 2102,78 2103,78 2104,78 2105,78 2106,78 2107,78 2108,78 2109,78 2110,78 2111,79 2112,79 2113,79 2114,79 2115,79 2116,79 2117,79 2118,79 2119,79 2120,79 2121,79 2122,79 2123,79 2124,79 2125,79 2126,79 2127,79 2128,79 2129,79 2130,79 2131,79 2132,79 2133,79 2134,79 2135,79 2136,79 2137,79 2138,79 2139,79 2140,79 2141,79 2142,79 2143,79 2144,79 2145,79 2146,79 2147,79 2148,79 2149,79 2150,79 2151,80 2152,80 2153,80 2154,80 2155,80 2156,80 2157,80 2158,80 2159,80 2160,80 2161,80 2162,80 2163,80 2164,80 2165,80 2166,80 2167,80 2168,80 2169,80 2170,80 2171,80 2172,80 2173,80 2174,80 2175,80 2176,80 2177,80 2178,80 2179,80 2180,80 2181,80 2182,80 2183,80 2184,80 2185,80 2186,80 2187,80 2188,80 2189,80 2190,81 2191,81 2192,81 2193,81 2194,81 2195,81 2196,81 2197,81 2198,81 2199,81 2200,81 2201,81 2202,81 2203,81 2204,81 2205,81 2206,81 2207,81 2208,81 2209,81 2210,81 2211,81 2212,81 2213,81 2214,81 2215,81 2216,81 2217,81 2218,81 2219,81 2220,81 2221,81 2222,81 2223,81 2224,81 2225,81 2226,81 2227,81 2228,81 2229,82 2230,82 2231,82 2232,82 2233,82 2234,82 2235,82 2236,82 2237,82 2238,82 2239,82 2240,82 2241,82 2242,82 2243,82 2244,82 2245,82 2246,82 2247,82 2248,82 2249,82 2250,82 2251,82 2252,82 2253,82 2254,82 2255,82 2256,82 2257,82 2258,82 2259,82 2260,82 2261,82 2262,82 2263,82 2264,82 2265,82 2266,82 2267,82 2268,83 2269,83 2270,83 2271,83 2272,83 2273,83 2274,83 2275,83 2276,83 2277,83 2278,83 2279,83 2280,83 2281,83 2282,83 2283,83 2284,83 2285,83 2286,83 2287,83 " />
    <text x="659" y="54" font-family="Tahoma" font-size="11" fill="#000000">(25,0.999998)</text>
    <text x="1204" y="56" font-family="Tahoma" font-size="11" fill="#000000">(50,0.99862)</text>
    <text x="2293" y="78" font-family="Tahoma" font-size="11" fill="#000000">(100,0.9796)</text>
    <circle stroke="#000000" stroke-width="1" stroke-linecap="round" stroke-linejoin="round" fill="#000000" cx="653" cy="59" r="3" />
    <circle stroke="#000000" stroke-width="1" stroke-linecap="round" stroke-linejoin="round" fill="#000000" cx="1198" cy="61" r="3" />
    <circle stroke="#000000" stroke-width="1" stroke-linecap="round" stroke-linejoin="round" fill="#000000" cx="2287" cy="83" r="3" />
  </g>
</svg>
