<?xml version="1.0" encoding="UTF-8"?>
<!DOCTYPE svg PUBLIC "-//W3C//DTD SVG 1.1//EN" "http://www.w3.org/Graphics/SVG/1.1/DTD/svg11.dtd">
<svg width="2325px" height="1303px" viewBox="0 0 2325 1303" version="1.1" xmlns="http://www.w3.org/2000/svg" xmlns:xlink="http://www.w3.org/1999/xlink">
  <g>
    <line stroke="#9999ff" stroke-width="1" stroke-dasharray="1,10" stroke-linecap="round" stroke-linejoin="round" x1="710.5" y1="0.5" x2="710.5" y2="1302.5" />
    <line stroke="#9999ff" stroke-width="1" stroke-dasharray="1,10" stroke-linecap="round" stroke-linejoin="round" x1="1356.5" y1="0.5" x2="1356.5" y2="1302.5" />
    <line stroke="#9999ff" stroke-width="1" stroke-dasharray="1,10" stroke-linecap="round" stroke-linejoin="round" x1="2002.5" y1="0.5" x2="2002.5" y2="1302.5" />
    <line stroke="#9999ff" stroke-width="1" stroke-dasharray="1,10" stroke-linecap="round" stroke-linejoin="round" x1="0.5" y1="1162.5" x2="2324.5" y2="1162.5" />
    <line stroke="#9999ff" stroke-width="1" stroke-dasharray="1,10" stroke-linecap="round" stroke-linejoin="round" x1="0.5" y1="1092.5" x2="2324.5" y2="1092.5" />
    <line stroke="#9999ff" stroke-width="1" stroke-dasharray="1,10" stroke-linecap="round" stroke-linejoin="round" x1="0.5" y1="1021.5" x2="2324.5" y2="1021.5" />
    <line stroke="#9999ff" stroke-width="1" stroke-dasharray="1,10" stroke-linecap="round" stroke-linejoin="round" x1="0.5" y1="951.5" x2="2324.5" y2="951.5" />
    <line stroke="#9999ff" stroke-width="1" stroke-dasharray="1,10" stroke-linecap="round" stroke-linejoin="round" x1="0.5" y1="880.5" x2="2324.5" y2="880.5" />
    <line stroke="#9999ff" stroke-width="1" stroke-dasharray="1,10" stroke-linecap="round" stroke-linejoin="round" x1="0.5" y1="810.5" x2="2324.5" y2="810.5" />
    <line stroke="#9999ff" stroke-width="1" stroke-dasharray="1,10" stroke-linecap="round" stroke-linejoin="round" x1="0.5" y1="740.5" x2="2324.5" y2="740.5" />
    <line stroke="#9999ff" stroke-width="1" stroke-dasharray="1,10" stroke-linecap="round" stroke-linejoin="round" x1="0.5" y1="669.5" x2="2324.5" y2="669.5" />
    <line stroke="#9999ff" stroke-width="1" stroke-dasharray="1,10" stroke-linecap="round" stroke-linejoin="round" x1="0.5" y1="599.5" x2="2324.5" y2="599.5" />
    <line stroke="#9999ff" stroke-width="1" stroke-dasharray="1,10" stroke-linecap="round" stroke-linejoin="round" x1="0.5" y1="528.5" x2="2324.5" y2="528.5" />
    <line stroke="#9999ff" stroke-width="1" stroke-dasharray="1,10" stroke-linecap="round" stroke-linejoin="round" x1="0.5" y1="458.5" x2="2324.5" y2="458.5" />
    <line stroke="#9999ff" stroke-width="1" stroke-dasharray="1,10" stroke-linecap="round" stroke-linejoin="round" x1="0.5" y1="387.5" x2="2324.5" y2="387.5" />
    <line stroke="#9999ff" stroke-width="1" stroke-dasharray="1,10" stroke-linecap="round" stroke-linejoin="round" x1="0.5" y1="317.5" x2="2324.5" y2="317.5" />
    <line stroke="#9999ff" stroke-width="1" stroke-dasharray="1,10" stroke-linecap="round" stroke-linejoin="round" x1="0.5" y1="247.5" x2="2324.5" y2="247.5" />
    <line stroke="#9999ff" stroke-width="1" stroke-dasharray="1,10" stroke-linecap="round" stroke-linejoin="round" x1="0.5" y1="176.5" x2="2324.5" y2="176.5" />
    <line stroke="#9999ff" stroke-width="1" stroke-dasharray="1,10" stroke-linecap="round" stroke-linejoin="round" x1="0.5" y1="106.5" x2="2324.5" y2="106.5" />
    <line stroke="#9999ff" stroke-width="1" stroke-dasharray="1,10" stroke-linecap="round" stroke-linejoin="round" x1="0.5" y1="35.5" x2="2324.5" y2="35.5" />
    <text x="705" y="1255" font-family="Times New Roman" font-size="21" fill="#000000">1</text>
    <text x="1351" y="1255" font-family="Times New Roman" font-size="21" fill="#000000">2</text>
    <text x="1997" y="1255" font-family="Times New Roman" font-size="21" fill="#000000">3</text>
    <text x="20" y="1169" font-family="Times New Roman" font-size="21" fill="#000000">0.02</text>
    <text x="20" y="1099" font-family="Times New Roman" font-size="21" fill="#000000">0.04</text>
    <text x="20" y="1028" font-family="Times New Roman" font-size="21" fill="#000000">0.06</text>
    <text x="20" y="958" font-family="Times New Roman" font-size="21" fill="#000000">0.08</text>
    <text x="31" y="887" font-family="Times New Roman" font-size="21" fill="#000000">0.1</text>
    <text x="20" y="817" font-family="Times New Roman" font-size="21" fill="#000000">0.12</text>
    <text x="20" y="747" font-family="Times New Roman" font-size="21" fill="#000000">0.14</text>
    <text x="20" y="676" font-family="Times New Roman" font-size="21" fill="#000000">0.16</text>
    <text x="20" y="606" font-family="Times New Roman" font-size="21" fill="#000000">0.18</text>
    <text x="31" y="535" font-family="Times New Roman" font-size="21" fill="#000000">0.2</text>
    <text x="20" y="465" font-family="Times New Roman" font-size="21" fill="#000000">0.22</text>
    <text x="20" y="394" font-family="Times New Roman" font-size="21" fill="#000000">0.24</text>
    <text x="20" y="324" font-family="Times New Roman" font-size="21" fill="#000000">0.26</text>
    <text x="20" y="254" font-family="Times New Roman" font-size="21" fill="#000000">0.28</text>
    <text x="31" y="183" font-family="Times New Roman" font-size="21" fill="#000000">0.3</text>
    <text x="20" y="113" font-family="Times New Roman" font-size="21" fill="#000000">0.32</text>
    <text x="20" y="42" font-family="Times New Roman" font-size="21" fill="#000000">0.34</text>
    <text x="2312" y="1221" font-family="Times New Roman" font-size="21" font-weight="700" fill="#000000">x</text>
    <text x="77" y="15" font-family="Times New Roman" font-size="21" font-weight="700" fill="#000000">y</text>
    <line stroke="#0000ff" stroke-width="2" stroke-linecap="butt" stroke-linejoin="bevel" x1="0" y1="1233" x2="2320" y2="1233" />
    <polygon stroke="#0000ff" stroke-width="1" stroke-linecap="round" stroke-linejoin="round" fill="#0000ff" points="2318.5,1226.5 2324.5,1232.5 2324.5,1233.5 2318.5,1239.5 " />
    <line stroke="#0000ff" stroke-width="1" stroke-linecap="round" stroke-linejoin="round" x1="710.5" y1="1238.5" x2="710.5" y2="1227.5" />
    <line stroke="#0000ff" stroke-width="1" stroke-linecap="round" stroke-linejoin="round" x1="1356.5" y1="1238.5" x2="1356.5" y2="1227.5" />
    <line stroke="#0000ff" stroke-width="1" stroke-linecap="round" stroke-linejoin="round" x1="2002.5" y1="1238.5" x2="2002.5" y2="1227.5" />
    <line stroke="#0000ff" stroke-width="2" stroke-linecap="butt" stroke-linejoin="bevel" x1="65" y1="3" x2="65" y2="1302" />
    <polygon stroke="#0000ff" stroke-width="1" stroke-linecap="round" stroke-linejoin="round" fill="#0000ff" points="58.5,6.5 64.5,0.5 65.5,0.5 71.5,6.5 " />
    <line stroke="#0000ff" stroke-width="1" stroke-linecap="round" stroke-linejoin="round" x1="59.5" y1="1162.5" x2="70.5" y2="1162.5" />
    <line stroke="#0000ff" stroke-width="1" stroke-linecap="round" stroke-linejoin="round" x1="59.5" y1="1092.5" x2="70.5" y2="1092.5" />
    <line stroke="#0000ff" stroke-width="1" stroke-linecap="round" stroke-linejoin="round" x1="59.5" y1="1021.5" x2="70.5" y2="1021.5" />
    <line stroke="#0000ff" stroke-width="1" stroke-linecap="round" stroke-linejoin="round" x1="59.5" y1="951.5" x2="70.5" y2="951.5" />
    <line stroke="#0000ff" stroke-width="1" stroke-linecap="round" stroke-linejoin="round" x1="59.5" y1="880.5" x2="70.5" y2="880.5" />
    <line stroke="#0000ff" stroke-width="1" stroke-linecap="round" stroke-linejoin="round" x1="59.5" y1="810.5" x2="70.5" y2="810.5" />
    <line stroke="#0000ff" stroke-width="1" stroke-linecap="round" stroke-linejoin="round" x1="59.5" y1="740.5" x2="70.5" y2="740.5" />
    <line stroke="#0000ff" stroke-width="1" stroke-linecap="round" stroke-linejoin="round" x1="59.5" y1="669.5" x2="70.5" y2="669.5" />
    <line stroke="#0000ff" stroke-width="1" stroke-linecap="round" stroke-linejoin="round" x1="59.5" y1="599.5" x2="70.5" y2="599.5" />
    <line stroke="#0000ff" stroke-width="1" stroke-linecap="round" stroke-linejoin="round" x1="59.5" y1="528.5" x2="70.5" y2="528.5" />
    <line stroke="#0000ff" stroke-width="1" stroke-linecap="round" stroke-linejoin="round" x1="59.5" y1="458.5" x2="70.5" y2="458.5" />
    <line stroke="#0000ff" stroke-width="1" stroke-linecap="round" stroke-linejoin="round" x1="59.5" y1="387.5" x2="70.5" y2="387.5" />
    <line stroke="#0000ff" stroke-width="1" stroke-linecap="round" stroke-linejoin="round" x1="59.5" y1="317.5" x2="70.5" y2="317.5" />
    <line stroke="#0000ff" stroke-width="1" stroke-linecap="round" stroke-linejoin="round" x1="59.5" y1="247.5" x2="70.5" y2="247.5" />
    <line stroke="#0000ff" stroke-width="1" stroke-linecap="round" stroke-linejoin="round" x1="59.5" y1="176.5" x2="70.5" y2="176.5" />
    <line stroke="#0000ff" stroke-width="1" stroke-linecap="round" stroke-linejoin="round" x1="59.5" y1="106.5" x2="70.5" y2="106.5" />
    <line stroke="#0000ff" stroke-width="1" stroke-linecap="round" stroke-linejoin="round" x1="59.5" y1="35.5" x2="70.5" y2="35.5" />
    <polyline stroke="#000000" stroke-width="2" stroke-linecap="butt" stroke-linejoin="bevel" fill="none" points="710,132 1356,745 2002,916 " />
    <text x="622" y="125" font-family="Tahoma" font-size="16" fill="#000000">(1,0.31250)</text>
    <text x="1268" y="738" font-family="Tahoma" font-size="16" fill="#000000">(2,0.13843)</text>
    <text x="1914" y="909" font-family="Tahoma" font-size="16" fill="#000000">(3,0.08978)</text>
    <circle stroke="#000000" stroke-width="1" stroke-linecap="round" stroke-linejoin="round" fill="#000000" cx="710" cy="132" r="3" />
    <circle stroke="#000000" stroke-width="1" stroke-linecap="round" stroke-linejoin="round" fill="#000000" cx="1356" cy="745" r="3" />
    <circle stroke="#000000" stroke-width="1" stroke-linecap="round" stroke-linejoin="round" fill="#000000" cx="2002" cy="916" r="3" />
  </g>
</svg>
