<?xml version="1.0" encoding="UTF-8"?>
<!DOCTYPE svg PUBLIC "-//W3C//DTD SVG 1.1//EN" "http://www.w3.org/Graphics/SVG/1.1/DTD/svg11.dtd">
<svg width="2325px" height="1303px" viewBox="0 0 2325 1303" version="1.1" xmlns="http://www.w3.org/2000/svg" xmlns:xlink="http://www.w3.org/1999/xlink">
  <g>
    <line stroke="#9999ff" stroke-width="1" stroke-dasharray="1,10" stroke-linecap="round" stroke-linejoin="round" x1="710.5" y1="0.5" x2="710.5" y2="1302.5" />
    <line stroke="#9999ff" stroke-width="1" stroke-dasharray="1,10" stroke-linecap="round" stroke-linejoin="round" x1="1356.5" y1="0.5" x2="1356.5" y2="1302.5" />
    <line stroke="#9999ff" stroke-width="1" stroke-dasharray="1,10" stroke-linecap="round" stroke-linejoin="round" x1="2002.5" y1="0.5" x2="2002.5" y2="1302.5" />
    <line stroke="#9999ff" stroke-width="1" stroke-dasharray="1,10" stroke-linecap="round" stroke-linejoin="round" x1="0.5" y1="1226.5" x2="2324.5" y2="1226.5" />
    <line stroke="#9999ff" stroke-width="1" stroke-dasharray="1,10" stroke-linecap="round" stroke-linejoin="round" x1="0.5" y1="1073.5" x2="2324.5" y2="1073.5" />
    <line stroke="#9999ff" stroke-width="1" stroke-dasharray="1,10" stroke-linecap="round" stroke-linejoin="round" x1="0.5" y1="996.5" x2="2324.5" y2="996.5" />
    <line stroke="#9999ff" stroke-width="1" stroke-dasharray="1,10" stroke-linecap="round" stroke-linejoin="round" x1="0.5" y1="920.5" x2="2324.5" y2="920.5" />
    <line stroke="#9999ff" stroke-width="1" stroke-dasharray="1,10" stroke-linecap="round" stroke-linejoin="round" x1="0.5" y1="843.5" x2="2324.5" y2="843.5" />
    <line stroke="#9999ff" stroke-width="1" stroke-dasharray="1,10" stroke-linecap="round" stroke-linejoin="round" x1="0.5" y1="766.5" x2="2324.5" y2="766.5" />
    <line stroke="#9999ff" stroke-width="1" stroke-dasharray="1,10" stroke-linecap="round" stroke-linejoin="round" x1="0.5" y1="690.5" x2="2324.5" y2="690.5" />
    <line stroke="#9999ff" stroke-width="1" stroke-dasharray="1,10" stroke-linecap="round" stroke-linejoin="round" x1="0.5" y1="613.5" x2="2324.5" y2="613.5" />
    <line stroke="#9999ff" stroke-width="1" stroke-dasharray="1,10" stroke-linecap="round" stroke-linejoin="round" x1="0.5" y1="537.5" x2="2324.5" y2="537.5" />
    <line stroke="#9999ff" stroke-width="1" stroke-dasharray="1,10" stroke-linecap="round" stroke-linejoin="round" x1="0.5" y1="460.5" x2="2324.5" y2="460.5" />
    <line stroke="#9999ff" stroke-width="1" stroke-dasharray="1,10" stroke-linecap="round" stroke-linejoin="round" x1="0.5" y1="383.5" x2="2324.5" y2="383.5" />
    <line stroke="#9999ff" stroke-width="1" stroke-dasharray="1,10" stroke-linecap="round" stroke-linejoin="round" x1="0.5" y1="307.5" x2="2324.5" y2="307.5" />
    <line stroke="#9999ff" stroke-width="1" stroke-dasharray="1,10" stroke-linecap="round" stroke-linejoin="round" x1="0.5" y1="230.5" x2="2324.5" y2="230.5" />
    <line stroke="#9999ff" stroke-width="1" stroke-dasharray="1,10" stroke-linecap="round" stroke-linejoin="round" x1="0.5" y1="153.5" x2="2324.5" y2="153.5" />
    <line stroke="#9999ff" stroke-width="1" stroke-dasharray="1,10" stroke-linecap="round" stroke-linejoin="round" x1="0.5" y1="77.5" x2="2324.5" y2="77.5" />
    <text x="705" y="1172" font-family="Times New Roman" font-size="21" fill="#000000">1</text>
    <text x="1351" y="1172" font-family="Times New Roman" font-size="21" fill="#000000">2</text>
    <text x="1997" y="1172" font-family="Times New Roman" font-size="21" fill="#000000">3</text>
    <text x="13" y="1233" font-family="Times New Roman" font-size="21" fill="#000000">-0.01</text>
    <text x="20" y="1080" font-family="Times New Roman" font-size="21" fill="#000000">0.01</text>
    <text x="20" y="1003" font-family="Times New Roman" font-size="21" fill="#000000">0.02</text>
    <text x="20" y="927" font-family="Times New Roman" font-size="21" fill="#000000">0.03</text>
    <text x="20" y="850" font-family="Times New Roman" font-size="21" fill="#000000">0.04</text>
    <text x="20" y="773" font-family="Times New Roman" font-size="21" fill="#000000">0.05</text>
    <text x="20" y="697" font-family="Times New Roman" font-size="21" fill="#000000">0.06</text>
    <text x="20" y="620" font-family="Times New Roman" font-size="21" fill="#000000">0.07</text>
    <text x="20" y="544" font-family="Times New Roman" font-size="21" fill="#000000">0.08</text>
    <text x="20" y="467" font-family="Times New Roman" font-size="21" fill="#000000">0.09</text>
    <text x="31" y="390" font-family="Times New Roman" font-size="21" fill="#000000">0.1</text>
    <text x="20" y="314" font-family="Times New Roman" font-size="21" fill="#000000">0.11</text>
    <text x="20" y="237" font-family="Times New Roman" font-size="21" fill="#000000">0.12</text>
    <text x="20" y="160" font-family="Times New Roman" font-size="21" fill="#000000">0.13</text>
    <text x="20" y="84" font-family="Times New Roman" font-size="21" fill="#000000">0.14</text>
    <text x="2312" y="1138" font-family="Times New Roman" font-size="21" font-weight="700" fill="#000000">x</text>
    <text x="77" y="15" font-family="Times New Roman" font-size="21" font-weight="700" fill="#000000">y</text>
    <line stroke="#0000ff" stroke-width="2" stroke-linecap="butt" stroke-linejoin="bevel" x1="0" y1="1150" x2="2320" y2="1150" />
    <polygon stroke="#0000ff" stroke-width="1" stroke-linecap="round" stroke-linejoin="round" fill="#0000ff" points="2318.5,1143.5 2324.5,1149.5 2324.5,1150.5 2318.5,1156.5 " />
    <line stroke="#0000ff" stroke-width="1" stroke-linecap="round" stroke-linejoin="round" x1="710.5" y1="1155.5" x2="710.5" y2="1144.5" />
    <line stroke="#0000ff" stroke-width="1" stroke-linecap="round" stroke-linejoin="round" x1="1356.5" y1="1155.5" x2="1356.5" y2="1144.5" />
    <line stroke="#0000ff" stroke-width="1" stroke-linecap="round" stroke-linejoin="round" x1="2002.5" y1="1155.5" x2="2002.5" y2="1144.5" />
    <line stroke="#0000ff" stroke-width="2" stroke-linecap="butt" stroke-linejoin="bevel" x1="65" y1="3" x2="65" y2="1302" />
    <polygon stroke="#0000ff" stroke-width="1" stroke-linecap="round" stroke-linejoin="round" fill="#0000ff" points="58.5,6.5 64.5,0.5 65.5,0.5 71.5,6.5 " />
    <line stroke="#0000ff" stroke-width="1" stroke-linecap="round" stroke-linejoin="round" x1="59.5" y1="1226.5" x2="70.5" y2="1226.5" />
    <line stroke="#0000ff" stroke-width="1" stroke-linecap="round" stroke-linejoin="round" x1="59.5" y1="1073.5" x2="70.5" y2="1073.5" />
    <line stroke="#0000ff" stroke-width="1" stroke-linecap="round" stroke-linejoin="round" x1="59.5" y1="996.5" x2="70.5" y2="996.5" />
    <line stroke="#0000ff" stroke-width="1" stroke-linecap="round" stroke-linejoin="round" x1="59.5" y1="920.5" x2="70.5" y2="920.5" />
    <line stroke="#0000ff" stroke-width="1" stroke-linecap="round" stroke-linejoin="round" x1="59.5" y1="843.5" x2="70.5" y2="843.5" />
    <line stroke="#0000ff" stroke-width="1" stroke-linecap="round" stroke-linejoin="round" x1="59.5" y1="766.5" x2="70.5" y2="766.5" />
    <line stroke="#0000ff" stroke-width="1" stroke-linecap="round" stroke-linejoin="round" x1="59.5" y1="690.5" x2="70.5" y2="690.5" />
    <line stroke="#0000ff" stroke-width="1" stroke-linecap="round" stroke-linejoin="round" x1="59.5" y1="613.5" x2="70.5" y2="613.5" />
    <line stroke="#0000ff" stroke-width="1" stroke-linecap="round" stroke-linejoin="round" x1="59.5" y1="537.5" x2="70.5" y2="537.5" />
    <line stroke="#0000ff" stroke-width="1" stroke-linecap="round" stroke-linejoin="round" x1="59.5" y1="460.5" x2="70.5" y2="460.5" />
    <line stroke="#0000ff" stroke-width="1" stroke-linecap="round" stroke-linejoin="round" x1="59.5" y1="383.5" x2="70.5" y2="383.5" />
    <line stroke="#0000ff" stroke-width="1" stroke-linecap="round" stroke-linejoin="round" x1="59.5" y1="307.5" x2="70.5" y2="307.5" />
    <line stroke="#0000ff" stroke-width="1" stroke-linecap="round" stroke-linejoin="round" x1="59.5" y1="230.5" x2="70.5" y2="230.5" />
    <line stroke="#0000ff" stroke-width="1" stroke-linecap="round" stroke-linejoin="round" x1="59.5" y1="153.5" x2="70.5" y2="153.5" />
    <line stroke="#0000ff" stroke-width="1" stroke-linecap="round" stroke-linejoin="round" x1="59.5" y1="77.5" x2="70.5" y2="77.5" />
    <polyline stroke="#000000" stroke-width="2" stroke-linecap="butt" stroke-linejoin="bevel" fill="none" points="710,401 1356,1099 2002,1146 " />
    <text x="622" y="394" font-family="Tahoma" font-size="16" fill="#000000">(1,0.09766)</text>
    <text x="1268" y="1092" font-family="Tahoma" font-size="16" fill="#000000">(2,0.00660)</text>
    <text x="1914" y="1139" font-family="Tahoma" font-size="16" fill="#000000">(3,0.00043)</text>
    <circle stroke="#000000" stroke-width="1" stroke-linecap="round" stroke-linejoin="round" fill="#000000" cx="710" cy="401" r="3" />
    <circle stroke="#000000" stroke-width="1" stroke-linecap="round" stroke-linejoin="round" fill="#000000" cx="1356" cy="1099" r="3" />
    <circle stroke="#000000" stroke-width="1" stroke-linecap="round" stroke-linejoin="round" fill="#000000" cx="2002" cy="1146" r="3" />
  </g>
</svg>
