<?xml version="1.0" encoding="UTF-8"?>
<!DOCTYPE svg PUBLIC "-//W3C//DTD SVG 1.1//EN" "http://www.w3.org/Graphics/SVG/1.1/DTD/svg11.dtd">
<svg width="2396px" height="1303px" viewBox="0 0 2396 1303" version="1.1" xmlns="http://www.w3.org/2000/svg" xmlns:xlink="http://www.w3.org/1999/xlink">
  <g>
    <polyline stroke="#000000" stroke-width="2" stroke-linecap="butt" stroke-linejoin="bevel" fill="none" points="2351,20 2391,20 " />
    <circle stroke="#000000" stroke-width="1" stroke-linecap="round" stroke-linejoin="round" fill="#000000" cx="2371" cy="20" r="3" />
    <text x="2351" y="16" font-family="Times New Roman" font-size="11" fill="#000000">Ряд 1</text>
    <rect stroke="#000000" stroke-width="1" stroke-linecap="round" stroke-linejoin="round" fill="none" x="2346.5" y="0.5" width="49" height="29" />
  </g>
  <clipPath id="clippath1">
    <path d="M-1,-1 H2396 V1302H-1 z M2345,-1 H2397 V31 H2345 z" clip-rule="evenodd" />
  </clipPath>
  <g clip-path="url(#clippath1)">
    <line stroke="#9999ff" stroke-width="1" stroke-dasharray="1,10" stroke-linecap="round" stroke-linejoin="round" x1="109.5" y1="0.5" x2="109.5" y2="1302.5" />
    <line stroke="#9999ff" stroke-width="1" stroke-dasharray="1,10" stroke-linecap="round" stroke-linejoin="round" x1="163.5" y1="0.5" x2="163.5" y2="1302.5" />
    <line stroke="#9999ff" stroke-width="1" stroke-dasharray="1,10" stroke-linecap="round" stroke-linejoin="round" x1="218.5" y1="0.5" x2="218.5" y2="1302.5" />
    <line stroke="#9999ff" stroke-width="1" stroke-dasharray="1,10" stroke-linecap="round" stroke-linejoin="round" x1="272.5" y1="0.5" x2="272.5" y2="1302.5" />
    <line stroke="#9999ff" stroke-width="1" stroke-dasharray="1,10" stroke-linecap="round" stroke-linejoin="round" x1="327.5" y1="0.5" x2="327.5" y2="1302.5" />
    <line stroke="#9999ff" stroke-width="1" stroke-dasharray="1,10" stroke-linecap="round" stroke-linejoin="round" x1="381.5" y1="0.5" x2="381.5" y2="1302.5" />
    <line stroke="#9999ff" stroke-width="1" stroke-dasharray="1,10" stroke-linecap="round" stroke-linejoin="round" x1="436.5" y1="0.5" x2="436.5" y2="1302.5" />
    <line stroke="#9999ff" stroke-width="1" stroke-dasharray="1,10" stroke-linecap="round" stroke-linejoin="round" x1="490.5" y1="0.5" x2="490.5" y2="1302.5" />
    <line stroke="#9999ff" stroke-width="1" stroke-dasharray="1,10" stroke-linecap="round" stroke-linejoin="round" x1="545.5" y1="0.5" x2="545.5" y2="1302.5" />
    <line stroke="#9999ff" stroke-width="1" stroke-dasharray="1,10" stroke-linecap="round" stroke-linejoin="round" x1="599.5" y1="0.5" x2="599.5" y2="1302.5" />
    <line stroke="#9999ff" stroke-width="1" stroke-dasharray="1,10" stroke-linecap="round" stroke-linejoin="round" x1="653.5" y1="0.5" x2="653.5" y2="1302.5" />
    <line stroke="#9999ff" stroke-width="1" stroke-dasharray="1,10" stroke-linecap="round" stroke-linejoin="round" x1="708.5" y1="0.5" x2="708.5" y2="1302.5" />
    <line stroke="#9999ff" stroke-width="1" stroke-dasharray="1,10" stroke-linecap="round" stroke-linejoin="round" x1="762.5" y1="0.5" x2="762.5" y2="1302.5" />
    <line stroke="#9999ff" stroke-width="1" stroke-dasharray="1,10" stroke-linecap="round" stroke-linejoin="round" x1="817.5" y1="0.5" x2="817.5" y2="1302.5" />
    <line stroke="#9999ff" stroke-width="1" stroke-dasharray="1,10" stroke-linecap="round" stroke-linejoin="round" x1="871.5" y1="0.5" x2="871.5" y2="1302.5" />
    <line stroke="#9999ff" stroke-width="1" stroke-dasharray="1,10" stroke-linecap="round" stroke-linejoin="round" x1="926.5" y1="0.5" x2="926.5" y2="1302.5" />
    <line stroke="#9999ff" stroke-width="1" stroke-dasharray="1,10" stroke-linecap="round" stroke-linejoin="round" x1="980.5" y1="0.5" x2="980.5" y2="1302.5" />
    <line stroke="#9999ff" stroke-width="1" stroke-dasharray="1,10" stroke-linecap="round" stroke-linejoin="round" x1="1035.5" y1="0.5" x2="1035.5" y2="1302.5" />
    <line stroke="#9999ff" stroke-width="1" stroke-dasharray="1,10" stroke-linecap="round" stroke-linejoin="round" x1="1089.5" y1="0.5" x2="1089.5" y2="1302.5" />
    <line stroke="#9999ff" stroke-width="1" stroke-dasharray="1,10" stroke-linecap="round" stroke-linejoin="round" x1="1144.5" y1="0.5" x2="1144.5" y2="1302.5" />
    <line stroke="#9999ff" stroke-width="1" stroke-dasharray="1,10" stroke-linecap="round" stroke-linejoin="round" x1="1198.5" y1="0.5" x2="1198.5" y2="1302.5" />
    <line stroke="#9999ff" stroke-width="1" stroke-dasharray="1,10" stroke-linecap="round" stroke-linejoin="round" x1="1252.5" y1="0.5" x2="1252.5" y2="1302.5" />
    <line stroke="#9999ff" stroke-width="1" stroke-dasharray="1,10" stroke-linecap="round" stroke-linejoin="round" x1="1307.5" y1="0.5" x2="1307.5" y2="1302.5" />
    <line stroke="#9999ff" stroke-width="1" stroke-dasharray="1,10" stroke-linecap="round" stroke-linejoin="round" x1="1361.5" y1="0.5" x2="1361.5" y2="1302.5" />
    <line stroke="#9999ff" stroke-width="1" stroke-dasharray="1,10" stroke-linecap="round" stroke-linejoin="round" x1="1416.5" y1="0.5" x2="1416.5" y2="1302.5" />
    <line stroke="#9999ff" stroke-width="1" stroke-dasharray="1,10" stroke-linecap="round" stroke-linejoin="round" x1="1470.5" y1="0.5" x2="1470.5" y2="1302.5" />
    <line stroke="#9999ff" stroke-width="1" stroke-dasharray="1,10" stroke-linecap="round" stroke-linejoin="round" x1="1525.5" y1="0.5" x2="1525.5" y2="1302.5" />
    <line stroke="#9999ff" stroke-width="1" stroke-dasharray="1,10" stroke-linecap="round" stroke-linejoin="round" x1="1579.5" y1="0.5" x2="1579.5" y2="1302.5" />
    <line stroke="#9999ff" stroke-width="1" stroke-dasharray="1,10" stroke-linecap="round" stroke-linejoin="round" x1="1634.5" y1="0.5" x2="1634.5" y2="1302.5" />
    <line stroke="#9999ff" stroke-width="1" stroke-dasharray="1,10" stroke-linecap="round" stroke-linejoin="round" x1="1688.5" y1="0.5" x2="1688.5" y2="1302.5" />
    <line stroke="#9999ff" stroke-width="1" stroke-dasharray="1,10" stroke-linecap="round" stroke-linejoin="round" x1="1743.5" y1="0.5" x2="1743.5" y2="1302.5" />
    <line stroke="#9999ff" stroke-width="1" stroke-dasharray="1,10" stroke-linecap="round" stroke-linejoin="round" x1="1797.5" y1="0.5" x2="1797.5" y2="1302.5" />
    <line stroke="#9999ff" stroke-width="1" stroke-dasharray="1,10" stroke-linecap="round" stroke-linejoin="round" x1="1851.5" y1="0.5" x2="1851.5" y2="1302.5" />
    <line stroke="#9999ff" stroke-width="1" stroke-dasharray="1,10" stroke-linecap="round" stroke-linejoin="round" x1="1906.5" y1="0.5" x2="1906.5" y2="1302.5" />
    <line stroke="#9999ff" stroke-width="1" stroke-dasharray="1,10" stroke-linecap="round" stroke-linejoin="round" x1="1960.5" y1="0.5" x2="1960.5" y2="1302.5" />
    <line stroke="#9999ff" stroke-width="1" stroke-dasharray="1,10" stroke-linecap="round" stroke-linejoin="round" x1="2015.5" y1="0.5" x2="2015.5" y2="1302.5" />
    <line stroke="#9999ff" stroke-width="1" stroke-dasharray="1,10" stroke-linecap="round" stroke-linejoin="round" x1="2069.5" y1="0.5" x2="2069.5" y2="1302.5" />
    <line stroke="#9999ff" stroke-width="1" stroke-dasharray="1,10" stroke-linecap="round" stroke-linejoin="round" x1="2124.5" y1="0.5" x2="2124.5" y2="1302.5" />
    <line stroke="#9999ff" stroke-width="1" stroke-dasharray="1,10" stroke-linecap="round" stroke-linejoin="round" x1="2178.5" y1="0.5" x2="2178.5" y2="1302.5" />
    <line stroke="#9999ff" stroke-width="1" stroke-dasharray="1,10" stroke-linecap="round" stroke-linejoin="round" x1="2233.5" y1="0.5" x2="2233.5" y2="1302.5" />
    <line stroke="#9999ff" stroke-width="1" stroke-dasharray="1,10" stroke-linecap="round" stroke-linejoin="round" x1="2287.5" y1="0.5" x2="2287.5" y2="1302.5" />
    <line stroke="#9999ff" stroke-width="1" stroke-dasharray="1,10" stroke-linecap="round" stroke-linejoin="round" x1="2342.5" y1="0.5" x2="2342.5" y2="1302.5" />
    <line stroke="#9999ff" stroke-width="1" stroke-dasharray="1,10" stroke-linecap="round" stroke-linejoin="round" x1="0.5" y1="1179.5" x2="2395.5" y2="1179.5" />
    <line stroke="#9999ff" stroke-width="1" stroke-dasharray="1,10" stroke-linecap="round" stroke-linejoin="round" x1="0.5" y1="1117.5" x2="2395.5" y2="1117.5" />
    <line stroke="#9999ff" stroke-width="1" stroke-dasharray="1,10" stroke-linecap="round" stroke-linejoin="round" x1="0.5" y1="1055.5" x2="2395.5" y2="1055.5" />
    <line stroke="#9999ff" stroke-width="1" stroke-dasharray="1,10" stroke-linecap="round" stroke-linejoin="round" x1="0.5" y1="993.5" x2="2395.5" y2="993.5" />
    <line stroke="#9999ff" stroke-width="1" stroke-dasharray="1,10" stroke-linecap="round" stroke-linejoin="round" x1="0.5" y1="931.5" x2="2395.5" y2="931.5" />
    <line stroke="#9999ff" stroke-width="1" stroke-dasharray="1,10" stroke-linecap="round" stroke-linejoin="round" x1="0.5" y1="869.5" x2="2395.5" y2="869.5" />
    <line stroke="#9999ff" stroke-width="1" stroke-dasharray="1,10" stroke-linecap="round" stroke-linejoin="round" x1="0.5" y1="807.5" x2="2395.5" y2="807.5" />
    <line stroke="#9999ff" stroke-width="1" stroke-dasharray="1,10" stroke-linecap="round" stroke-linejoin="round" x1="0.5" y1="745.5" x2="2395.5" y2="745.5" />
    <line stroke="#9999ff" stroke-width="1" stroke-dasharray="1,10" stroke-linecap="round" stroke-linejoin="round" x1="0.5" y1="683.5" x2="2395.5" y2="683.5" />
    <line stroke="#9999ff" stroke-width="1" stroke-dasharray="1,10" stroke-linecap="round" stroke-linejoin="round" x1="0.5" y1="620.5" x2="2395.5" y2="620.5" />
    <line stroke="#9999ff" stroke-width="1" stroke-dasharray="1,10" stroke-linecap="round" stroke-linejoin="round" x1="0.5" y1="558.5" x2="2395.5" y2="558.5" />
    <line stroke="#9999ff" stroke-width="1" stroke-dasharray="1,10" stroke-linecap="round" stroke-linejoin="round" x1="0.5" y1="496.5" x2="2395.5" y2="496.5" />
    <line stroke="#9999ff" stroke-width="1" stroke-dasharray="1,10" stroke-linecap="round" stroke-linejoin="round" x1="0.5" y1="434.5" x2="2395.5" y2="434.5" />
    <line stroke="#9999ff" stroke-width="1" stroke-dasharray="1,10" stroke-linecap="round" stroke-linejoin="round" x1="0.5" y1="372.5" x2="2395.5" y2="372.5" />
    <line stroke="#9999ff" stroke-width="1" stroke-dasharray="1,10" stroke-linecap="round" stroke-linejoin="round" x1="0.5" y1="310.5" x2="2395.5" y2="310.5" />
    <line stroke="#9999ff" stroke-width="1" stroke-dasharray="1,10" stroke-linecap="round" stroke-linejoin="round" x1="0.5" y1="248.5" x2="2395.5" y2="248.5" />
    <line stroke="#9999ff" stroke-width="1" stroke-dasharray="1,10" stroke-linecap="round" stroke-linejoin="round" x1="0.5" y1="186.5" x2="2395.5" y2="186.5" />
    <line stroke="#9999ff" stroke-width="1" stroke-dasharray="1,10" stroke-linecap="round" stroke-linejoin="round" x1="0.5" y1="124.5" x2="2395.5" y2="124.5" />
    <line stroke="#9999ff" stroke-width="1" stroke-dasharray="1,10" stroke-linecap="round" stroke-linejoin="round" x1="0.5" y1="62.5" x2="2395.5" y2="62.5" />
    <text x="106" y="1258" font-family="Times New Roman" font-size="13" fill="#000000">1</text>
    <text x="160" y="1258" font-family="Times New Roman" font-size="13" fill="#000000">2</text>
    <text x="215" y="1258" font-family="Times New Roman" font-size="13" fill="#000000">3</text>
    <text x="269" y="1258" font-family="Times New Roman" font-size="13" fill="#000000">4</text>
    <text x="324" y="1258" font-family="Times New Roman" font-size="13" fill="#000000">5</text>
    <text x="378" y="1258" font-family="Times New Roman" font-size="13" fill="#000000">6</text>
    <text x="433" y="1258" font-family="Times New Roman" font-size="13" fill="#000000">7</text>
    <text x="487" y="1258" font-family="Times New Roman" font-size="13" fill="#000000">8</text>
    <text x="542" y="1258" font-family="Times New Roman" font-size="13" fill="#000000">9</text>
    <text x="593" y="1258" font-family="Times New Roman" font-size="13" fill="#000000">10</text>
    <text x="647" y="1258" font-family="Times New Roman" font-size="13" fill="#000000">11</text>
    <text x="702" y="1258" font-family="Times New Roman" font-size="13" fill="#000000">12</text>
    <text x="756" y="1258" font-family="Times New Roman" font-size="13" fill="#000000">13</text>
    <text x="811" y="1258" font-family="Times New Roman" font-size="13" fill="#000000">14</text>
    <text x="865" y="1258" font-family="Times New Roman" font-size="13" fill="#000000">15</text>
    <text x="920" y="1258" font-family="Times New Roman" font-size="13" fill="#000000">16</text>
    <text x="974" y="1258" font-family="Times New Roman" font-size="13" fill="#000000">17</text>
    <text x="1029" y="1258" font-family="Times New Roman" font-size="13" fill="#000000">18</text>
    <text x="1083" y="1258" font-family="Times New Roman" font-size="13" fill="#000000">19</text>
    <text x="1138" y="1258" font-family="Times New Roman" font-size="13" fill="#000000">20</text>
    <text x="1192" y="1258" font-family="Times New Roman" font-size="13" fill="#000000">21</text>
    <text x="1246" y="1258" font-family="Times New Roman" font-size="13" fill="#000000">22</text>
    <text x="1301" y="1258" font-family="Times New Roman" font-size="13" fill="#000000">23</text>
    <text x="1355" y="1258" font-family="Times New Roman" font-size="13" fill="#000000">24</text>
    <text x="1410" y="1258" font-family="Times New Roman" font-size="13" fill="#000000">25</text>
    <text x="1464" y="1258" font-family="Times New Roman" font-size="13" fill="#000000">26</text>
    <text x="1519" y="1258" font-family="Times New Roman" font-size="13" fill="#000000">27</text>
    <text x="1573" y="1258" font-family="Times New Roman" font-size="13" fill="#000000">28</text>
    <text x="1628" y="1258" font-family="Times New Roman" font-size="13" fill="#000000">29</text>
    <text x="1682" y="1258" font-family="Times New Roman" font-size="13" fill="#000000">30</text>
    <text x="1737" y="1258" font-family="Times New Roman" font-size="13" fill="#000000">31</text>
    <text x="1791" y="1258" font-family="Times New Roman" font-size="13" fill="#000000">32</text>
    <text x="1845" y="1258" font-family="Times New Roman" font-size="13" fill="#000000">33</text>
    <text x="1900" y="1258" font-family="Times New Roman" font-size="13" fill="#000000">34</text>
    <text x="1954" y="1258" font-family="Times New Roman" font-size="13" fill="#000000">35</text>
    <text x="2009" y="1258" font-family="Times New Roman" font-size="13" fill="#000000">36</text>
    <text x="2063" y="1258" font-family="Times New Roman" font-size="13" fill="#000000">37</text>
    <text x="2118" y="1258" font-family="Times New Roman" font-size="13" fill="#000000">38</text>
    <text x="2172" y="1258" font-family="Times New Roman" font-size="13" fill="#000000">39</text>
    <text x="2227" y="1258" font-family="Times New Roman" font-size="13" fill="#000000">40</text>
    <text x="2281" y="1258" font-family="Times New Roman" font-size="13" fill="#000000">41</text>
    <text x="2336" y="1258" font-family="Times New Roman" font-size="13" fill="#000000">42</text>
    <text x="20" y="1185" font-family="Times New Roman" font-size="13" fill="#000000">0.005</text>
    <text x="26" y="1123" font-family="Times New Roman" font-size="13" fill="#000000">0.01</text>
    <text x="20" y="1061" font-family="Times New Roman" font-size="13" fill="#000000">0.015</text>
    <text x="26" y="999" font-family="Times New Roman" font-size="13" fill="#000000">0.02</text>
    <text x="20" y="937" font-family="Times New Roman" font-size="13" fill="#000000">0.025</text>
    <text x="26" y="875" font-family="Times New Roman" font-size="13" fill="#000000">0.03</text>
    <text x="20" y="813" font-family="Times New Roman" font-size="13" fill="#000000">0.035</text>
    <text x="26" y="751" font-family="Times New Roman" font-size="13" fill="#000000">0.04</text>
    <text x="20" y="689" font-family="Times New Roman" font-size="13" fill="#000000">0.045</text>
    <text x="26" y="626" font-family="Times New Roman" font-size="13" fill="#000000">0.05</text>
    <text x="20" y="564" font-family="Times New Roman" font-size="13" fill="#000000">0.055</text>
    <text x="26" y="502" font-family="Times New Roman" font-size="13" fill="#000000">0.06</text>
    <text x="20" y="440" font-family="Times New Roman" font-size="13" fill="#000000">0.065</text>
    <text x="26" y="378" font-family="Times New Roman" font-size="13" fill="#000000">0.07</text>
    <text x="20" y="316" font-family="Times New Roman" font-size="13" fill="#000000">0.075</text>
    <text x="26" y="254" font-family="Times New Roman" font-size="13" fill="#000000">0.08</text>
    <text x="20" y="192" font-family="Times New Roman" font-size="13" fill="#000000">0.085</text>
    <text x="26" y="130" font-family="Times New Roman" font-size="13" fill="#000000">0.09</text>
    <text x="20" y="68" font-family="Times New Roman" font-size="13" fill="#000000">0.095</text>
    <text x="2385" y="1231" font-family="Times New Roman" font-size="16" font-weight="700" fill="#000000">x</text>
    <text x="66" y="13" font-family="Times New Roman" font-size="16" font-weight="700" fill="#000000">f(x)</text>
    <line stroke="#0000ff" stroke-width="2" stroke-linecap="butt" stroke-linejoin="bevel" x1="0" y1="1241" x2="2391" y2="1241" />
    <polygon stroke="#0000ff" stroke-width="1" stroke-linecap="round" stroke-linejoin="round" fill="#0000ff" points="2390.5,1235.5 2395.5,1240.5 2395.5,1241.5 2390.5,1246.5 " />
    <line stroke="#0000ff" stroke-width="1" stroke-linecap="round" stroke-linejoin="round" x1="109.5" y1="1246.5" x2="109.5" y2="1235.5" />
    <line stroke="#0000ff" stroke-width="1" stroke-linecap="round" stroke-linejoin="round" x1="163.5" y1="1246.5" x2="163.5" y2="1235.5" />
    <line stroke="#0000ff" stroke-width="1" stroke-linecap="round" stroke-linejoin="round" x1="218.5" y1="1246.5" x2="218.5" y2="1235.5" />
    <line stroke="#0000ff" stroke-width="1" stroke-linecap="round" stroke-linejoin="round" x1="272.5" y1="1246.5" x2="272.5" y2="1235.5" />
    <line stroke="#0000ff" stroke-width="1" stroke-linecap="round" stroke-linejoin="round" x1="327.5" y1="1246.5" x2="327.5" y2="1235.5" />
    <line stroke="#0000ff" stroke-width="1" stroke-linecap="round" stroke-linejoin="round" x1="381.5" y1="1246.5" x2="381.5" y2="1235.5" />
    <line stroke="#0000ff" stroke-width="1" stroke-linecap="round" stroke-linejoin="round" x1="436.5" y1="1246.5" x2="436.5" y2="1235.5" />
    <line stroke="#0000ff" stroke-width="1" stroke-linecap="round" stroke-linejoin="round" x1="490.5" y1="1246.5" x2="490.5" y2="1235.5" />
    <line stroke="#0000ff" stroke-width="1" stroke-linecap="round" stroke-linejoin="round" x1="545.5" y1="1246.5" x2="545.5" y2="1235.5" />
    <line stroke="#0000ff" stroke-width="1" stroke-linecap="round" stroke-linejoin="round" x1="599.5" y1="1246.5" x2="599.5" y2="1235.5" />
    <line stroke="#0000ff" stroke-width="1" stroke-linecap="round" stroke-linejoin="round" x1="653.5" y1="1246.5" x2="653.5" y2="1235.5" />
    <line stroke="#0000ff" stroke-width="1" stroke-linecap="round" stroke-linejoin="round" x1="708.5" y1="1246.5" x2="708.5" y2="1235.5" />
    <line stroke="#0000ff" stroke-width="1" stroke-linecap="round" stroke-linejoin="round" x1="762.5" y1="1246.5" x2="762.5" y2="1235.5" />
    <line stroke="#0000ff" stroke-width="1" stroke-linecap="round" stroke-linejoin="round" x1="817.5" y1="1246.5" x2="817.5" y2="1235.5" />
    <line stroke="#0000ff" stroke-width="1" stroke-linecap="round" stroke-linejoin="round" x1="871.5" y1="1246.5" x2="871.5" y2="1235.5" />
    <line stroke="#0000ff" stroke-width="1" stroke-linecap="round" stroke-linejoin="round" x1="926.5" y1="1246.5" x2="926.5" y2="1235.5" />
    <line stroke="#0000ff" stroke-width="1" stroke-linecap="round" stroke-linejoin="round" x1="980.5" y1="1246.5" x2="980.5" y2="1235.5" />
    <line stroke="#0000ff" stroke-width="1" stroke-linecap="round" stroke-linejoin="round" x1="1035.5" y1="1246.5" x2="1035.5" y2="1235.5" />
    <line stroke="#0000ff" stroke-width="1" stroke-linecap="round" stroke-linejoin="round" x1="1089.5" y1="1246.5" x2="1089.5" y2="1235.5" />
    <line stroke="#0000ff" stroke-width="1" stroke-linecap="round" stroke-linejoin="round" x1="1144.5" y1="1246.5" x2="1144.5" y2="1235.5" />
    <line stroke="#0000ff" stroke-width="1" stroke-linecap="round" stroke-linejoin="round" x1="1198.5" y1="1246.5" x2="1198.5" y2="1235.5" />
    <line stroke="#0000ff" stroke-width="1" stroke-linecap="round" stroke-linejoin="round" x1="1252.5" y1="1246.5" x2="1252.5" y2="1235.5" />
    <line stroke="#0000ff" stroke-width="1" stroke-linecap="round" stroke-linejoin="round" x1="1307.5" y1="1246.5" x2="1307.5" y2="1235.5" />
    <line stroke="#0000ff" stroke-width="1" stroke-linecap="round" stroke-linejoin="round" x1="1361.5" y1="1246.5" x2="1361.5" y2="1235.5" />
    <line stroke="#0000ff" stroke-width="1" stroke-linecap="round" stroke-linejoin="round" x1="1416.5" y1="1246.5" x2="1416.5" y2="1235.5" />
    <line stroke="#0000ff" stroke-width="1" stroke-linecap="round" stroke-linejoin="round" x1="1470.5" y1="1246.5" x2="1470.5" y2="1235.5" />
    <line stroke="#0000ff" stroke-width="1" stroke-linecap="round" stroke-linejoin="round" x1="1525.5" y1="1246.5" x2="1525.5" y2="1235.5" />
    <line stroke="#0000ff" stroke-width="1" stroke-linecap="round" stroke-linejoin="round" x1="1579.5" y1="1246.5" x2="1579.5" y2="1235.5" />
    <line stroke="#0000ff" stroke-width="1" stroke-linecap="round" stroke-linejoin="round" x1="1634.5" y1="1246.5" x2="1634.5" y2="1235.5" />
    <line stroke="#0000ff" stroke-width="1" stroke-linecap="round" stroke-linejoin="round" x1="1688.5" y1="1246.5" x2="1688.5" y2="1235.5" />
    <line stroke="#0000ff" stroke-width="1" stroke-linecap="round" stroke-linejoin="round" x1="1743.5" y1="1246.5" x2="1743.5" y2="1235.5" />
    <line stroke="#0000ff" stroke-width="1" stroke-linecap="round" stroke-linejoin="round" x1="1797.5" y1="1246.5" x2="1797.5" y2="1235.5" />
    <line stroke="#0000ff" stroke-width="1" stroke-linecap="round" stroke-linejoin="round" x1="1851.5" y1="1246.5" x2="1851.5" y2="1235.5" />
    <line stroke="#0000ff" stroke-width="1" stroke-linecap="round" stroke-linejoin="round" x1="1906.5" y1="1246.5" x2="1906.5" y2="1235.5" />
    <line stroke="#0000ff" stroke-width="1" stroke-linecap="round" stroke-linejoin="round" x1="1960.5" y1="1246.5" x2="1960.5" y2="1235.5" />
    <line stroke="#0000ff" stroke-width="1" stroke-linecap="round" stroke-linejoin="round" x1="2015.5" y1="1246.5" x2="2015.5" y2="1235.5" />
    <line stroke="#0000ff" stroke-width="1" stroke-linecap="round" stroke-linejoin="round" x1="2069.5" y1="1246.5" x2="2069.5" y2="1235.5" />
    <line stroke="#0000ff" stroke-width="1" stroke-linecap="round" stroke-linejoin="round" x1="2124.5" y1="1246.5" x2="2124.5" y2="1235.5" />
    <line stroke="#0000ff" stroke-width="1" stroke-linecap="round" stroke-linejoin="round" x1="2178.5" y1="1246.5" x2="2178.5" y2="1235.5" />
    <line stroke="#0000ff" stroke-width="1" stroke-linecap="round" stroke-linejoin="round" x1="2233.5" y1="1246.5" x2="2233.5" y2="1235.5" />
    <line stroke="#0000ff" stroke-width="1" stroke-linecap="round" stroke-linejoin="round" x1="2287.5" y1="1246.5" x2="2287.5" y2="1235.5" />
    <line stroke="#0000ff" stroke-width="1" stroke-linecap="round" stroke-linejoin="round" x1="2342.5" y1="1246.5" x2="2342.5" y2="1235.5" />
    <line stroke="#0000ff" stroke-width="2" stroke-linecap="butt" stroke-linejoin="bevel" x1="54" y1="3" x2="54" y2="1302" />
    <polygon stroke="#0000ff" stroke-width="1" stroke-linecap="round" stroke-linejoin="round" fill="#0000ff" points="48.5,5.5 53.5,0.5 54.5,0.5 59.5,5.5 " />
    <line stroke="#0000ff" stroke-width="1" stroke-linecap="round" stroke-linejoin="round" x1="48.5" y1="1179.5" x2="59.5" y2="1179.5" />
    <line stroke="#0000ff" stroke-width="1" stroke-linecap="round" stroke-linejoin="round" x1="48.5" y1="1117.5" x2="59.5" y2="1117.5" />
    <line stroke="#0000ff" stroke-width="1" stroke-linecap="round" stroke-linejoin="round" x1="48.5" y1="1055.5" x2="59.5" y2="1055.5" />
    <line stroke="#0000ff" stroke-width="1" stroke-linecap="round" stroke-linejoin="round" x1="48.5" y1="993.5" x2="59.5" y2="993.5" />
    <line stroke="#0000ff" stroke-width="1" stroke-linecap="round" stroke-linejoin="round" x1="48.5" y1="931.5" x2="59.5" y2="931.5" />
    <line stroke="#0000ff" stroke-width="1" stroke-linecap="round" stroke-linejoin="round" x1="48.5" y1="869.5" x2="59.5" y2="869.5" />
    <line stroke="#0000ff" stroke-width="1" stroke-linecap="round" stroke-linejoin="round" x1="48.5" y1="807.5" x2="59.5" y2="807.5" />
    <line stroke="#0000ff" stroke-width="1" stroke-linecap="round" stroke-linejoin="round" x1="48.5" y1="745.5" x2="59.5" y2="745.5" />
    <line stroke="#0000ff" stroke-width="1" stroke-linecap="round" stroke-linejoin="round" x1="48.5" y1="683.5" x2="59.5" y2="683.5" />
    <line stroke="#0000ff" stroke-width="1" stroke-linecap="round" stroke-linejoin="round" x1="48.5" y1="620.5" x2="59.5" y2="620.5" />
    <line stroke="#0000ff" stroke-width="1" stroke-linecap="round" stroke-linejoin="round" x1="48.5" y1="558.5" x2="59.5" y2="558.5" />
    <line stroke="#0000ff" stroke-width="1" stroke-linecap="round" stroke-linejoin="round" x1="48.5" y1="496.5" x2="59.5" y2="496.5" />
    <line stroke="#0000ff" stroke-width="1" stroke-linecap="round" stroke-linejoin="round" x1="48.5" y1="434.5" x2="59.5" y2="434.5" />
    <line stroke="#0000ff" stroke-width="1" stroke-linecap="round" stroke-linejoin="round" x1="48.5" y1="372.5" x2="59.5" y2="372.5" />
    <line stroke="#0000ff" stroke-width="1" stroke-linecap="round" stroke-linejoin="round" x1="48.5" y1="310.5" x2="59.5" y2="310.5" />
    <line stroke="#0000ff" stroke-width="1" stroke-linecap="round" stroke-linejoin="round" x1="48.5" y1="248.5" x2="59.5" y2="248.5" />
    <line stroke="#0000ff" stroke-width="1" stroke-linecap="round" stroke-linejoin="round" x1="48.5" y1="186.5" x2="59.5" y2="186.5" />
    <line stroke="#0000ff" stroke-width="1" stroke-linecap="round" stroke-linejoin="round" x1="48.5" y1="124.5" x2="59.5" y2="124.5" />
    <line stroke="#0000ff" stroke-width="1" stroke-linecap="round" stroke-linejoin="round" x1="48.5" y1="62.5" x2="59.5" y2="62.5" />
  </g>
  <clipPath id="clippath2">
    <path d="M-1,-1 H2396 V1302H-1 z M2345,-1 H2397 V31 H2345 z" clip-rule="evenodd" />
  </clipPath>
  <g clip-path="url(#clippath2)">
    <polyline stroke="#000000" stroke-width="2" stroke-linecap="butt" stroke-linejoin="bevel" fill="none" points="653,1241 1198,650 1797,650 2342,1241 " />
    <circle stroke="#000000" stroke-width="1" stroke-linecap="round" stroke-linejoin="round" fill="#000000" cx="653" cy="1241" r="3" />
    <circle stroke="#000000" stroke-width="1" stroke-linecap="round" stroke-linejoin="round" fill="#000000" cx="1198" cy="650" r="3" />
    <circle stroke="#000000" stroke-width="1" stroke-linecap="round" stroke-linejoin="round" fill="#000000" cx="1797" cy="650" r="3" />
    <circle stroke="#000000" stroke-width="1" stroke-linecap="round" stroke-linejoin="round" fill="#000000" cx="2342" cy="1241" r="3" />
  </g>
</svg>
