<?xml version="1.0" encoding="UTF-8"?>
<!DOCTYPE svg PUBLIC "-//W3C//DTD SVG 1.1//EN" "http://www.w3.org/Graphics/SVG/1.1/DTD/svg11.dtd">
<svg width="2396px" height="1303px" viewBox="0 0 2396 1303" version="1.1" xmlns="http://www.w3.org/2000/svg" xmlns:xlink="http://www.w3.org/1999/xlink">
  <g>
    <line stroke="#9999ff" stroke-width="1" stroke-dasharray="1,10" stroke-linecap="round" stroke-linejoin="round" x1="109.5" y1="0.5" x2="109.5" y2="1302.5" />
    <line stroke="#9999ff" stroke-width="1" stroke-dasharray="1,10" stroke-linecap="round" stroke-linejoin="round" x1="163.5" y1="0.5" x2="163.5" y2="1302.5" />
    <line stroke="#9999ff" stroke-width="1" stroke-dasharray="1,10" stroke-linecap="round" stroke-linejoin="round" x1="218.5" y1="0.5" x2="218.5" y2="1302.5" />
    <line stroke="#9999ff" stroke-width="1" stroke-dasharray="1,10" stroke-linecap="round" stroke-linejoin="round" x1="272.5" y1="0.5" x2="272.5" y2="1302.5" />
    <line stroke="#9999ff" stroke-width="1" stroke-dasharray="1,10" stroke-linecap="round" stroke-linejoin="round" x1="327.5" y1="0.5" x2="327.5" y2="1302.5" />
    <line stroke="#9999ff" stroke-width="1" stroke-dasharray="1,10" stroke-linecap="round" stroke-linejoin="round" x1="381.5" y1="0.5" x2="381.5" y2="1302.5" />
    <line stroke="#9999ff" stroke-width="1" stroke-dasharray="1,10" stroke-linecap="round" stroke-linejoin="round" x1="436.5" y1="0.5" x2="436.5" y2="1302.5" />
    <line stroke="#9999ff" stroke-width="1" stroke-dasharray="1,10" stroke-linecap="round" stroke-linejoin="round" x1="490.5" y1="0.5" x2="490.5" y2="1302.5" />
    <line stroke="#9999ff" stroke-width="1" stroke-dasharray="1,10" stroke-linecap="round" stroke-linejoin="round" x1="545.5" y1="0.5" x2="545.5" y2="1302.5" />
    <line stroke="#9999ff" stroke-width="1" stroke-dasharray="1,10" stroke-linecap="round" stroke-linejoin="round" x1="599.5" y1="0.5" x2="599.5" y2="1302.5" />
    <line stroke="#9999ff" stroke-width="1" stroke-dasharray="1,10" stroke-linecap="round" stroke-linejoin="round" x1="653.5" y1="0.5" x2="653.5" y2="1302.5" />
    <line stroke="#9999ff" stroke-width="1" stroke-dasharray="1,10" stroke-linecap="round" stroke-linejoin="round" x1="708.5" y1="0.5" x2="708.5" y2="1302.5" />
    <line stroke="#9999ff" stroke-width="1" stroke-dasharray="1,10" stroke-linecap="round" stroke-linejoin="round" x1="762.5" y1="0.5" x2="762.5" y2="1302.5" />
    <line stroke="#9999ff" stroke-width="1" stroke-dasharray="1,10" stroke-linecap="round" stroke-linejoin="round" x1="817.5" y1="0.5" x2="817.5" y2="1302.5" />
    <line stroke="#9999ff" stroke-width="1" stroke-dasharray="1,10" stroke-linecap="round" stroke-linejoin="round" x1="871.5" y1="0.5" x2="871.5" y2="1302.5" />
    <line stroke="#9999ff" stroke-width="1" stroke-dasharray="1,10" stroke-linecap="round" stroke-linejoin="round" x1="926.5" y1="0.5" x2="926.5" y2="1302.5" />
    <line stroke="#9999ff" stroke-width="1" stroke-dasharray="1,10" stroke-linecap="round" stroke-linejoin="round" x1="980.5" y1="0.5" x2="980.5" y2="1302.5" />
    <line stroke="#9999ff" stroke-width="1" stroke-dasharray="1,10" stroke-linecap="round" stroke-linejoin="round" x1="1035.5" y1="0.5" x2="1035.5" y2="1302.5" />
    <line stroke="#9999ff" stroke-width="1" stroke-dasharray="1,10" stroke-linecap="round" stroke-linejoin="round" x1="1089.5" y1="0.5" x2="1089.5" y2="1302.5" />
    <line stroke="#9999ff" stroke-width="1" stroke-dasharray="1,10" stroke-linecap="round" stroke-linejoin="round" x1="1144.5" y1="0.5" x2="1144.5" y2="1302.5" />
    <line stroke="#9999ff" stroke-width="1" stroke-dasharray="1,10" stroke-linecap="round" stroke-linejoin="round" x1="1198.5" y1="0.5" x2="1198.5" y2="1302.5" />
    <line stroke="#9999ff" stroke-width="1" stroke-dasharray="1,10" stroke-linecap="round" stroke-linejoin="round" x1="1252.5" y1="0.5" x2="1252.5" y2="1302.5" />
    <line stroke="#9999ff" stroke-width="1" stroke-dasharray="1,10" stroke-linecap="round" stroke-linejoin="round" x1="1307.5" y1="0.5" x2="1307.5" y2="1302.5" />
    <line stroke="#9999ff" stroke-width="1" stroke-dasharray="1,10" stroke-linecap="round" stroke-linejoin="round" x1="1361.5" y1="0.5" x2="1361.5" y2="1302.5" />
    <line stroke="#9999ff" stroke-width="1" stroke-dasharray="1,10" stroke-linecap="round" stroke-linejoin="round" x1="1416.5" y1="0.5" x2="1416.5" y2="1302.5" />
    <line stroke="#9999ff" stroke-width="1" stroke-dasharray="1,10" stroke-linecap="round" stroke-linejoin="round" x1="1470.5" y1="0.5" x2="1470.5" y2="1302.5" />
    <line stroke="#9999ff" stroke-width="1" stroke-dasharray="1,10" stroke-linecap="round" stroke-linejoin="round" x1="1525.5" y1="0.5" x2="1525.5" y2="1302.5" />
    <line stroke="#9999ff" stroke-width="1" stroke-dasharray="1,10" stroke-linecap="round" stroke-linejoin="round" x1="1579.5" y1="0.5" x2="1579.5" y2="1302.5" />
    <line stroke="#9999ff" stroke-width="1" stroke-dasharray="1,10" stroke-linecap="round" stroke-linejoin="round" x1="1634.5" y1="0.5" x2="1634.5" y2="1302.5" />
    <line stroke="#9999ff" stroke-width="1" stroke-dasharray="1,10" stroke-linecap="round" stroke-linejoin="round" x1="1688.5" y1="0.5" x2="1688.5" y2="1302.5" />
    <line stroke="#9999ff" stroke-width="1" stroke-dasharray="1,10" stroke-linecap="round" stroke-linejoin="round" x1="1743.5" y1="0.5" x2="1743.5" y2="1302.5" />
    <line stroke="#9999ff" stroke-width="1" stroke-dasharray="1,10" stroke-linecap="round" stroke-linejoin="round" x1="1797.5" y1="0.5" x2="1797.5" y2="1302.5" />
    <line stroke="#9999ff" stroke-width="1" stroke-dasharray="1,10" stroke-linecap="round" stroke-linejoin="round" x1="1851.5" y1="0.5" x2="1851.5" y2="1302.5" />
    <line stroke="#9999ff" stroke-width="1" stroke-dasharray="1,10" stroke-linecap="round" stroke-linejoin="round" x1="1906.5" y1="0.5" x2="1906.5" y2="1302.5" />
    <line stroke="#9999ff" stroke-width="1" stroke-dasharray="1,10" stroke-linecap="round" stroke-linejoin="round" x1="1960.5" y1="0.5" x2="1960.5" y2="1302.5" />
    <line stroke="#9999ff" stroke-width="1" stroke-dasharray="1,10" stroke-linecap="round" stroke-linejoin="round" x1="2015.5" y1="0.5" x2="2015.5" y2="1302.5" />
    <line stroke="#9999ff" stroke-width="1" stroke-dasharray="1,10" stroke-linecap="round" stroke-linejoin="round" x1="2069.5" y1="0.5" x2="2069.5" y2="1302.5" />
    <line stroke="#9999ff" stroke-width="1" stroke-dasharray="1,10" stroke-linecap="round" stroke-linejoin="round" x1="2124.5" y1="0.5" x2="2124.5" y2="1302.5" />
    <line stroke="#9999ff" stroke-width="1" stroke-dasharray="1,10" stroke-linecap="round" stroke-linejoin="round" x1="2178.5" y1="0.5" x2="2178.5" y2="1302.5" />
    <line stroke="#9999ff" stroke-width="1" stroke-dasharray="1,10" stroke-linecap="round" stroke-linejoin="round" x1="2233.5" y1="0.5" x2="2233.5" y2="1302.5" />
    <line stroke="#9999ff" stroke-width="1" stroke-dasharray="1,10" stroke-linecap="round" stroke-linejoin="round" x1="2287.5" y1="0.5" x2="2287.5" y2="1302.5" />
    <line stroke="#9999ff" stroke-width="1" stroke-dasharray="1,10" stroke-linecap="round" stroke-linejoin="round" x1="2342.5" y1="0.5" x2="2342.5" y2="1302.5" />
    <line stroke="#9999ff" stroke-width="1" stroke-dasharray="1,10" stroke-linecap="round" stroke-linejoin="round" x1="0.5" y1="1185.5" x2="2395.5" y2="1185.5" />
    <line stroke="#9999ff" stroke-width="1" stroke-dasharray="1,10" stroke-linecap="round" stroke-linejoin="round" x1="0.5" y1="1125.5" x2="2395.5" y2="1125.5" />
    <line stroke="#9999ff" stroke-width="1" stroke-dasharray="1,10" stroke-linecap="round" stroke-linejoin="round" x1="0.5" y1="1066.5" x2="2395.5" y2="1066.5" />
    <line stroke="#9999ff" stroke-width="1" stroke-dasharray="1,10" stroke-linecap="round" stroke-linejoin="round" x1="0.5" y1="1007.5" x2="2395.5" y2="1007.5" />
    <line stroke="#9999ff" stroke-width="1" stroke-dasharray="1,10" stroke-linecap="round" stroke-linejoin="round" x1="0.5" y1="948.5" x2="2395.5" y2="948.5" />
    <line stroke="#9999ff" stroke-width="1" stroke-dasharray="1,10" stroke-linecap="round" stroke-linejoin="round" x1="0.5" y1="888.5" x2="2395.5" y2="888.5" />
    <line stroke="#9999ff" stroke-width="1" stroke-dasharray="1,10" stroke-linecap="round" stroke-linejoin="round" x1="0.5" y1="829.5" x2="2395.5" y2="829.5" />
    <line stroke="#9999ff" stroke-width="1" stroke-dasharray="1,10" stroke-linecap="round" stroke-linejoin="round" x1="0.5" y1="770.5" x2="2395.5" y2="770.5" />
    <line stroke="#9999ff" stroke-width="1" stroke-dasharray="1,10" stroke-linecap="round" stroke-linejoin="round" x1="0.5" y1="711.5" x2="2395.5" y2="711.5" />
    <line stroke="#9999ff" stroke-width="1" stroke-dasharray="1,10" stroke-linecap="round" stroke-linejoin="round" x1="0.5" y1="651.5" x2="2395.5" y2="651.5" />
    <line stroke="#9999ff" stroke-width="1" stroke-dasharray="1,10" stroke-linecap="round" stroke-linejoin="round" x1="0.5" y1="592.5" x2="2395.5" y2="592.5" />
    <line stroke="#9999ff" stroke-width="1" stroke-dasharray="1,10" stroke-linecap="round" stroke-linejoin="round" x1="0.5" y1="533.5" x2="2395.5" y2="533.5" />
    <line stroke="#9999ff" stroke-width="1" stroke-dasharray="1,10" stroke-linecap="round" stroke-linejoin="round" x1="0.5" y1="474.5" x2="2395.5" y2="474.5" />
    <line stroke="#9999ff" stroke-width="1" stroke-dasharray="1,10" stroke-linecap="round" stroke-linejoin="round" x1="0.5" y1="415.5" x2="2395.5" y2="415.5" />
    <line stroke="#9999ff" stroke-width="1" stroke-dasharray="1,10" stroke-linecap="round" stroke-linejoin="round" x1="0.5" y1="355.5" x2="2395.5" y2="355.5" />
    <line stroke="#9999ff" stroke-width="1" stroke-dasharray="1,10" stroke-linecap="round" stroke-linejoin="round" x1="0.5" y1="296.5" x2="2395.5" y2="296.5" />
    <line stroke="#9999ff" stroke-width="1" stroke-dasharray="1,10" stroke-linecap="round" stroke-linejoin="round" x1="0.5" y1="237.5" x2="2395.5" y2="237.5" />
    <line stroke="#9999ff" stroke-width="1" stroke-dasharray="1,10" stroke-linecap="round" stroke-linejoin="round" x1="0.5" y1="178.5" x2="2395.5" y2="178.5" />
    <line stroke="#9999ff" stroke-width="1" stroke-dasharray="1,10" stroke-linecap="round" stroke-linejoin="round" x1="0.5" y1="118.5" x2="2395.5" y2="118.5" />
    <line stroke="#9999ff" stroke-width="1" stroke-dasharray="1,10" stroke-linecap="round" stroke-linejoin="round" x1="0.5" y1="59.5" x2="2395.5" y2="59.5" />
    <text x="106" y="1261" font-family="Times New Roman" font-size="13" fill="#000000">1</text>
    <text x="160" y="1261" font-family="Times New Roman" font-size="13" fill="#000000">2</text>
    <text x="215" y="1261" font-family="Times New Roman" font-size="13" fill="#000000">3</text>
    <text x="269" y="1261" font-family="Times New Roman" font-size="13" fill="#000000">4</text>
    <text x="324" y="1261" font-family="Times New Roman" font-size="13" fill="#000000">5</text>
    <text x="378" y="1261" font-family="Times New Roman" font-size="13" fill="#000000">6</text>
    <text x="433" y="1261" font-family="Times New Roman" font-size="13" fill="#000000">7</text>
    <text x="487" y="1261" font-family="Times New Roman" font-size="13" fill="#000000">8</text>
    <text x="542" y="1261" font-family="Times New Roman" font-size="13" fill="#000000">9</text>
    <text x="593" y="1261" font-family="Times New Roman" font-size="13" fill="#000000">10</text>
    <text x="647" y="1261" font-family="Times New Roman" font-size="13" fill="#000000">11</text>
    <text x="702" y="1261" font-family="Times New Roman" font-size="13" fill="#000000">12</text>
    <text x="756" y="1261" font-family="Times New Roman" font-size="13" fill="#000000">13</text>
    <text x="811" y="1261" font-family="Times New Roman" font-size="13" fill="#000000">14</text>
    <text x="865" y="1261" font-family="Times New Roman" font-size="13" fill="#000000">15</text>
    <text x="920" y="1261" font-family="Times New Roman" font-size="13" fill="#000000">16</text>
    <text x="974" y="1261" font-family="Times New Roman" font-size="13" fill="#000000">17</text>
    <text x="1029" y="1261" font-family="Times New Roman" font-size="13" fill="#000000">18</text>
    <text x="1083" y="1261" font-family="Times New Roman" font-size="13" fill="#000000">19</text>
    <text x="1138" y="1261" font-family="Times New Roman" font-size="13" fill="#000000">20</text>
    <text x="1192" y="1261" font-family="Times New Roman" font-size="13" fill="#000000">21</text>
    <text x="1246" y="1261" font-family="Times New Roman" font-size="13" fill="#000000">22</text>
    <text x="1301" y="1261" font-family="Times New Roman" font-size="13" fill="#000000">23</text>
    <text x="1355" y="1261" font-family="Times New Roman" font-size="13" fill="#000000">24</text>
    <text x="1410" y="1261" font-family="Times New Roman" font-size="13" fill="#000000">25</text>
    <text x="1464" y="1261" font-family="Times New Roman" font-size="13" fill="#000000">26</text>
    <text x="1519" y="1261" font-family="Times New Roman" font-size="13" fill="#000000">27</text>
    <text x="1573" y="1261" font-family="Times New Roman" font-size="13" fill="#000000">28</text>
    <text x="1628" y="1261" font-family="Times New Roman" font-size="13" fill="#000000">29</text>
    <text x="1682" y="1261" font-family="Times New Roman" font-size="13" fill="#000000">30</text>
    <text x="1737" y="1261" font-family="Times New Roman" font-size="13" fill="#000000">31</text>
    <text x="1791" y="1261" font-family="Times New Roman" font-size="13" fill="#000000">32</text>
    <text x="1845" y="1261" font-family="Times New Roman" font-size="13" fill="#000000">33</text>
    <text x="1900" y="1261" font-family="Times New Roman" font-size="13" fill="#000000">34</text>
    <text x="1954" y="1261" font-family="Times New Roman" font-size="13" fill="#000000">35</text>
    <text x="2009" y="1261" font-family="Times New Roman" font-size="13" fill="#000000">36</text>
    <text x="2063" y="1261" font-family="Times New Roman" font-size="13" fill="#000000">37</text>
    <text x="2118" y="1261" font-family="Times New Roman" font-size="13" fill="#000000">38</text>
    <text x="2172" y="1261" font-family="Times New Roman" font-size="13" fill="#000000">39</text>
    <text x="2227" y="1261" font-family="Times New Roman" font-size="13" fill="#000000">40</text>
    <text x="2281" y="1261" font-family="Times New Roman" font-size="13" fill="#000000">41</text>
    <text x="2336" y="1261" font-family="Times New Roman" font-size="13" fill="#000000">42</text>
    <text x="26" y="1191" font-family="Times New Roman" font-size="13" fill="#000000">0.05</text>
    <text x="32" y="1131" font-family="Times New Roman" font-size="13" fill="#000000">0.1</text>
    <text x="26" y="1072" font-family="Times New Roman" font-size="13" fill="#000000">0.15</text>
    <text x="32" y="1013" font-family="Times New Roman" font-size="13" fill="#000000">0.2</text>
    <text x="26" y="954" font-family="Times New Roman" font-size="13" fill="#000000">0.25</text>
    <text x="32" y="894" font-family="Times New Roman" font-size="13" fill="#000000">0.3</text>
    <text x="26" y="835" font-family="Times New Roman" font-size="13" fill="#000000">0.35</text>
    <text x="32" y="776" font-family="Times New Roman" font-size="13" fill="#000000">0.4</text>
    <text x="26" y="717" font-family="Times New Roman" font-size="13" fill="#000000">0.45</text>
    <text x="32" y="658" font-family="Times New Roman" font-size="13" fill="#000000">0.5</text>
    <text x="26" y="598" font-family="Times New Roman" font-size="13" fill="#000000">0.55</text>
    <text x="32" y="539" font-family="Times New Roman" font-size="13" fill="#000000">0.6</text>
    <text x="26" y="480" font-family="Times New Roman" font-size="13" fill="#000000">0.65</text>
    <text x="32" y="421" font-family="Times New Roman" font-size="13" fill="#000000">0.7</text>
    <text x="26" y="361" font-family="Times New Roman" font-size="13" fill="#000000">0.75</text>
    <text x="32" y="302" font-family="Times New Roman" font-size="13" fill="#000000">0.8</text>
    <text x="26" y="243" font-family="Times New Roman" font-size="13" fill="#000000">0.85</text>
    <text x="32" y="184" font-family="Times New Roman" font-size="13" fill="#000000">0.9</text>
    <text x="26" y="124" font-family="Times New Roman" font-size="13" fill="#000000">0.95</text>
    <text x="41" y="65" font-family="Times New Roman" font-size="13" fill="#000000">1</text>
    <text x="2385" y="1234" font-family="Times New Roman" font-size="16" font-weight="700" fill="#000000">x</text>
    <text x="66" y="13" font-family="Times New Roman" font-size="16" font-weight="700" fill="#000000">F(x)</text>
    <line stroke="#0000ff" stroke-width="2" stroke-linecap="butt" stroke-linejoin="bevel" x1="0" y1="1244" x2="2391" y2="1244" />
    <polygon stroke="#0000ff" stroke-width="1" stroke-linecap="round" stroke-linejoin="round" fill="#0000ff" points="2390.5,1238.5 2395.5,1243.5 2395.5,1244.5 2390.5,1249.5 " />
    <line stroke="#0000ff" stroke-width="1" stroke-linecap="round" stroke-linejoin="round" x1="109.5" y1="1249.5" x2="109.5" y2="1238.5" />
    <line stroke="#0000ff" stroke-width="1" stroke-linecap="round" stroke-linejoin="round" x1="163.5" y1="1249.5" x2="163.5" y2="1238.5" />
    <line stroke="#0000ff" stroke-width="1" stroke-linecap="round" stroke-linejoin="round" x1="218.5" y1="1249.5" x2="218.5" y2="1238.5" />
    <line stroke="#0000ff" stroke-width="1" stroke-linecap="round" stroke-linejoin="round" x1="272.5" y1="1249.5" x2="272.5" y2="1238.5" />
    <line stroke="#0000ff" stroke-width="1" stroke-linecap="round" stroke-linejoin="round" x1="327.5" y1="1249.5" x2="327.5" y2="1238.5" />
    <line stroke="#0000ff" stroke-width="1" stroke-linecap="round" stroke-linejoin="round" x1="381.5" y1="1249.5" x2="381.5" y2="1238.5" />
    <line stroke="#0000ff" stroke-width="1" stroke-linecap="round" stroke-linejoin="round" x1="436.5" y1="1249.5" x2="436.5" y2="1238.5" />
    <line stroke="#0000ff" stroke-width="1" stroke-linecap="round" stroke-linejoin="round" x1="490.5" y1="1249.5" x2="490.5" y2="1238.5" />
    <line stroke="#0000ff" stroke-width="1" stroke-linecap="round" stroke-linejoin="round" x1="545.5" y1="1249.5" x2="545.5" y2="1238.5" />
    <line stroke="#0000ff" stroke-width="1" stroke-linecap="round" stroke-linejoin="round" x1="599.5" y1="1249.5" x2="599.5" y2="1238.5" />
    <line stroke="#0000ff" stroke-width="1" stroke-linecap="round" stroke-linejoin="round" x1="653.5" y1="1249.5" x2="653.5" y2="1238.5" />
    <line stroke="#0000ff" stroke-width="1" stroke-linecap="round" stroke-linejoin="round" x1="708.5" y1="1249.5" x2="708.5" y2="1238.5" />
    <line stroke="#0000ff" stroke-width="1" stroke-linecap="round" stroke-linejoin="round" x1="762.5" y1="1249.5" x2="762.5" y2="1238.5" />
    <line stroke="#0000ff" stroke-width="1" stroke-linecap="round" stroke-linejoin="round" x1="817.5" y1="1249.5" x2="817.5" y2="1238.5" />
    <line stroke="#0000ff" stroke-width="1" stroke-linecap="round" stroke-linejoin="round" x1="871.5" y1="1249.5" x2="871.5" y2="1238.5" />
    <line stroke="#0000ff" stroke-width="1" stroke-linecap="round" stroke-linejoin="round" x1="926.5" y1="1249.5" x2="926.5" y2="1238.5" />
    <line stroke="#0000ff" stroke-width="1" stroke-linecap="round" stroke-linejoin="round" x1="980.5" y1="1249.5" x2="980.5" y2="1238.5" />
    <line stroke="#0000ff" stroke-width="1" stroke-linecap="round" stroke-linejoin="round" x1="1035.5" y1="1249.5" x2="1035.5" y2="1238.5" />
    <line stroke="#0000ff" stroke-width="1" stroke-linecap="round" stroke-linejoin="round" x1="1089.5" y1="1249.5" x2="1089.5" y2="1238.5" />
    <line stroke="#0000ff" stroke-width="1" stroke-linecap="round" stroke-linejoin="round" x1="1144.5" y1="1249.5" x2="1144.5" y2="1238.5" />
    <line stroke="#0000ff" stroke-width="1" stroke-linecap="round" stroke-linejoin="round" x1="1198.5" y1="1249.5" x2="1198.5" y2="1238.5" />
    <line stroke="#0000ff" stroke-width="1" stroke-linecap="round" stroke-linejoin="round" x1="1252.5" y1="1249.5" x2="1252.5" y2="1238.5" />
    <line stroke="#0000ff" stroke-width="1" stroke-linecap="round" stroke-linejoin="round" x1="1307.5" y1="1249.5" x2="1307.5" y2="1238.5" />
    <line stroke="#0000ff" stroke-width="1" stroke-linecap="round" stroke-linejoin="round" x1="1361.5" y1="1249.5" x2="1361.5" y2="1238.5" />
    <line stroke="#0000ff" stroke-width="1" stroke-linecap="round" stroke-linejoin="round" x1="1416.5" y1="1249.5" x2="1416.5" y2="1238.5" />
    <line stroke="#0000ff" stroke-width="1" stroke-linecap="round" stroke-linejoin="round" x1="1470.5" y1="1249.5" x2="1470.5" y2="1238.5" />
    <line stroke="#0000ff" stroke-width="1" stroke-linecap="round" stroke-linejoin="round" x1="1525.5" y1="1249.5" x2="1525.5" y2="1238.5" />
    <line stroke="#0000ff" stroke-width="1" stroke-linecap="round" stroke-linejoin="round" x1="1579.5" y1="1249.5" x2="1579.5" y2="1238.5" />
    <line stroke="#0000ff" stroke-width="1" stroke-linecap="round" stroke-linejoin="round" x1="1634.5" y1="1249.5" x2="1634.5" y2="1238.5" />
    <line stroke="#0000ff" stroke-width="1" stroke-linecap="round" stroke-linejoin="round" x1="1688.5" y1="1249.5" x2="1688.5" y2="1238.5" />
    <line stroke="#0000ff" stroke-width="1" stroke-linecap="round" stroke-linejoin="round" x1="1743.5" y1="1249.5" x2="1743.5" y2="1238.5" />
    <line stroke="#0000ff" stroke-width="1" stroke-linecap="round" stroke-linejoin="round" x1="1797.5" y1="1249.5" x2="1797.5" y2="1238.5" />
    <line stroke="#0000ff" stroke-width="1" stroke-linecap="round" stroke-linejoin="round" x1="1851.5" y1="1249.5" x2="1851.5" y2="1238.5" />
    <line stroke="#0000ff" stroke-width="1" stroke-linecap="round" stroke-linejoin="round" x1="1906.5" y1="1249.5" x2="1906.5" y2="1238.5" />
    <line stroke="#0000ff" stroke-width="1" stroke-linecap="round" stroke-linejoin="round" x1="1960.5" y1="1249.5" x2="1960.5" y2="1238.5" />
    <line stroke="#0000ff" stroke-width="1" stroke-linecap="round" stroke-linejoin="round" x1="2015.5" y1="1249.5" x2="2015.5" y2="1238.5" />
    <line stroke="#0000ff" stroke-width="1" stroke-linecap="round" stroke-linejoin="round" x1="2069.5" y1="1249.5" x2="2069.5" y2="1238.5" />
    <line stroke="#0000ff" stroke-width="1" stroke-linecap="round" stroke-linejoin="round" x1="2124.5" y1="1249.5" x2="2124.5" y2="1238.5" />
    <line stroke="#0000ff" stroke-width="1" stroke-linecap="round" stroke-linejoin="round" x1="2178.5" y1="1249.5" x2="2178.5" y2="1238.5" />
    <line stroke="#0000ff" stroke-width="1" stroke-linecap="round" stroke-linejoin="round" x1="2233.5" y1="1249.5" x2="2233.5" y2="1238.5" />
    <line stroke="#0000ff" stroke-width="1" stroke-linecap="round" stroke-linejoin="round" x1="2287.5" y1="1249.5" x2="2287.5" y2="1238.5" />
    <line stroke="#0000ff" stroke-width="1" stroke-linecap="round" stroke-linejoin="round" x1="2342.5" y1="1249.5" x2="2342.5" y2="1238.5" />
    <line stroke="#0000ff" stroke-width="2" stroke-linecap="butt" stroke-linejoin="bevel" x1="54" y1="3" x2="54" y2="1302" />
    <polygon stroke="#0000ff" stroke-width="1" stroke-linecap="round" stroke-linejoin="round" fill="#0000ff" points="48.5,5.5 53.5,0.5 54.5,0.5 59.5,5.5 " />
    <line stroke="#0000ff" stroke-width="1" stroke-linecap="round" stroke-linejoin="round" x1="48.5" y1="1185.5" x2="59.5" y2="1185.5" />
    <line stroke="#0000ff" stroke-width="1" stroke-linecap="round" stroke-linejoin="round" x1="48.5" y1="1125.5" x2="59.5" y2="1125.5" />
    <line stroke="#0000ff" stroke-width="1" stroke-linecap="round" stroke-linejoin="round" x1="48.5" y1="1066.5" x2="59.5" y2="1066.5" />
    <line stroke="#0000ff" stroke-width="1" stroke-linecap="round" stroke-linejoin="round" x1="48.5" y1="1007.5" x2="59.5" y2="1007.5" />
    <line stroke="#0000ff" stroke-width="1" stroke-linecap="round" stroke-linejoin="round" x1="48.5" y1="948.5" x2="59.5" y2="948.5" />
    <line stroke="#0000ff" stroke-width="1" stroke-linecap="round" stroke-linejoin="round" x1="48.5" y1="888.5" x2="59.5" y2="888.5" />
    <line stroke="#0000ff" stroke-width="1" stroke-linecap="round" stroke-linejoin="round" x1="48.5" y1="829.5" x2="59.5" y2="829.5" />
    <line stroke="#0000ff" stroke-width="1" stroke-linecap="round" stroke-linejoin="round" x1="48.5" y1="770.5" x2="59.5" y2="770.5" />
    <line stroke="#0000ff" stroke-width="1" stroke-linecap="round" stroke-linejoin="round" x1="48.5" y1="711.5" x2="59.5" y2="711.5" />
    <line stroke="#0000ff" stroke-width="1" stroke-linecap="round" stroke-linejoin="round" x1="48.5" y1="651.5" x2="59.5" y2="651.5" />
    <line stroke="#0000ff" stroke-width="1" stroke-linecap="round" stroke-linejoin="round" x1="48.5" y1="592.5" x2="59.5" y2="592.5" />
    <line stroke="#0000ff" stroke-width="1" stroke-linecap="round" stroke-linejoin="round" x1="48.5" y1="533.5" x2="59.5" y2="533.5" />
    <line stroke="#0000ff" stroke-width="1" stroke-linecap="round" stroke-linejoin="round" x1="48.5" y1="474.5" x2="59.5" y2="474.5" />
    <line stroke="#0000ff" stroke-width="1" stroke-linecap="round" stroke-linejoin="round" x1="48.5" y1="415.5" x2="59.5" y2="415.5" />
    <line stroke="#0000ff" stroke-width="1" stroke-linecap="round" stroke-linejoin="round" x1="48.5" y1="355.5" x2="59.5" y2="355.5" />
    <line stroke="#0000ff" stroke-width="1" stroke-linecap="round" stroke-linejoin="round" x1="48.5" y1="296.5" x2="59.5" y2="296.5" />
    <line stroke="#0000ff" stroke-width="1" stroke-linecap="round" stroke-linejoin="round" x1="48.5" y1="237.5" x2="59.5" y2="237.5" />
    <line stroke="#0000ff" stroke-width="1" stroke-linecap="round" stroke-linejoin="round" x1="48.5" y1="178.5" x2="59.5" y2="178.5" />
    <line stroke="#0000ff" stroke-width="1" stroke-linecap="round" stroke-linejoin="round" x1="48.5" y1="118.5" x2="59.5" y2="118.5" />
    <line stroke="#0000ff" stroke-width="1" stroke-linecap="round" stroke-linejoin="round" x1="48.5" y1="59.5" x2="59.5" y2="59.5" />
    <polyline stroke="#000000" stroke-width="3" stroke-linecap="butt" stroke-linejoin="bevel" fill="none" points="653,1244 654,1244 655,1244 656,1244 657,1244 658,1244 659,1244 660,1244 661,1244 662,1244 663,1244 664,1244 665,1244 666,1244 667,1244 668,1244 669,1244 670,1243 671,1243 672,1243 673,1243 674,1243 675,1243 676,1243 677,1243 678,1243 679,1243 680,1243 681,1243 682,1243 683,1243 684,1243 685,1243 686,1243 687,1243 688,1243 689,1243 690,1242 691,1242 692,1242 693,1242 694,1242 695,1242 696,1242 697,1242 698,1242 699,1242 700,1242 701,1242 702,1241 703,1241 704,1241 705,1241 706,1241 707,1241 708,1241 709,1241 710,1241 711,1241 712,1240 713,1240 714,1240 715,1240 716,1240 717,1240 718,1240 719,1240 720,1240 721,1239 722,1239 723,1239 724,1239 725,1239 726,1239 727,1239 728,1238 729,1238 730,1238 731,1238 732,1238 733,1238 734,1238 735,1237 736,1237 737,1237 738,1237 739,1237 740,1237 741,1236 742,1236 743,1236 744,1236 745,1236 746,1236 747,1235 748,1235 749,1235 750,1235 751,1235 752,1234 753,1234 754,1234 755,1234 756,1234 757,1233 758,1233 759,1233 760,1233 761,1233 762,1232 763,1232 764,1232 765,1232 766,1232 767,1231 768,1231 769,1231 770,1231 771,1231 772,1230 773,1230 774,1230 775,1230 776,1229 777,1229 778,1229 779,1229 780,1228 781,1228 782,1228 783,1228 784,1227 785,1227 786,1227 787,1227 788,1226 789,1226 790,1226 791,1226 792,1225 793,1225 794,1225 795,1225 796,1224 797,1224 798,1224 799,1223 800,1223 801,1223 802,1223 803,1222 804,1222 805,1222 806,1222 807,1221 808,1221 809,1221 810,1220 811,1220 812,1220 813,1219 814,1219 815,1219 816,1219 817,1218 818,1218 819,1218 820,1217 821,1217 822,1217 823,1216 824,1216 825,1216 826,1215 827,1215 828,1215 829,1214 830,1214 831,1214 832,1213 833,1213 834,1213 835,1212 836,1212 837,1212 838,1211 839,1211 840,1211 841,1210 842,1210 843,1209 844,1209 845,1209 846,1208 847,1208 848,1208 849,1207 850,1207 851,1206 852,1206 853,1206 854,1205 855,1205 856,1205 857,1204 858,1204 859,1203 860,1203 861,1203 862,1202 863,1202 864,1201 865,1201 866,1201 867,1200 868,1200 869,1199 870,1199 871,1199 872,1198 873,1198 874,1197 875,1197 876,1196 877,1196 878,1196 879,1195 880,1195 881,1194 882,1194 883,1193 884,1193 885,1193 886,1192 887,1192 888,1191 889,1191 890,1190 891,1190 892,1189 893,1189 894,1189 895,1188 896,1188 897,1187 898,1187 899,1186 900,1186 901,1185 902,1185 903,1184 904,1184 905,1183 906,1183 907,1182 908,1182 909,1181 910,1181 911,1180 912,1180 913,1179 914,1179 915,1178 916,1178 917,1177 918,1177 919,1176 920,1176 921,1175 922,1175 923,1174 924,1174 925,1173 926,1173 927,1172 928,1172 929,1171 930,1171 931,1170 932,1170 933,1169 934,1169 935,1168 936,1168 937,1167 938,1167 939,1166 940,1165 941,1165 942,1164 943,1164 944,1163 945,1163 946,1162 947,1162 948,1161 949,1160 950,1160 951,1159 952,1159 953,1158 954,1158 955,1157 956,1156 957,1156 958,1155 959,1155 960,1154 961,1154 962,1153 963,1152 964,1152 965,1151 966,1151 967,1150 968,1149 969,1149 970,1148 971,1148 972,1147 973,1146 974,1146 975,1145 976,1145 977,1144 978,1143 979,1143 980,1142 981,1141 982,1141 983,1140 984,1140 985,1139 986,1138 987,1138 988,1137 989,1136 990,1136 991,1135 992,1134 993,1134 994,1133 995,1133 996,1132 997,1131 998,1131 999,1130 1000,1129 1001,1129 1002,1128 1003,1127 1004,1127 1005,1126 1006,1125 1007,1125 1008,1124 1009,1123 1010,1123 1011,1122 1012,1121 1013,1121 1014,1120 1015,1119 1016,1118 1017,1118 1018,1117 1019,1116 1020,1116 1021,1115 1022,1114 1023,1114 1024,1113 1025,1112 1026,1111 1027,1111 1028,1110 1029,1109 1030,1109 1031,1108 1032,1107 1033,1106 1034,1106 1035,1105 1036,1104 1037,1104 1038,1103 1039,1102 1040,1101 1041,1101 1042,1100 1043,1099 1044,1098 1045,1098 1046,1097 1047,1096 1048,1095 1049,1095 1050,1094 1051,1093 1052,1092 1053,1092 1054,1091 1055,1090 1056,1089 1057,1089 1058,1088 1059,1087 1060,1086 1061,1085 1062,1085 1063,1084 1064,1083 1065,1082 1066,1082 1067,1081 1068,1080 1069,1079 1070,1078 1071,1078 1072,1077 1073,1076 1074,1075 1075,1074 1076,1074 1077,1073 1078,1072 1079,1071 1080,1070 1081,1070 1082,1069 1083,1068 1084,1067 1085,1066 1086,1065 1087,1065 1088,1064 1089,1063 1090,1062 1091,1061 1092,1060 1093,1060 1094,1059 1095,1058 1096,1057 1097,1056 1098,1055 1099,1055 1100,1054 1101,1053 1102,1052 1103,1051 1104,1050 1105,1049 1106,1049 1107,1048 1108,1047 1109,1046 1110,1045 1111,1044 1112,1043 1113,1043 1114,1042 1115,1041 1116,1040 1117,1039 1118,1038 1119,1037 1120,1036 1121,1035 1122,1035 1123,1034 1124,1033 1125,1032 1126,1031 1127,1030 1128,1029 1129,1028 1130,1027 1131,1026 1132,1026 1133,1025 1134,1024 1135,1023 1136,1022 1137,1021 1138,1020 1139,1019 1140,1018 1141,1017 1142,1016 1143,1015 1144,1014 1145,1014 1146,1013 1147,1012 1148,1011 1149,1010 1150,1009 1151,1008 1152,1007 1153,1006 1154,1005 1155,1004 1156,1003 1157,1002 1158,1001 1159,1000 1160,999 1161,998 1162,997 1163,996 1164,995 1165,994 1166,993 1167,992 1168,992 1169,991 1170,990 1171,989 1172,988 1173,987 1174,986 1175,985 1176,984 1177,983 1178,982 1179,981 1180,980 1181,979 1182,978 1183,977 1184,976 1185,975 1186,974 1187,973 1188,972 1189,971 1190,969 1191,968 1192,967 1193,966 1194,965 1195,964 1196,963 1197,962 1198,962 " />
    <polyline stroke="#ff0000" stroke-width="3" stroke-linecap="butt" stroke-linejoin="bevel" fill="none" points="1198,962 1199,961 1200,960 1201,959 1202,958 1203,957 1204,956 1205,954 1206,953 1207,952 1208,951 1209,950 1210,949 1211,948 1212,947 1213,946 1214,945 1215,944 1216,943 1217,942 1218,941 1219,940 1220,939 1221,938 1222,937 1223,936 1224,935 1225,934 1226,933 1227,932 1228,931 1229,930 1230,929 1231,928 1232,927 1233,925 1234,924 1235,923 1236,922 1237,921 1238,920 1239,919 1240,918 1241,917 1242,916 1243,915 1244,914 1245,913 1246,912 1247,911 1248,910 1249,909 1250,908 1251,907 1252,906 1253,905 1254,904 1255,903 1256,902 1257,901 1258,900 1259,899 1260,898 1261,896 1262,895 1263,894 1264,893 1265,892 1266,891 1267,890 1268,889 1269,888 1270,887 1271,886 1272,885 1273,884 1274,883 1275,882 1276,881 1277,880 1278,879 1279,878 1280,877 1281,876 1282,875 1283,874 1284,873 1285,872 1286,871 1287,870 1288,869 1289,867 1290,866 1291,865 1292,864 1293,863 1294,862 1295,861 1296,860 1297,859 1298,858 1299,857 1300,856 1301,855 1302,854 1303,853 1304,852 1305,851 1306,850 1307,849 1308,848 1309,847 1310,846 1311,845 1312,844 1313,843 1314,842 1315,841 1316,840 1317,838 1318,837 1319,836 1320,835 1321,834 1322,833 1323,832 1324,831 1325,830 1326,829 1327,828 1328,827 1329,826 1330,825 1331,824 1332,823 1333,822 1334,821 1335,820 1336,819 1337,818 1338,817 1339,816 1340,815 1341,814 1342,813 1343,812 1344,811 1345,809 1346,808 1347,807 1348,806 1349,805 1350,804 1351,803 1352,802 1353,801 1354,800 1355,799 1356,798 1357,797 1358,796 1359,795 1360,794 1361,793 1362,792 1363,791 1364,790 1365,789 1366,788 1367,787 1368,786 1369,785 1370,784 1371,783 1372,781 1373,780 1374,779 1375,778 1376,777 1377,776 1378,775 1379,774 1380,773 1381,772 1382,771 1383,770 1384,769 1385,768 1386,767 1387,766 1388,765 1389,764 1390,763 1391,762 1392,761 1393,760 1394,759 1395,758 1396,757 1397,756 1398,755 1399,754 1400,752 1401,751 1402,750 1403,749 1404,748 1405,747 1406,746 1407,745 1408,744 1409,743 1410,742 1411,741 1412,740 1413,739 1414,738 1415,737 1416,736 1417,735 1418,734 1419,733 1420,732 1421,731 1422,730 1423,729 1424,728 1425,727 1426,726 1427,725 1428,723 1429,722 1430,721 1431,720 1432,719 1433,718 1434,717 1435,716 1436,715 1437,714 1438,713 1439,712 1440,711 1441,710 1442,709 1443,708 1444,707 1445,706 1446,705 1447,704 1448,703 1449,702 1450,701 1451,700 1452,699 1453,698 1454,697 1455,696 1456,694 1457,693 1458,692 1459,691 1460,690 1461,689 1462,688 1463,687 1464,686 1465,685 1466,684 1467,683 1468,682 1469,681 1470,680 1471,679 1472,678 1473,677 1474,676 1475,675 1476,674 1477,673 1478,672 1479,671 1480,670 1481,669 1482,668 1483,667 1484,665 1485,664 1486,663 1487,662 1488,661 1489,660 1490,659 1491,658 1492,657 1493,656 1494,655 1495,654 1496,653 1497,652 1498,651 1499,650 1500,649 1501,648 1502,647 1503,646 1504,645 1505,644 1506,643 1507,642 1508,641 1509,640 1510,639 1511,638 1512,636 1513,635 1514,634 1515,633 1516,632 1517,631 1518,630 1519,629 1520,628 1521,627 1522,626 1523,625 1524,624 1525,623 1526,622 1527,621 1528,620 1529,619 1530,618 1531,617 1532,616 1533,615 1534,614 1535,613 1536,612 1537,611 1538,610 1539,609 1540,607 1541,606 1542,605 1543,604 1544,603 1545,602 1546,601 1547,600 1548,599 1549,598 1550,597 1551,596 1552,595 1553,594 1554,593 1555,592 1556,591 1557,590 1558,589 1559,588 1560,587 1561,586 1562,585 1563,584 1564,583 1565,582 1566,581 1567,580 1568,578 1569,577 1570,576 1571,575 1572,574 1573,573 1574,572 1575,571 1576,570 1577,569 1578,568 1579,567 1580,566 1581,565 1582,564 1583,563 1584,562 1585,561 1586,560 1587,559 1588,558 1589,557 1590,556 1591,555 1592,554 1593,553 1594,552 1595,551 1596,549 1597,548 1598,547 1599,546 1600,545 1601,544 1602,543 1603,542 1604,541 1605,540 1606,539 1607,538 1608,537 1609,536 1610,535 1611,534 1612,533 1613,532 1614,531 1615,530 1616,529 1617,528 1618,527 1619,526 1620,525 1621,524 1622,523 1623,522 1624,520 1625,519 1626,518 1627,517 1628,516 1629,515 1630,514 1631,513 1632,512 1633,511 1634,510 1635,509 1636,508 1637,507 1638,506 1639,505 1640,504 1641,503 1642,502 1643,501 1644,500 1645,499 1646,498 1647,497 1648,496 1649,495 1650,494 1651,492 1652,491 1653,490 1654,489 1655,488 1656,487 1657,486 1658,485 1659,484 1660,483 1661,482 1662,481 1663,480 1664,479 1665,478 1666,477 1667,476 1668,475 1669,474 1670,473 1671,472 1672,471 1673,470 1674,469 1675,468 1676,467 1677,466 1678,465 1679,463 1680,462 1681,461 1682,460 1683,459 1684,458 1685,457 1686,456 1687,455 1688,454 1689,453 1690,452 1691,451 1692,450 1693,449 1694,448 1695,447 1696,446 1697,445 1698,444 1699,443 1700,442 1701,441 1702,440 1703,439 1704,438 1705,437 1706,436 1707,434 1708,433 1709,432 1710,431 1711,430 1712,429 1713,428 1714,427 1715,426 1716,425 1717,424 1718,423 1719,422 1720,421 1721,420 1722,419 1723,418 1724,417 1725,416 1726,415 1727,414 1728,413 1729,412 1730,411 1731,410 1732,409 1733,408 1734,407 1735,405 1736,404 1737,403 1738,402 1739,401 1740,400 1741,399 1742,398 1743,397 1744,396 1745,395 1746,394 1747,393 1748,392 1749,391 1750,390 1751,389 1752,388 1753,387 1754,386 1755,385 1756,384 1757,383 1758,382 1759,381 1760,380 1761,379 1762,378 1763,376 1764,375 1765,374 1766,373 1767,372 1768,371 1769,370 1770,369 1771,368 1772,367 1773,366 1774,365 1775,364 1776,363 1777,362 1778,361 1779,360 1780,359 1781,358 1782,357 1783,356 1784,355 1785,354 1786,353 1787,352 1788,351 1789,350 1790,349 1791,347 1792,346 1793,345 1794,344 1795,343 1796,342 1797,341 " />
    <polyline stroke="#000000" stroke-width="3" stroke-linecap="butt" stroke-linejoin="bevel" fill="none" points="1797,341 1798,340 1799,339 1800,338 1801,337 1802,336 1803,335 1804,334 1805,333 1806,332 1807,331 1808,330 1809,329 1810,328 1811,327 1812,326 1813,325 1814,324 1815,323 1816,322 1817,321 1818,320 1819,319 1820,318 1821,317 1822,316 1823,315 1824,314 1825,313 1826,312 1827,311 1828,310 1829,309 1830,308 1831,307 1832,306 1833,305 1834,304 1835,303 1836,302 1837,301 1838,300 1839,299 1840,298 1841,298 1842,297 1843,296 1844,295 1845,294 1846,293 1847,292 1848,291 1849,290 1850,289 1851,288 1852,287 1853,286 1854,285 1855,284 1856,283 1857,283 1858,282 1859,281 1860,280 1861,279 1862,278 1863,277 1864,276 1865,275 1866,274 1867,273 1868,273 1869,272 1870,271 1871,270 1872,269 1873,268 1874,267 1875,266 1876,265 1877,264 1878,264 1879,263 1880,262 1881,261 1882,260 1883,259 1884,258 1885,257 1886,257 1887,256 1888,255 1889,254 1890,253 1891,252 1892,251 1893,251 1894,250 1895,249 1896,248 1897,247 1898,246 1899,246 1900,245 1901,244 1902,243 1903,242 1904,241 1905,240 1906,240 1907,239 1908,238 1909,237 1910,236 1911,236 1912,235 1913,234 1914,233 1915,232 1916,231 1917,231 1918,230 1919,229 1920,228 1921,227 1922,227 1923,226 1924,225 1925,224 1926,223 1927,223 1928,222 1929,221 1930,220 1931,220 1932,219 1933,218 1934,217 1935,216 1936,216 1937,215 1938,214 1939,213 1940,213 1941,212 1942,211 1943,210 1944,210 1945,209 1946,208 1947,207 1948,207 1949,206 1950,205 1951,204 1952,204 1953,203 1954,202 1955,201 1956,201 1957,200 1958,199 1959,198 1960,198 1961,197 1962,196 1963,196 1964,195 1965,194 1966,193 1967,193 1968,192 1969,191 1970,191 1971,190 1972,189 1973,188 1974,188 1975,187 1976,186 1977,186 1978,185 1979,184 1980,184 1981,183 1982,182 1983,181 1984,181 1985,180 1986,179 1987,179 1988,178 1989,177 1990,177 1991,176 1992,175 1993,175 1994,174 1995,173 1996,173 1997,172 1998,171 1999,171 2000,170 2001,170 2002,169 2003,168 2004,168 2005,167 2006,166 2007,166 2008,165 2009,164 2010,164 2011,163 2012,163 2013,162 2014,161 2015,161 2016,160 2017,159 2018,159 2019,158 2020,158 2021,157 2022,156 2023,156 2024,155 2025,155 2026,154 2027,153 2028,153 2029,152 2030,152 2031,151 2032,150 2033,150 2034,149 2035,149 2036,148 2037,147 2038,147 2039,146 2040,146 2041,145 2042,145 2043,144 2044,143 2045,143 2046,142 2047,142 2048,141 2049,141 2050,140 2051,140 2052,139 2053,138 2054,138 2055,137 2056,137 2057,136 2058,136 2059,135 2060,135 2061,134 2062,134 2063,133 2064,132 2065,132 2066,131 2067,131 2068,130 2069,130 2070,129 2071,129 2072,128 2073,128 2074,127 2075,127 2076,126 2077,126 2078,125 2079,125 2080,124 2081,124 2082,123 2083,123 2084,122 2085,122 2086,121 2087,121 2088,120 2089,120 2090,119 2091,119 2092,118 2093,118 2094,118 2095,117 2096,117 2097,116 2098,116 2099,115 2100,115 2101,114 2102,114 2103,113 2104,113 2105,112 2106,112 2107,112 2108,111 2109,111 2110,110 2111,110 2112,109 2113,109 2114,108 2115,108 2116,108 2117,107 2118,107 2119,106 2120,106 2121,105 2122,105 2123,105 2124,104 2125,104 2126,103 2127,103 2128,103 2129,102 2130,102 2131,101 2132,101 2133,101 2134,100 2135,100 2136,99 2137,99 2138,99 2139,98 2140,98 2141,97 2142,97 2143,97 2144,96 2145,96 2146,96 2147,95 2148,95 2149,94 2150,94 2151,94 2152,93 2153,93 2154,93 2155,92 2156,92 2157,92 2158,91 2159,91 2160,91 2161,90 2162,90 2163,90 2164,89 2165,89 2166,89 2167,88 2168,88 2169,88 2170,87 2171,87 2172,87 2173,86 2174,86 2175,86 2176,85 2177,85 2178,85 2179,84 2180,84 2181,84 2182,83 2183,83 2184,83 2185,83 2186,82 2187,82 2188,82 2189,81 2190,81 2191,81 2192,80 2193,80 2194,80 2195,80 2196,79 2197,79 2198,79 2199,79 2200,78 2201,78 2202,78 2203,77 2204,77 2205,77 2206,77 2207,76 2208,76 2209,76 2210,76 2211,75 2212,75 2213,75 2214,75 2215,74 2216,74 2217,74 2218,74 2219,74 2220,73 2221,73 2222,73 2223,73 2224,72 2225,72 2226,72 2227,72 2228,71 2229,71 2230,71 2231,71 2232,71 2233,70 2234,70 2235,70 2236,70 2237,70 2238,69 2239,69 2240,69 2241,69 2242,69 2243,68 2244,68 2245,68 2246,68 2247,68 2248,68 2249,67 2250,67 2251,67 2252,67 2253,67 2254,67 2255,66 2256,66 2257,66 2258,66 2259,66 2260,66 2261,65 2262,65 2263,65 2264,65 2265,65 2266,65 2267,65 2268,64 2269,64 2270,64 2271,64 2272,64 2273,64 2274,64 2275,63 2276,63 2277,63 2278,63 2279,63 2280,63 2281,63 2282,63 2283,62 2284,62 2285,62 2286,62 2287,62 2288,62 2289,62 2290,62 2291,62 2292,62 2293,61 2294,61 2295,61 2296,61 2297,61 2298,61 2299,61 2300,61 2301,61 2302,61 2303,61 2304,61 2305,60 2306,60 2307,60 2308,60 2309,60 2310,60 2311,60 2312,60 2313,60 2314,60 2315,60 2316,60 2317,60 2318,60 2319,60 2320,60 2321,60 2322,60 2323,60 2324,60 2325,59 2326,59 2327,59 2328,59 2329,59 2330,59 2331,59 2332,59 2333,59 2334,59 2335,59 2336,59 2337,59 2338,59 2339,59 2340,59 2341,59 2342,59 " />
  </g>
</svg>
