<?xml version="1.0" encoding="UTF-8"?>
<!DOCTYPE svg PUBLIC "-//W3C//DTD SVG 1.1//EN" "http://www.w3.org/Graphics/SVG/1.1/DTD/svg11.dtd">
<svg width="2396px" height="1303px" viewBox="0 0 2396 1303" version="1.1" xmlns="http://www.w3.org/2000/svg" xmlns:xlink="http://www.w3.org/1999/xlink">
  <g>
    <line stroke="#9999ff" stroke-width="1" stroke-dasharray="1,10" stroke-linecap="round" stroke-linejoin="round" x1="109.5" y1="0.5" x2="109.5" y2="1302.5" />
    <line stroke="#9999ff" stroke-width="1" stroke-dasharray="1,10" stroke-linecap="round" stroke-linejoin="round" x1="163.5" y1="0.5" x2="163.5" y2="1302.5" />
    <line stroke="#9999ff" stroke-width="1" stroke-dasharray="1,10" stroke-linecap="round" stroke-linejoin="round" x1="218.5" y1="0.5" x2="218.5" y2="1302.5" />
    <line stroke="#9999ff" stroke-width="1" stroke-dasharray="1,10" stroke-linecap="round" stroke-linejoin="round" x1="272.5" y1="0.5" x2="272.5" y2="1302.5" />
    <line stroke="#9999ff" stroke-width="1" stroke-dasharray="1,10" stroke-linecap="round" stroke-linejoin="round" x1="327.5" y1="0.5" x2="327.5" y2="1302.5" />
    <line stroke="#9999ff" stroke-width="1" stroke-dasharray="1,10" stroke-linecap="round" stroke-linejoin="round" x1="381.5" y1="0.5" x2="381.5" y2="1302.5" />
    <line stroke="#9999ff" stroke-width="1" stroke-dasharray="1,10" stroke-linecap="round" stroke-linejoin="round" x1="436.5" y1="0.5" x2="436.5" y2="1302.5" />
    <line stroke="#9999ff" stroke-width="1" stroke-dasharray="1,10" stroke-linecap="round" stroke-linejoin="round" x1="490.5" y1="0.5" x2="490.5" y2="1302.5" />
    <line stroke="#9999ff" stroke-width="1" stroke-dasharray="1,10" stroke-linecap="round" stroke-linejoin="round" x1="545.5" y1="0.5" x2="545.5" y2="1302.5" />
    <line stroke="#9999ff" stroke-width="1" stroke-dasharray="1,10" stroke-linecap="round" stroke-linejoin="round" x1="599.5" y1="0.5" x2="599.5" y2="1302.5" />
    <line stroke="#9999ff" stroke-width="1" stroke-dasharray="1,10" stroke-linecap="round" stroke-linejoin="round" x1="653.5" y1="0.5" x2="653.5" y2="1302.5" />
    <line stroke="#9999ff" stroke-width="1" stroke-dasharray="1,10" stroke-linecap="round" stroke-linejoin="round" x1="708.5" y1="0.5" x2="708.5" y2="1302.5" />
    <line stroke="#9999ff" stroke-width="1" stroke-dasharray="1,10" stroke-linecap="round" stroke-linejoin="round" x1="762.5" y1="0.5" x2="762.5" y2="1302.5" />
    <line stroke="#9999ff" stroke-width="1" stroke-dasharray="1,10" stroke-linecap="round" stroke-linejoin="round" x1="817.5" y1="0.5" x2="817.5" y2="1302.5" />
    <line stroke="#9999ff" stroke-width="1" stroke-dasharray="1,10" stroke-linecap="round" stroke-linejoin="round" x1="871.5" y1="0.5" x2="871.5" y2="1302.5" />
    <line stroke="#9999ff" stroke-width="1" stroke-dasharray="1,10" stroke-linecap="round" stroke-linejoin="round" x1="926.5" y1="0.5" x2="926.5" y2="1302.5" />
    <line stroke="#9999ff" stroke-width="1" stroke-dasharray="1,10" stroke-linecap="round" stroke-linejoin="round" x1="980.5" y1="0.5" x2="980.5" y2="1302.5" />
    <line stroke="#9999ff" stroke-width="1" stroke-dasharray="1,10" stroke-linecap="round" stroke-linejoin="round" x1="1035.5" y1="0.5" x2="1035.5" y2="1302.5" />
    <line stroke="#9999ff" stroke-width="1" stroke-dasharray="1,10" stroke-linecap="round" stroke-linejoin="round" x1="1089.5" y1="0.5" x2="1089.5" y2="1302.5" />
    <line stroke="#9999ff" stroke-width="1" stroke-dasharray="1,10" stroke-linecap="round" stroke-linejoin="round" x1="1144.5" y1="0.5" x2="1144.5" y2="1302.5" />
    <line stroke="#9999ff" stroke-width="1" stroke-dasharray="1,10" stroke-linecap="round" stroke-linejoin="round" x1="1198.5" y1="0.5" x2="1198.5" y2="1302.5" />
    <line stroke="#9999ff" stroke-width="1" stroke-dasharray="1,10" stroke-linecap="round" stroke-linejoin="round" x1="1252.5" y1="0.5" x2="1252.5" y2="1302.5" />
    <line stroke="#9999ff" stroke-width="1" stroke-dasharray="1,10" stroke-linecap="round" stroke-linejoin="round" x1="1307.5" y1="0.5" x2="1307.5" y2="1302.5" />
    <line stroke="#9999ff" stroke-width="1" stroke-dasharray="1,10" stroke-linecap="round" stroke-linejoin="round" x1="1361.5" y1="0.5" x2="1361.5" y2="1302.5" />
    <line stroke="#9999ff" stroke-width="1" stroke-dasharray="1,10" stroke-linecap="round" stroke-linejoin="round" x1="1416.5" y1="0.5" x2="1416.5" y2="1302.5" />
    <line stroke="#9999ff" stroke-width="1" stroke-dasharray="1,10" stroke-linecap="round" stroke-linejoin="round" x1="1470.5" y1="0.5" x2="1470.5" y2="1302.5" />
    <line stroke="#9999ff" stroke-width="1" stroke-dasharray="1,10" stroke-linecap="round" stroke-linejoin="round" x1="1525.5" y1="0.5" x2="1525.5" y2="1302.5" />
    <line stroke="#9999ff" stroke-width="1" stroke-dasharray="1,10" stroke-linecap="round" stroke-linejoin="round" x1="1579.5" y1="0.5" x2="1579.5" y2="1302.5" />
    <line stroke="#9999ff" stroke-width="1" stroke-dasharray="1,10" stroke-linecap="round" stroke-linejoin="round" x1="1634.5" y1="0.5" x2="1634.5" y2="1302.5" />
    <line stroke="#9999ff" stroke-width="1" stroke-dasharray="1,10" stroke-linecap="round" stroke-linejoin="round" x1="1688.5" y1="0.5" x2="1688.5" y2="1302.5" />
    <line stroke="#9999ff" stroke-width="1" stroke-dasharray="1,10" stroke-linecap="round" stroke-linejoin="round" x1="1743.5" y1="0.5" x2="1743.5" y2="1302.5" />
    <line stroke="#9999ff" stroke-width="1" stroke-dasharray="1,10" stroke-linecap="round" stroke-linejoin="round" x1="1797.5" y1="0.5" x2="1797.5" y2="1302.5" />
    <line stroke="#9999ff" stroke-width="1" stroke-dasharray="1,10" stroke-linecap="round" stroke-linejoin="round" x1="1851.5" y1="0.5" x2="1851.5" y2="1302.5" />
    <line stroke="#9999ff" stroke-width="1" stroke-dasharray="1,10" stroke-linecap="round" stroke-linejoin="round" x1="1906.5" y1="0.5" x2="1906.5" y2="1302.5" />
    <line stroke="#9999ff" stroke-width="1" stroke-dasharray="1,10" stroke-linecap="round" stroke-linejoin="round" x1="1960.5" y1="0.5" x2="1960.5" y2="1302.5" />
    <line stroke="#9999ff" stroke-width="1" stroke-dasharray="1,10" stroke-linecap="round" stroke-linejoin="round" x1="2015.5" y1="0.5" x2="2015.5" y2="1302.5" />
    <line stroke="#9999ff" stroke-width="1" stroke-dasharray="1,10" stroke-linecap="round" stroke-linejoin="round" x1="2069.5" y1="0.5" x2="2069.5" y2="1302.5" />
    <line stroke="#9999ff" stroke-width="1" stroke-dasharray="1,10" stroke-linecap="round" stroke-linejoin="round" x1="2124.5" y1="0.5" x2="2124.5" y2="1302.5" />
    <line stroke="#9999ff" stroke-width="1" stroke-dasharray="1,10" stroke-linecap="round" stroke-linejoin="round" x1="2178.5" y1="0.5" x2="2178.5" y2="1302.5" />
    <line stroke="#9999ff" stroke-width="1" stroke-dasharray="1,10" stroke-linecap="round" stroke-linejoin="round" x1="2233.5" y1="0.5" x2="2233.5" y2="1302.5" />
    <line stroke="#9999ff" stroke-width="1" stroke-dasharray="1,10" stroke-linecap="round" stroke-linejoin="round" x1="2287.5" y1="0.5" x2="2287.5" y2="1302.5" />
    <line stroke="#9999ff" stroke-width="1" stroke-dasharray="1,10" stroke-linecap="round" stroke-linejoin="round" x1="2342.5" y1="0.5" x2="2342.5" y2="1302.5" />
    <line stroke="#9999ff" stroke-width="1" stroke-dasharray="1,10" stroke-linecap="round" stroke-linejoin="round" x1="0.5" y1="1265.5" x2="2395.5" y2="1265.5" />
    <line stroke="#9999ff" stroke-width="1" stroke-dasharray="1,10" stroke-linecap="round" stroke-linejoin="round" x1="0.5" y1="1111.5" x2="2395.5" y2="1111.5" />
    <line stroke="#9999ff" stroke-width="1" stroke-dasharray="1,10" stroke-linecap="round" stroke-linejoin="round" x1="0.5" y1="1035.5" x2="2395.5" y2="1035.5" />
    <line stroke="#9999ff" stroke-width="1" stroke-dasharray="1,10" stroke-linecap="round" stroke-linejoin="round" x1="0.5" y1="958.5" x2="2395.5" y2="958.5" />
    <line stroke="#9999ff" stroke-width="1" stroke-dasharray="1,10" stroke-linecap="round" stroke-linejoin="round" x1="0.5" y1="881.5" x2="2395.5" y2="881.5" />
    <line stroke="#9999ff" stroke-width="1" stroke-dasharray="1,10" stroke-linecap="round" stroke-linejoin="round" x1="0.5" y1="805.5" x2="2395.5" y2="805.5" />
    <line stroke="#9999ff" stroke-width="1" stroke-dasharray="1,10" stroke-linecap="round" stroke-linejoin="round" x1="0.5" y1="728.5" x2="2395.5" y2="728.5" />
    <line stroke="#9999ff" stroke-width="1" stroke-dasharray="1,10" stroke-linecap="round" stroke-linejoin="round" x1="0.5" y1="651.5" x2="2395.5" y2="651.5" />
    <line stroke="#9999ff" stroke-width="1" stroke-dasharray="1,10" stroke-linecap="round" stroke-linejoin="round" x1="0.5" y1="575.5" x2="2395.5" y2="575.5" />
    <line stroke="#9999ff" stroke-width="1" stroke-dasharray="1,10" stroke-linecap="round" stroke-linejoin="round" x1="0.5" y1="498.5" x2="2395.5" y2="498.5" />
    <line stroke="#9999ff" stroke-width="1" stroke-dasharray="1,10" stroke-linecap="round" stroke-linejoin="round" x1="0.5" y1="422.5" x2="2395.5" y2="422.5" />
    <line stroke="#9999ff" stroke-width="1" stroke-dasharray="1,10" stroke-linecap="round" stroke-linejoin="round" x1="0.5" y1="345.5" x2="2395.5" y2="345.5" />
    <line stroke="#9999ff" stroke-width="1" stroke-dasharray="1,10" stroke-linecap="round" stroke-linejoin="round" x1="0.5" y1="268.5" x2="2395.5" y2="268.5" />
    <line stroke="#9999ff" stroke-width="1" stroke-dasharray="1,10" stroke-linecap="round" stroke-linejoin="round" x1="0.5" y1="192.5" x2="2395.5" y2="192.5" />
    <line stroke="#9999ff" stroke-width="1" stroke-dasharray="1,10" stroke-linecap="round" stroke-linejoin="round" x1="0.5" y1="115.5" x2="2395.5" y2="115.5" />
    <line stroke="#9999ff" stroke-width="1" stroke-dasharray="1,10" stroke-linecap="round" stroke-linejoin="round" x1="0.5" y1="38.5" x2="2395.5" y2="38.5" />
    <text x="106" y="1205" font-family="Times New Roman" font-size="13" fill="#000000">1</text>
    <text x="160" y="1205" font-family="Times New Roman" font-size="13" fill="#000000">2</text>
    <text x="215" y="1205" font-family="Times New Roman" font-size="13" fill="#000000">3</text>
    <text x="269" y="1205" font-family="Times New Roman" font-size="13" fill="#000000">4</text>
    <text x="324" y="1205" font-family="Times New Roman" font-size="13" fill="#000000">5</text>
    <text x="378" y="1205" font-family="Times New Roman" font-size="13" fill="#000000">6</text>
    <text x="433" y="1205" font-family="Times New Roman" font-size="13" fill="#000000">7</text>
    <text x="487" y="1205" font-family="Times New Roman" font-size="13" fill="#000000">8</text>
    <text x="542" y="1205" font-family="Times New Roman" font-size="13" fill="#000000">9</text>
    <text x="593" y="1205" font-family="Times New Roman" font-size="13" fill="#000000">10</text>
    <text x="647" y="1205" font-family="Times New Roman" font-size="13" fill="#000000">11</text>
    <text x="702" y="1205" font-family="Times New Roman" font-size="13" fill="#000000">12</text>
    <text x="756" y="1205" font-family="Times New Roman" font-size="13" fill="#000000">13</text>
    <text x="811" y="1205" font-family="Times New Roman" font-size="13" fill="#000000">14</text>
    <text x="865" y="1205" font-family="Times New Roman" font-size="13" fill="#000000">15</text>
    <text x="920" y="1205" font-family="Times New Roman" font-size="13" fill="#000000">16</text>
    <text x="974" y="1205" font-family="Times New Roman" font-size="13" fill="#000000">17</text>
    <text x="1029" y="1205" font-family="Times New Roman" font-size="13" fill="#000000">18</text>
    <text x="1083" y="1205" font-family="Times New Roman" font-size="13" fill="#000000">19</text>
    <text x="1138" y="1205" font-family="Times New Roman" font-size="13" fill="#000000">20</text>
    <text x="1192" y="1205" font-family="Times New Roman" font-size="13" fill="#000000">21</text>
    <text x="1246" y="1205" font-family="Times New Roman" font-size="13" fill="#000000">22</text>
    <text x="1301" y="1205" font-family="Times New Roman" font-size="13" fill="#000000">23</text>
    <text x="1355" y="1205" font-family="Times New Roman" font-size="13" fill="#000000">24</text>
    <text x="1410" y="1205" font-family="Times New Roman" font-size="13" fill="#000000">25</text>
    <text x="1464" y="1205" font-family="Times New Roman" font-size="13" fill="#000000">26</text>
    <text x="1519" y="1205" font-family="Times New Roman" font-size="13" fill="#000000">27</text>
    <text x="1573" y="1205" font-family="Times New Roman" font-size="13" fill="#000000">28</text>
    <text x="1628" y="1205" font-family="Times New Roman" font-size="13" fill="#000000">29</text>
    <text x="1682" y="1205" font-family="Times New Roman" font-size="13" fill="#000000">30</text>
    <text x="1737" y="1205" font-family="Times New Roman" font-size="13" fill="#000000">31</text>
    <text x="1791" y="1205" font-family="Times New Roman" font-size="13" fill="#000000">32</text>
    <text x="1845" y="1205" font-family="Times New Roman" font-size="13" fill="#000000">33</text>
    <text x="1900" y="1205" font-family="Times New Roman" font-size="13" fill="#000000">34</text>
    <text x="1954" y="1205" font-family="Times New Roman" font-size="13" fill="#000000">35</text>
    <text x="2009" y="1205" font-family="Times New Roman" font-size="13" fill="#000000">36</text>
    <text x="2063" y="1205" font-family="Times New Roman" font-size="13" fill="#000000">37</text>
    <text x="2118" y="1205" font-family="Times New Roman" font-size="13" fill="#000000">38</text>
    <text x="2172" y="1205" font-family="Times New Roman" font-size="13" fill="#000000">39</text>
    <text x="2227" y="1205" font-family="Times New Roman" font-size="13" fill="#000000">40</text>
    <text x="2281" y="1205" font-family="Times New Roman" font-size="13" fill="#000000">41</text>
    <text x="2336" y="1205" font-family="Times New Roman" font-size="13" fill="#000000">42</text>
    <text x="31" y="1271" font-family="Times New Roman" font-size="13" fill="#000000">-20</text>
    <text x="35" y="1117" font-family="Times New Roman" font-size="13" fill="#000000">20</text>
    <text x="35" y="1041" font-family="Times New Roman" font-size="13" fill="#000000">40</text>
    <text x="35" y="964" font-family="Times New Roman" font-size="13" fill="#000000">60</text>
    <text x="35" y="887" font-family="Times New Roman" font-size="13" fill="#000000">80</text>
    <text x="29" y="811" font-family="Times New Roman" font-size="13" fill="#000000">100</text>
    <text x="29" y="734" font-family="Times New Roman" font-size="13" fill="#000000">120</text>
    <text x="29" y="658" font-family="Times New Roman" font-size="13" fill="#000000">140</text>
    <text x="29" y="581" font-family="Times New Roman" font-size="13" fill="#000000">160</text>
    <text x="29" y="504" font-family="Times New Roman" font-size="13" fill="#000000">180</text>
    <text x="29" y="428" font-family="Times New Roman" font-size="13" fill="#000000">200</text>
    <text x="29" y="351" font-family="Times New Roman" font-size="13" fill="#000000">220</text>
    <text x="29" y="274" font-family="Times New Roman" font-size="13" fill="#000000">240</text>
    <text x="29" y="198" font-family="Times New Roman" font-size="13" fill="#000000">260</text>
    <text x="29" y="121" font-family="Times New Roman" font-size="13" fill="#000000">280</text>
    <text x="29" y="44" font-family="Times New Roman" font-size="13" fill="#000000">300</text>
    <text x="2385" y="1178" font-family="Times New Roman" font-size="16" font-weight="700" fill="#000000">x</text>
    <text x="66" y="13" font-family="Times New Roman" font-size="16" font-weight="700" fill="#000000">f(x)</text>
    <line stroke="#0000ff" stroke-width="2" stroke-linecap="butt" stroke-linejoin="bevel" x1="0" y1="1188" x2="2391" y2="1188" />
    <polygon stroke="#0000ff" stroke-width="1" stroke-linecap="round" stroke-linejoin="round" fill="#0000ff" points="2390.5,1182.5 2395.5,1187.5 2395.5,1188.5 2390.5,1193.5 " />
    <line stroke="#0000ff" stroke-width="1" stroke-linecap="round" stroke-linejoin="round" x1="109.5" y1="1193.5" x2="109.5" y2="1182.5" />
    <line stroke="#0000ff" stroke-width="1" stroke-linecap="round" stroke-linejoin="round" x1="163.5" y1="1193.5" x2="163.5" y2="1182.5" />
    <line stroke="#0000ff" stroke-width="1" stroke-linecap="round" stroke-linejoin="round" x1="218.5" y1="1193.5" x2="218.5" y2="1182.5" />
    <line stroke="#0000ff" stroke-width="1" stroke-linecap="round" stroke-linejoin="round" x1="272.5" y1="1193.5" x2="272.5" y2="1182.5" />
    <line stroke="#0000ff" stroke-width="1" stroke-linecap="round" stroke-linejoin="round" x1="327.5" y1="1193.5" x2="327.5" y2="1182.5" />
    <line stroke="#0000ff" stroke-width="1" stroke-linecap="round" stroke-linejoin="round" x1="381.5" y1="1193.5" x2="381.5" y2="1182.5" />
    <line stroke="#0000ff" stroke-width="1" stroke-linecap="round" stroke-linejoin="round" x1="436.5" y1="1193.5" x2="436.5" y2="1182.5" />
    <line stroke="#0000ff" stroke-width="1" stroke-linecap="round" stroke-linejoin="round" x1="490.5" y1="1193.5" x2="490.5" y2="1182.5" />
    <line stroke="#0000ff" stroke-width="1" stroke-linecap="round" stroke-linejoin="round" x1="545.5" y1="1193.5" x2="545.5" y2="1182.5" />
    <line stroke="#0000ff" stroke-width="1" stroke-linecap="round" stroke-linejoin="round" x1="599.5" y1="1193.5" x2="599.5" y2="1182.5" />
    <line stroke="#0000ff" stroke-width="1" stroke-linecap="round" stroke-linejoin="round" x1="653.5" y1="1193.5" x2="653.5" y2="1182.5" />
    <line stroke="#0000ff" stroke-width="1" stroke-linecap="round" stroke-linejoin="round" x1="708.5" y1="1193.5" x2="708.5" y2="1182.5" />
    <line stroke="#0000ff" stroke-width="1" stroke-linecap="round" stroke-linejoin="round" x1="762.5" y1="1193.5" x2="762.5" y2="1182.5" />
    <line stroke="#0000ff" stroke-width="1" stroke-linecap="round" stroke-linejoin="round" x1="817.5" y1="1193.5" x2="817.5" y2="1182.5" />
    <line stroke="#0000ff" stroke-width="1" stroke-linecap="round" stroke-linejoin="round" x1="871.5" y1="1193.5" x2="871.5" y2="1182.5" />
    <line stroke="#0000ff" stroke-width="1" stroke-linecap="round" stroke-linejoin="round" x1="926.5" y1="1193.5" x2="926.5" y2="1182.5" />
    <line stroke="#0000ff" stroke-width="1" stroke-linecap="round" stroke-linejoin="round" x1="980.5" y1="1193.5" x2="980.5" y2="1182.5" />
    <line stroke="#0000ff" stroke-width="1" stroke-linecap="round" stroke-linejoin="round" x1="1035.5" y1="1193.5" x2="1035.5" y2="1182.5" />
    <line stroke="#0000ff" stroke-width="1" stroke-linecap="round" stroke-linejoin="round" x1="1089.5" y1="1193.5" x2="1089.5" y2="1182.5" />
    <line stroke="#0000ff" stroke-width="1" stroke-linecap="round" stroke-linejoin="round" x1="1144.5" y1="1193.5" x2="1144.5" y2="1182.5" />
    <line stroke="#0000ff" stroke-width="1" stroke-linecap="round" stroke-linejoin="round" x1="1198.5" y1="1193.5" x2="1198.5" y2="1182.5" />
    <line stroke="#0000ff" stroke-width="1" stroke-linecap="round" stroke-linejoin="round" x1="1252.5" y1="1193.5" x2="1252.5" y2="1182.5" />
    <line stroke="#0000ff" stroke-width="1" stroke-linecap="round" stroke-linejoin="round" x1="1307.5" y1="1193.5" x2="1307.5" y2="1182.5" />
    <line stroke="#0000ff" stroke-width="1" stroke-linecap="round" stroke-linejoin="round" x1="1361.5" y1="1193.5" x2="1361.5" y2="1182.5" />
    <line stroke="#0000ff" stroke-width="1" stroke-linecap="round" stroke-linejoin="round" x1="1416.5" y1="1193.5" x2="1416.5" y2="1182.5" />
    <line stroke="#0000ff" stroke-width="1" stroke-linecap="round" stroke-linejoin="round" x1="1470.5" y1="1193.5" x2="1470.5" y2="1182.5" />
    <line stroke="#0000ff" stroke-width="1" stroke-linecap="round" stroke-linejoin="round" x1="1525.5" y1="1193.5" x2="1525.5" y2="1182.5" />
    <line stroke="#0000ff" stroke-width="1" stroke-linecap="round" stroke-linejoin="round" x1="1579.5" y1="1193.5" x2="1579.5" y2="1182.5" />
    <line stroke="#0000ff" stroke-width="1" stroke-linecap="round" stroke-linejoin="round" x1="1634.5" y1="1193.5" x2="1634.5" y2="1182.5" />
    <line stroke="#0000ff" stroke-width="1" stroke-linecap="round" stroke-linejoin="round" x1="1688.5" y1="1193.5" x2="1688.5" y2="1182.5" />
    <line stroke="#0000ff" stroke-width="1" stroke-linecap="round" stroke-linejoin="round" x1="1743.5" y1="1193.5" x2="1743.5" y2="1182.5" />
    <line stroke="#0000ff" stroke-width="1" stroke-linecap="round" stroke-linejoin="round" x1="1797.5" y1="1193.5" x2="1797.5" y2="1182.5" />
    <line stroke="#0000ff" stroke-width="1" stroke-linecap="round" stroke-linejoin="round" x1="1851.5" y1="1193.5" x2="1851.5" y2="1182.5" />
    <line stroke="#0000ff" stroke-width="1" stroke-linecap="round" stroke-linejoin="round" x1="1906.5" y1="1193.5" x2="1906.5" y2="1182.5" />
    <line stroke="#0000ff" stroke-width="1" stroke-linecap="round" stroke-linejoin="round" x1="1960.5" y1="1193.5" x2="1960.5" y2="1182.5" />
    <line stroke="#0000ff" stroke-width="1" stroke-linecap="round" stroke-linejoin="round" x1="2015.5" y1="1193.5" x2="2015.5" y2="1182.5" />
    <line stroke="#0000ff" stroke-width="1" stroke-linecap="round" stroke-linejoin="round" x1="2069.5" y1="1193.5" x2="2069.5" y2="1182.5" />
    <line stroke="#0000ff" stroke-width="1" stroke-linecap="round" stroke-linejoin="round" x1="2124.5" y1="1193.5" x2="2124.5" y2="1182.5" />
    <line stroke="#0000ff" stroke-width="1" stroke-linecap="round" stroke-linejoin="round" x1="2178.5" y1="1193.5" x2="2178.5" y2="1182.5" />
    <line stroke="#0000ff" stroke-width="1" stroke-linecap="round" stroke-linejoin="round" x1="2233.5" y1="1193.5" x2="2233.5" y2="1182.5" />
    <line stroke="#0000ff" stroke-width="1" stroke-linecap="round" stroke-linejoin="round" x1="2287.5" y1="1193.5" x2="2287.5" y2="1182.5" />
    <line stroke="#0000ff" stroke-width="1" stroke-linecap="round" stroke-linejoin="round" x1="2342.5" y1="1193.5" x2="2342.5" y2="1182.5" />
    <line stroke="#0000ff" stroke-width="2" stroke-linecap="butt" stroke-linejoin="bevel" x1="54" y1="3" x2="54" y2="1302" />
    <polygon stroke="#0000ff" stroke-width="1" stroke-linecap="round" stroke-linejoin="round" fill="#0000ff" points="48.5,5.5 53.5,0.5 54.5,0.5 59.5,5.5 " />
    <line stroke="#0000ff" stroke-width="1" stroke-linecap="round" stroke-linejoin="round" x1="48.5" y1="1265.5" x2="59.5" y2="1265.5" />
    <line stroke="#0000ff" stroke-width="1" stroke-linecap="round" stroke-linejoin="round" x1="48.5" y1="1111.5" x2="59.5" y2="1111.5" />
    <line stroke="#0000ff" stroke-width="1" stroke-linecap="round" stroke-linejoin="round" x1="48.5" y1="1035.5" x2="59.5" y2="1035.5" />
    <line stroke="#0000ff" stroke-width="1" stroke-linecap="round" stroke-linejoin="round" x1="48.5" y1="958.5" x2="59.5" y2="958.5" />
    <line stroke="#0000ff" stroke-width="1" stroke-linecap="round" stroke-linejoin="round" x1="48.5" y1="881.5" x2="59.5" y2="881.5" />
    <line stroke="#0000ff" stroke-width="1" stroke-linecap="round" stroke-linejoin="round" x1="48.5" y1="805.5" x2="59.5" y2="805.5" />
    <line stroke="#0000ff" stroke-width="1" stroke-linecap="round" stroke-linejoin="round" x1="48.5" y1="728.5" x2="59.5" y2="728.5" />
    <line stroke="#0000ff" stroke-width="1" stroke-linecap="round" stroke-linejoin="round" x1="48.5" y1="651.5" x2="59.5" y2="651.5" />
    <line stroke="#0000ff" stroke-width="1" stroke-linecap="round" stroke-linejoin="round" x1="48.5" y1="575.5" x2="59.5" y2="575.5" />
    <line stroke="#0000ff" stroke-width="1" stroke-linecap="round" stroke-linejoin="round" x1="48.5" y1="498.5" x2="59.5" y2="498.5" />
    <line stroke="#0000ff" stroke-width="1" stroke-linecap="round" stroke-linejoin="round" x1="48.5" y1="422.5" x2="59.5" y2="422.5" />
    <line stroke="#0000ff" stroke-width="1" stroke-linecap="round" stroke-linejoin="round" x1="48.5" y1="345.5" x2="59.5" y2="345.5" />
    <line stroke="#0000ff" stroke-width="1" stroke-linecap="round" stroke-linejoin="round" x1="48.5" y1="268.5" x2="59.5" y2="268.5" />
    <line stroke="#0000ff" stroke-width="1" stroke-linecap="round" stroke-linejoin="round" x1="48.5" y1="192.5" x2="59.5" y2="192.5" />
    <line stroke="#0000ff" stroke-width="1" stroke-linecap="round" stroke-linejoin="round" x1="48.5" y1="115.5" x2="59.5" y2="115.5" />
    <line stroke="#0000ff" stroke-width="1" stroke-linecap="round" stroke-linejoin="round" x1="48.5" y1="38.5" x2="59.5" y2="38.5" />
    <polyline stroke="#000000" stroke-width="3" stroke-linecap="butt" stroke-linejoin="bevel" fill="none" points="653,636 654,638 655,640 656,642 657,643 658,645 659,647 660,649 661,651 662,653 663,654 664,656 665,658 666,660 667,662 668,663 669,665 670,667 671,669 672,670 673,672 674,674 675,676 676,678 677,679 678,681 679,683 680,685 681,686 682,688 683,690 684,692 685,693 686,695 687,697 688,699 689,700 690,702 691,704 692,706 693,707 694,709 695,711 696,712 697,714 698,716 699,718 700,719 701,721 702,723 703,724 704,726 705,728 706,730 707,731 708,733 709,735 710,736 711,738 712,740 713,741 714,743 715,745 716,746 717,748 718,750 719,751 720,753 721,755 722,756 723,758 724,760 725,761 726,763 727,764 728,766 729,768 730,769 731,771 732,773 733,774 734,776 735,778 736,779 737,781 738,782 739,784 740,786 741,787 742,789 743,790 744,792 745,794 746,795 747,797 748,798 749,800 750,802 751,803 752,805 753,806 754,808 755,809 756,811 757,812 758,814 759,816 760,817 761,819 762,820 763,822 764,823 765,825 766,826 767,828 768,830 769,831 770,833 771,834 772,836 773,837 774,839 775,840 776,842 777,843 778,845 779,846 780,848 781,849 782,851 783,852 784,854 785,855 786,857 787,858 788,860 789,861 790,863 791,864 792,866 793,867 794,868 795,870 796,871 797,873 798,874 799,876 800,877 801,879 802,880 803,882 804,883 805,884 806,886 807,887 808,889 809,890 810,892 811,893 812,894 813,896 814,897 815,899 816,900 817,901 818,903 819,904 820,906 821,907 822,908 823,910 824,911 825,913 826,914 827,915 828,917 829,918 830,920 831,921 832,922 833,924 834,925 835,926 836,928 837,929 838,930 839,932 840,933 841,934 842,936 843,937 844,939 845,940 846,941 847,943 848,944 849,945 850,946 851,948 852,949 853,950 854,952 855,953 856,954 857,956 858,957 859,958 860,960 861,961 862,962 863,963 864,965 865,966 866,967 867,969 868,970 869,971 870,972 871,974 872,975 873,976 874,977 875,979 876,980 877,981 878,982 879,984 880,985 881,986 882,987 883,989 884,990 885,991 886,992 887,994 888,995 889,996 890,997 891,998 892,1000 893,1001 894,1002 895,1003 896,1004 897,1006 898,1007 899,1008 900,1009 901,1010 902,1012 903,1013 904,1014 905,1015 906,1016 907,1018 908,1019 909,1020 910,1021 911,1022 912,1023 913,1025 914,1026 915,1027 916,1028 917,1029 918,1030 919,1031 920,1033 921,1034 922,1035 923,1036 924,1037 925,1038 926,1039 927,1041 928,1042 929,1043 930,1044 931,1045 932,1046 933,1047 934,1048 935,1049 936,1050 937,1052 938,1053 939,1054 940,1055 941,1056 942,1057 943,1058 944,1059 945,1060 946,1061 947,1062 948,1063 949,1065 950,1066 951,1067 952,1068 953,1069 954,1070 955,1071 956,1072 957,1073 958,1074 959,1075 960,1076 961,1077 962,1078 963,1079 964,1080 965,1081 966,1082 967,1083 968,1084 969,1085 970,1086 971,1087 972,1088 973,1089 974,1090 975,1091 976,1092 977,1093 978,1094 979,1095 980,1096 981,1097 982,1098 983,1099 984,1100 985,1101 986,1102 987,1103 988,1104 989,1105 990,1106 991,1107 992,1108 993,1109 994,1110 995,1111 996,1112 997,1113 998,1114 999,1115 1000,1115 1001,1116 1002,1117 1003,1118 1004,1119 1005,1120 1006,1121 1007,1122 1008,1123 1009,1124 1010,1125 1011,1126 1012,1127 1013,1127 1014,1128 1015,1129 1016,1130 1017,1131 1018,1132 1019,1133 1020,1134 1021,1135 1022,1135 1023,1136 1024,1137 1025,1138 1026,1139 1027,1140 1028,1141 1029,1141 1030,1142 1031,1143 1032,1144 1033,1145 1034,1146 1035,1147 1036,1147 1037,1148 1038,1149 1039,1150 1040,1151 1041,1152 1042,1152 1043,1153 1044,1154 1045,1155 1046,1156 1047,1156 1048,1157 1049,1158 1050,1159 1051,1160 1052,1161 1053,1161 1054,1162 1055,1163 1056,1164 1057,1164 1058,1165 1059,1166 1060,1167 1061,1168 1062,1168 1063,1169 1064,1170 1065,1171 1066,1171 1067,1172 1068,1173 1069,1174 1070,1174 1071,1175 1072,1176 1073,1177 1074,1177 1075,1178 1076,1179 1077,1180 1078,1180 1079,1181 1080,1182 1081,1183 1082,1183 1083,1184 1084,1185 1085,1185 1086,1186 1087,1187 1088,1188 1089,1188 1090,1189 1091,1190 1092,1190 1093,1191 1094,1192 1095,1192 1096,1193 1097,1194 1098,1195 1099,1195 1100,1196 1101,1197 1102,1197 1103,1198 1104,1199 1105,1199 1106,1200 1107,1201 1108,1201 1109,1202 1110,1202 1111,1203 1112,1204 1113,1204 1114,1205 1115,1206 1116,1206 1117,1207 1118,1208 1119,1208 1120,1209 1121,1209 1122,1210 1123,1211 1124,1211 1125,1212 1126,1213 1127,1213 1128,1214 1129,1214 1130,1215 1131,1216 1132,1216 1133,1217 1134,1217 1135,1218 1136,1218 1137,1219 1138,1220 1139,1220 1140,1221 1141,1221 1142,1222 1143,1222 1144,1223 1145,1224 1146,1224 1147,1225 1148,1225 1149,1226 1150,1226 1151,1227 1152,1227 1153,1228 1154,1229 1155,1229 1156,1230 1157,1230 1158,1231 1159,1231 1160,1232 1161,1232 1162,1233 1163,1233 1164,1234 1165,1234 1166,1235 1167,1235 1168,1236 1169,1236 1170,1237 1171,1237 1172,1238 1173,1238 1174,1239 1175,1239 1176,1240 1177,1240 1178,1241 1179,1241 1180,1242 1181,1242 1182,1242 1183,1243 1184,1243 1185,1244 1186,1244 1187,1245 1188,1245 1189,1246 1190,1246 1191,1247 1192,1247 1193,1247 1194,1248 1195,1248 1196,1249 1197,1249 1198,1249 " />
    <circle stroke="#000000" stroke-width="1" stroke-linecap="round" stroke-linejoin="round" fill="#000000" cx="653" cy="636" r="6" />
    <circle stroke="#000000" stroke-width="1" stroke-linecap="round" stroke-linejoin="round" fill="#000000" cx="1198" cy="1249" r="6" />
    <polyline stroke="#000000" stroke-width="3" stroke-linecap="butt" stroke-linejoin="bevel" fill="none" points="1198,1249 1199,1250 1200,1250 1201,1251 1202,1251 1203,1251 1204,1252 1205,1252 1206,1253 1207,1253 1208,1253 1209,1254 1210,1254 1211,1255 1212,1255 1213,1255 1214,1256 1215,1256 1216,1257 1217,1257 1218,1257 1219,1258 1220,1258 1221,1258 1222,1259 1223,1259 1224,1259 1225,1260 1226,1260 1227,1261 1228,1261 1229,1261 1230,1262 1231,1262 1232,1262 1233,1263 1234,1263 1235,1263 1236,1264 1237,1264 1238,1264 1239,1264 1240,1265 1241,1265 1242,1265 1243,1266 1244,1266 1245,1266 1246,1267 1247,1267 1248,1267 1249,1268 1250,1268 1251,1268 1252,1268 1253,1269 1254,1269 1255,1269 1256,1269 1257,1270 1258,1270 1259,1270 1260,1271 1261,1271 1262,1271 1263,1271 1264,1272 1265,1272 1266,1272 1267,1272 1268,1273 1269,1273 1270,1273 1271,1273 1272,1274 1273,1274 1274,1274 1275,1274 1276,1274 1277,1275 1278,1275 1279,1275 1280,1275 1281,1275 1282,1276 1283,1276 1284,1276 1285,1276 1286,1276 1287,1277 1288,1277 1289,1277 1290,1277 1291,1277 1292,1278 1293,1278 1294,1278 1295,1278 1296,1278 1297,1278 1298,1279 1299,1279 1300,1279 1301,1279 1302,1279 1303,1279 1304,1280 1305,1280 1306,1280 1307,1280 1308,1280 1309,1280 1310,1280 1311,1281 1312,1281 1313,1281 1314,1281 1315,1281 1316,1281 1317,1281 1318,1281 1319,1282 1320,1282 1321,1282 1322,1282 1323,1282 1324,1282 1325,1282 1326,1282 1327,1282 1328,1282 1329,1282 1330,1283 1331,1283 1332,1283 1333,1283 1334,1283 1335,1283 1336,1283 1337,1283 1338,1283 1339,1283 1340,1283 1341,1283 1342,1283 1343,1283 1344,1283 1345,1283 1346,1284 1347,1284 1348,1284 1349,1284 1350,1284 1351,1284 1352,1284 1353,1284 1354,1284 1355,1284 1356,1284 1357,1284 1358,1284 1359,1284 1360,1284 1361,1284 " />
    <circle stroke="#000000" stroke-width="1" stroke-linecap="round" stroke-linejoin="round" fill="#000000" cx="1198" cy="1249" r="6" />
    <circle stroke="#000000" stroke-width="1" stroke-linecap="round" stroke-linejoin="round" fill="#000000" cx="1361" cy="1284" r="6" />
    <polyline stroke="#000000" stroke-width="3" stroke-linecap="butt" stroke-linejoin="bevel" fill="none" points="1361,1284 1362,1284 1363,1284 1364,1284 1365,1284 1366,1284 1367,1284 1368,1284 1369,1284 1370,1284 1371,1284 1372,1284 1373,1284 1374,1284 1375,1284 1376,1284 1377,1284 1378,1283 1379,1283 1380,1283 1381,1283 1382,1283 1383,1283 1384,1283 1385,1283 1386,1283 1387,1283 1388,1283 1389,1283 1390,1283 1391,1283 1392,1283 1393,1283 1394,1282 1395,1282 1396,1282 1397,1282 1398,1282 1399,1282 1400,1282 1401,1282 1402,1282 1403,1282 1404,1281 1405,1281 1406,1281 1407,1281 1408,1281 1409,1281 1410,1281 1411,1281 1412,1280 1413,1280 1414,1280 1415,1280 1416,1280 1417,1280 1418,1280 1419,1279 1420,1279 1421,1279 1422,1279 1423,1279 1424,1279 1425,1279 1426,1278 1427,1278 1428,1278 1429,1278 1430,1278 1431,1278 1432,1277 1433,1277 1434,1277 1435,1277 1436,1277 1437,1276 1438,1276 1439,1276 1440,1276 1441,1276 1442,1275 1443,1275 1444,1275 1445,1275 1446,1275 1447,1274 1448,1274 1449,1274 1450,1274 1451,1273 1452,1273 1453,1273 1454,1273 1455,1272 1456,1272 1457,1272 1458,1272 1459,1271 1460,1271 1461,1271 1462,1271 1463,1270 1464,1270 1465,1270 1466,1270 1467,1269 1468,1269 1469,1269 1470,1268 1471,1268 1472,1268 1473,1268 1474,1267 1475,1267 1476,1267 1477,1266 1478,1266 1479,1266 1480,1266 1481,1265 1482,1265 1483,1265 1484,1264 1485,1264 1486,1264 1487,1263 1488,1263 1489,1263 1490,1262 1491,1262 1492,1262 1493,1261 1494,1261 1495,1261 1496,1260 1497,1260 1498,1260 1499,1259 1500,1259 1501,1259 1502,1258 1503,1258 1504,1257 1505,1257 1506,1257 1507,1256 1508,1256 1509,1256 1510,1255 1511,1255 1512,1254 1513,1254 1514,1254 1515,1253 1516,1253 1517,1252 1518,1252 1519,1252 1520,1251 1521,1251 1522,1250 1523,1250 1524,1250 1525,1249 1526,1249 1527,1248 1528,1248 1529,1247 1530,1247 1531,1246 1532,1246 1533,1246 1534,1245 1535,1245 1536,1244 1537,1244 1538,1243 1539,1243 1540,1242 1541,1242 1542,1241 1543,1241 1544,1241 1545,1240 1546,1240 1547,1239 1548,1239 1549,1238 1550,1238 1551,1237 1552,1237 1553,1236 1554,1236 1555,1235 1556,1235 1557,1234 1558,1234 1559,1233 1560,1233 1561,1232 1562,1232 1563,1231 1564,1231 1565,1230 1566,1230 1567,1229 1568,1228 1569,1228 1570,1227 1571,1227 1572,1226 1573,1226 1574,1225 1575,1225 1576,1224 1577,1224 1578,1223 1579,1222 1580,1222 1581,1221 1582,1221 1583,1220 1584,1220 1585,1219 1586,1218 1587,1218 1588,1217 1589,1217 1590,1216 1591,1215 1592,1215 1593,1214 1594,1214 1595,1213 1596,1212 1597,1212 1598,1211 1599,1211 1600,1210 1601,1209 1602,1209 1603,1208 1604,1208 1605,1207 1606,1206 1607,1206 1608,1205 1609,1204 1610,1204 1611,1203 1612,1202 1613,1202 1614,1201 1615,1200 1616,1200 1617,1199 1618,1198 1619,1198 1620,1197 1621,1196 1622,1196 1623,1195 1624,1194 1625,1194 1626,1193 1627,1192 1628,1192 1629,1191 1630,1190 1631,1190 1632,1189 1633,1188 1634,1188 1635,1187 1636,1186 1637,1185 1638,1185 1639,1184 1640,1183 1641,1183 1642,1182 1643,1181 1644,1180 1645,1180 1646,1179 1647,1178 1648,1177 1649,1177 1650,1176 1651,1175 1652,1174 1653,1174 1654,1173 1655,1172 1656,1171 1657,1171 1658,1170 1659,1169 1660,1168 1661,1168 1662,1167 1663,1166 1664,1165 1665,1164 1666,1164 1667,1163 1668,1162 1669,1161 1670,1160 1671,1160 1672,1159 1673,1158 1674,1157 1675,1156 1676,1156 1677,1155 1678,1154 1679,1153 1680,1152 1681,1151 1682,1151 1683,1150 1684,1149 1685,1148 1686,1147 1687,1146 1688,1146 1689,1145 1690,1144 1691,1143 1692,1142 1693,1141 1694,1141 1695,1140 1696,1139 1697,1138 1698,1137 1699,1136 1700,1135 1701,1134 1702,1134 1703,1133 1704,1132 1705,1131 1706,1130 1707,1129 1708,1128 1709,1127 1710,1126 1711,1126 1712,1125 1713,1124 1714,1123 1715,1122 1716,1121 1717,1120 1718,1119 1719,1118 1720,1117 1721,1116 1722,1115 1723,1114 1724,1114 1725,1113 1726,1112 1727,1111 1728,1110 1729,1109 1730,1108 1731,1107 1732,1106 1733,1105 1734,1104 1735,1103 1736,1102 1737,1101 1738,1100 1739,1099 1740,1098 1741,1097 1742,1096 1743,1095 1744,1094 1745,1093 1746,1092 1747,1091 1748,1090 1749,1089 1750,1088 1751,1087 1752,1086 1753,1085 1754,1084 1755,1083 1756,1082 1757,1081 1758,1080 1759,1079 1760,1078 1761,1077 1762,1076 1763,1075 1764,1074 1765,1073 1766,1072 1767,1071 1768,1070 1769,1069 1770,1068 1771,1067 1772,1066 1773,1064 1774,1063 1775,1062 1776,1061 1777,1060 1778,1059 1779,1058 1780,1057 1781,1056 1782,1055 1783,1054 1784,1053 1785,1051 1786,1050 1787,1049 1788,1048 1789,1047 1790,1046 1791,1045 1792,1044 1793,1043 1794,1042 1795,1040 1796,1039 1797,1039 " />
    <circle stroke="#000000" stroke-width="1" stroke-linecap="round" stroke-linejoin="round" fill="#000000" cx="1361" cy="1284" r="6" />
    <circle stroke="#000000" stroke-width="1" stroke-linecap="round" stroke-linejoin="round" fill="#000000" cx="1797" cy="1039" r="6" />
    <polyline stroke="#000000" stroke-width="3" stroke-linecap="butt" stroke-linejoin="bevel" fill="none" points="1797,1039 1798,1037 1799,1036 1800,1035 1801,1034 1802,1033 1803,1032 1804,1031 1805,1029 1806,1028 1807,1027 1808,1026 1809,1025 1810,1024 1811,1023 1812,1021 1813,1020 1814,1019 1815,1018 1816,1017 1817,1016 1818,1014 1819,1013 1820,1012 1821,1011 1822,1010 1823,1008 1824,1007 1825,1006 1826,1005 1827,1004 1828,1002 1829,1001 1830,1000 1831,999 1832,998 1833,996 1834,995 1835,994 1836,993 1837,991 1838,990 1839,989 1840,988 1841,987 1842,985 1843,984 1844,983 1845,982 1846,980 1847,979 1848,978 1849,977 1850,975 1851,974 1852,973 1853,971 1854,970 1855,969 1856,968 1857,966 1858,965 1859,964 1860,962 1861,961 1862,960 1863,959 1864,957 1865,956 1866,955 1867,953 1868,952 1869,951 1870,949 1871,948 1872,947 1873,946 1874,944 1875,943 1876,942 1877,940 1878,939 1879,938 1880,936 1881,935 1882,934 1883,932 1884,931 1885,929 1886,928 1887,927 1888,925 1889,924 1890,923 1891,921 1892,920 1893,919 1894,917 1895,916 1896,914 1897,913 1898,912 1899,910 1900,909 1901,907 1902,906 1903,905 1904,903 1905,902 1906,900 1907,899 1908,898 1909,896 1910,895 1911,893 1912,892 1913,891 1914,889 1915,888 1916,886 1917,885 1918,883 1919,882 1920,881 1921,879 1922,878 1923,876 1924,875 1925,873 1926,872 1927,870 1928,869 1929,867 1930,866 1931,864 1932,863 1933,862 1934,860 1935,859 1936,857 1937,856 1938,854 1939,853 1940,851 1941,850 1942,848 1943,847 1944,845 1945,844 1946,842 1947,841 1948,839 1949,838 1950,836 1951,835 1952,833 1953,831 1954,830 1955,828 1956,827 1957,825 1958,824 1959,822 1960,821 1961,819 1962,818 1963,816 1964,814 1965,813 1966,811 1967,810 1968,808 1969,807 1970,805 1971,804 1972,802 1973,800 1974,799 1975,797 1976,796 1977,794 1978,792 1979,791 1980,789 1981,788 1982,786 1983,784 1984,783 1985,781 1986,780 1987,778 1988,776 1989,775 1990,773 1991,771 1992,770 1993,768 1994,767 1995,765 1996,763 1997,762 1998,760 1999,758 2000,757 2001,755 2002,753 2003,752 2004,750 2005,748 2006,747 2007,745 2008,743 2009,742 2010,740 2011,738 2012,737 2013,735 2014,733 2015,732 2016,730 2017,728 2018,727 2019,725 2020,723 2021,721 2022,720 2023,718 2024,716 2025,715 2026,713 2027,711 2028,709 2029,708 2030,706 2031,704 2032,703 2033,701 2034,699 2035,697 2036,696 2037,694 2038,692 2039,690 2040,689 2041,687 2042,685 2043,683 2044,682 2045,680 2046,678 2047,676 2048,675 2049,673 2050,671 2051,669 2052,667 2053,666 2054,664 2055,662 2056,660 2057,658 2058,657 2059,655 2060,653 2061,651 2062,649 2063,648 2064,646 2065,644 2066,642 2067,640 2068,638 2069,637 2070,635 2071,633 2072,631 2073,629 2074,627 2075,626 2076,624 2077,622 2078,620 2079,618 2080,616 2081,615 2082,613 2083,611 2084,609 2085,607 2086,605 2087,603 2088,601 2089,600 2090,598 2091,596 2092,594 2093,592 2094,590 2095,588 2096,586 2097,584 2098,583 2099,581 2100,579 2101,577 2102,575 2103,573 2104,571 2105,569 2106,567 2107,565 2108,563 2109,561 2110,560 2111,558 2112,556 2113,554 2114,552 2115,550 2116,548 2117,546 2118,544 2119,542 2120,540 2121,538 2122,536 2123,534 2124,532 2125,530 2126,528 2127,526 2128,524 2129,522 2130,520 2131,518 2132,516 2133,514 2134,512 2135,510 2136,508 2137,506 2138,504 2139,502 2140,500 2141,498 2142,496 2143,494 2144,492 2145,490 2146,488 2147,486 2148,484 2149,482 2150,480 2151,478 2152,476 2153,474 2154,472 2155,470 2156,468 2157,466 2158,464 2159,462 2160,460 2161,457 2162,455 2163,453 2164,451 2165,449 2166,447 2167,445 2168,443 2169,441 2170,439 2171,437 2172,435 2173,432 2174,430 2175,428 2176,426 2177,424 2178,422 2179,420 2180,418 2181,416 2182,413 2183,411 2184,409 2185,407 2186,405 2187,403 2188,401 2189,399 2190,396 2191,394 2192,392 2193,390 2194,388 2195,386 2196,384 2197,381 2198,379 2199,377 2200,375 2201,373 2202,371 2203,368 2204,366 2205,364 2206,362 2207,360 2208,357 2209,355 2210,353 2211,351 2212,349 2213,346 2214,344 2215,342 2216,340 2217,338 2218,335 2219,333 2220,331 2221,329 2222,327 2223,324 2224,322 2225,320 2226,318 2227,315 2228,313 2229,311 2230,309 2231,306 2232,304 2233,302 2234,300 2235,297 2236,295 2237,293 2238,291 2239,288 2240,286 2241,284 2242,282 2243,279 2244,277 2245,275 2246,272 2247,270 2248,268 2249,266 2250,263 2251,261 2252,259 2253,256 2254,254 2255,252 2256,249 2257,247 2258,245 2259,242 2260,240 2261,238 2262,236 2263,233 2264,231 2265,229 2266,226 2267,224 2268,221 2269,219 2270,217 2271,214 2272,212 2273,210 2274,207 2275,205 2276,203 2277,200 2278,198 2279,196 2280,193 2281,191 2282,188 2283,186 2284,184 2285,181 2286,179 2287,177 2288,174 2289,172 2290,169 2291,167 2292,165 2293,162 2294,160 2295,157 2296,155 2297,152 2298,150 2299,148 2300,145 2301,143 2302,140 2303,138 2304,135 2305,133 2306,131 2307,128 2308,126 2309,123 2310,121 2311,118 2312,116 2313,113 2314,111 2315,109 2316,106 2317,104 2318,101 2319,99 2320,96 2321,94 2322,91 2323,89 2324,86 2325,84 2326,81 2327,79 2328,76 2329,74 2330,71 2331,69 2332,66 2333,64 2334,61 2335,59 2336,56 2337,54 2338,51 2339,49 2340,46 2341,44 2342,42 " />
    <circle stroke="#000000" stroke-width="1" stroke-linecap="round" stroke-linejoin="round" fill="#000000" cx="1797" cy="1039" r="6" />
    <circle stroke="#000000" stroke-width="1" stroke-linecap="round" stroke-linejoin="round" fill="#000000" cx="2342" cy="42" r="6" />
    <text x="1077" y="1268" font-family="Times New Roman" font-size="32" fill="#000000">(21; -16)</text>
    <text x="1305" y="1265" font-family="Times New Roman" font-size="32" fill="#000000">(24; -25)</text>
    <text x="1683" y="1031" font-family="Times New Roman" font-size="32" fill="#000000">(32; 39)</text>
    <text x="2211" y="41" font-family="Times New Roman" font-size="32" fill="#000000">(42; 299)</text>
    <text x="665" y="627" font-family="Times New Roman" font-size="32" fill="#000000">(11; 144)</text>
  </g>
</svg>
