<?xml version="1.0" encoding="UTF-8"?>
<!DOCTYPE svg PUBLIC "-//W3C//DTD SVG 1.1//EN" "http://www.w3.org/Graphics/SVG/1.1/DTD/svg11.dtd">
<svg width="2396px" height="1303px" viewBox="0 0 2396 1303" version="1.1" xmlns="http://www.w3.org/2000/svg" xmlns:xlink="http://www.w3.org/1999/xlink">
  <g>
    <line stroke="#9999ff" stroke-width="1" stroke-dasharray="1,10" stroke-linecap="round" stroke-linejoin="round" x1="288.5" y1="0.5" x2="288.5" y2="1302.5" />
    <line stroke="#9999ff" stroke-width="1" stroke-dasharray="1,10" stroke-linecap="round" stroke-linejoin="round" x1="479.5" y1="0.5" x2="479.5" y2="1302.5" />
    <line stroke="#9999ff" stroke-width="1" stroke-dasharray="1,10" stroke-linecap="round" stroke-linejoin="round" x1="671.5" y1="0.5" x2="671.5" y2="1302.5" />
    <line stroke="#9999ff" stroke-width="1" stroke-dasharray="1,10" stroke-linecap="round" stroke-linejoin="round" x1="863.5" y1="0.5" x2="863.5" y2="1302.5" />
    <line stroke="#9999ff" stroke-width="1" stroke-dasharray="1,10" stroke-linecap="round" stroke-linejoin="round" x1="1054.5" y1="0.5" x2="1054.5" y2="1302.5" />
    <line stroke="#9999ff" stroke-width="1" stroke-dasharray="1,10" stroke-linecap="round" stroke-linejoin="round" x1="1246.5" y1="0.5" x2="1246.5" y2="1302.5" />
    <line stroke="#9999ff" stroke-width="1" stroke-dasharray="1,10" stroke-linecap="round" stroke-linejoin="round" x1="1438.5" y1="0.5" x2="1438.5" y2="1302.5" />
    <line stroke="#9999ff" stroke-width="1" stroke-dasharray="1,10" stroke-linecap="round" stroke-linejoin="round" x1="1629.5" y1="0.5" x2="1629.5" y2="1302.5" />
    <line stroke="#9999ff" stroke-width="1" stroke-dasharray="1,10" stroke-linecap="round" stroke-linejoin="round" x1="1821.5" y1="0.5" x2="1821.5" y2="1302.5" />
    <line stroke="#9999ff" stroke-width="1" stroke-dasharray="1,10" stroke-linecap="round" stroke-linejoin="round" x1="2013.5" y1="0.5" x2="2013.5" y2="1302.5" />
    <line stroke="#9999ff" stroke-width="1" stroke-dasharray="1,10" stroke-linecap="round" stroke-linejoin="round" x1="2204.5" y1="0.5" x2="2204.5" y2="1302.5" />
    <line stroke="#9999ff" stroke-width="1" stroke-dasharray="1,10" stroke-linecap="round" stroke-linejoin="round" x1="0.5" y1="1249.5" x2="2395.5" y2="1249.5" />
    <line stroke="#9999ff" stroke-width="1" stroke-dasharray="1,10" stroke-linecap="round" stroke-linejoin="round" x1="0.5" y1="1140.5" x2="2395.5" y2="1140.5" />
    <line stroke="#9999ff" stroke-width="1" stroke-dasharray="1,10" stroke-linecap="round" stroke-linejoin="round" x1="0.5" y1="1086.5" x2="2395.5" y2="1086.5" />
    <line stroke="#9999ff" stroke-width="1" stroke-dasharray="1,10" stroke-linecap="round" stroke-linejoin="round" x1="0.5" y1="1032.5" x2="2395.5" y2="1032.5" />
    <line stroke="#9999ff" stroke-width="1" stroke-dasharray="1,10" stroke-linecap="round" stroke-linejoin="round" x1="0.5" y1="977.5" x2="2395.5" y2="977.5" />
    <line stroke="#9999ff" stroke-width="1" stroke-dasharray="1,10" stroke-linecap="round" stroke-linejoin="round" x1="0.5" y1="923.5" x2="2395.5" y2="923.5" />
    <line stroke="#9999ff" stroke-width="1" stroke-dasharray="1,10" stroke-linecap="round" stroke-linejoin="round" x1="0.5" y1="869.5" x2="2395.5" y2="869.5" />
    <line stroke="#9999ff" stroke-width="1" stroke-dasharray="1,10" stroke-linecap="round" stroke-linejoin="round" x1="0.5" y1="814.5" x2="2395.5" y2="814.5" />
    <line stroke="#9999ff" stroke-width="1" stroke-dasharray="1,10" stroke-linecap="round" stroke-linejoin="round" x1="0.5" y1="760.5" x2="2395.5" y2="760.5" />
    <line stroke="#9999ff" stroke-width="1" stroke-dasharray="1,10" stroke-linecap="round" stroke-linejoin="round" x1="0.5" y1="706.5" x2="2395.5" y2="706.5" />
    <line stroke="#9999ff" stroke-width="1" stroke-dasharray="1,10" stroke-linecap="round" stroke-linejoin="round" x1="0.5" y1="651.5" x2="2395.5" y2="651.5" />
    <line stroke="#9999ff" stroke-width="1" stroke-dasharray="1,10" stroke-linecap="round" stroke-linejoin="round" x1="0.5" y1="597.5" x2="2395.5" y2="597.5" />
    <line stroke="#9999ff" stroke-width="1" stroke-dasharray="1,10" stroke-linecap="round" stroke-linejoin="round" x1="0.5" y1="543.5" x2="2395.5" y2="543.5" />
    <line stroke="#9999ff" stroke-width="1" stroke-dasharray="1,10" stroke-linecap="round" stroke-linejoin="round" x1="0.5" y1="489.5" x2="2395.5" y2="489.5" />
    <line stroke="#9999ff" stroke-width="1" stroke-dasharray="1,10" stroke-linecap="round" stroke-linejoin="round" x1="0.5" y1="434.5" x2="2395.5" y2="434.5" />
    <line stroke="#9999ff" stroke-width="1" stroke-dasharray="1,10" stroke-linecap="round" stroke-linejoin="round" x1="0.5" y1="380.5" x2="2395.5" y2="380.5" />
    <line stroke="#9999ff" stroke-width="1" stroke-dasharray="1,10" stroke-linecap="round" stroke-linejoin="round" x1="0.5" y1="326.5" x2="2395.5" y2="326.5" />
    <line stroke="#9999ff" stroke-width="1" stroke-dasharray="1,10" stroke-linecap="round" stroke-linejoin="round" x1="0.5" y1="271.5" x2="2395.5" y2="271.5" />
    <line stroke="#9999ff" stroke-width="1" stroke-dasharray="1,10" stroke-linecap="round" stroke-linejoin="round" x1="0.5" y1="217.5" x2="2395.5" y2="217.5" />
    <line stroke="#9999ff" stroke-width="1" stroke-dasharray="1,10" stroke-linecap="round" stroke-linejoin="round" x1="0.5" y1="163.5" x2="2395.5" y2="163.5" />
    <line stroke="#9999ff" stroke-width="1" stroke-dasharray="1,10" stroke-linecap="round" stroke-linejoin="round" x1="0.5" y1="109.5" x2="2395.5" y2="109.5" />
    <line stroke="#9999ff" stroke-width="1" stroke-dasharray="1,10" stroke-linecap="round" stroke-linejoin="round" x1="0.5" y1="54.5" x2="2395.5" y2="54.5" />
    <text x="285" y="1211" font-family="Times New Roman" font-size="13" fill="#000000">1</text>
    <text x="476" y="1211" font-family="Times New Roman" font-size="13" fill="#000000">2</text>
    <text x="668" y="1211" font-family="Times New Roman" font-size="13" fill="#000000">3</text>
    <text x="860" y="1211" font-family="Times New Roman" font-size="13" fill="#000000">4</text>
    <text x="1051" y="1211" font-family="Times New Roman" font-size="13" fill="#000000">5</text>
    <text x="1243" y="1211" font-family="Times New Roman" font-size="13" fill="#000000">6</text>
    <text x="1435" y="1211" font-family="Times New Roman" font-size="13" fill="#000000">7</text>
    <text x="1626" y="1211" font-family="Times New Roman" font-size="13" fill="#000000">8</text>
    <text x="1818" y="1211" font-family="Times New Roman" font-size="13" fill="#000000">9</text>
    <text x="2007" y="1211" font-family="Times New Roman" font-size="13" fill="#000000">10</text>
    <text x="2198" y="1211" font-family="Times New Roman" font-size="13" fill="#000000">11</text>
    <text x="64" y="1255" font-family="Times New Roman" font-size="13" fill="#000000">-0.05</text>
    <text x="68" y="1146" font-family="Times New Roman" font-size="13" fill="#000000">0.05</text>
    <text x="74" y="1092" font-family="Times New Roman" font-size="13" fill="#000000">0.1</text>
    <text x="68" y="1038" font-family="Times New Roman" font-size="13" fill="#000000">0.15</text>
    <text x="74" y="983" font-family="Times New Roman" font-size="13" fill="#000000">0.2</text>
    <text x="68" y="929" font-family="Times New Roman" font-size="13" fill="#000000">0.25</text>
    <text x="74" y="875" font-family="Times New Roman" font-size="13" fill="#000000">0.3</text>
    <text x="68" y="820" font-family="Times New Roman" font-size="13" fill="#000000">0.35</text>
    <text x="74" y="766" font-family="Times New Roman" font-size="13" fill="#000000">0.4</text>
    <text x="68" y="712" font-family="Times New Roman" font-size="13" fill="#000000">0.45</text>
    <text x="74" y="658" font-family="Times New Roman" font-size="13" fill="#000000">0.5</text>
    <text x="68" y="603" font-family="Times New Roman" font-size="13" fill="#000000">0.55</text>
    <text x="74" y="549" font-family="Times New Roman" font-size="13" fill="#000000">0.6</text>
    <text x="68" y="495" font-family="Times New Roman" font-size="13" fill="#000000">0.65</text>
    <text x="74" y="440" font-family="Times New Roman" font-size="13" fill="#000000">0.7</text>
    <text x="68" y="386" font-family="Times New Roman" font-size="13" fill="#000000">0.75</text>
    <text x="74" y="332" font-family="Times New Roman" font-size="13" fill="#000000">0.8</text>
    <text x="68" y="277" font-family="Times New Roman" font-size="13" fill="#000000">0.85</text>
    <text x="74" y="223" font-family="Times New Roman" font-size="13" fill="#000000">0.9</text>
    <text x="68" y="169" font-family="Times New Roman" font-size="13" fill="#000000">0.95</text>
    <text x="83" y="115" font-family="Times New Roman" font-size="13" fill="#000000">1</text>
    <text x="68" y="60" font-family="Times New Roman" font-size="13" fill="#000000">1.05</text>
    <text x="2385" y="1184" font-family="Times New Roman" font-size="16" font-weight="700" fill="#000000">x</text>
    <text x="108" y="13" font-family="Times New Roman" font-size="16" font-weight="700" fill="#000000">F(x)</text>
    <line stroke="#0000ff" stroke-width="2" stroke-linecap="butt" stroke-linejoin="bevel" x1="0" y1="1194" x2="2391" y2="1194" />
    <polygon stroke="#0000ff" stroke-width="1" stroke-linecap="round" stroke-linejoin="round" fill="#0000ff" points="2390.5,1188.5 2395.5,1193.5 2395.5,1194.5 2390.5,1199.5 " />
    <line stroke="#0000ff" stroke-width="1" stroke-linecap="round" stroke-linejoin="round" x1="288.5" y1="1199.5" x2="288.5" y2="1188.5" />
    <line stroke="#0000ff" stroke-width="1" stroke-linecap="round" stroke-linejoin="round" x1="479.5" y1="1199.5" x2="479.5" y2="1188.5" />
    <line stroke="#0000ff" stroke-width="1" stroke-linecap="round" stroke-linejoin="round" x1="671.5" y1="1199.5" x2="671.5" y2="1188.5" />
    <line stroke="#0000ff" stroke-width="1" stroke-linecap="round" stroke-linejoin="round" x1="863.5" y1="1199.5" x2="863.5" y2="1188.5" />
    <line stroke="#0000ff" stroke-width="1" stroke-linecap="round" stroke-linejoin="round" x1="1054.5" y1="1199.5" x2="1054.5" y2="1188.5" />
    <line stroke="#0000ff" stroke-width="1" stroke-linecap="round" stroke-linejoin="round" x1="1246.5" y1="1199.5" x2="1246.5" y2="1188.5" />
    <line stroke="#0000ff" stroke-width="1" stroke-linecap="round" stroke-linejoin="round" x1="1438.5" y1="1199.5" x2="1438.5" y2="1188.5" />
    <line stroke="#0000ff" stroke-width="1" stroke-linecap="round" stroke-linejoin="round" x1="1629.5" y1="1199.5" x2="1629.5" y2="1188.5" />
    <line stroke="#0000ff" stroke-width="1" stroke-linecap="round" stroke-linejoin="round" x1="1821.5" y1="1199.5" x2="1821.5" y2="1188.5" />
    <line stroke="#0000ff" stroke-width="1" stroke-linecap="round" stroke-linejoin="round" x1="2013.5" y1="1199.5" x2="2013.5" y2="1188.5" />
    <line stroke="#0000ff" stroke-width="1" stroke-linecap="round" stroke-linejoin="round" x1="2204.5" y1="1199.5" x2="2204.5" y2="1188.5" />
    <line stroke="#0000ff" stroke-width="2" stroke-linecap="butt" stroke-linejoin="bevel" x1="96" y1="3" x2="96" y2="1302" />
    <polygon stroke="#0000ff" stroke-width="1" stroke-linecap="round" stroke-linejoin="round" fill="#0000ff" points="90.5,5.5 95.5,0.5 96.5,0.5 101.5,5.5 " />
    <line stroke="#0000ff" stroke-width="1" stroke-linecap="round" stroke-linejoin="round" x1="90.5" y1="1249.5" x2="101.5" y2="1249.5" />
    <line stroke="#0000ff" stroke-width="1" stroke-linecap="round" stroke-linejoin="round" x1="90.5" y1="1140.5" x2="101.5" y2="1140.5" />
    <line stroke="#0000ff" stroke-width="1" stroke-linecap="round" stroke-linejoin="round" x1="90.5" y1="1086.5" x2="101.5" y2="1086.5" />
    <line stroke="#0000ff" stroke-width="1" stroke-linecap="round" stroke-linejoin="round" x1="90.5" y1="1032.5" x2="101.5" y2="1032.5" />
    <line stroke="#0000ff" stroke-width="1" stroke-linecap="round" stroke-linejoin="round" x1="90.5" y1="977.5" x2="101.5" y2="977.5" />
    <line stroke="#0000ff" stroke-width="1" stroke-linecap="round" stroke-linejoin="round" x1="90.5" y1="923.5" x2="101.5" y2="923.5" />
    <line stroke="#0000ff" stroke-width="1" stroke-linecap="round" stroke-linejoin="round" x1="90.5" y1="869.5" x2="101.5" y2="869.5" />
    <line stroke="#0000ff" stroke-width="1" stroke-linecap="round" stroke-linejoin="round" x1="90.5" y1="814.5" x2="101.5" y2="814.5" />
    <line stroke="#0000ff" stroke-width="1" stroke-linecap="round" stroke-linejoin="round" x1="90.5" y1="760.5" x2="101.5" y2="760.5" />
    <line stroke="#0000ff" stroke-width="1" stroke-linecap="round" stroke-linejoin="round" x1="90.5" y1="706.5" x2="101.5" y2="706.5" />
    <line stroke="#0000ff" stroke-width="1" stroke-linecap="round" stroke-linejoin="round" x1="90.5" y1="651.5" x2="101.5" y2="651.5" />
    <line stroke="#0000ff" stroke-width="1" stroke-linecap="round" stroke-linejoin="round" x1="90.5" y1="597.5" x2="101.5" y2="597.5" />
    <line stroke="#0000ff" stroke-width="1" stroke-linecap="round" stroke-linejoin="round" x1="90.5" y1="543.5" x2="101.5" y2="543.5" />
    <line stroke="#0000ff" stroke-width="1" stroke-linecap="round" stroke-linejoin="round" x1="90.5" y1="489.5" x2="101.5" y2="489.5" />
    <line stroke="#0000ff" stroke-width="1" stroke-linecap="round" stroke-linejoin="round" x1="90.5" y1="434.5" x2="101.5" y2="434.5" />
    <line stroke="#0000ff" stroke-width="1" stroke-linecap="round" stroke-linejoin="round" x1="90.5" y1="380.5" x2="101.5" y2="380.5" />
    <line stroke="#0000ff" stroke-width="1" stroke-linecap="round" stroke-linejoin="round" x1="90.5" y1="326.5" x2="101.5" y2="326.5" />
    <line stroke="#0000ff" stroke-width="1" stroke-linecap="round" stroke-linejoin="round" x1="90.5" y1="271.5" x2="101.5" y2="271.5" />
    <line stroke="#0000ff" stroke-width="1" stroke-linecap="round" stroke-linejoin="round" x1="90.5" y1="217.5" x2="101.5" y2="217.5" />
    <line stroke="#0000ff" stroke-width="1" stroke-linecap="round" stroke-linejoin="round" x1="90.5" y1="163.5" x2="101.5" y2="163.5" />
    <line stroke="#0000ff" stroke-width="1" stroke-linecap="round" stroke-linejoin="round" x1="90.5" y1="109.5" x2="101.5" y2="109.5" />
    <line stroke="#0000ff" stroke-width="1" stroke-linecap="round" stroke-linejoin="round" x1="90.5" y1="54.5" x2="101.5" y2="54.5" />
    <polyline stroke="#000000" stroke-width="3" stroke-linecap="butt" stroke-linejoin="bevel" fill="none" points="0,1194 6,1194 28,1194 34,1194 42,1194 55,1194 62,1194 71,1194 83,1194 90,1194 96,1194 " />
    <circle stroke="#000000" stroke-width="1" stroke-linecap="round" stroke-linejoin="round" fill="#ffffff" cx="-1820" cy="1194" r="6" />
    <circle stroke="#000000" stroke-width="1" stroke-linecap="round" stroke-linejoin="round" fill="#000000" cx="96" cy="1194" r="6" />
    <polyline stroke="#000000" stroke-width="3" stroke-linecap="butt" stroke-linejoin="bevel" fill="none" points="96,1194 102,1194 148,1194 171,1194 177,1194 232,1194 239,1194 263,1194 275,1194 281,1194 288,1194 " />
    <circle stroke="#000000" stroke-width="1" stroke-linecap="round" stroke-linejoin="round" fill="#ffffff" cx="96" cy="1194" r="6" />
    <circle stroke="#000000" stroke-width="1" stroke-linecap="round" stroke-linejoin="round" fill="#000000" cx="288" cy="1194" r="6" />
    <polyline stroke="#000000" stroke-width="3" stroke-linecap="butt" stroke-linejoin="bevel" fill="none" points="288,1194 383,1194 389,1194 395,1194 405,1194 411,1194 419,1194 428,1194 434,1194 441,1194 450,1194 460,1194 470,1194 479,1194 " />
    <circle stroke="#000000" stroke-width="1" stroke-linecap="round" stroke-linejoin="round" fill="#ffffff" cx="288" cy="1194" r="6" />
    <circle stroke="#000000" stroke-width="1" stroke-linecap="round" stroke-linejoin="round" fill="#000000" cx="479" cy="1194" r="6" />
    <polyline stroke="#000000" stroke-width="3" stroke-linecap="butt" stroke-linejoin="bevel" fill="none" points="479,1194 485,1194 508,1194 514,1194 553,1194 563,1194 570,1194 620,1194 627,1194 632,1194 638,1194 654,1194 663,1194 671,1194 " />
    <circle stroke="#000000" stroke-width="1" stroke-linecap="round" stroke-linejoin="round" fill="#ffffff" cx="479" cy="1194" r="6" />
    <circle stroke="#000000" stroke-width="1" stroke-linecap="round" stroke-linejoin="round" fill="#000000" cx="671" cy="1194" r="6" />
    <polyline stroke="#000000" stroke-width="3" stroke-linecap="butt" stroke-linejoin="bevel" fill="none" points="671,1188 677,1188 723,1188 729,1188 762,1188 771,1188 782,1188 788,1188 825,1188 835,1188 842,1188 852,1188 857,1188 863,1188 " />
    <circle stroke="#000000" stroke-width="1" stroke-linecap="round" stroke-linejoin="round" fill="#ffffff" cx="671" cy="1188" r="6" />
    <circle stroke="#000000" stroke-width="1" stroke-linecap="round" stroke-linejoin="round" fill="#000000" cx="863" cy="1188" r="6" />
    <polyline stroke="#000000" stroke-width="3" stroke-linecap="butt" stroke-linejoin="bevel" fill="none" points="863,1144 958,1144 964,1144 970,1144 975,1144 981,1144 1017,1144 1027,1144 1040,1144 1047,1144 1054,1144 " />
    <circle stroke="#000000" stroke-width="1" stroke-linecap="round" stroke-linejoin="round" fill="#ffffff" cx="863" cy="1144" r="6" />
    <circle stroke="#000000" stroke-width="1" stroke-linecap="round" stroke-linejoin="round" fill="#000000" cx="1054" cy="1144" r="6" />
    <polyline stroke="#000000" stroke-width="3" stroke-linecap="butt" stroke-linejoin="bevel" fill="none" points="1054,985 1060,985 1083,985 1089,985 1128,985 1138,985 1145,985 1195,985 1202,985 1207,985 1213,985 1229,985 1238,985 1246,985 " />
    <circle stroke="#000000" stroke-width="1" stroke-linecap="round" stroke-linejoin="round" fill="#ffffff" cx="1054" cy="985" r="6" />
    <circle stroke="#000000" stroke-width="1" stroke-linecap="round" stroke-linejoin="round" fill="#000000" cx="1246" cy="985" r="6" />
    <polyline stroke="#000000" stroke-width="3" stroke-linecap="butt" stroke-linejoin="bevel" fill="none" points="1246,676 1252,676 1298,676 1304,676 1312,676 1321,676 1379,676 1408,676 1416,676 1421,676 1427,676 1432,676 1438,676 " />
    <circle stroke="#000000" stroke-width="1" stroke-linecap="round" stroke-linejoin="round" fill="#ffffff" cx="1246" cy="676" r="6" />
    <circle stroke="#000000" stroke-width="1" stroke-linecap="round" stroke-linejoin="round" fill="#000000" cx="1438" cy="676" r="6" />
    <polyline stroke="#000000" stroke-width="3" stroke-linecap="butt" stroke-linejoin="bevel" fill="none" points="1438,348 1533,348 1539,348 1545,348 1550,348 1556,348 1592,348 1602,348 1615,348 1622,348 1629,348 " />
    <circle stroke="#000000" stroke-width="1" stroke-linecap="round" stroke-linejoin="round" fill="#ffffff" cx="1438" cy="348" r="6" />
    <circle stroke="#000000" stroke-width="1" stroke-linecap="round" stroke-linejoin="round" fill="#000000" cx="1629" cy="348" r="6" />
    <polyline stroke="#000000" stroke-width="3" stroke-linecap="butt" stroke-linejoin="bevel" fill="none" points="1629,164 1635,164 1658,164 1664,164 1703,164 1713,164 1720,164 1770,164 1777,164 1782,164 1788,164 1804,164 1813,164 1821,164 " />
    <circle stroke="#000000" stroke-width="1" stroke-linecap="round" stroke-linejoin="round" fill="#ffffff" cx="1629" cy="164" r="6" />
    <circle stroke="#000000" stroke-width="1" stroke-linecap="round" stroke-linejoin="round" fill="#000000" cx="1821" cy="164" r="6" />
    <polyline stroke="#000000" stroke-width="3" stroke-linecap="butt" stroke-linejoin="bevel" fill="none" points="1821,114 1827,114 1873,114 1879,114 1888,114 1950,114 1981,114 1989,114 1995,114 2004,114 2013,114 " />
    <circle stroke="#000000" stroke-width="1" stroke-linecap="round" stroke-linejoin="round" fill="#ffffff" cx="1821" cy="114" r="6" />
    <circle stroke="#000000" stroke-width="1" stroke-linecap="round" stroke-linejoin="round" fill="#000000" cx="2013" cy="114" r="6" />
    <polyline stroke="#000000" stroke-width="3" stroke-linecap="butt" stroke-linejoin="bevel" fill="none" points="2013,109 2108,109 2114,109 2120,109 2126,109 2132,109 2138,109 2144,109 2150,109 2156,109 2162,109 2168,109 2174,109 2180,109 2186,109 2192,109 2198,109 2204,109 2210,109 2216,109 2227,109 2233,109 2314,109 2320,109 2329,109 2339,109 2367,109 2375,109 2385,109 2391,109 2396,109 " />
    <circle stroke="#000000" stroke-width="1" stroke-linecap="round" stroke-linejoin="round" fill="#ffffff" cx="2013" cy="109" r="6" />
    <circle stroke="#000000" stroke-width="1" stroke-linecap="round" stroke-linejoin="round" fill="#000000" cx="2971" cy="109" r="6" />
  </g>
</svg>
