<?xml version="1.0" encoding="UTF-8"?>
<!DOCTYPE svg PUBLIC "-//W3C//DTD SVG 1.1//EN" "http://www.w3.org/Graphics/SVG/1.1/DTD/svg11.dtd">
<svg width="2396px" height="1303px" viewBox="0 0 2396 1303" version="1.1" xmlns="http://www.w3.org/2000/svg" xmlns:xlink="http://www.w3.org/1999/xlink">
  <g>
    <text x="23" y="1211" font-family="Times New Roman" font-size="13" fill="#000000">-0.4</text>
    <text x="87" y="1211" font-family="Times New Roman" font-size="13" fill="#000000">-0.2</text>
    <text x="217" y="1211" font-family="Times New Roman" font-size="13" fill="#000000">0.2</text>
    <text x="281" y="1211" font-family="Times New Roman" font-size="13" fill="#000000">0.4</text>
    <text x="344" y="1211" font-family="Times New Roman" font-size="13" fill="#000000">0.6</text>
    <text x="408" y="1211" font-family="Times New Roman" font-size="13" fill="#000000">0.8</text>
    <text x="476" y="1211" font-family="Times New Roman" font-size="13" fill="#000000">1</text>
    <text x="536" y="1211" font-family="Times New Roman" font-size="13" fill="#000000">1.2</text>
    <text x="600" y="1211" font-family="Times New Roman" font-size="13" fill="#000000">1.4</text>
    <text x="664" y="1211" font-family="Times New Roman" font-size="13" fill="#000000">1.6</text>
    <text x="728" y="1211" font-family="Times New Roman" font-size="13" fill="#000000">1.8</text>
    <text x="796" y="1211" font-family="Times New Roman" font-size="13" fill="#000000">2</text>
    <text x="856" y="1211" font-family="Times New Roman" font-size="13" fill="#000000">2.2</text>
    <text x="919" y="1211" font-family="Times New Roman" font-size="13" fill="#000000">2.4</text>
    <text x="983" y="1211" font-family="Times New Roman" font-size="13" fill="#000000">2.6</text>
    <text x="1047" y="1211" font-family="Times New Roman" font-size="13" fill="#000000">2.8</text>
    <text x="1115" y="1211" font-family="Times New Roman" font-size="13" fill="#000000">3</text>
    <text x="1175" y="1211" font-family="Times New Roman" font-size="13" fill="#000000">3.2</text>
    <text x="1239" y="1211" font-family="Times New Roman" font-size="13" fill="#000000">3.4</text>
    <text x="1303" y="1211" font-family="Times New Roman" font-size="13" fill="#000000">3.6</text>
    <text x="1367" y="1211" font-family="Times New Roman" font-size="13" fill="#000000">3.8</text>
    <text x="1435" y="1211" font-family="Times New Roman" font-size="13" fill="#000000">4</text>
    <text x="1494" y="1211" font-family="Times New Roman" font-size="13" fill="#000000">4.2</text>
    <text x="1558" y="1211" font-family="Times New Roman" font-size="13" fill="#000000">4.4</text>
    <text x="1622" y="1211" font-family="Times New Roman" font-size="13" fill="#000000">4.6</text>
    <text x="1686" y="1211" font-family="Times New Roman" font-size="13" fill="#000000">4.8</text>
    <text x="1754" y="1211" font-family="Times New Roman" font-size="13" fill="#000000">5</text>
    <text x="1814" y="1211" font-family="Times New Roman" font-size="13" fill="#000000">5.2</text>
    <text x="1878" y="1211" font-family="Times New Roman" font-size="13" fill="#000000">5.4</text>
    <text x="1942" y="1211" font-family="Times New Roman" font-size="13" fill="#000000">5.6</text>
    <text x="2006" y="1211" font-family="Times New Roman" font-size="13" fill="#000000">5.8</text>
    <text x="2074" y="1211" font-family="Times New Roman" font-size="13" fill="#000000">6</text>
    <text x="2133" y="1211" font-family="Times New Roman" font-size="13" fill="#000000">6.2</text>
    <text x="2197" y="1211" font-family="Times New Roman" font-size="13" fill="#000000">6.4</text>
    <text x="2261" y="1211" font-family="Times New Roman" font-size="13" fill="#000000">6.6</text>
    <text x="2325" y="1211" font-family="Times New Roman" font-size="13" fill="#000000">6.8</text>
    <text x="128" y="1255" font-family="Times New Roman" font-size="13" fill="#000000">-0.05</text>
    <text x="132" y="1146" font-family="Times New Roman" font-size="13" fill="#000000">0.05</text>
    <text x="138" y="1092" font-family="Times New Roman" font-size="13" fill="#000000">0.1</text>
    <text x="132" y="1038" font-family="Times New Roman" font-size="13" fill="#000000">0.15</text>
    <text x="138" y="983" font-family="Times New Roman" font-size="13" fill="#000000">0.2</text>
    <text x="132" y="929" font-family="Times New Roman" font-size="13" fill="#000000">0.25</text>
    <text x="138" y="875" font-family="Times New Roman" font-size="13" fill="#000000">0.3</text>
    <text x="132" y="820" font-family="Times New Roman" font-size="13" fill="#000000">0.35</text>
    <text x="138" y="766" font-family="Times New Roman" font-size="13" fill="#000000">0.4</text>
    <text x="132" y="712" font-family="Times New Roman" font-size="13" fill="#000000">0.45</text>
    <text x="138" y="658" font-family="Times New Roman" font-size="13" fill="#000000">0.5</text>
    <text x="132" y="603" font-family="Times New Roman" font-size="13" fill="#000000">0.55</text>
    <text x="138" y="549" font-family="Times New Roman" font-size="13" fill="#000000">0.6</text>
    <text x="132" y="495" font-family="Times New Roman" font-size="13" fill="#000000">0.65</text>
    <text x="138" y="440" font-family="Times New Roman" font-size="13" fill="#000000">0.7</text>
    <text x="132" y="386" font-family="Times New Roman" font-size="13" fill="#000000">0.75</text>
    <text x="138" y="332" font-family="Times New Roman" font-size="13" fill="#000000">0.8</text>
    <text x="132" y="277" font-family="Times New Roman" font-size="13" fill="#000000">0.85</text>
    <text x="138" y="223" font-family="Times New Roman" font-size="13" fill="#000000">0.9</text>
    <text x="132" y="169" font-family="Times New Roman" font-size="13" fill="#000000">0.95</text>
    <text x="147" y="115" font-family="Times New Roman" font-size="13" fill="#000000">1</text>
    <text x="132" y="60" font-family="Times New Roman" font-size="13" fill="#000000">1.05</text>
    <text x="2385" y="1184" font-family="Times New Roman" font-size="16" font-weight="700" fill="#000000">x</text>
    <text x="172" y="13" font-family="Times New Roman" font-size="16" font-weight="700" fill="#000000">F(x)</text>
    <line stroke="#0000ff" stroke-width="2" stroke-linecap="butt" stroke-linejoin="bevel" x1="0" y1="1194" x2="2391" y2="1194" />
    <polygon stroke="#0000ff" stroke-width="1" stroke-linecap="round" stroke-linejoin="round" fill="#0000ff" points="2390.5,1188.5 2395.5,1193.5 2395.5,1194.5 2390.5,1199.5 " />
    <line stroke="#0000ff" stroke-width="1" stroke-linecap="round" stroke-linejoin="round" x1="32.5" y1="1199.5" x2="32.5" y2="1188.5" />
    <line stroke="#0000ff" stroke-width="1" stroke-linecap="round" stroke-linejoin="round" x1="96.5" y1="1199.5" x2="96.5" y2="1188.5" />
    <line stroke="#0000ff" stroke-width="1" stroke-linecap="round" stroke-linejoin="round" x1="224.5" y1="1199.5" x2="224.5" y2="1188.5" />
    <line stroke="#0000ff" stroke-width="1" stroke-linecap="round" stroke-linejoin="round" x1="288.5" y1="1199.5" x2="288.5" y2="1188.5" />
    <line stroke="#0000ff" stroke-width="1" stroke-linecap="round" stroke-linejoin="round" x1="351.5" y1="1199.5" x2="351.5" y2="1188.5" />
    <line stroke="#0000ff" stroke-width="1" stroke-linecap="round" stroke-linejoin="round" x1="415.5" y1="1199.5" x2="415.5" y2="1188.5" />
    <line stroke="#0000ff" stroke-width="1" stroke-linecap="round" stroke-linejoin="round" x1="479.5" y1="1199.5" x2="479.5" y2="1188.5" />
    <line stroke="#0000ff" stroke-width="1" stroke-linecap="round" stroke-linejoin="round" x1="543.5" y1="1199.5" x2="543.5" y2="1188.5" />
    <line stroke="#0000ff" stroke-width="1" stroke-linecap="round" stroke-linejoin="round" x1="607.5" y1="1199.5" x2="607.5" y2="1188.5" />
    <line stroke="#0000ff" stroke-width="1" stroke-linecap="round" stroke-linejoin="round" x1="671.5" y1="1199.5" x2="671.5" y2="1188.5" />
    <line stroke="#0000ff" stroke-width="1" stroke-linecap="round" stroke-linejoin="round" x1="735.5" y1="1199.5" x2="735.5" y2="1188.5" />
    <line stroke="#0000ff" stroke-width="1" stroke-linecap="round" stroke-linejoin="round" x1="799.5" y1="1199.5" x2="799.5" y2="1188.5" />
    <line stroke="#0000ff" stroke-width="1" stroke-linecap="round" stroke-linejoin="round" x1="863.5" y1="1199.5" x2="863.5" y2="1188.5" />
    <line stroke="#0000ff" stroke-width="1" stroke-linecap="round" stroke-linejoin="round" x1="926.5" y1="1199.5" x2="926.5" y2="1188.5" />
    <line stroke="#0000ff" stroke-width="1" stroke-linecap="round" stroke-linejoin="round" x1="990.5" y1="1199.5" x2="990.5" y2="1188.5" />
    <line stroke="#0000ff" stroke-width="1" stroke-linecap="round" stroke-linejoin="round" x1="1054.5" y1="1199.5" x2="1054.5" y2="1188.5" />
    <line stroke="#0000ff" stroke-width="1" stroke-linecap="round" stroke-linejoin="round" x1="1118.5" y1="1199.5" x2="1118.5" y2="1188.5" />
    <line stroke="#0000ff" stroke-width="1" stroke-linecap="round" stroke-linejoin="round" x1="1182.5" y1="1199.5" x2="1182.5" y2="1188.5" />
    <line stroke="#0000ff" stroke-width="1" stroke-linecap="round" stroke-linejoin="round" x1="1246.5" y1="1199.5" x2="1246.5" y2="1188.5" />
    <line stroke="#0000ff" stroke-width="1" stroke-linecap="round" stroke-linejoin="round" x1="1310.5" y1="1199.5" x2="1310.5" y2="1188.5" />
    <line stroke="#0000ff" stroke-width="1" stroke-linecap="round" stroke-linejoin="round" x1="1374.5" y1="1199.5" x2="1374.5" y2="1188.5" />
    <line stroke="#0000ff" stroke-width="1" stroke-linecap="round" stroke-linejoin="round" x1="1438.5" y1="1199.5" x2="1438.5" y2="1188.5" />
    <line stroke="#0000ff" stroke-width="1" stroke-linecap="round" stroke-linejoin="round" x1="1501.5" y1="1199.5" x2="1501.5" y2="1188.5" />
    <line stroke="#0000ff" stroke-width="1" stroke-linecap="round" stroke-linejoin="round" x1="1565.5" y1="1199.5" x2="1565.5" y2="1188.5" />
    <line stroke="#0000ff" stroke-width="1" stroke-linecap="round" stroke-linejoin="round" x1="1629.5" y1="1199.5" x2="1629.5" y2="1188.5" />
    <line stroke="#0000ff" stroke-width="1" stroke-linecap="round" stroke-linejoin="round" x1="1693.5" y1="1199.5" x2="1693.5" y2="1188.5" />
    <line stroke="#0000ff" stroke-width="1" stroke-linecap="round" stroke-linejoin="round" x1="1757.5" y1="1199.5" x2="1757.5" y2="1188.5" />
    <line stroke="#0000ff" stroke-width="1" stroke-linecap="round" stroke-linejoin="round" x1="1821.5" y1="1199.5" x2="1821.5" y2="1188.5" />
    <line stroke="#0000ff" stroke-width="1" stroke-linecap="round" stroke-linejoin="round" x1="1885.5" y1="1199.5" x2="1885.5" y2="1188.5" />
    <line stroke="#0000ff" stroke-width="1" stroke-linecap="round" stroke-linejoin="round" x1="1949.5" y1="1199.5" x2="1949.5" y2="1188.5" />
    <line stroke="#0000ff" stroke-width="1" stroke-linecap="round" stroke-linejoin="round" x1="2013.5" y1="1199.5" x2="2013.5" y2="1188.5" />
    <line stroke="#0000ff" stroke-width="1" stroke-linecap="round" stroke-linejoin="round" x1="2077.5" y1="1199.5" x2="2077.5" y2="1188.5" />
    <line stroke="#0000ff" stroke-width="1" stroke-linecap="round" stroke-linejoin="round" x1="2140.5" y1="1199.5" x2="2140.5" y2="1188.5" />
    <line stroke="#0000ff" stroke-width="1" stroke-linecap="round" stroke-linejoin="round" x1="2204.5" y1="1199.5" x2="2204.5" y2="1188.5" />
    <line stroke="#0000ff" stroke-width="1" stroke-linecap="round" stroke-linejoin="round" x1="2268.5" y1="1199.5" x2="2268.5" y2="1188.5" />
    <line stroke="#0000ff" stroke-width="1" stroke-linecap="round" stroke-linejoin="round" x1="2332.5" y1="1199.5" x2="2332.5" y2="1188.5" />
    <line stroke="#0000ff" stroke-width="2" stroke-linecap="butt" stroke-linejoin="bevel" x1="160" y1="3" x2="160" y2="1302" />
    <polygon stroke="#0000ff" stroke-width="1" stroke-linecap="round" stroke-linejoin="round" fill="#0000ff" points="154.5,5.5 159.5,0.5 160.5,0.5 165.5,5.5 " />
    <line stroke="#0000ff" stroke-width="1" stroke-linecap="round" stroke-linejoin="round" x1="154.5" y1="1249.5" x2="165.5" y2="1249.5" />
    <line stroke="#0000ff" stroke-width="1" stroke-linecap="round" stroke-linejoin="round" x1="154.5" y1="1140.5" x2="165.5" y2="1140.5" />
    <line stroke="#0000ff" stroke-width="1" stroke-linecap="round" stroke-linejoin="round" x1="154.5" y1="1086.5" x2="165.5" y2="1086.5" />
    <line stroke="#0000ff" stroke-width="1" stroke-linecap="round" stroke-linejoin="round" x1="154.5" y1="1032.5" x2="165.5" y2="1032.5" />
    <line stroke="#0000ff" stroke-width="1" stroke-linecap="round" stroke-linejoin="round" x1="154.5" y1="977.5" x2="165.5" y2="977.5" />
    <line stroke="#0000ff" stroke-width="1" stroke-linecap="round" stroke-linejoin="round" x1="154.5" y1="923.5" x2="165.5" y2="923.5" />
    <line stroke="#0000ff" stroke-width="1" stroke-linecap="round" stroke-linejoin="round" x1="154.5" y1="869.5" x2="165.5" y2="869.5" />
    <line stroke="#0000ff" stroke-width="1" stroke-linecap="round" stroke-linejoin="round" x1="154.5" y1="814.5" x2="165.5" y2="814.5" />
    <line stroke="#0000ff" stroke-width="1" stroke-linecap="round" stroke-linejoin="round" x1="154.5" y1="760.5" x2="165.5" y2="760.5" />
    <line stroke="#0000ff" stroke-width="1" stroke-linecap="round" stroke-linejoin="round" x1="154.5" y1="706.5" x2="165.5" y2="706.5" />
    <line stroke="#0000ff" stroke-width="1" stroke-linecap="round" stroke-linejoin="round" x1="154.5" y1="651.5" x2="165.5" y2="651.5" />
    <line stroke="#0000ff" stroke-width="1" stroke-linecap="round" stroke-linejoin="round" x1="154.5" y1="597.5" x2="165.5" y2="597.5" />
    <line stroke="#0000ff" stroke-width="1" stroke-linecap="round" stroke-linejoin="round" x1="154.5" y1="543.5" x2="165.5" y2="543.5" />
    <line stroke="#0000ff" stroke-width="1" stroke-linecap="round" stroke-linejoin="round" x1="154.5" y1="489.5" x2="165.5" y2="489.5" />
    <line stroke="#0000ff" stroke-width="1" stroke-linecap="round" stroke-linejoin="round" x1="154.5" y1="434.5" x2="165.5" y2="434.5" />
    <line stroke="#0000ff" stroke-width="1" stroke-linecap="round" stroke-linejoin="round" x1="154.5" y1="380.5" x2="165.5" y2="380.5" />
    <line stroke="#0000ff" stroke-width="1" stroke-linecap="round" stroke-linejoin="round" x1="154.5" y1="326.5" x2="165.5" y2="326.5" />
    <line stroke="#0000ff" stroke-width="1" stroke-linecap="round" stroke-linejoin="round" x1="154.5" y1="271.5" x2="165.5" y2="271.5" />
    <line stroke="#0000ff" stroke-width="1" stroke-linecap="round" stroke-linejoin="round" x1="154.5" y1="217.5" x2="165.5" y2="217.5" />
    <line stroke="#0000ff" stroke-width="1" stroke-linecap="round" stroke-linejoin="round" x1="154.5" y1="163.5" x2="165.5" y2="163.5" />
    <line stroke="#0000ff" stroke-width="1" stroke-linecap="round" stroke-linejoin="round" x1="154.5" y1="109.5" x2="165.5" y2="109.5" />
    <line stroke="#0000ff" stroke-width="1" stroke-linecap="round" stroke-linejoin="round" x1="154.5" y1="54.5" x2="165.5" y2="54.5" />
    <polyline stroke="#000000" stroke-width="3" stroke-linecap="butt" stroke-linejoin="bevel" fill="none" points="0,1194 10,1194 47,1194 57,1194 108,1194 115,1194 137,1194 148,1194 154,1194 160,1194 " />
    <circle stroke="#000000" stroke-width="1" stroke-linecap="round" stroke-linejoin="round" fill="#ffffff" cx="-3034" cy="1194" r="6" />
    <circle stroke="#000000" stroke-width="1" stroke-linecap="round" stroke-linejoin="round" fill="#000000" cx="160" cy="1194" r="6" />
    <polyline stroke="#000000" stroke-width="3" stroke-linecap="butt" stroke-linejoin="bevel" fill="none" points="160,1108 319,1108 329,1108 339,1108 356,1108 365,1108 379,1108 387,1108 398,1108 404,1108 413,1108 423,1108 430,1108 454,1108 461,1108 470,1108 479,1108 " />
    <circle stroke="#000000" stroke-width="1" stroke-linecap="round" stroke-linejoin="round" fill="#ffffff" cx="160" cy="1108" r="6" />
    <circle stroke="#000000" stroke-width="1" stroke-linecap="round" stroke-linejoin="round" fill="#000000" cx="479" cy="1108" r="6" />
    <polyline stroke="#000000" stroke-width="3" stroke-linecap="butt" stroke-linejoin="bevel" fill="none" points="479,835 489,835 499,835 536,835 546,835 672,835 735,835 743,835 750,835 774,835 781,835 790,835 799,835 " />
    <circle stroke="#000000" stroke-width="1" stroke-linecap="round" stroke-linejoin="round" fill="#ffffff" cx="479" cy="835" r="6" />
    <circle stroke="#000000" stroke-width="1" stroke-linecap="round" stroke-linejoin="round" fill="#000000" cx="799" cy="835" r="6" />
    <polyline stroke="#000000" stroke-width="3" stroke-linecap="butt" stroke-linejoin="bevel" fill="none" points="799,478 958,478 968,478 978,478 995,478 1004,478 1018,478 1025,478 1033,478 1075,478 1081,478 1099,478 1109,478 1118,478 " />
    <circle stroke="#000000" stroke-width="1" stroke-linecap="round" stroke-linejoin="round" fill="#ffffff" cx="799" cy="478" r="6" />
    <circle stroke="#000000" stroke-width="1" stroke-linecap="round" stroke-linejoin="round" fill="#000000" cx="1118" cy="478" r="6" />
    <polyline stroke="#000000" stroke-width="3" stroke-linecap="butt" stroke-linejoin="bevel" fill="none" points="1118,229 1128,229 1205,229 1215,229 1326,229 1333,229 1385,229 1398,229 1405,229 1421,229 1429,229 1438,229 " />
    <circle stroke="#000000" stroke-width="1" stroke-linecap="round" stroke-linejoin="round" fill="#ffffff" cx="1118" cy="229" r="6" />
    <circle stroke="#000000" stroke-width="1" stroke-linecap="round" stroke-linejoin="round" fill="#000000" cx="1438" cy="229" r="6" />
    <polyline stroke="#000000" stroke-width="3" stroke-linecap="butt" stroke-linejoin="bevel" fill="none" points="1438,131 1597,131 1607,131 1617,131 1634,131 1643,131 1657,131 1664,131 1672,131 1714,131 1720,131 1738,131 1748,131 1757,131 " />
    <circle stroke="#000000" stroke-width="1" stroke-linecap="round" stroke-linejoin="round" fill="#ffffff" cx="1438" cy="131" r="6" />
    <circle stroke="#000000" stroke-width="1" stroke-linecap="round" stroke-linejoin="round" fill="#000000" cx="1757" cy="131" r="6" />
    <polyline stroke="#000000" stroke-width="3" stroke-linecap="butt" stroke-linejoin="bevel" fill="none" points="1757,110 1767,110 1844,110 1854,110 1965,110 1972,110 2024,110 2050,110 2063,110 2070,110 2077,110 " />
    <circle stroke="#000000" stroke-width="1" stroke-linecap="round" stroke-linejoin="round" fill="#ffffff" cx="1757" cy="110" r="6" />
    <circle stroke="#000000" stroke-width="1" stroke-linecap="round" stroke-linejoin="round" fill="#000000" cx="2077" cy="110" r="6" />
    <polyline stroke="#000000" stroke-width="3" stroke-linecap="butt" stroke-linejoin="bevel" fill="none" points="2077,109 2236,109 2246,109 2256,109 2273,109 2282,109 2310,109 2318,109 2337,109 2347,109 2371,109 2378,109 2387,109 2396,109 " />
    <circle stroke="#000000" stroke-width="1" stroke-linecap="round" stroke-linejoin="round" fill="#ffffff" cx="2077" cy="109" r="6" />
    <circle stroke="#000000" stroke-width="1" stroke-linecap="round" stroke-linejoin="round" fill="#000000" cx="3354" cy="109" r="6" />
  </g>
</svg>
