<?xml version="1.0" encoding="UTF-8"?>
<!DOCTYPE svg PUBLIC "-//W3C//DTD SVG 1.1//EN" "http://www.w3.org/Graphics/SVG/1.1/DTD/svg11.dtd">
<svg width="2396px" height="1303px" viewBox="0 0 2396 1303" version="1.1" xmlns="http://www.w3.org/2000/svg" xmlns:xlink="http://www.w3.org/1999/xlink">
  <g>
    <text x="229" y="1216" font-family="Times New Roman" font-size="21" fill="#000000">1</text>
    <text x="409" y="1216" font-family="Times New Roman" font-size="21" fill="#000000">2</text>
    <text x="589" y="1216" font-family="Times New Roman" font-size="21" fill="#000000">3</text>
    <text x="770" y="1216" font-family="Times New Roman" font-size="21" fill="#000000">4</text>
    <text x="950" y="1216" font-family="Times New Roman" font-size="21" fill="#000000">5</text>
    <text x="1130" y="1216" font-family="Times New Roman" font-size="21" fill="#000000">6</text>
    <text x="1310" y="1216" font-family="Times New Roman" font-size="21" fill="#000000">7</text>
    <text x="1490" y="1216" font-family="Times New Roman" font-size="21" fill="#000000">8</text>
    <text x="1670" y="1216" font-family="Times New Roman" font-size="21" fill="#000000">9</text>
    <text x="1845" y="1216" font-family="Times New Roman" font-size="21" fill="#000000">10</text>
    <text x="2025" y="1216" font-family="Times New Roman" font-size="21" fill="#000000">11</text>
    <text x="2205" y="1216" font-family="Times New Roman" font-size="21" fill="#000000">12</text>
    <text x="20" y="1093" font-family="Times New Roman" font-size="21" fill="#000000">0.1</text>
    <text x="20" y="984" font-family="Times New Roman" font-size="21" fill="#000000">0.2</text>
    <text x="20" y="876" font-family="Times New Roman" font-size="21" fill="#000000">0.3</text>
    <text x="20" y="767" font-family="Times New Roman" font-size="21" fill="#000000">0.4</text>
    <text x="20" y="659" font-family="Times New Roman" font-size="21" fill="#000000">0.5</text>
    <text x="20" y="550" font-family="Times New Roman" font-size="21" fill="#000000">0.6</text>
    <text x="20" y="441" font-family="Times New Roman" font-size="21" fill="#000000">0.7</text>
    <text x="20" y="333" font-family="Times New Roman" font-size="21" fill="#000000">0.8</text>
    <text x="20" y="224" font-family="Times New Roman" font-size="21" fill="#000000">0.9</text>
    <text x="36" y="116" font-family="Times New Roman" font-size="21" fill="#000000">1</text>
    <text x="2382" y="1182" font-family="Times New Roman" font-size="21" font-weight="700" fill="#000000">k</text>
    <text x="66" y="15" font-family="Times New Roman" font-size="21" font-weight="700" fill="#000000">P(k)</text>
    <line stroke="#0000ff" stroke-width="2" stroke-linecap="butt" stroke-linejoin="bevel" x1="0" y1="1194" x2="2391" y2="1194" />
    <polygon stroke="#0000ff" stroke-width="1" stroke-linecap="round" stroke-linejoin="round" fill="#0000ff" points="2389.5,1187.5 2395.5,1193.5 2395.5,1194.5 2389.5,1200.5 " />
    <line stroke="#0000ff" stroke-width="1" stroke-linecap="round" stroke-linejoin="round" x1="234.5" y1="1199.5" x2="234.5" y2="1188.5" />
    <line stroke="#0000ff" stroke-width="1" stroke-linecap="round" stroke-linejoin="round" x1="414.5" y1="1199.5" x2="414.5" y2="1188.5" />
    <line stroke="#0000ff" stroke-width="1" stroke-linecap="round" stroke-linejoin="round" x1="594.5" y1="1199.5" x2="594.5" y2="1188.5" />
    <line stroke="#0000ff" stroke-width="1" stroke-linecap="round" stroke-linejoin="round" x1="775.5" y1="1199.5" x2="775.5" y2="1188.5" />
    <line stroke="#0000ff" stroke-width="1" stroke-linecap="round" stroke-linejoin="round" x1="955.5" y1="1199.5" x2="955.5" y2="1188.5" />
    <line stroke="#0000ff" stroke-width="1" stroke-linecap="round" stroke-linejoin="round" x1="1135.5" y1="1199.5" x2="1135.5" y2="1188.5" />
    <line stroke="#0000ff" stroke-width="1" stroke-linecap="round" stroke-linejoin="round" x1="1315.5" y1="1199.5" x2="1315.5" y2="1188.5" />
    <line stroke="#0000ff" stroke-width="1" stroke-linecap="round" stroke-linejoin="round" x1="1495.5" y1="1199.5" x2="1495.5" y2="1188.5" />
    <line stroke="#0000ff" stroke-width="1" stroke-linecap="round" stroke-linejoin="round" x1="1675.5" y1="1199.5" x2="1675.5" y2="1188.5" />
    <line stroke="#0000ff" stroke-width="1" stroke-linecap="round" stroke-linejoin="round" x1="1856.5" y1="1199.5" x2="1856.5" y2="1188.5" />
    <line stroke="#0000ff" stroke-width="1" stroke-linecap="round" stroke-linejoin="round" x1="2036.5" y1="1199.5" x2="2036.5" y2="1188.5" />
    <line stroke="#0000ff" stroke-width="1" stroke-linecap="round" stroke-linejoin="round" x1="2216.5" y1="1199.5" x2="2216.5" y2="1188.5" />
    <line stroke="#0000ff" stroke-width="2" stroke-linecap="butt" stroke-linejoin="bevel" x1="54" y1="3" x2="54" y2="1302" />
    <polygon stroke="#0000ff" stroke-width="1" stroke-linecap="round" stroke-linejoin="round" fill="#0000ff" points="47.5,6.5 53.5,0.5 54.5,0.5 60.5,6.5 " />
    <line stroke="#0000ff" stroke-width="1" stroke-linecap="round" stroke-linejoin="round" x1="48.5" y1="1086.5" x2="59.5" y2="1086.5" />
    <line stroke="#0000ff" stroke-width="1" stroke-linecap="round" stroke-linejoin="round" x1="48.5" y1="977.5" x2="59.5" y2="977.5" />
    <line stroke="#0000ff" stroke-width="1" stroke-linecap="round" stroke-linejoin="round" x1="48.5" y1="869.5" x2="59.5" y2="869.5" />
    <line stroke="#0000ff" stroke-width="1" stroke-linecap="round" stroke-linejoin="round" x1="48.5" y1="760.5" x2="59.5" y2="760.5" />
    <line stroke="#0000ff" stroke-width="1" stroke-linecap="round" stroke-linejoin="round" x1="48.5" y1="652.5" x2="59.5" y2="652.5" />
    <line stroke="#0000ff" stroke-width="1" stroke-linecap="round" stroke-linejoin="round" x1="48.5" y1="543.5" x2="59.5" y2="543.5" />
    <line stroke="#0000ff" stroke-width="1" stroke-linecap="round" stroke-linejoin="round" x1="48.5" y1="434.5" x2="59.5" y2="434.5" />
    <line stroke="#0000ff" stroke-width="1" stroke-linecap="round" stroke-linejoin="round" x1="48.5" y1="326.5" x2="59.5" y2="326.5" />
    <line stroke="#0000ff" stroke-width="1" stroke-linecap="round" stroke-linejoin="round" x1="48.5" y1="217.5" x2="59.5" y2="217.5" />
    <line stroke="#0000ff" stroke-width="1" stroke-linecap="round" stroke-linejoin="round" x1="48.5" y1="109.5" x2="59.5" y2="109.5" />
    <polyline stroke="#000000" stroke-width="1" stroke-linecap="round" stroke-linejoin="round" fill="none" points="54,1187 55,1187 56,1187 57,1187 58,1186 59,1186 60,1186 61,1186 62,1186 63,1186 64,1186 65,1185 66,1185 67,1185 68,1185 69,1185 70,1185 71,1185 72,1184 73,1184 74,1184 75,1184 76,1184 77,1184 78,1184 79,1183 80,1183 81,1183 82,1183 83,1183 84,1183 85,1183 86,1182 87,1182 88,1182 89,1182 90,1182 91,1182 92,1182 93,1181 94,1181 95,1181 96,1181 97,1181 98,1181 99,1181 100,1180 101,1180 102,1180 103,1180 104,1180 105,1180 106,1179 107,1179 108,1179 109,1179 110,1179 111,1179 112,1179 113,1178 114,1178 115,1178 116,1178 117,1178 118,1178 119,1177 120,1177 121,1177 122,1177 123,1177 124,1177 125,1176 126,1176 127,1176 128,1176 129,1176 130,1176 131,1175 132,1175 133,1175 134,1175 135,1175 136,1174 137,1174 138,1174 139,1174 140,1174 141,1174 142,1173 143,1173 144,1173 145,1173 146,1173 147,1172 148,1172 149,1172 150,1172 151,1172 152,1172 153,1171 154,1171 155,1171 156,1171 157,1171 158,1170 159,1170 160,1170 161,1170 162,1170 163,1169 164,1169 165,1169 166,1169 167,1168 168,1168 169,1168 170,1168 171,1168 172,1167 173,1167 174,1167 175,1167 176,1167 177,1166 178,1166 179,1166 180,1166 181,1165 182,1165 183,1165 184,1165 185,1164 186,1164 187,1164 188,1164 189,1164 190,1163 191,1163 192,1163 193,1163 194,1162 195,1162 196,1162 197,1162 198,1161 199,1161 200,1161 201,1161 202,1160 203,1160 204,1160 205,1159 206,1159 207,1159 208,1159 209,1158 210,1158 211,1158 212,1158 213,1157 214,1157 215,1157 216,1156 217,1156 218,1156 219,1156 220,1155 221,1155 222,1155 223,1154 224,1154 225,1154 226,1153 227,1153 228,1153 229,1153 230,1152 231,1152 232,1152 233,1151 234,1151 235,1151 236,1150 237,1150 238,1150 239,1149 240,1149 241,1149 242,1148 243,1148 244,1148 245,1147 246,1147 247,1147 248,1146 249,1146 250,1146 251,1145 252,1145 253,1145 254,1144 255,1144 256,1144 257,1143 258,1143 259,1142 260,1142 261,1142 262,1141 263,1141 264,1141 265,1140 266,1140 267,1139 268,1139 269,1139 270,1138 271,1138 272,1137 273,1137 274,1137 275,1136 276,1136 277,1136 278,1135 279,1135 280,1134 281,1134 282,1134 283,1133 284,1133 285,1132 286,1132 287,1131 288,1131 289,1131 290,1130 291,1130 292,1129 293,1129 294,1129 295,1128 296,1128 297,1127 298,1127 299,1126 300,1126 301,1126 302,1125 303,1125 304,1124 305,1124 306,1123 307,1123 308,1122 309,1122 310,1122 311,1121 312,1121 313,1120 314,1120 315,1119 316,1119 317,1118 318,1118 319,1117 320,1117 321,1117 322,1116 323,1116 324,1115 325,1115 326,1114 327,1114 328,1113 329,1113 330,1112 331,1112 332,1111 333,1111 334,1110 335,1110 336,1109 337,1109 338,1108 339,1108 340,1108 341,1107 342,1107 343,1106 344,1106 345,1105 346,1105 347,1104 348,1104 349,1103 350,1103 351,1102 352,1102 353,1101 354,1101 355,1100 356,1100 357,1099 358,1099 359,1098 360,1098 361,1097 362,1097 363,1096 364,1096 365,1095 366,1095 367,1094 368,1094 369,1093 370,1092 371,1092 372,1091 373,1091 374,1090 375,1090 376,1089 377,1089 378,1088 379,1088 380,1087 381,1087 382,1086 383,1086 384,1085 385,1085 386,1084 387,1084 388,1083 389,1083 390,1082 391,1081 392,1081 393,1080 394,1080 395,1079 396,1079 397,1078 398,1078 399,1077 400,1077 401,1076 402,1076 403,1075 404,1074 405,1074 406,1073 407,1073 408,1072 409,1072 410,1071 411,1071 412,1070 413,1070 414,1069 415,1068 416,1068 417,1067 418,1067 419,1066 420,1066 421,1065 422,1065 423,1064 424,1063 425,1063 426,1062 427,1062 428,1061 429,1061 430,1060 431,1060 432,1059 433,1059 434,1058 435,1057 436,1057 437,1056 438,1056 439,1055 440,1055 441,1054 442,1053 443,1053 444,1052 445,1052 446,1051 447,1051 448,1050 449,1050 450,1049 451,1048 452,1048 453,1047 454,1047 455,1046 456,1046 457,1045 458,1045 459,1044 460,1043 461,1043 462,1042 463,1042 464,1041 465,1041 466,1040 467,1040 468,1039 469,1038 470,1038 471,1037 472,1037 473,1036 474,1036 475,1035 476,1035 477,1034 478,1033 479,1033 480,1032 481,1032 482,1031 483,1031 484,1030 485,1030 486,1029 487,1028 488,1028 489,1027 490,1027 491,1026 492,1026 493,1025 494,1025 495,1024 496,1023 497,1023 498,1022 499,1022 500,1021 501,1021 502,1020 503,1020 504,1019 505,1019 506,1018 507,1018 508,1017 509,1016 510,1016 511,1015 512,1015 513,1014 514,1014 515,1013 516,1013 517,1012 518,1012 519,1011 520,1011 521,1010 522,1010 523,1009 524,1008 525,1008 526,1007 527,1007 528,1006 529,1006 530,1005 531,1005 532,1004 533,1004 534,1003 535,1003 536,1002 537,1002 538,1001 539,1001 540,1000 541,1000 542,999 543,999 544,998 545,998 546,997 547,997 548,996 549,996 550,995 551,995 552,994 553,994 554,993 555,993 556,992 557,992 558,991 559,991 560,990 561,990 562,989 563,989 564,988 565,988 566,988 567,987 568,987 569,986 570,986 571,985 572,985 573,984 574,984 575,983 576,983 577,982 578,982 579,982 580,981 581,981 582,980 583,980 584,979 585,979 586,978 587,978 588,978 589,977 590,977 591,976 592,976 593,975 594,975 595,975 596,974 597,974 598,973 599,973 600,973 601,972 602,972 603,971 604,971 605,970 606,970 607,970 608,969 609,969 610,969 611,968 612,968 613,967 614,967 615,967 616,966 617,966 618,965 619,965 620,965 621,964 622,964 623,964 624,963 625,963 626,963 627,962 628,962 629,961 630,961 631,961 632,960 633,960 634,960 635,959 636,959 637,959 638,958 639,958 640,958 641,957 642,957 643,957 644,957 645,956 646,956 647,956 648,955 649,955 650,955 651,954 652,954 653,954 654,953 655,953 656,953 657,953 658,952 659,952 660,952 661,951 662,951 663,951 664,951 665,950 666,950 667,950 668,950 669,949 670,949 671,949 672,949 673,948 674,948 675,948 676,948 677,947 678,947 679,947 680,947 681,946 682,946 683,946 684,946 685,945 686,945 687,945 688,945 689,945 690,944 691,944 692,944 693,944 694,944 695,943 696,943 697,943 698,943 699,943 700,942 701,942 702,942 703,942 704,942 705,942 706,941 707,941 708,941 709,941 710,941 711,941 712,940 713,940 714,940 715,940 716,940 717,940 718,939 719,939 720,939 721,939 722,939 723,939 724,939 725,939 726,938 727,938 728,938 729,938 730,938 731,938 732,938 733,938 734,938 735,938 736,937 737,937 738,937 739,937 740,937 741,937 742,937 743,937 744,937 745,937 746,937 747,937 748,937 749,936 750,936 751,936 752,936 753,936 754,936 755,936 756,936 757,936 758,936 759,936 760,936 761,936 762,936 763,936 764,936 765,936 766,936 767,936 768,936 769,936 770,936 771,936 772,936 773,936 774,936 775,936 776,936 777,936 778,936 779,936 780,936 781,936 782,936 783,936 784,936 785,936 786,936 787,936 788,936 789,937 790,937 791,937 792,937 793,937 794,937 795,937 796,937 797,937 798,937 799,937 800,937 801,937 802,938 803,938 804,938 805,938 806,938 807,938 808,938 809,938 810,938 811,938 812,939 813,939 814,939 815,939 816,939 817,939 818,939 819,940 820,940 821,940 822,940 823,940 824,940 825,940 826,941 827,941 828,941 829,941 830,941 831,941 832,942 833,942 834,942 835,942 836,942 837,942 838,943 839,943 840,943 841,943 842,943 843,944 844,944 845,944 846,944 847,944 848,945 849,945 850,945 851,945 852,945 853,946 854,946 855,946 856,946 857,946 858,947 859,947 860,947 861,947 862,948 863,948 864,948 865,948 866,949 867,949 868,949 869,949 870,950 871,950 872,950 873,950 874,951 875,951 876,951 877,951 878,952 879,952 880,952 881,953 882,953 883,953 884,953 885,954 886,954 887,954 888,955 889,955 890,955 891,955 892,956 893,956 894,956 895,957 896,957 897,957 898,958 899,958 900,958 901,959 902,959 903,959 904,959 905,960 906,960 907,960 908,961 909,961 910,961 911,962 912,962 913,962 914,963 915,963 916,963 917,964 918,964 919,964 920,965 921,965 922,966 923,966 924,966 925,967 926,967 927,967 928,968 929,968 930,968 931,969 932,969 933,970 934,970 935,970 936,971 937,971 938,971 939,972 940,972 941,973 942,973 943,973 944,974 945,974 946,974 947,975 948,975 949,976 950,976 951,976 952,977 953,977 954,978 955,978 956,978 957,979 958,979 959,980 960,980 961,980 962,981 963,981 964,982 965,982 966,982 967,983 968,983 969,984 970,984 971,985 972,985 973,985 974,986 975,986 976,987 977,987 978,988 979,988 980,988 981,989 982,989 983,990 984,990 985,991 986,991 987,991 988,992 989,992 990,993 991,993 992,994 993,994 994,995 995,995 996,995 997,996 998,996 999,997 1000,997 1001,998 1002,998 1003,999 1004,999 1005,1000 1006,1000 1007,1000 1008,1001 1009,1001 1010,1002 1011,1002 1012,1003 1013,1003 1014,1004 1015,1004 1016,1005 1017,1005 1018,1006 1019,1006 1020,1006 1021,1007 1022,1007 1023,1008 1024,1008 1025,1009 1026,1009 1027,1010 1028,1010 1029,1011 1030,1011 1031,1012 1032,1012 1033,1013 1034,1013 1035,1014 1036,1014 1037,1015 1038,1015 1039,1015 1040,1016 1041,1016 1042,1017 1043,1017 1044,1018 1045,1018 1046,1019 1047,1019 1048,1020 1049,1020 1050,1021 1051,1021 1052,1022 1053,1022 1054,1023 1055,1023 1056,1024 1057,1024 1058,1025 1059,1025 1060,1026 1061,1026 1062,1027 1063,1027 1064,1028 1065,1028 1066,1029 1067,1029 1068,1030 1069,1030 1070,1030 1071,1031 1072,1031 1073,1032 1074,1032 1075,1033 1076,1033 1077,1034 1078,1034 1079,1035 1080,1035 1081,1036 1082,1036 1083,1037 1084,1037 1085,1038 1086,1038 1087,1039 1088,1039 1089,1040 1090,1040 1091,1041 1092,1041 1093,1042 1094,1042 1095,1043 1096,1043 1097,1044 1098,1044 1099,1045 1100,1045 1101,1046 1102,1046 1103,1047 1104,1047 1105,1048 1106,1048 1107,1049 1108,1049 1109,1050 1110,1050 1111,1050 1112,1051 1113,1051 1114,1052 1115,1052 1116,1053 1117,1053 1118,1054 1119,1054 1120,1055 1121,1055 1122,1056 1123,1056 1124,1057 1125,1057 1126,1058 1127,1058 1128,1059 1129,1059 1130,1060 1131,1060 1132,1061 1133,1061 1134,1062 1135,1062 1136,1062 1137,1063 1138,1063 1139,1064 1140,1064 1141,1065 1142,1065 1143,1066 1144,1066 1145,1067 1146,1067 1147,1068 1148,1068 1149,1069 1150,1069 1151,1070 1152,1070 1153,1070 1154,1071 1155,1071 1156,1072 1157,1072 1158,1073 1159,1073 1160,1074 1161,1074 1162,1075 1163,1075 1164,1076 1165,1076 1166,1076 1167,1077 1168,1077 1169,1078 1170,1078 1171,1079 1172,1079 1173,1080 1174,1080 1175,1080 1176,1081 1177,1081 1178,1082 1179,1082 1180,1083 1181,1083 1182,1084 1183,1084 1184,1085 1185,1085 1186,1085 1187,1086 1188,1086 1189,1087 1190,1087 1191,1088 1192,1088 1193,1088 1194,1089 1195,1089 1196,1090 1197,1090 1198,1091 1199,1091 1200,1092 1201,1092 1202,1092 1203,1093 1204,1093 1205,1094 1206,1094 1207,1095 1208,1095 1209,1095 1210,1096 1211,1096 1212,1097 1213,1097 1214,1097 1215,1098 1216,1098 1217,1099 1218,1099 1219,1100 1220,1100 1221,1100 1222,1101 1223,1101 1224,1102 1225,1102 1226,1102 1227,1103 1228,1103 1229,1104 1230,1104 1231,1104 1232,1105 1233,1105 1234,1106 1235,1106 1236,1106 1237,1107 1238,1107 1239,1108 1240,1108 1241,1108 1242,1109 1243,1109 1244,1110 1245,1110 1246,1110 1247,1111 1248,1111 1249,1112 1250,1112 1251,1112 1252,1113 1253,1113 1254,1114 1255,1114 1256,1114 1257,1115 1258,1115 1259,1115 1260,1116 1261,1116 1262,1117 1263,1117 1264,1117 1265,1118 1266,1118 1267,1118 1268,1119 1269,1119 1270,1120 1271,1120 1272,1120 1273,1121 1274,1121 1275,1121 1276,1122 1277,1122 1278,1122 1279,1123 1280,1123 1281,1124 1282,1124 1283,1124 1284,1125 1285,1125 1286,1125 1287,1126 1288,1126 1289,1126 1290,1127 1291,1127 1292,1127 1293,1128 1294,1128 1295,1128 1296,1129 1297,1129 1298,1129 1299,1130 1300,1130 1301,1130 1302,1131 1303,1131 1304,1131 1305,1132 1306,1132 1307,1132 1308,1133 1309,1133 1310,1133 1311,1134 1312,1134 1313,1134 1314,1135 1315,1135 1316,1135 1317,1136 1318,1136 1319,1136 1320,1137 1321,1137 1322,1137 1323,1138 1324,1138 1325,1138 1326,1138 1327,1139 1328,1139 1329,1139 1330,1140 1331,1140 1332,1140 1333,1141 1334,1141 1335,1141 1336,1141 1337,1142 1338,1142 1339,1142 1340,1143 1341,1143 1342,1143 1343,1143 1344,1144 1345,1144 1346,1144 1347,1145 1348,1145 1349,1145 1350,1145 1351,1146 1352,1146 1353,1146 1354,1146 1355,1147 1356,1147 1357,1147 1358,1148 1359,1148 1360,1148 1361,1148 1362,1149 1363,1149 1364,1149 1365,1149 1366,1150 1367,1150 1368,1150 1369,1150 1370,1151 1371,1151 1372,1151 1373,1151 1374,1152 1375,1152 1376,1152 1377,1152 1378,1153 1379,1153 1380,1153 1381,1153 1382,1154 1383,1154 1384,1154 1385,1154 1386,1155 1387,1155 1388,1155 1389,1155 1390,1156 1391,1156 1392,1156 1393,1156 1394,1157 1395,1157 1396,1157 1397,1157 1398,1157 1399,1158 1400,1158 1401,1158 1402,1158 1403,1159 1404,1159 1405,1159 1406,1159 1407,1159 1408,1160 1409,1160 1410,1160 1411,1160 1412,1161 1413,1161 1414,1161 1415,1161 1416,1161 1417,1162 1418,1162 1419,1162 1420,1162 1421,1162 1422,1163 1423,1163 1424,1163 1425,1163 1426,1163 1427,1164 1428,1164 1429,1164 1430,1164 1431,1164 1432,1165 1433,1165 1434,1165 1435,1165 1436,1165 1437,1166 1438,1166 1439,1166 1440,1166 1441,1166 1442,1166 1443,1167 1444,1167 1445,1167 1446,1167 1447,1167 1448,1168 1449,1168 1450,1168 1451,1168 1452,1168 1453,1168 1454,1169 1455,1169 1456,1169 1457,1169 1458,1169 1459,1169 1460,1170 1461,1170 1462,1170 1463,1170 1464,1170 1465,1170 1466,1171 1467,1171 1468,1171 1469,1171 1470,1171 1471,1171 1472,1172 1473,1172 1474,1172 1475,1172 1476,1172 1477,1172 1478,1173 1479,1173 1480,1173 1481,1173 1482,1173 1483,1173 1484,1173 1485,1174 1486,1174 1487,1174 1488,1174 1489,1174 1490,1174 1491,1174 1492,1175 1493,1175 1494,1175 1495,1175 1496,1175 1497,1175 1498,1175 1499,1176 1500,1176 1501,1176 1502,1176 1503,1176 1504,1176 1505,1176 1506,1176 1507,1177 1508,1177 1509,1177 1510,1177 1511,1177 1512,1177 1513,1177 1514,1178 1515,1178 1516,1178 1517,1178 1518,1178 1519,1178 1520,1178 1521,1178 1522,1178 1523,1179 1524,1179 1525,1179 1526,1179 1527,1179 1528,1179 1529,1179 1530,1179 1531,1180 1532,1180 1533,1180 1534,1180 1535,1180 1536,1180 1537,1180 1538,1180 1539,1180 1540,1181 1541,1181 1542,1181 1543,1181 1544,1181 1545,1181 1546,1181 1547,1181 1548,1181 1549,1181 1550,1182 1551,1182 1552,1182 1553,1182 1554,1182 1555,1182 1556,1182 1557,1182 1558,1182 1559,1182 1560,1183 1561,1183 1562,1183 1563,1183 1564,1183 1565,1183 1566,1183 1567,1183 1568,1183 1569,1183 1570,1183 1571,1184 1572,1184 1573,1184 1574,1184 1575,1184 1576,1184 1577,1184 1578,1184 1579,1184 1580,1184 1581,1184 1582,1184 1583,1185 1584,1185 1585,1185 1586,1185 1587,1185 1588,1185 1589,1185 1590,1185 1591,1185 1592,1185 1593,1185 1594,1185 1595,1185 1596,1186 1597,1186 1598,1186 1599,1186 1600,1186 1601,1186 1602,1186 1603,1186 1604,1186 1605,1186 1606,1186 1607,1186 1608,1186 1609,1186 1610,1186 1611,1187 1612,1187 1613,1187 1614,1187 1615,1187 1616,1187 1617,1187 1618,1187 1619,1187 1620,1187 1621,1187 1622,1187 1623,1187 1624,1187 1625,1187 1626,1188 1627,1188 1628,1188 1629,1188 1630,1188 1631,1188 1632,1188 1633,1188 1634,1188 1635,1188 1636,1188 1637,1188 1638,1188 1639,1188 1640,1188 1641,1188 1642,1188 1643,1188 1644,1189 1645,1189 1646,1189 1647,1189 1648,1189 1649,1189 1650,1189 1651,1189 1652,1189 1653,1189 1654,1189 1655,1189 1656,1189 1657,1189 1658,1189 1659,1189 1660,1189 1661,1189 1662,1189 1663,1189 1664,1190 1665,1190 1666,1190 1667,1190 1668,1190 1669,1190 1670,1190 1671,1190 1672,1190 1673,1190 1674,1190 1675,1190 1676,1190 1677,1190 1678,1190 1679,1190 1680,1190 1681,1190 1682,1190 1683,1190 1684,1190 1685,1190 1686,1190 1687,1190 1688,1191 1689,1191 1690,1191 1691,1191 1692,1191 1693,1191 1694,1191 1695,1191 1696,1191 1697,1191 1698,1191 1699,1191 1700,1191 1701,1191 1702,1191 1703,1191 1704,1191 1705,1191 1706,1191 1707,1191 1708,1191 1709,1191 1710,1191 1711,1191 1712,1191 1713,1191 1714,1191 1715,1191 1716,1192 1717,1192 1718,1192 1719,1192 1720,1192 1721,1192 1722,1192 1723,1192 1724,1192 1725,1192 1726,1192 1727,1192 1728,1192 1729,1192 1730,1192 1731,1192 1732,1192 1733,1192 1734,1192 1735,1192 1736,1192 1737,1192 1738,1192 1739,1192 1740,1192 1741,1192 1742,1192 1743,1192 1744,1192 1745,1192 1746,1192 1747,1192 1748,1192 1749,1192 1750,1192 1751,1192 1752,1193 1753,1193 1754,1193 1755,1193 1756,1193 1757,1193 1758,1193 1759,1193 1760,1193 1761,1193 1762,1193 1763,1193 1764,1193 1765,1193 1766,1193 1767,1193 1768,1193 1769,1193 1770,1193 1771,1193 1772,1193 1773,1193 1774,1193 1775,1193 1776,1193 1777,1193 1778,1193 1779,1193 1780,1193 1781,1193 1782,1193 1783,1193 1784,1193 1785,1193 1786,1193 1787,1193 1788,1193 1789,1193 1790,1193 1791,1193 1792,1193 1793,1193 1794,1193 1795,1193 1796,1193 1797,1193 1798,1193 1799,1193 1800,1193 1801,1193 1802,1193 1803,1193 1804,1193 1805,1194 1806,1194 1807,1194 1808,1194 1809,1194 1810,1194 1811,1194 1812,1194 1813,1194 1814,1194 1815,1194 1816,1194 1817,1194 1818,1194 1819,1194 1820,1194 1821,1194 1822,1194 1823,1194 1824,1194 1825,1194 1826,1194 1827,1194 1828,1194 1829,1194 1830,1194 1831,1194 1832,1194 1833,1194 1834,1194 1835,1194 1836,1194 1837,1194 1838,1194 1839,1194 1840,1194 1841,1194 1842,1194 1843,1194 1844,1194 1845,1194 1846,1194 1847,1194 1848,1194 1849,1194 1850,1194 1851,1194 1852,1194 1853,1194 1854,1194 1855,1194 1856,1194 1857,1194 1858,1194 1859,1194 1860,1194 1861,1194 1862,1194 1863,1194 1864,1194 1865,1194 1866,1194 1867,1194 1868,1194 1869,1194 1870,1194 1871,1194 1872,1194 1873,1194 1874,1194 1875,1194 1876,1194 1877,1194 1878,1194 1879,1194 1880,1194 1881,1194 1882,1194 1883,1194 1884,1194 1885,1194 1886,1194 1887,1194 1888,1194 1889,1194 1890,1194 1891,1194 1892,1194 1893,1194 1894,1194 1895,1194 1896,1194 1897,1194 1898,1194 1899,1194 1900,1194 1901,1194 1902,1194 1903,1194 1904,1194 1905,1194 1906,1194 1907,1194 1908,1194 1909,1194 1910,1194 1911,1194 1912,1194 1913,1194 1914,1194 1915,1194 1916,1194 1917,1194 1918,1194 1919,1194 1920,1194 1921,1194 1922,1194 1923,1194 1924,1194 1925,1194 1926,1194 1927,1194 1928,1194 1929,1194 1930,1194 1931,1194 1932,1194 1933,1194 1934,1194 1935,1194 1936,1194 1937,1194 1938,1194 1939,1194 1940,1194 1941,1194 1942,1194 1943,1194 1944,1194 1945,1194 1946,1194 1947,1194 1948,1194 1949,1194 1950,1194 1951,1194 1952,1194 1953,1194 1954,1194 1955,1194 1956,1194 1957,1194 1958,1194 1959,1194 1960,1194 1961,1194 1962,1194 1963,1194 1964,1194 1965,1194 1966,1194 1967,1194 1968,1194 1969,1194 1970,1194 1971,1194 1972,1194 1973,1194 1974,1194 1975,1194 1976,1194 1977,1194 1978,1194 1979,1194 1980,1194 1981,1194 1982,1194 1983,1194 1984,1194 1985,1194 1986,1194 1987,1194 1988,1194 1989,1194 1990,1194 1991,1194 1992,1194 1993,1194 1994,1194 1995,1194 1996,1194 1997,1194 1998,1194 1999,1194 2000,1194 2001,1194 2002,1194 2003,1194 2004,1194 2005,1194 2006,1194 2007,1194 2008,1194 2009,1194 2010,1194 2011,1194 2012,1194 2013,1194 2014,1194 2015,1194 2016,1194 2017,1194 2018,1194 2019,1194 2020,1194 2021,1194 2022,1194 2023,1194 2024,1194 2025,1194 2026,1194 2027,1194 2028,1194 2029,1194 2030,1194 2031,1194 2032,1194 2033,1194 2034,1194 2035,1194 2036,1194 2037,1194 2038,1194 2039,1194 2040,1194 2041,1194 2042,1194 2043,1194 2044,1194 2045,1194 2046,1194 2047,1194 2048,1194 2049,1194 2050,1194 2051,1194 2052,1194 2053,1194 2054,1194 2055,1194 2056,1194 2057,1194 2058,1194 2059,1194 2060,1194 2061,1194 2062,1194 2063,1194 2064,1194 2065,1194 2066,1194 2067,1194 2068,1194 2069,1194 2070,1194 2071,1194 2072,1194 2073,1194 2074,1194 2075,1194 2076,1194 2077,1194 2078,1194 2079,1194 2080,1194 2081,1194 2082,1194 2083,1194 2084,1194 2085,1194 2086,1194 2087,1194 2088,1194 2089,1194 2090,1194 2091,1194 2092,1194 2093,1194 2094,1194 2095,1194 2096,1194 2097,1194 2098,1194 2099,1194 2100,1194 2101,1194 2102,1194 2103,1194 2104,1194 2105,1194 2106,1194 2107,1194 2108,1194 2109,1194 2110,1194 2111,1194 2112,1194 2113,1194 2114,1194 2115,1194 2116,1194 2117,1194 2118,1194 2119,1194 2120,1194 2121,1194 2122,1194 2123,1194 2124,1194 2125,1194 2126,1194 2127,1194 2128,1194 2129,1194 2130,1194 2131,1194 2132,1194 2133,1194 2134,1194 2135,1194 2136,1194 2137,1194 2138,1194 2139,1194 2140,1194 2141,1194 2142,1194 2143,1194 2144,1194 2145,1194 2146,1194 2147,1194 2148,1194 2149,1194 2150,1194 2151,1194 2152,1194 2153,1194 2154,1194 2155,1194 2156,1194 2157,1194 2158,1194 2159,1194 2160,1194 2161,1194 2162,1194 2163,1194 2164,1194 2165,1194 2166,1194 2167,1194 2168,1194 2169,1194 2170,1194 2171,1194 2172,1194 2173,1194 2174,1194 2175,1194 2176,1194 2177,1194 2178,1194 2179,1194 2180,1194 2181,1194 2182,1194 2183,1194 2184,1194 2185,1194 2186,1194 2187,1194 2188,1194 2189,1194 2190,1194 2191,1194 2192,1194 2193,1194 2194,1194 2195,1194 2196,1194 2197,1194 2198,1194 2199,1194 2200,1194 2201,1194 2202,1194 2203,1194 2204,1194 2205,1194 2206,1194 2207,1194 2208,1194 2209,1194 2210,1194 2211,1194 2212,1194 2213,1194 2214,1194 2215,1194 2216,1194 " />
    <text x="60" y="1180" font-family="Tahoma" font-size="16" fill="#000000">(0,0.0063801633)</text>
    <text x="240" y="1144" font-family="Tahoma" font-size="16" fill="#000000">(1,0.0401038838)</text>
    <text x="420" y="1062" font-family="Tahoma" font-size="16" fill="#000000">(2,0.1155373796)</text>
    <text x="600" y="968" font-family="Tahoma" font-size="16" fill="#000000">(3,0.2017319326)</text>
    <text x="781" y="929" font-family="Tahoma" font-size="16" fill="#000000">(4,0.2377554920)</text>
    <text x="961" y="971" font-family="Tahoma" font-size="16" fill="#000000">(5,0.1992617457)</text>
    <text x="1141" y="1055" font-family="Tahoma" font-size="16" fill="#000000">(6,0.1217710668)</text>
    <text x="1321" y="1128" font-family="Tahoma" font-size="16" fill="#000000">(7,0.0546727239)</text>
    <text x="1501" y="1168" font-family="Tahoma" font-size="16" fill="#000000">(8,0.0178988084)</text>
    <text x="1681" y="1183" font-family="Tahoma" font-size="16" fill="#000000">(9,0.0041669184)</text>
    <text x="1862" y="1187" font-family="Tahoma" font-size="16" fill="#000000">(10,0.0006548015)</text>
    <text x="2042" y="1187" font-family="Tahoma" font-size="16" fill="#000000">(11,0.0000623620)</text>
    <text x="2222" y="1187" font-family="Tahoma" font-size="16" fill="#000000">(12,0.0000027222)</text>
    <circle stroke="#000000" stroke-width="1" stroke-linecap="round" stroke-linejoin="round" fill="#000000" cx="54" cy="1187" r="3" />
    <circle stroke="#000000" stroke-width="1" stroke-linecap="round" stroke-linejoin="round" fill="#000000" cx="234" cy="1151" r="3" />
    <circle stroke="#000000" stroke-width="1" stroke-linecap="round" stroke-linejoin="round" fill="#000000" cx="414" cy="1069" r="3" />
    <circle stroke="#000000" stroke-width="1" stroke-linecap="round" stroke-linejoin="round" fill="#000000" cx="594" cy="975" r="3" />
    <circle stroke="#000000" stroke-width="1" stroke-linecap="round" stroke-linejoin="round" fill="#000000" cx="775" cy="936" r="3" />
    <circle stroke="#000000" stroke-width="1" stroke-linecap="round" stroke-linejoin="round" fill="#000000" cx="955" cy="978" r="3" />
    <circle stroke="#000000" stroke-width="1" stroke-linecap="round" stroke-linejoin="round" fill="#000000" cx="1135" cy="1062" r="3" />
    <circle stroke="#000000" stroke-width="1" stroke-linecap="round" stroke-linejoin="round" fill="#000000" cx="1315" cy="1135" r="3" />
    <circle stroke="#000000" stroke-width="1" stroke-linecap="round" stroke-linejoin="round" fill="#000000" cx="1495" cy="1175" r="3" />
    <circle stroke="#000000" stroke-width="1" stroke-linecap="round" stroke-linejoin="round" fill="#000000" cx="1675" cy="1190" r="3" />
    <circle stroke="#000000" stroke-width="1" stroke-linecap="round" stroke-linejoin="round" fill="#000000" cx="1856" cy="1194" r="3" />
    <circle stroke="#000000" stroke-width="1" stroke-linecap="round" stroke-linejoin="round" fill="#000000" cx="2036" cy="1194" r="3" />
    <circle stroke="#000000" stroke-width="1" stroke-linecap="round" stroke-linejoin="round" fill="#000000" cx="2216" cy="1194" r="3" />
  </g>
</svg>
