<?xml version="1.0" encoding="UTF-8"?>
<!DOCTYPE svg PUBLIC "-//W3C//DTD SVG 1.1//EN" "http://www.w3.org/Graphics/SVG/1.1/DTD/svg11.dtd">
<svg width="2396px" height="1303px" viewBox="0 0 2396 1303" version="1.1" xmlns="http://www.w3.org/2000/svg" xmlns:xlink="http://www.w3.org/1999/xlink">
  <g>
    <text x="422" y="918" font-family="Times New Roman" font-size="21" fill="#000000">1</text>
    <text x="750" y="918" font-family="Times New Roman" font-size="21" fill="#000000">2</text>
    <text x="1078" y="918" font-family="Times New Roman" font-size="21" fill="#000000">3</text>
    <text x="1406" y="918" font-family="Times New Roman" font-size="21" fill="#000000">4</text>
    <text x="1735" y="918" font-family="Times New Roman" font-size="21" fill="#000000">5</text>
    <text x="2063" y="918" font-family="Times New Roman" font-size="21" fill="#000000">6</text>
    <text x="57" y="1229" font-family="Times New Roman" font-size="21" fill="#000000">-0.4</text>
    <text x="57" y="1147" font-family="Times New Roman" font-size="21" fill="#000000">-0.3</text>
    <text x="57" y="1066" font-family="Times New Roman" font-size="21" fill="#000000">-0.2</text>
    <text x="57" y="984" font-family="Times New Roman" font-size="21" fill="#000000">-0.1</text>
    <text x="64" y="821" font-family="Times New Roman" font-size="21" fill="#000000">0.1</text>
    <text x="64" y="740" font-family="Times New Roman" font-size="21" fill="#000000">0.2</text>
    <text x="64" y="659" font-family="Times New Roman" font-size="21" fill="#000000">0.3</text>
    <text x="64" y="577" font-family="Times New Roman" font-size="21" fill="#000000">0.4</text>
    <text x="64" y="496" font-family="Times New Roman" font-size="21" fill="#000000">0.5</text>
    <text x="64" y="414" font-family="Times New Roman" font-size="21" fill="#000000">0.6</text>
    <text x="64" y="333" font-family="Times New Roman" font-size="21" fill="#000000">0.7</text>
    <text x="64" y="251" font-family="Times New Roman" font-size="21" fill="#000000">0.8</text>
    <text x="64" y="170" font-family="Times New Roman" font-size="21" fill="#000000">0.9</text>
    <text x="80" y="88" font-family="Times New Roman" font-size="21" fill="#000000">1</text>
    <text x="2382" y="884" font-family="Times New Roman" font-size="21" font-weight="700" fill="#000000">k</text>
    <text x="110" y="15" font-family="Times New Roman" font-size="21" font-weight="700" fill="#000000">P(k)</text>
    <line stroke="#0000ff" stroke-width="2" stroke-linecap="butt" stroke-linejoin="bevel" x1="0" y1="896" x2="2391" y2="896" />
    <polygon stroke="#0000ff" stroke-width="1" stroke-linecap="round" stroke-linejoin="round" fill="#0000ff" points="2389.5,889.5 2395.5,895.5 2395.5,896.5 2389.5,902.5 " />
    <line stroke="#0000ff" stroke-width="1" stroke-linecap="round" stroke-linejoin="round" x1="427.5" y1="901.5" x2="427.5" y2="890.5" />
    <line stroke="#0000ff" stroke-width="1" stroke-linecap="round" stroke-linejoin="round" x1="755.5" y1="901.5" x2="755.5" y2="890.5" />
    <line stroke="#0000ff" stroke-width="1" stroke-linecap="round" stroke-linejoin="round" x1="1083.5" y1="901.5" x2="1083.5" y2="890.5" />
    <line stroke="#0000ff" stroke-width="1" stroke-linecap="round" stroke-linejoin="round" x1="1411.5" y1="901.5" x2="1411.5" y2="890.5" />
    <line stroke="#0000ff" stroke-width="1" stroke-linecap="round" stroke-linejoin="round" x1="1740.5" y1="901.5" x2="1740.5" y2="890.5" />
    <line stroke="#0000ff" stroke-width="1" stroke-linecap="round" stroke-linejoin="round" x1="2068.5" y1="901.5" x2="2068.5" y2="890.5" />
    <line stroke="#0000ff" stroke-width="2" stroke-linecap="butt" stroke-linejoin="bevel" x1="98" y1="3" x2="98" y2="1302" />
    <polygon stroke="#0000ff" stroke-width="1" stroke-linecap="round" stroke-linejoin="round" fill="#0000ff" points="91.5,6.5 97.5,0.5 98.5,0.5 104.5,6.5 " />
    <line stroke="#0000ff" stroke-width="1" stroke-linecap="round" stroke-linejoin="round" x1="92.5" y1="1222.5" x2="103.5" y2="1222.5" />
    <line stroke="#0000ff" stroke-width="1" stroke-linecap="round" stroke-linejoin="round" x1="92.5" y1="1140.5" x2="103.5" y2="1140.5" />
    <line stroke="#0000ff" stroke-width="1" stroke-linecap="round" stroke-linejoin="round" x1="92.5" y1="1059.5" x2="103.5" y2="1059.5" />
    <line stroke="#0000ff" stroke-width="1" stroke-linecap="round" stroke-linejoin="round" x1="92.5" y1="977.5" x2="103.5" y2="977.5" />
    <line stroke="#0000ff" stroke-width="1" stroke-linecap="round" stroke-linejoin="round" x1="92.5" y1="814.5" x2="103.5" y2="814.5" />
    <line stroke="#0000ff" stroke-width="1" stroke-linecap="round" stroke-linejoin="round" x1="92.5" y1="733.5" x2="103.5" y2="733.5" />
    <line stroke="#0000ff" stroke-width="1" stroke-linecap="round" stroke-linejoin="round" x1="92.5" y1="652.5" x2="103.5" y2="652.5" />
    <line stroke="#0000ff" stroke-width="1" stroke-linecap="round" stroke-linejoin="round" x1="92.5" y1="570.5" x2="103.5" y2="570.5" />
    <line stroke="#0000ff" stroke-width="1" stroke-linecap="round" stroke-linejoin="round" x1="92.5" y1="489.5" x2="103.5" y2="489.5" />
    <line stroke="#0000ff" stroke-width="1" stroke-linecap="round" stroke-linejoin="round" x1="92.5" y1="407.5" x2="103.5" y2="407.5" />
    <line stroke="#0000ff" stroke-width="1" stroke-linecap="round" stroke-linejoin="round" x1="92.5" y1="326.5" x2="103.5" y2="326.5" />
    <line stroke="#0000ff" stroke-width="1" stroke-linecap="round" stroke-linejoin="round" x1="92.5" y1="244.5" x2="103.5" y2="244.5" />
    <line stroke="#0000ff" stroke-width="1" stroke-linecap="round" stroke-linejoin="round" x1="92.5" y1="163.5" x2="103.5" y2="163.5" />
    <line stroke="#0000ff" stroke-width="1" stroke-linecap="round" stroke-linejoin="round" x1="92.5" y1="81.5" x2="103.5" y2="81.5" />
    <polyline stroke="#000000" stroke-width="1" stroke-linecap="round" stroke-linejoin="round" fill="none" points="98,831 99,831 100,830 101,830 102,829 103,829 104,828 105,828 106,827 107,827 108,826 109,826 110,825 111,825 112,825 113,824 114,824 115,823 116,823 117,822 118,822 119,821 120,821 121,820 122,820 123,820 124,819 125,819 126,818 127,818 128,817 129,817 130,816 131,816 132,815 133,815 134,814 135,814 136,814 137,813 138,813 139,812 140,812 141,811 142,811 143,810 144,810 145,809 146,809 147,809 148,808 149,808 150,807 151,807 152,806 153,806 154,805 155,805 156,804 157,804 158,804 159,803 160,803 161,802 162,802 163,801 164,801 165,800 166,800 167,799 168,799 169,799 170,798 171,798 172,797 173,797 174,796 175,796 176,795 177,795 178,794 179,794 180,794 181,793 182,793 183,792 184,792 185,791 186,791 187,790 188,790 189,789 190,789 191,789 192,788 193,788 194,787 195,787 196,786 197,786 198,785 199,785 200,784 201,784 202,784 203,783 204,783 205,782 206,782 207,781 208,781 209,780 210,780 211,780 212,779 213,779 214,778 215,778 216,777 217,777 218,776 219,776 220,776 221,775 222,775 223,774 224,774 225,773 226,773 227,772 228,772 229,772 230,771 231,771 232,770 233,770 234,769 235,769 236,768 237,768 238,768 239,767 240,767 241,766 242,766 243,765 244,765 245,764 246,764 247,764 248,763 249,763 250,762 251,762 252,761 253,761 254,761 255,760 256,760 257,759 258,759 259,758 260,758 261,757 262,757 263,757 264,756 265,756 266,755 267,755 268,754 269,754 270,754 271,753 272,753 273,752 274,752 275,751 276,751 277,751 278,750 279,750 280,749 281,749 282,748 283,748 284,748 285,747 286,747 287,746 288,746 289,745 290,745 291,745 292,744 293,744 294,743 295,743 296,742 297,742 298,742 299,741 300,741 301,740 302,740 303,740 304,739 305,739 306,738 307,738 308,737 309,737 310,737 311,736 312,736 313,735 314,735 315,735 316,734 317,734 318,733 319,733 320,732 321,732 322,732 323,731 324,731 325,730 326,730 327,730 328,729 329,729 330,728 331,728 332,728 333,727 334,727 335,726 336,726 337,725 338,725 339,725 340,724 341,724 342,723 343,723 344,723 345,722 346,722 347,721 348,721 349,721 350,720 351,720 352,719 353,719 354,719 355,718 356,718 357,717 358,717 359,717 360,716 361,716 362,715 363,715 364,715 365,714 366,714 367,714 368,713 369,713 370,712 371,712 372,712 373,711 374,711 375,710 376,710 377,710 378,709 379,709 380,708 381,708 382,708 383,707 384,707 385,707 386,706 387,706 388,705 389,705 390,705 391,704 392,704 393,704 394,703 395,703 396,702 397,702 398,702 399,701 400,701 401,701 402,700 403,700 404,699 405,699 406,699 407,698 408,698 409,698 410,697 411,697 412,696 413,696 414,696 415,695 416,695 417,695 418,694 419,694 420,694 421,693 422,693 423,692 424,692 425,692 426,691 427,691 428,691 429,690 430,690 431,690 432,689 433,689 434,689 435,688 436,688 437,687 438,687 439,687 440,686 441,686 442,686 443,685 444,685 445,685 446,684 447,684 448,684 449,683 450,683 451,683 452,682 453,682 454,682 455,681 456,681 457,681 458,680 459,680 460,680 461,679 462,679 463,679 464,678 465,678 466,678 467,677 468,677 469,677 470,676 471,676 472,676 473,675 474,675 475,675 476,674 477,674 478,674 479,673 480,673 481,673 482,672 483,672 484,672 485,671 486,671 487,671 488,670 489,670 490,670 491,669 492,669 493,669 494,669 495,668 496,668 497,668 498,667 499,667 500,667 501,666 502,666 503,666 504,666 505,665 506,665 507,665 508,664 509,664 510,664 511,663 512,663 513,663 514,663 515,662 516,662 517,662 518,661 519,661 520,661 521,661 522,660 523,660 524,660 525,659 526,659 527,659 528,659 529,658 530,658 531,658 532,657 533,657 534,657 535,657 536,656 537,656 538,656 539,656 540,655 541,655 542,655 543,655 544,654 545,654 546,654 547,653 548,653 549,653 550,653 551,652 552,652 553,652 554,652 555,651 556,651 557,651 558,651 559,650 560,650 561,650 562,650 563,649 564,649 565,649 566,649 567,649 568,648 569,648 570,648 571,648 572,647 573,647 574,647 575,647 576,646 577,646 578,646 579,646 580,646 581,645 582,645 583,645 584,645 585,644 586,644 587,644 588,644 589,644 590,643 591,643 592,643 593,643 594,643 595,642 596,642 597,642 598,642 599,642 600,641 601,641 602,641 603,641 604,641 605,640 606,640 607,640 608,640 609,640 610,639 611,639 612,639 613,639 614,639 615,639 616,638 617,638 618,638 619,638 620,638 621,637 622,637 623,637 624,637 625,637 626,637 627,636 628,636 629,636 630,636 631,636 632,636 633,636 634,635 635,635 636,635 637,635 638,635 639,635 640,635 641,634 642,634 643,634 644,634 645,634 646,634 647,634 648,633 649,633 650,633 651,633 652,633 653,633 654,633 655,632 656,632 657,632 658,632 659,632 660,632 661,632 662,632 663,632 664,631 665,631 666,631 667,631 668,631 669,631 670,631 671,631 672,631 673,631 674,630 675,630 676,630 677,630 678,630 679,630 680,630 681,630 682,630 683,630 684,630 685,629 686,629 687,629 688,629 689,629 690,629 691,629 692,629 693,629 694,629 695,629 696,629 697,629 698,629 699,629 700,628 701,628 702,628 703,628 704,628 705,628 706,628 707,628 708,628 709,628 710,628 711,628 712,628 713,628 714,628 715,628 716,628 717,628 718,628 719,628 720,628 721,628 722,628 723,628 724,628 725,628 726,628 727,628 728,628 729,628 730,628 731,628 732,628 733,628 734,628 735,628 736,628 737,628 738,628 739,628 740,628 741,628 742,628 743,628 744,628 745,628 746,628 747,628 748,628 749,628 750,628 751,628 752,628 753,628 754,628 755,628 756,628 757,628 758,628 759,628 760,628 761,628 762,628 763,628 764,628 765,628 766,629 767,629 768,629 769,629 770,629 771,629 772,629 773,629 774,629 775,629 776,629 777,629 778,629 779,629 780,630 781,630 782,630 783,630 784,630 785,630 786,630 787,630 788,630 789,630 790,630 791,631 792,631 793,631 794,631 795,631 796,631 797,631 798,631 799,631 800,632 801,632 802,632 803,632 804,632 805,632 806,632 807,632 808,633 809,633 810,633 811,633 812,633 813,633 814,633 815,633 816,634 817,634 818,634 819,634 820,634 821,634 822,634 823,635 824,635 825,635 826,635 827,635 828,635 829,636 830,636 831,636 832,636 833,636 834,636 835,637 836,637 837,637 838,637 839,637 840,637 841,638 842,638 843,638 844,638 845,638 846,638 847,639 848,639 849,639 850,639 851,639 852,640 853,640 854,640 855,640 856,640 857,641 858,641 859,641 860,641 861,641 862,642 863,642 864,642 865,642 866,642 867,643 868,643 869,643 870,643 871,643 872,644 873,644 874,644 875,644 876,645 877,645 878,645 879,645 880,645 881,646 882,646 883,646 884,646 885,647 886,647 887,647 888,647 889,648 890,648 891,648 892,648 893,649 894,649 895,649 896,649 897,650 898,650 899,650 900,650 901,650 902,651 903,651 904,651 905,652 906,652 907,652 908,652 909,653 910,653 911,653 912,653 913,654 914,654 915,654 916,654 917,655 918,655 919,655 920,655 921,656 922,656 923,656 924,657 925,657 926,657 927,657 928,658 929,658 930,658 931,658 932,659 933,659 934,659 935,660 936,660 937,660 938,660 939,661 940,661 941,661 942,662 943,662 944,662 945,663 946,663 947,663 948,663 949,664 950,664 951,664 952,665 953,665 954,665 955,665 956,666 957,666 958,666 959,667 960,667 961,667 962,668 963,668 964,668 965,669 966,669 967,669 968,669 969,670 970,670 971,670 972,671 973,671 974,671 975,672 976,672 977,672 978,673 979,673 980,673 981,674 982,674 983,674 984,675 985,675 986,675 987,676 988,676 989,676 990,677 991,677 992,677 993,677 994,678 995,678 996,678 997,679 998,679 999,679 1000,680 1001,680 1002,680 1003,681 1004,681 1005,681 1006,682 1007,682 1008,682 1009,683 1010,683 1011,684 1012,684 1013,684 1014,685 1015,685 1016,685 1017,686 1018,686 1019,686 1020,687 1021,687 1022,687 1023,688 1024,688 1025,688 1026,689 1027,689 1028,689 1029,690 1030,690 1031,690 1032,691 1033,691 1034,691 1035,692 1036,692 1037,692 1038,693 1039,693 1040,694 1041,694 1042,694 1043,695 1044,695 1045,695 1046,696 1047,696 1048,696 1049,697 1050,697 1051,697 1052,698 1053,698 1054,699 1055,699 1056,699 1057,700 1058,700 1059,700 1060,701 1061,701 1062,701 1063,702 1064,702 1065,702 1066,703 1067,703 1068,704 1069,704 1070,704 1071,705 1072,705 1073,705 1074,706 1075,706 1076,706 1077,707 1078,707 1079,708 1080,708 1081,708 1082,709 1083,709 1084,709 1085,710 1086,710 1087,710 1088,711 1089,711 1090,712 1091,712 1092,712 1093,713 1094,713 1095,713 1096,714 1097,714 1098,714 1099,715 1100,715 1101,716 1102,716 1103,716 1104,717 1105,717 1106,717 1107,718 1108,718 1109,719 1110,719 1111,719 1112,720 1113,720 1114,720 1115,721 1116,721 1117,721 1118,722 1119,722 1120,723 1121,723 1122,723 1123,724 1124,724 1125,724 1126,725 1127,725 1128,726 1129,726 1130,726 1131,727 1132,727 1133,727 1134,728 1135,728 1136,728 1137,729 1138,729 1139,730 1140,730 1141,730 1142,731 1143,731 1144,731 1145,732 1146,732 1147,733 1148,733 1149,733 1150,734 1151,734 1152,734 1153,735 1154,735 1155,736 1156,736 1157,736 1158,737 1159,737 1160,737 1161,738 1162,738 1163,738 1164,739 1165,739 1166,740 1167,740 1168,740 1169,741 1170,741 1171,741 1172,742 1173,742 1174,743 1175,743 1176,743 1177,744 1178,744 1179,744 1180,745 1181,745 1182,745 1183,746 1184,746 1185,747 1186,747 1187,747 1188,748 1189,748 1190,748 1191,749 1192,749 1193,750 1194,750 1195,750 1196,751 1197,751 1198,751 1199,752 1200,752 1201,752 1202,753 1203,753 1204,754 1205,754 1206,754 1207,755 1208,755 1209,755 1210,756 1211,756 1212,756 1213,757 1214,757 1215,758 1216,758 1217,758 1218,759 1219,759 1220,759 1221,760 1222,760 1223,760 1224,761 1225,761 1226,762 1227,762 1228,762 1229,763 1230,763 1231,763 1232,764 1233,764 1234,764 1235,765 1236,765 1237,766 1238,766 1239,766 1240,767 1241,767 1242,767 1243,768 1244,768 1245,768 1246,769 1247,769 1248,769 1249,770 1250,770 1251,771 1252,771 1253,771 1254,772 1255,772 1256,772 1257,773 1258,773 1259,773 1260,774 1261,774 1262,774 1263,775 1264,775 1265,775 1266,776 1267,776 1268,777 1269,777 1270,777 1271,778 1272,778 1273,778 1274,779 1275,779 1276,779 1277,780 1278,780 1279,780 1280,781 1281,781 1282,781 1283,782 1284,782 1285,782 1286,783 1287,783 1288,783 1289,784 1290,784 1291,784 1292,785 1293,785 1294,785 1295,786 1296,786 1297,787 1298,787 1299,787 1300,788 1301,788 1302,788 1303,789 1304,789 1305,789 1306,790 1307,790 1308,790 1309,791 1310,791 1311,791 1312,792 1313,792 1314,792 1315,793 1316,793 1317,793 1318,794 1319,794 1320,794 1321,795 1322,795 1323,795 1324,796 1325,796 1326,796 1327,797 1328,797 1329,797 1330,797 1331,798 1332,798 1333,798 1334,799 1335,799 1336,799 1337,800 1338,800 1339,800 1340,801 1341,801 1342,801 1343,802 1344,802 1345,802 1346,803 1347,803 1348,803 1349,804 1350,804 1351,804 1352,805 1353,805 1354,805 1355,805 1356,806 1357,806 1358,806 1359,807 1360,807 1361,807 1362,808 1363,808 1364,808 1365,809 1366,809 1367,809 1368,809 1369,810 1370,810 1371,810 1372,811 1373,811 1374,811 1375,812 1376,812 1377,812 1378,812 1379,813 1380,813 1381,813 1382,814 1383,814 1384,814 1385,815 1386,815 1387,815 1388,815 1389,816 1390,816 1391,816 1392,817 1393,817 1394,817 1395,817 1396,818 1397,818 1398,818 1399,819 1400,819 1401,819 1402,819 1403,820 1404,820 1405,820 1406,821 1407,821 1408,821 1409,821 1410,822 1411,822 1412,822 1413,823 1414,823 1415,823 1416,823 1417,824 1418,824 1419,824 1420,824 1421,825 1422,825 1423,825 1424,826 1425,826 1426,826 1427,826 1428,827 1429,827 1430,827 1431,827 1432,828 1433,828 1434,828 1435,828 1436,829 1437,829 1438,829 1439,829 1440,830 1441,830 1442,830 1443,831 1444,831 1445,831 1446,831 1447,832 1448,832 1449,832 1450,832 1451,833 1452,833 1453,833 1454,833 1455,834 1456,834 1457,834 1458,834 1459,835 1460,835 1461,835 1462,835 1463,835 1464,836 1465,836 1466,836 1467,836 1468,837 1469,837 1470,837 1471,837 1472,838 1473,838 1474,838 1475,838 1476,839 1477,839 1478,839 1479,839 1480,839 1481,840 1482,840 1483,840 1484,840 1485,841 1486,841 1487,841 1488,841 1489,842 1490,842 1491,842 1492,842 1493,842 1494,843 1495,843 1496,843 1497,843 1498,844 1499,844 1500,844 1501,844 1502,844 1503,845 1504,845 1505,845 1506,845 1507,845 1508,846 1509,846 1510,846 1511,846 1512,847 1513,847 1514,847 1515,847 1516,847 1517,848 1518,848 1519,848 1520,848 1521,848 1522,849 1523,849 1524,849 1525,849 1526,849 1527,850 1528,850 1529,850 1530,850 1531,850 1532,851 1533,851 1534,851 1535,851 1536,851 1537,852 1538,852 1539,852 1540,852 1541,852 1542,853 1543,853 1544,853 1545,853 1546,853 1547,854 1548,854 1549,854 1550,854 1551,854 1552,854 1553,855 1554,855 1555,855 1556,855 1557,855 1558,856 1559,856 1560,856 1561,856 1562,856 1563,856 1564,857 1565,857 1566,857 1567,857 1568,857 1569,858 1570,858 1571,858 1572,858 1573,858 1574,858 1575,859 1576,859 1577,859 1578,859 1579,859 1580,859 1581,860 1582,860 1583,860 1584,860 1585,860 1586,860 1587,861 1588,861 1589,861 1590,861 1591,861 1592,861 1593,862 1594,862 1595,862 1596,862 1597,862 1598,862 1599,863 1600,863 1601,863 1602,863 1603,863 1604,863 1605,864 1606,864 1607,864 1608,864 1609,864 1610,864 1611,864 1612,865 1613,865 1614,865 1615,865 1616,865 1617,865 1618,866 1619,866 1620,866 1621,866 1622,866 1623,866 1624,866 1625,867 1626,867 1627,867 1628,867 1629,867 1630,867 1631,867 1632,868 1633,868 1634,868 1635,868 1636,868 1637,868 1638,868 1639,869 1640,869 1641,869 1642,869 1643,869 1644,869 1645,869 1646,869 1647,870 1648,870 1649,870 1650,870 1651,870 1652,870 1653,870 1654,871 1655,871 1656,871 1657,871 1658,871 1659,871 1660,871 1661,871 1662,872 1663,872 1664,872 1665,872 1666,872 1667,872 1668,872 1669,872 1670,873 1671,873 1672,873 1673,873 1674,873 1675,873 1676,873 1677,873 1678,874 1679,874 1680,874 1681,874 1682,874 1683,874 1684,874 1685,874 1686,874 1687,875 1688,875 1689,875 1690,875 1691,875 1692,875 1693,875 1694,875 1695,875 1696,876 1697,876 1698,876 1699,876 1700,876 1701,876 1702,876 1703,876 1704,876 1705,877 1706,877 1707,877 1708,877 1709,877 1710,877 1711,877 1712,877 1713,877 1714,878 1715,878 1716,878 1717,878 1718,878 1719,878 1720,878 1721,878 1722,878 1723,878 1724,879 1725,879 1726,879 1727,879 1728,879 1729,879 1730,879 1731,879 1732,879 1733,879 1734,879 1735,880 1736,880 1737,880 1738,880 1739,880 1740,880 1741,880 1742,880 1743,880 1744,880 1745,880 1746,881 1747,881 1748,881 1749,881 1750,881 1751,881 1752,881 1753,881 1754,881 1755,881 1756,881 1757,881 1758,882 1759,882 1760,882 1761,882 1762,882 1763,882 1764,882 1765,882 1766,882 1767,882 1768,882 1769,882 1770,883 1771,883 1772,883 1773,883 1774,883 1775,883 1776,883 1777,883 1778,883 1779,883 1780,883 1781,883 1782,883 1783,883 1784,884 1785,884 1786,884 1787,884 1788,884 1789,884 1790,884 1791,884 1792,884 1793,884 1794,884 1795,884 1796,884 1797,884 1798,885 1799,885 1800,885 1801,885 1802,885 1803,885 1804,885 1805,885 1806,885 1807,885 1808,885 1809,885 1810,885 1811,885 1812,885 1813,886 1814,886 1815,886 1816,886 1817,886 1818,886 1819,886 1820,886 1821,886 1822,886 1823,886 1824,886 1825,886 1826,886 1827,886 1828,886 1829,886 1830,887 1831,887 1832,887 1833,887 1834,887 1835,887 1836,887 1837,887 1838,887 1839,887 1840,887 1841,887 1842,887 1843,887 1844,887 1845,887 1846,887 1847,887 1848,887 1849,888 1850,888 1851,888 1852,888 1853,888 1854,888 1855,888 1856,888 1857,888 1858,888 1859,888 1860,888 1861,888 1862,888 1863,888 1864,888 1865,888 1866,888 1867,888 1868,888 1869,888 1870,889 1871,889 1872,889 1873,889 1874,889 1875,889 1876,889 1877,889 1878,889 1879,889 1880,889 1881,889 1882,889 1883,889 1884,889 1885,889 1886,889 1887,889 1888,889 1889,889 1890,889 1891,889 1892,889 1893,890 1894,890 1895,890 1896,890 1897,890 1898,890 1899,890 1900,890 1901,890 1902,890 1903,890 1904,890 1905,890 1906,890 1907,890 1908,890 1909,890 1910,890 1911,890 1912,890 1913,890 1914,890 1915,890 1916,890 1917,890 1918,890 1919,890 1920,890 1921,891 1922,891 1923,891 1924,891 1925,891 1926,891 1927,891 1928,891 1929,891 1930,891 1931,891 1932,891 1933,891 1934,891 1935,891 1936,891 1937,891 1938,891 1939,891 1940,891 1941,891 1942,891 1943,891 1944,891 1945,891 1946,891 1947,891 1948,891 1949,891 1950,891 1951,891 1952,891 1953,891 1954,892 1955,892 1956,892 1957,892 1958,892 1959,892 1960,892 1961,892 1962,892 1963,892 1964,892 1965,892 1966,892 1967,892 1968,892 1969,892 1970,892 1971,892 1972,892 1973,892 1974,892 1975,892 1976,892 1977,892 1978,892 1979,892 1980,892 1981,892 1982,892 1983,892 1984,892 1985,892 1986,892 1987,892 1988,892 1989,892 1990,892 1991,892 1992,892 1993,892 1994,893 1995,893 1996,893 1997,893 1998,893 1999,893 2000,893 2001,893 2002,893 2003,893 2004,893 2005,893 2006,893 2007,893 2008,893 2009,893 2010,893 2011,893 2012,893 2013,893 2014,893 2015,893 2016,893 2017,893 2018,893 2019,893 2020,893 2021,893 2022,893 2023,893 2024,893 2025,893 2026,893 2027,893 2028,893 2029,893 2030,893 2031,893 2032,893 2033,893 2034,893 2035,893 2036,893 2037,893 2038,893 2039,893 2040,893 2041,893 2042,894 2043,894 2044,894 2045,894 2046,894 2047,894 2048,894 2049,894 2050,894 2051,894 2052,894 2053,894 2054,894 2055,894 2056,894 2057,894 2058,894 2059,894 2060,894 2061,894 2062,894 2063,894 2064,894 2065,894 2066,894 2067,894 2068,894 " />
    <text x="104" y="824" font-family="Tahoma" font-size="16" fill="#000000">(0,0.0798759246)</text>
    <text x="433" y="684" font-family="Tahoma" font-size="16" fill="#000000">(1,0.2510386202)</text>
    <text x="761" y="621" font-family="Tahoma" font-size="16" fill="#000000">(2,0.3287410503)</text>
    <text x="1089" y="702" font-family="Tahoma" font-size="16" fill="#000000">(3,0.2295969240)</text>
    <text x="1417" y="815" font-family="Tahoma" font-size="16" fill="#000000">(4,0.0901987916)</text>
    <text x="1746" y="873" font-family="Tahoma" font-size="16" fill="#000000">(5,0.0188987944)</text>
    <text x="2074" y="887" font-family="Tahoma" font-size="16" fill="#000000">(6,0.0016498948)</text>
    <circle stroke="#000000" stroke-width="1" stroke-linecap="round" stroke-linejoin="round" fill="#000000" cx="98" cy="831" r="3" />
    <circle stroke="#000000" stroke-width="1" stroke-linecap="round" stroke-linejoin="round" fill="#000000" cx="427" cy="691" r="3" />
    <circle stroke="#000000" stroke-width="1" stroke-linecap="round" stroke-linejoin="round" fill="#000000" cx="755" cy="628" r="3" />
    <circle stroke="#000000" stroke-width="1" stroke-linecap="round" stroke-linejoin="round" fill="#000000" cx="1083" cy="709" r="3" />
    <circle stroke="#000000" stroke-width="1" stroke-linecap="round" stroke-linejoin="round" fill="#000000" cx="1411" cy="822" r="3" />
    <circle stroke="#000000" stroke-width="1" stroke-linecap="round" stroke-linejoin="round" fill="#000000" cx="1740" cy="880" r="3" />
    <circle stroke="#000000" stroke-width="1" stroke-linecap="round" stroke-linejoin="round" fill="#000000" cx="2068" cy="894" r="3" />
  </g>
</svg>
