<?xml version="1.0" encoding="UTF-8"?>
<!DOCTYPE svg PUBLIC "-//W3C//DTD SVG 1.1//EN" "http://www.w3.org/Graphics/SVG/1.1/DTD/svg11.dtd">
<svg width="2396px" height="1303px" viewBox="0 0 2396 1303" version="1.1" xmlns="http://www.w3.org/2000/svg" xmlns:xlink="http://www.w3.org/1999/xlink">
  <g>
    <text x="297" y="1216" font-family="Times New Roman" font-size="21" fill="#000000">1</text>
    <text x="530" y="1216" font-family="Times New Roman" font-size="21" fill="#000000">2</text>
    <text x="763" y="1216" font-family="Times New Roman" font-size="21" fill="#000000">3</text>
    <text x="995" y="1216" font-family="Times New Roman" font-size="21" fill="#000000">4</text>
    <text x="1228" y="1216" font-family="Times New Roman" font-size="21" fill="#000000">5</text>
    <text x="1461" y="1216" font-family="Times New Roman" font-size="21" fill="#000000">6</text>
    <text x="1693" y="1216" font-family="Times New Roman" font-size="21" fill="#000000">7</text>
    <text x="1926" y="1216" font-family="Times New Roman" font-size="21" fill="#000000">8</text>
    <text x="2158" y="1216" font-family="Times New Roman" font-size="21" fill="#000000">9</text>
    <text x="36" y="1093" font-family="Times New Roman" font-size="21" fill="#000000">0.1</text>
    <text x="36" y="984" font-family="Times New Roman" font-size="21" fill="#000000">0.2</text>
    <text x="36" y="876" font-family="Times New Roman" font-size="21" fill="#000000">0.3</text>
    <text x="36" y="767" font-family="Times New Roman" font-size="21" fill="#000000">0.4</text>
    <text x="36" y="659" font-family="Times New Roman" font-size="21" fill="#000000">0.5</text>
    <text x="36" y="550" font-family="Times New Roman" font-size="21" fill="#000000">0.6</text>
    <text x="36" y="441" font-family="Times New Roman" font-size="21" fill="#000000">0.7</text>
    <text x="36" y="333" font-family="Times New Roman" font-size="21" fill="#000000">0.8</text>
    <text x="36" y="224" font-family="Times New Roman" font-size="21" fill="#000000">0.9</text>
    <text x="52" y="116" font-family="Times New Roman" font-size="21" fill="#000000">1</text>
    <text x="2382" y="1182" font-family="Times New Roman" font-size="21" font-weight="700" fill="#000000">k</text>
    <text x="82" y="15" font-family="Times New Roman" font-size="21" font-weight="700" fill="#000000">P(k)</text>
    <line stroke="#0000ff" stroke-width="2" stroke-linecap="butt" stroke-linejoin="bevel" x1="0" y1="1194" x2="2391" y2="1194" />
    <polygon stroke="#0000ff" stroke-width="1" stroke-linecap="round" stroke-linejoin="round" fill="#0000ff" points="2389.5,1187.5 2395.5,1193.5 2395.5,1194.5 2389.5,1200.5 " />
    <line stroke="#0000ff" stroke-width="1" stroke-linecap="round" stroke-linejoin="round" x1="302.5" y1="1199.5" x2="302.5" y2="1188.5" />
    <line stroke="#0000ff" stroke-width="1" stroke-linecap="round" stroke-linejoin="round" x1="535.5" y1="1199.5" x2="535.5" y2="1188.5" />
    <line stroke="#0000ff" stroke-width="1" stroke-linecap="round" stroke-linejoin="round" x1="768.5" y1="1199.5" x2="768.5" y2="1188.5" />
    <line stroke="#0000ff" stroke-width="1" stroke-linecap="round" stroke-linejoin="round" x1="1000.5" y1="1199.5" x2="1000.5" y2="1188.5" />
    <line stroke="#0000ff" stroke-width="1" stroke-linecap="round" stroke-linejoin="round" x1="1233.5" y1="1199.5" x2="1233.5" y2="1188.5" />
    <line stroke="#0000ff" stroke-width="1" stroke-linecap="round" stroke-linejoin="round" x1="1466.5" y1="1199.5" x2="1466.5" y2="1188.5" />
    <line stroke="#0000ff" stroke-width="1" stroke-linecap="round" stroke-linejoin="round" x1="1698.5" y1="1199.5" x2="1698.5" y2="1188.5" />
    <line stroke="#0000ff" stroke-width="1" stroke-linecap="round" stroke-linejoin="round" x1="1931.5" y1="1199.5" x2="1931.5" y2="1188.5" />
    <line stroke="#0000ff" stroke-width="1" stroke-linecap="round" stroke-linejoin="round" x1="2163.5" y1="1199.5" x2="2163.5" y2="1188.5" />
    <line stroke="#0000ff" stroke-width="2" stroke-linecap="butt" stroke-linejoin="bevel" x1="70" y1="3" x2="70" y2="1302" />
    <polygon stroke="#0000ff" stroke-width="1" stroke-linecap="round" stroke-linejoin="round" fill="#0000ff" points="63.5,6.5 69.5,0.5 70.5,0.5 76.5,6.5 " />
    <line stroke="#0000ff" stroke-width="1" stroke-linecap="round" stroke-linejoin="round" x1="64.5" y1="1086.5" x2="75.5" y2="1086.5" />
    <line stroke="#0000ff" stroke-width="1" stroke-linecap="round" stroke-linejoin="round" x1="64.5" y1="977.5" x2="75.5" y2="977.5" />
    <line stroke="#0000ff" stroke-width="1" stroke-linecap="round" stroke-linejoin="round" x1="64.5" y1="869.5" x2="75.5" y2="869.5" />
    <line stroke="#0000ff" stroke-width="1" stroke-linecap="round" stroke-linejoin="round" x1="64.5" y1="760.5" x2="75.5" y2="760.5" />
    <line stroke="#0000ff" stroke-width="1" stroke-linecap="round" stroke-linejoin="round" x1="64.5" y1="652.5" x2="75.5" y2="652.5" />
    <line stroke="#0000ff" stroke-width="1" stroke-linecap="round" stroke-linejoin="round" x1="64.5" y1="543.5" x2="75.5" y2="543.5" />
    <line stroke="#0000ff" stroke-width="1" stroke-linecap="round" stroke-linejoin="round" x1="64.5" y1="434.5" x2="75.5" y2="434.5" />
    <line stroke="#0000ff" stroke-width="1" stroke-linecap="round" stroke-linejoin="round" x1="64.5" y1="326.5" x2="75.5" y2="326.5" />
    <line stroke="#0000ff" stroke-width="1" stroke-linecap="round" stroke-linejoin="round" x1="64.5" y1="217.5" x2="75.5" y2="217.5" />
    <line stroke="#0000ff" stroke-width="1" stroke-linecap="round" stroke-linejoin="round" x1="64.5" y1="109.5" x2="75.5" y2="109.5" />
    <polyline stroke="#000000" stroke-width="1" stroke-linecap="round" stroke-linejoin="round" fill="none" points="70,1170 71,1170 72,1169 73,1169 74,1169 75,1168 76,1168 77,1168 78,1167 79,1167 80,1167 81,1166 82,1166 83,1166 84,1165 85,1165 86,1165 87,1164 88,1164 89,1164 90,1163 91,1163 92,1163 93,1162 94,1162 95,1162 96,1161 97,1161 98,1161 99,1160 100,1160 101,1160 102,1159 103,1159 104,1158 105,1158 106,1158 107,1157 108,1157 109,1157 110,1156 111,1156 112,1156 113,1155 114,1155 115,1155 116,1154 117,1154 118,1154 119,1153 120,1153 121,1153 122,1152 123,1152 124,1152 125,1151 126,1151 127,1151 128,1150 129,1150 130,1150 131,1149 132,1149 133,1148 134,1148 135,1148 136,1147 137,1147 138,1147 139,1146 140,1146 141,1146 142,1145 143,1145 144,1145 145,1144 146,1144 147,1144 148,1143 149,1143 150,1142 151,1142 152,1142 153,1141 154,1141 155,1141 156,1140 157,1140 158,1140 159,1139 160,1139 161,1139 162,1138 163,1138 164,1137 165,1137 166,1137 167,1136 168,1136 169,1136 170,1135 171,1135 172,1134 173,1134 174,1134 175,1133 176,1133 177,1133 178,1132 179,1132 180,1132 181,1131 182,1131 183,1130 184,1130 185,1130 186,1129 187,1129 188,1129 189,1128 190,1128 191,1127 192,1127 193,1127 194,1126 195,1126 196,1125 197,1125 198,1125 199,1124 200,1124 201,1123 202,1123 203,1123 204,1122 205,1122 206,1122 207,1121 208,1121 209,1120 210,1120 211,1120 212,1119 213,1119 214,1118 215,1118 216,1118 217,1117 218,1117 219,1116 220,1116 221,1116 222,1115 223,1115 224,1114 225,1114 226,1113 227,1113 228,1113 229,1112 230,1112 231,1111 232,1111 233,1111 234,1110 235,1110 236,1109 237,1109 238,1108 239,1108 240,1108 241,1107 242,1107 243,1106 244,1106 245,1105 246,1105 247,1105 248,1104 249,1104 250,1103 251,1103 252,1102 253,1102 254,1102 255,1101 256,1101 257,1100 258,1100 259,1099 260,1099 261,1098 262,1098 263,1098 264,1097 265,1097 266,1096 267,1096 268,1095 269,1095 270,1094 271,1094 272,1093 273,1093 274,1093 275,1092 276,1092 277,1091 278,1091 279,1090 280,1090 281,1089 282,1089 283,1088 284,1088 285,1087 286,1087 287,1086 288,1086 289,1085 290,1085 291,1084 292,1084 293,1083 294,1083 295,1082 296,1082 297,1081 298,1081 299,1080 300,1080 301,1080 302,1079 303,1078 304,1078 305,1077 306,1077 307,1076 308,1076 309,1075 310,1075 311,1074 312,1074 313,1073 314,1073 315,1072 316,1072 317,1071 318,1071 319,1070 320,1070 321,1069 322,1069 323,1068 324,1068 325,1067 326,1067 327,1066 328,1066 329,1065 330,1064 331,1064 332,1063 333,1063 334,1062 335,1062 336,1061 337,1061 338,1060 339,1060 340,1059 341,1058 342,1058 343,1057 344,1057 345,1056 346,1056 347,1055 348,1055 349,1054 350,1054 351,1053 352,1052 353,1052 354,1051 355,1051 356,1050 357,1050 358,1049 359,1049 360,1048 361,1047 362,1047 363,1046 364,1046 365,1045 366,1045 367,1044 368,1043 369,1043 370,1042 371,1042 372,1041 373,1041 374,1040 375,1039 376,1039 377,1038 378,1038 379,1037 380,1037 381,1036 382,1035 383,1035 384,1034 385,1034 386,1033 387,1033 388,1032 389,1031 390,1031 391,1030 392,1030 393,1029 394,1029 395,1028 396,1027 397,1027 398,1026 399,1026 400,1025 401,1025 402,1024 403,1023 404,1023 405,1022 406,1022 407,1021 408,1021 409,1020 410,1019 411,1019 412,1018 413,1018 414,1017 415,1017 416,1016 417,1015 418,1015 419,1014 420,1014 421,1013 422,1012 423,1012 424,1011 425,1011 426,1010 427,1010 428,1009 429,1008 430,1008 431,1007 432,1007 433,1006 434,1006 435,1005 436,1004 437,1004 438,1003 439,1003 440,1002 441,1002 442,1001 443,1000 444,1000 445,999 446,999 447,998 448,998 449,997 450,997 451,996 452,995 453,995 454,994 455,994 456,993 457,993 458,992 459,991 460,991 461,990 462,990 463,989 464,989 465,988 466,988 467,987 468,986 469,986 470,985 471,985 472,984 473,984 474,983 475,983 476,982 477,982 478,981 479,980 480,980 481,979 482,979 483,978 484,978 485,977 486,977 487,976 488,976 489,975 490,975 491,974 492,973 493,973 494,972 495,972 496,971 497,971 498,970 499,970 500,969 501,969 502,968 503,968 504,967 505,967 506,966 507,966 508,965 509,965 510,964 511,964 512,963 513,963 514,962 515,962 516,961 517,961 518,960 519,960 520,959 521,959 522,958 523,958 524,957 525,957 526,956 527,956 528,955 529,955 530,954 531,954 532,953 533,953 534,952 535,952 536,952 537,951 538,951 539,950 540,950 541,949 542,949 543,948 544,948 545,947 546,947 547,947 548,946 549,946 550,945 551,945 552,944 553,944 554,943 555,943 556,943 557,942 558,942 559,941 560,941 561,940 562,940 563,940 564,939 565,939 566,938 567,938 568,938 569,937 570,937 571,936 572,936 573,936 574,935 575,935 576,934 577,934 578,934 579,933 580,933 581,932 582,932 583,932 584,931 585,931 586,930 587,930 588,930 589,929 590,929 591,929 592,928 593,928 594,928 595,927 596,927 597,926 598,926 599,926 600,925 601,925 602,925 603,924 604,924 605,924 606,923 607,923 608,923 609,922 610,922 611,922 612,921 613,921 614,921 615,920 616,920 617,920 618,920 619,919 620,919 621,919 622,918 623,918 624,918 625,917 626,917 627,917 628,917 629,916 630,916 631,916 632,915 633,915 634,915 635,915 636,914 637,914 638,914 639,913 640,913 641,913 642,913 643,912 644,912 645,912 646,912 647,911 648,911 649,911 650,911 651,910 652,910 653,910 654,910 655,909 656,909 657,909 658,909 659,909 660,908 661,908 662,908 663,908 664,907 665,907 666,907 667,907 668,907 669,906 670,906 671,906 672,906 673,906 674,905 675,905 676,905 677,905 678,905 679,904 680,904 681,904 682,904 683,904 684,904 685,903 686,903 687,903 688,903 689,903 690,903 691,902 692,902 693,902 694,902 695,902 696,902 697,902 698,901 699,901 700,901 701,901 702,901 703,901 704,901 705,901 706,900 707,900 708,900 709,900 710,900 711,900 712,900 713,900 714,900 715,900 716,899 717,899 718,899 719,899 720,899 721,899 722,899 723,899 724,899 725,899 726,899 727,899 728,898 729,898 730,898 731,898 732,898 733,898 734,898 735,898 736,898 737,898 738,898 739,898 740,898 741,898 742,898 743,898 744,898 745,898 746,898 747,898 748,898 749,898 750,898 751,898 752,898 753,898 754,898 755,898 756,898 757,898 758,898 759,898 760,898 761,898 762,898 763,898 764,898 765,898 766,898 767,898 768,898 769,898 770,898 771,898 772,898 773,898 774,898 775,898 776,898 777,898 778,899 779,899 780,899 781,899 782,899 783,899 784,899 785,899 786,899 787,899 788,899 789,899 790,899 791,900 792,900 793,900 794,900 795,900 796,900 797,900 798,900 799,900 800,901 801,901 802,901 803,901 804,901 805,901 806,901 807,901 808,902 809,902 810,902 811,902 812,902 813,902 814,902 815,903 816,903 817,903 818,903 819,903 820,903 821,904 822,904 823,904 824,904 825,904 826,904 827,905 828,905 829,905 830,905 831,905 832,906 833,906 834,906 835,906 836,906 837,907 838,907 839,907 840,907 841,907 842,908 843,908 844,908 845,908 846,908 847,909 848,909 849,909 850,909 851,910 852,910 853,910 854,910 855,911 856,911 857,911 858,911 859,912 860,912 861,912 862,912 863,913 864,913 865,913 866,913 867,914 868,914 869,914 870,914 871,915 872,915 873,915 874,915 875,916 876,916 877,916 878,917 879,917 880,917 881,917 882,918 883,918 884,918 885,919 886,919 887,919 888,919 889,920 890,920 891,920 892,921 893,921 894,921 895,922 896,922 897,922 898,923 899,923 900,923 901,924 902,924 903,924 904,924 905,925 906,925 907,925 908,926 909,926 910,926 911,927 912,927 913,927 914,928 915,928 916,929 917,929 918,929 919,930 920,930 921,930 922,931 923,931 924,931 925,932 926,932 927,932 928,933 929,933 930,933 931,934 932,934 933,935 934,935 935,935 936,936 937,936 938,936 939,937 940,937 941,938 942,938 943,938 944,939 945,939 946,939 947,940 948,940 949,941 950,941 951,941 952,942 953,942 954,943 955,943 956,943 957,944 958,944 959,945 960,945 961,945 962,946 963,946 964,947 965,947 966,947 967,948 968,948 969,949 970,949 971,950 972,950 973,950 974,951 975,951 976,952 977,952 978,952 979,953 980,953 981,954 982,954 983,955 984,955 985,955 986,956 987,956 988,957 989,957 990,958 991,958 992,958 993,959 994,959 995,960 996,960 997,961 998,961 999,962 1000,962 1001,962 1002,963 1003,963 1004,964 1005,964 1006,965 1007,965 1008,966 1009,966 1010,966 1011,967 1012,967 1013,968 1014,968 1015,969 1016,969 1017,970 1018,970 1019,971 1020,971 1021,971 1022,972 1023,972 1024,973 1025,973 1026,974 1027,974 1028,975 1029,975 1030,976 1031,976 1032,977 1033,977 1034,978 1035,978 1036,978 1037,979 1038,979 1039,980 1040,980 1041,981 1042,981 1043,982 1044,982 1045,983 1046,983 1047,984 1048,984 1049,985 1050,985 1051,986 1052,986 1053,987 1054,987 1055,987 1056,988 1057,988 1058,989 1059,989 1060,990 1061,990 1062,991 1063,991 1064,992 1065,992 1066,993 1067,993 1068,994 1069,994 1070,995 1071,995 1072,996 1073,996 1074,997 1075,997 1076,998 1077,998 1078,999 1079,999 1080,1000 1081,1000 1082,1001 1083,1001 1084,1002 1085,1002 1086,1003 1087,1003 1088,1004 1089,1004 1090,1004 1091,1005 1092,1005 1093,1006 1094,1006 1095,1007 1096,1007 1097,1008 1098,1008 1099,1009 1100,1009 1101,1010 1102,1010 1103,1011 1104,1011 1105,1012 1106,1012 1107,1013 1108,1013 1109,1014 1110,1014 1111,1015 1112,1015 1113,1016 1114,1016 1115,1017 1116,1017 1117,1018 1118,1018 1119,1019 1120,1019 1121,1020 1122,1020 1123,1021 1124,1021 1125,1022 1126,1022 1127,1023 1128,1023 1129,1024 1130,1024 1131,1025 1132,1025 1133,1026 1134,1026 1135,1027 1136,1027 1137,1028 1138,1028 1139,1029 1140,1029 1141,1030 1142,1030 1143,1031 1144,1031 1145,1032 1146,1032 1147,1033 1148,1033 1149,1034 1150,1034 1151,1034 1152,1035 1153,1035 1154,1036 1155,1036 1156,1037 1157,1037 1158,1038 1159,1038 1160,1039 1161,1039 1162,1040 1163,1040 1164,1041 1165,1041 1166,1042 1167,1042 1168,1043 1169,1043 1170,1044 1171,1044 1172,1045 1173,1045 1174,1046 1175,1046 1176,1047 1177,1047 1178,1048 1179,1048 1180,1049 1181,1049 1182,1049 1183,1050 1184,1050 1185,1051 1186,1051 1187,1052 1188,1052 1189,1053 1190,1053 1191,1054 1192,1054 1193,1055 1194,1055 1195,1056 1196,1056 1197,1057 1198,1057 1199,1058 1200,1058 1201,1058 1202,1059 1203,1059 1204,1060 1205,1060 1206,1061 1207,1061 1208,1062 1209,1062 1210,1063 1211,1063 1212,1064 1213,1064 1214,1064 1215,1065 1216,1065 1217,1066 1218,1066 1219,1067 1220,1067 1221,1068 1222,1068 1223,1069 1224,1069 1225,1069 1226,1070 1227,1070 1228,1071 1229,1071 1230,1072 1231,1072 1232,1073 1233,1073 1234,1073 1235,1074 1236,1074 1237,1075 1238,1075 1239,1076 1240,1076 1241,1077 1242,1077 1243,1077 1244,1078 1245,1078 1246,1079 1247,1079 1248,1080 1249,1080 1250,1080 1251,1081 1252,1081 1253,1082 1254,1082 1255,1083 1256,1083 1257,1083 1258,1084 1259,1084 1260,1085 1261,1085 1262,1085 1263,1086 1264,1086 1265,1087 1266,1087 1267,1088 1268,1088 1269,1088 1270,1089 1271,1089 1272,1090 1273,1090 1274,1090 1275,1091 1276,1091 1277,1092 1278,1092 1279,1092 1280,1093 1281,1093 1282,1094 1283,1094 1284,1094 1285,1095 1286,1095 1287,1096 1288,1096 1289,1096 1290,1097 1291,1097 1292,1098 1293,1098 1294,1098 1295,1099 1296,1099 1297,1100 1298,1100 1299,1100 1300,1101 1301,1101 1302,1101 1303,1102 1304,1102 1305,1103 1306,1103 1307,1103 1308,1104 1309,1104 1310,1105 1311,1105 1312,1105 1313,1106 1314,1106 1315,1106 1316,1107 1317,1107 1318,1107 1319,1108 1320,1108 1321,1109 1322,1109 1323,1109 1324,1110 1325,1110 1326,1110 1327,1111 1328,1111 1329,1111 1330,1112 1331,1112 1332,1113 1333,1113 1334,1113 1335,1114 1336,1114 1337,1114 1338,1115 1339,1115 1340,1115 1341,1116 1342,1116 1343,1116 1344,1117 1345,1117 1346,1117 1347,1118 1348,1118 1349,1118 1350,1119 1351,1119 1352,1119 1353,1120 1354,1120 1355,1120 1356,1121 1357,1121 1358,1121 1359,1122 1360,1122 1361,1122 1362,1123 1363,1123 1364,1123 1365,1124 1366,1124 1367,1124 1368,1125 1369,1125 1370,1125 1371,1126 1372,1126 1373,1126 1374,1127 1375,1127 1376,1127 1377,1128 1378,1128 1379,1128 1380,1129 1381,1129 1382,1129 1383,1130 1384,1130 1385,1130 1386,1130 1387,1131 1388,1131 1389,1131 1390,1132 1391,1132 1392,1132 1393,1133 1394,1133 1395,1133 1396,1133 1397,1134 1398,1134 1399,1134 1400,1135 1401,1135 1402,1135 1403,1136 1404,1136 1405,1136 1406,1136 1407,1137 1408,1137 1409,1137 1410,1138 1411,1138 1412,1138 1413,1138 1414,1139 1415,1139 1416,1139 1417,1139 1418,1140 1419,1140 1420,1140 1421,1141 1422,1141 1423,1141 1424,1141 1425,1142 1426,1142 1427,1142 1428,1142 1429,1143 1430,1143 1431,1143 1432,1144 1433,1144 1434,1144 1435,1144 1436,1145 1437,1145 1438,1145 1439,1145 1440,1146 1441,1146 1442,1146 1443,1146 1444,1147 1445,1147 1446,1147 1447,1147 1448,1148 1449,1148 1450,1148 1451,1148 1452,1149 1453,1149 1454,1149 1455,1149 1456,1150 1457,1150 1458,1150 1459,1150 1460,1151 1461,1151 1462,1151 1463,1151 1464,1152 1465,1152 1466,1152 1467,1152 1468,1152 1469,1153 1470,1153 1471,1153 1472,1153 1473,1154 1474,1154 1475,1154 1476,1154 1477,1154 1478,1155 1479,1155 1480,1155 1481,1155 1482,1156 1483,1156 1484,1156 1485,1156 1486,1156 1487,1157 1488,1157 1489,1157 1490,1157 1491,1158 1492,1158 1493,1158 1494,1158 1495,1158 1496,1159 1497,1159 1498,1159 1499,1159 1500,1159 1501,1160 1502,1160 1503,1160 1504,1160 1505,1160 1506,1161 1507,1161 1508,1161 1509,1161 1510,1161 1511,1162 1512,1162 1513,1162 1514,1162 1515,1162 1516,1162 1517,1163 1518,1163 1519,1163 1520,1163 1521,1163 1522,1164 1523,1164 1524,1164 1525,1164 1526,1164 1527,1164 1528,1165 1529,1165 1530,1165 1531,1165 1532,1165 1533,1166 1534,1166 1535,1166 1536,1166 1537,1166 1538,1166 1539,1167 1540,1167 1541,1167 1542,1167 1543,1167 1544,1167 1545,1168 1546,1168 1547,1168 1548,1168 1549,1168 1550,1168 1551,1169 1552,1169 1553,1169 1554,1169 1555,1169 1556,1169 1557,1169 1558,1170 1559,1170 1560,1170 1561,1170 1562,1170 1563,1170 1564,1171 1565,1171 1566,1171 1567,1171 1568,1171 1569,1171 1570,1171 1571,1172 1572,1172 1573,1172 1574,1172 1575,1172 1576,1172 1577,1172 1578,1173 1579,1173 1580,1173 1581,1173 1582,1173 1583,1173 1584,1173 1585,1174 1586,1174 1587,1174 1588,1174 1589,1174 1590,1174 1591,1174 1592,1174 1593,1175 1594,1175 1595,1175 1596,1175 1597,1175 1598,1175 1599,1175 1600,1176 1601,1176 1602,1176 1603,1176 1604,1176 1605,1176 1606,1176 1607,1176 1608,1176 1609,1177 1610,1177 1611,1177 1612,1177 1613,1177 1614,1177 1615,1177 1616,1177 1617,1178 1618,1178 1619,1178 1620,1178 1621,1178 1622,1178 1623,1178 1624,1178 1625,1178 1626,1179 1627,1179 1628,1179 1629,1179 1630,1179 1631,1179 1632,1179 1633,1179 1634,1179 1635,1180 1636,1180 1637,1180 1638,1180 1639,1180 1640,1180 1641,1180 1642,1180 1643,1180 1644,1180 1645,1181 1646,1181 1647,1181 1648,1181 1649,1181 1650,1181 1651,1181 1652,1181 1653,1181 1654,1181 1655,1181 1656,1182 1657,1182 1658,1182 1659,1182 1660,1182 1661,1182 1662,1182 1663,1182 1664,1182 1665,1182 1666,1182 1667,1183 1668,1183 1669,1183 1670,1183 1671,1183 1672,1183 1673,1183 1674,1183 1675,1183 1676,1183 1677,1183 1678,1183 1679,1184 1680,1184 1681,1184 1682,1184 1683,1184 1684,1184 1685,1184 1686,1184 1687,1184 1688,1184 1689,1184 1690,1184 1691,1184 1692,1185 1693,1185 1694,1185 1695,1185 1696,1185 1697,1185 1698,1185 1699,1185 1700,1185 1701,1185 1702,1185 1703,1185 1704,1185 1705,1185 1706,1186 1707,1186 1708,1186 1709,1186 1710,1186 1711,1186 1712,1186 1713,1186 1714,1186 1715,1186 1716,1186 1717,1186 1718,1186 1719,1186 1720,1186 1721,1187 1722,1187 1723,1187 1724,1187 1725,1187 1726,1187 1727,1187 1728,1187 1729,1187 1730,1187 1731,1187 1732,1187 1733,1187 1734,1187 1735,1187 1736,1187 1737,1187 1738,1188 1739,1188 1740,1188 1741,1188 1742,1188 1743,1188 1744,1188 1745,1188 1746,1188 1747,1188 1748,1188 1749,1188 1750,1188 1751,1188 1752,1188 1753,1188 1754,1188 1755,1188 1756,1188 1757,1189 1758,1189 1759,1189 1760,1189 1761,1189 1762,1189 1763,1189 1764,1189 1765,1189 1766,1189 1767,1189 1768,1189 1769,1189 1770,1189 1771,1189 1772,1189 1773,1189 1774,1189 1775,1189 1776,1189 1777,1189 1778,1189 1779,1190 1780,1190 1781,1190 1782,1190 1783,1190 1784,1190 1785,1190 1786,1190 1787,1190 1788,1190 1789,1190 1790,1190 1791,1190 1792,1190 1793,1190 1794,1190 1795,1190 1796,1190 1797,1190 1798,1190 1799,1190 1800,1190 1801,1190 1802,1190 1803,1190 1804,1190 1805,1190 1806,1191 1807,1191 1808,1191 1809,1191 1810,1191 1811,1191 1812,1191 1813,1191 1814,1191 1815,1191 1816,1191 1817,1191 1818,1191 1819,1191 1820,1191 1821,1191 1822,1191 1823,1191 1824,1191 1825,1191 1826,1191 1827,1191 1828,1191 1829,1191 1830,1191 1831,1191 1832,1191 1833,1191 1834,1191 1835,1191 1836,1191 1837,1191 1838,1191 1839,1191 1840,1191 1841,1192 1842,1192 1843,1192 1844,1192 1845,1192 1846,1192 1847,1192 1848,1192 1849,1192 1850,1192 1851,1192 1852,1192 1853,1192 1854,1192 1855,1192 1856,1192 1857,1192 1858,1192 1859,1192 1860,1192 1861,1192 1862,1192 1863,1192 1864,1192 1865,1192 1866,1192 1867,1192 1868,1192 1869,1192 1870,1192 1871,1192 1872,1192 1873,1192 1874,1192 1875,1192 1876,1192 1877,1192 1878,1192 1879,1192 1880,1192 1881,1192 1882,1192 1883,1192 1884,1192 1885,1192 1886,1192 1887,1192 1888,1192 1889,1192 1890,1192 1891,1192 1892,1193 1893,1193 1894,1193 1895,1193 1896,1193 1897,1193 1898,1193 1899,1193 1900,1193 1901,1193 1902,1193 1903,1193 1904,1193 1905,1193 1906,1193 1907,1193 1908,1193 1909,1193 1910,1193 1911,1193 1912,1193 1913,1193 1914,1193 1915,1193 1916,1193 1917,1193 1918,1193 1919,1193 1920,1193 1921,1193 1922,1193 1923,1193 1924,1193 1925,1193 1926,1193 1927,1193 1928,1193 1929,1193 1930,1193 1931,1193 1932,1193 1933,1193 1934,1193 1935,1193 1936,1193 1937,1193 1938,1193 1939,1193 1940,1193 1941,1193 1942,1193 1943,1193 1944,1193 1945,1193 1946,1193 1947,1193 1948,1193 1949,1193 1950,1193 1951,1193 1952,1193 1953,1193 1954,1193 1955,1193 1956,1193 1957,1193 1958,1193 1959,1193 1960,1193 1961,1193 1962,1193 1963,1193 1964,1193 1965,1193 1966,1193 1967,1193 1968,1193 1969,1193 1970,1193 1971,1193 1972,1193 1973,1193 1974,1193 1975,1193 1976,1193 1977,1193 1978,1193 1979,1193 1980,1193 1981,1193 1982,1193 1983,1193 1984,1193 1985,1193 1986,1193 1987,1193 1988,1193 1989,1193 1990,1194 1991,1194 1992,1194 1993,1194 1994,1194 1995,1194 1996,1194 1997,1194 1998,1194 1999,1194 2000,1194 2001,1194 2002,1194 2003,1194 2004,1194 2005,1194 2006,1194 2007,1194 2008,1194 2009,1194 2010,1194 2011,1194 2012,1194 2013,1194 2014,1194 2015,1194 2016,1194 2017,1194 2018,1194 2019,1194 2020,1194 2021,1194 2022,1194 2023,1194 2024,1194 2025,1194 2026,1194 2027,1194 2028,1194 2029,1194 2030,1194 2031,1194 2032,1194 2033,1194 2034,1194 2035,1194 2036,1194 2037,1194 2038,1194 2039,1194 2040,1194 2041,1194 2042,1194 2043,1194 2044,1194 2045,1194 2046,1194 2047,1194 2048,1194 2049,1194 2050,1194 2051,1194 2052,1194 2053,1194 2054,1194 2055,1194 2056,1194 2057,1194 2058,1194 2059,1194 2060,1194 2061,1194 2062,1194 2063,1194 2064,1194 2065,1194 2066,1194 2067,1194 2068,1194 2069,1194 2070,1194 2071,1194 2072,1194 2073,1194 2074,1194 2075,1194 2076,1194 2077,1194 2078,1194 2079,1194 2080,1194 2081,1194 2082,1194 2083,1194 2084,1194 2085,1194 2086,1194 2087,1194 2088,1194 2089,1194 2090,1194 2091,1194 2092,1194 2093,1194 2094,1194 2095,1194 2096,1194 2097,1194 2098,1194 2099,1194 2100,1194 2101,1194 2102,1194 2103,1194 2104,1194 2105,1194 2106,1194 2107,1194 2108,1194 2109,1194 2110,1194 2111,1194 2112,1194 2113,1194 2114,1194 2115,1194 2116,1194 2117,1194 2118,1194 2119,1194 2120,1194 2121,1194 2122,1194 2123,1194 2124,1194 2125,1194 2126,1194 2127,1194 2128,1194 2129,1194 2130,1194 2131,1194 2132,1194 2133,1194 2134,1194 2135,1194 2136,1194 2137,1194 2138,1194 2139,1194 2140,1194 2141,1194 2142,1194 2143,1194 2144,1194 2145,1194 2146,1194 2147,1194 2148,1194 2149,1194 2150,1194 2151,1194 2152,1194 2153,1194 2154,1194 2155,1194 2156,1194 2157,1194 2158,1194 2159,1194 2160,1194 2161,1194 2162,1194 2163,1194 " />
    <text x="76" y="1163" font-family="Tahoma" font-size="16" fill="#000000">(0,0.0225747967)</text>
    <text x="308" y="1072" font-family="Tahoma" font-size="16" fill="#000000">(1,0.1064240415)</text>
    <text x="541" y="945" font-family="Tahoma" font-size="16" fill="#000000">(2,0.2229837061)</text>
    <text x="774" y="891" font-family="Tahoma" font-size="16" fill="#000000">(3,0.2725356408)</text>
    <text x="1006" y="955" font-family="Tahoma" font-size="16" fill="#000000">(4,0.2141351463)</text>
    <text x="1239" y="1066" font-family="Tahoma" font-size="16" fill="#000000">(5,0.1121660290)</text>
    <text x="1472" y="1145" font-family="Tahoma" font-size="16" fill="#000000">(6,0.0391690895)</text>
    <text x="1704" y="1178" font-family="Tahoma" font-size="16" fill="#000000">(7,0.0087930609)</text>
    <text x="1937" y="1186" font-family="Tahoma" font-size="16" fill="#000000">(8,0.0011514723)</text>
    <text x="2169" y="1187" font-family="Tahoma" font-size="16" fill="#000000">(9,0.0000670169)</text>
    <circle stroke="#000000" stroke-width="1" stroke-linecap="round" stroke-linejoin="round" fill="#000000" cx="70" cy="1170" r="3" />
    <circle stroke="#000000" stroke-width="1" stroke-linecap="round" stroke-linejoin="round" fill="#000000" cx="302" cy="1079" r="3" />
    <circle stroke="#000000" stroke-width="1" stroke-linecap="round" stroke-linejoin="round" fill="#000000" cx="535" cy="952" r="3" />
    <circle stroke="#000000" stroke-width="1" stroke-linecap="round" stroke-linejoin="round" fill="#000000" cx="768" cy="898" r="3" />
    <circle stroke="#000000" stroke-width="1" stroke-linecap="round" stroke-linejoin="round" fill="#000000" cx="1000" cy="962" r="3" />
    <circle stroke="#000000" stroke-width="1" stroke-linecap="round" stroke-linejoin="round" fill="#000000" cx="1233" cy="1073" r="3" />
    <circle stroke="#000000" stroke-width="1" stroke-linecap="round" stroke-linejoin="round" fill="#000000" cx="1466" cy="1152" r="3" />
    <circle stroke="#000000" stroke-width="1" stroke-linecap="round" stroke-linejoin="round" fill="#000000" cx="1698" cy="1185" r="3" />
    <circle stroke="#000000" stroke-width="1" stroke-linecap="round" stroke-linejoin="round" fill="#000000" cx="1931" cy="1193" r="3" />
    <circle stroke="#000000" stroke-width="1" stroke-linecap="round" stroke-linejoin="round" fill="#000000" cx="2163" cy="1194" r="3" />
  </g>
</svg>
