<?xml version="1.0" encoding="UTF-8"?>
<!DOCTYPE svg PUBLIC "-//W3C//DTD SVG 1.1//EN" "http://www.w3.org/Graphics/SVG/1.1/DTD/svg11.dtd">
<svg width="2325px" height="1303px" viewBox="0 0 2325 1303" version="1.1" xmlns="http://www.w3.org/2000/svg" xmlns:xlink="http://www.w3.org/1999/xlink">
  <g>
    <text x="1430" y="161" font-family="Calibri" font-size="37" fill="#000000">Зависит от числа мест в очереди</text>
    <line stroke="#9999ff" stroke-width="1" stroke-dasharray="1,10" stroke-linecap="round" stroke-linejoin="round" x1="754.5" y1="0.5" x2="754.5" y2="1302.5" />
    <line stroke="#9999ff" stroke-width="1" stroke-dasharray="1,10" stroke-linecap="round" stroke-linejoin="round" x1="1382.5" y1="0.5" x2="1382.5" y2="1302.5" />
    <line stroke="#9999ff" stroke-width="1" stroke-dasharray="1,10" stroke-linecap="round" stroke-linejoin="round" x1="2011.5" y1="0.5" x2="2011.5" y2="1302.5" />
    <line stroke="#9999ff" stroke-width="1" stroke-dasharray="1,10" stroke-linecap="round" stroke-linejoin="round" x1="0.5" y1="1244.5" x2="2324.5" y2="1244.5" />
    <line stroke="#9999ff" stroke-width="1" stroke-dasharray="1,10" stroke-linecap="round" stroke-linejoin="round" x1="0.5" y1="1185.5" x2="2324.5" y2="1185.5" />
    <line stroke="#9999ff" stroke-width="1" stroke-dasharray="1,10" stroke-linecap="round" stroke-linejoin="round" x1="0.5" y1="1125.5" x2="2324.5" y2="1125.5" />
    <line stroke="#9999ff" stroke-width="1" stroke-dasharray="1,10" stroke-linecap="round" stroke-linejoin="round" x1="0.5" y1="1007.5" x2="2324.5" y2="1007.5" />
    <line stroke="#9999ff" stroke-width="1" stroke-dasharray="1,10" stroke-linecap="round" stroke-linejoin="round" x1="0.5" y1="948.5" x2="2324.5" y2="948.5" />
    <line stroke="#9999ff" stroke-width="1" stroke-dasharray="1,10" stroke-linecap="round" stroke-linejoin="round" x1="0.5" y1="888.5" x2="2324.5" y2="888.5" />
    <line stroke="#9999ff" stroke-width="1" stroke-dasharray="1,10" stroke-linecap="round" stroke-linejoin="round" x1="0.5" y1="829.5" x2="2324.5" y2="829.5" />
    <line stroke="#9999ff" stroke-width="1" stroke-dasharray="1,10" stroke-linecap="round" stroke-linejoin="round" x1="0.5" y1="770.5" x2="2324.5" y2="770.5" />
    <line stroke="#9999ff" stroke-width="1" stroke-dasharray="1,10" stroke-linecap="round" stroke-linejoin="round" x1="0.5" y1="711.5" x2="2324.5" y2="711.5" />
    <line stroke="#9999ff" stroke-width="1" stroke-dasharray="1,10" stroke-linecap="round" stroke-linejoin="round" x1="0.5" y1="651.5" x2="2324.5" y2="651.5" />
    <line stroke="#9999ff" stroke-width="1" stroke-dasharray="1,10" stroke-linecap="round" stroke-linejoin="round" x1="0.5" y1="592.5" x2="2324.5" y2="592.5" />
    <line stroke="#9999ff" stroke-width="1" stroke-dasharray="1,10" stroke-linecap="round" stroke-linejoin="round" x1="0.5" y1="533.5" x2="2324.5" y2="533.5" />
    <line stroke="#9999ff" stroke-width="1" stroke-dasharray="1,10" stroke-linecap="round" stroke-linejoin="round" x1="0.5" y1="474.5" x2="2324.5" y2="474.5" />
    <line stroke="#9999ff" stroke-width="1" stroke-dasharray="1,10" stroke-linecap="round" stroke-linejoin="round" x1="0.5" y1="415.5" x2="2324.5" y2="415.5" />
    <line stroke="#9999ff" stroke-width="1" stroke-dasharray="1,10" stroke-linecap="round" stroke-linejoin="round" x1="0.5" y1="355.5" x2="2324.5" y2="355.5" />
    <line stroke="#9999ff" stroke-width="1" stroke-dasharray="1,10" stroke-linecap="round" stroke-linejoin="round" x1="0.5" y1="296.5" x2="2324.5" y2="296.5" />
    <line stroke="#9999ff" stroke-width="1" stroke-dasharray="1,10" stroke-linecap="round" stroke-linejoin="round" x1="0.5" y1="237.5" x2="2324.5" y2="237.5" />
    <line stroke="#9999ff" stroke-width="1" stroke-dasharray="1,10" stroke-linecap="round" stroke-linejoin="round" x1="0.5" y1="178.5" x2="2324.5" y2="178.5" />
    <line stroke="#9999ff" stroke-width="1" stroke-dasharray="1,10" stroke-linecap="round" stroke-linejoin="round" x1="0.5" y1="118.5" x2="2324.5" y2="118.5" />
    <line stroke="#9999ff" stroke-width="1" stroke-dasharray="1,10" stroke-linecap="round" stroke-linejoin="round" x1="0.5" y1="59.5" x2="2324.5" y2="59.5" />
    <text x="749" y="1099" font-family="Calibri" font-size="37" fill="#000000">1</text>
    <text x="1377" y="1099" font-family="Calibri" font-size="37" fill="#000000">2</text>
    <text x="2006" y="1099" font-family="Calibri" font-size="37" fill="#000000">3</text>
    <text x="63" y="1262" font-family="Calibri" font-size="37" fill="#000000">-0.015</text>
    <text x="74" y="1203" font-family="Calibri" font-size="37" fill="#000000">-0.01</text>
    <text x="63" y="1143" font-family="Calibri" font-size="37" fill="#000000">-0.005</text>
    <text x="70" y="1025" font-family="Calibri" font-size="37" fill="#000000">0.005</text>
    <text x="81" y="966" font-family="Calibri" font-size="37" fill="#000000">0.01</text>
    <text x="70" y="906" font-family="Calibri" font-size="37" fill="#000000">0.015</text>
    <text x="81" y="847" font-family="Calibri" font-size="37" fill="#000000">0.02</text>
    <text x="70" y="788" font-family="Calibri" font-size="37" fill="#000000">0.025</text>
    <text x="81" y="729" font-family="Calibri" font-size="37" fill="#000000">0.03</text>
    <text x="70" y="669" font-family="Calibri" font-size="37" fill="#000000">0.035</text>
    <text x="81" y="610" font-family="Calibri" font-size="37" fill="#000000">0.04</text>
    <text x="70" y="551" font-family="Calibri" font-size="37" fill="#000000">0.045</text>
    <text x="81" y="492" font-family="Calibri" font-size="37" fill="#000000">0.05</text>
    <text x="70" y="433" font-family="Calibri" font-size="37" fill="#000000">0.055</text>
    <text x="81" y="373" font-family="Calibri" font-size="37" fill="#000000">0.06</text>
    <text x="70" y="314" font-family="Calibri" font-size="37" fill="#000000">0.065</text>
    <text x="81" y="255" font-family="Calibri" font-size="37" fill="#000000">0.07</text>
    <text x="70" y="196" font-family="Calibri" font-size="37" fill="#000000">0.075</text>
    <text x="81" y="136" font-family="Calibri" font-size="37" fill="#000000">0.08</text>
    <text x="70" y="77" font-family="Calibri" font-size="37" fill="#000000">0.085</text>
    <text x="2312" y="1054" font-family="Times New Roman" font-size="21" font-weight="700" fill="#000000">x</text>
    <text x="138" y="15" font-family="Times New Roman" font-size="21" font-weight="700" fill="#000000">y</text>
    <line stroke="#000000" stroke-width="2" stroke-linecap="butt" stroke-linejoin="bevel" x1="0" y1="1066" x2="2320" y2="1066" />
    <polygon stroke="#000000" stroke-width="1" stroke-linecap="round" stroke-linejoin="round" fill="#000000" points="2318.5,1059.5 2324.5,1065.5 2324.5,1066.5 2318.5,1072.5 " />
    <line stroke="#000000" stroke-width="1" stroke-linecap="round" stroke-linejoin="round" x1="754.5" y1="1071.5" x2="754.5" y2="1060.5" />
    <line stroke="#000000" stroke-width="1" stroke-linecap="round" stroke-linejoin="round" x1="1382.5" y1="1071.5" x2="1382.5" y2="1060.5" />
    <line stroke="#000000" stroke-width="1" stroke-linecap="round" stroke-linejoin="round" x1="2011.5" y1="1071.5" x2="2011.5" y2="1060.5" />
    <line stroke="#000000" stroke-width="2" stroke-linecap="butt" stroke-linejoin="bevel" x1="126" y1="3" x2="126" y2="1302" />
    <polygon stroke="#000000" stroke-width="1" stroke-linecap="round" stroke-linejoin="round" fill="#000000" points="119.5,6.5 125.5,0.5 126.5,0.5 132.5,6.5 " />
    <line stroke="#000000" stroke-width="1" stroke-linecap="round" stroke-linejoin="round" x1="120.5" y1="1244.5" x2="131.5" y2="1244.5" />
    <line stroke="#000000" stroke-width="1" stroke-linecap="round" stroke-linejoin="round" x1="120.5" y1="1185.5" x2="131.5" y2="1185.5" />
    <line stroke="#000000" stroke-width="1" stroke-linecap="round" stroke-linejoin="round" x1="120.5" y1="1125.5" x2="131.5" y2="1125.5" />
    <line stroke="#000000" stroke-width="1" stroke-linecap="round" stroke-linejoin="round" x1="120.5" y1="1007.5" x2="131.5" y2="1007.5" />
    <line stroke="#000000" stroke-width="1" stroke-linecap="round" stroke-linejoin="round" x1="120.5" y1="948.5" x2="131.5" y2="948.5" />
    <line stroke="#000000" stroke-width="1" stroke-linecap="round" stroke-linejoin="round" x1="120.5" y1="888.5" x2="131.5" y2="888.5" />
    <line stroke="#000000" stroke-width="1" stroke-linecap="round" stroke-linejoin="round" x1="120.5" y1="829.5" x2="131.5" y2="829.5" />
    <line stroke="#000000" stroke-width="1" stroke-linecap="round" stroke-linejoin="round" x1="120.5" y1="770.5" x2="131.5" y2="770.5" />
    <line stroke="#000000" stroke-width="1" stroke-linecap="round" stroke-linejoin="round" x1="120.5" y1="711.5" x2="131.5" y2="711.5" />
    <line stroke="#000000" stroke-width="1" stroke-linecap="round" stroke-linejoin="round" x1="120.5" y1="651.5" x2="131.5" y2="651.5" />
    <line stroke="#000000" stroke-width="1" stroke-linecap="round" stroke-linejoin="round" x1="120.5" y1="592.5" x2="131.5" y2="592.5" />
    <line stroke="#000000" stroke-width="1" stroke-linecap="round" stroke-linejoin="round" x1="120.5" y1="533.5" x2="131.5" y2="533.5" />
    <line stroke="#000000" stroke-width="1" stroke-linecap="round" stroke-linejoin="round" x1="120.5" y1="474.5" x2="131.5" y2="474.5" />
    <line stroke="#000000" stroke-width="1" stroke-linecap="round" stroke-linejoin="round" x1="120.5" y1="415.5" x2="131.5" y2="415.5" />
    <line stroke="#000000" stroke-width="1" stroke-linecap="round" stroke-linejoin="round" x1="120.5" y1="355.5" x2="131.5" y2="355.5" />
    <line stroke="#000000" stroke-width="1" stroke-linecap="round" stroke-linejoin="round" x1="120.5" y1="296.5" x2="131.5" y2="296.5" />
    <line stroke="#000000" stroke-width="1" stroke-linecap="round" stroke-linejoin="round" x1="120.5" y1="237.5" x2="131.5" y2="237.5" />
    <line stroke="#000000" stroke-width="1" stroke-linecap="round" stroke-linejoin="round" x1="120.5" y1="178.5" x2="131.5" y2="178.5" />
    <line stroke="#000000" stroke-width="1" stroke-linecap="round" stroke-linejoin="round" x1="120.5" y1="118.5" x2="131.5" y2="118.5" />
    <line stroke="#000000" stroke-width="1" stroke-linecap="round" stroke-linejoin="round" x1="120.5" y1="59.5" x2="131.5" y2="59.5" />
    <polyline stroke="#ff0000" stroke-width="2" stroke-linecap="butt" stroke-linejoin="bevel" fill="none" points="754,246 1382,414 2011,556 " />
    <text x="648" y="239" font-family="Tahoma" font-size="16" fill="#ff0000">(1,0.0692521)</text>
    <text x="1276" y="407" font-family="Tahoma" font-size="16" fill="#ff0000">(2,0.0550754)</text>
    <text x="1905" y="549" font-family="Tahoma" font-size="16" fill="#ff0000">(3,0.0430516)</text>
    <circle stroke="#000000" stroke-width="1" stroke-linecap="round" stroke-linejoin="round" fill="#ff0000" cx="754" cy="246" r="3" />
    <circle stroke="#000000" stroke-width="1" stroke-linecap="round" stroke-linejoin="round" fill="#ff0000" cx="1382" cy="414" r="3" />
    <circle stroke="#000000" stroke-width="1" stroke-linecap="round" stroke-linejoin="round" fill="#ff0000" cx="2011" cy="556" r="3" />
    <polyline stroke="#00ff00" stroke-width="2" stroke-linecap="butt" stroke-linejoin="bevel" fill="none" points="754,1000 1382,1023 2011,1036 " />
    <text x="760" y="993" font-family="Tahoma" font-size="16" fill="#00ff00">(1,0.0055731)</text>
    <text x="1388" y="1016" font-family="Tahoma" font-size="16" fill="#00ff00">(2,0.0036548)</text>
    <text x="2017" y="1029" font-family="Tahoma" font-size="16" fill="#00ff00">(3,0.0025719)</text>
    <circle stroke="#000000" stroke-width="1" stroke-linecap="round" stroke-linejoin="round" fill="#00ff00" cx="754" cy="1000" r="3" />
    <circle stroke="#000000" stroke-width="1" stroke-linecap="round" stroke-linejoin="round" fill="#00ff00" cx="1382" cy="1023" r="3" />
    <circle stroke="#000000" stroke-width="1" stroke-linecap="round" stroke-linejoin="round" fill="#00ff00" cx="2011" cy="1036" r="3" />
    <polyline stroke="#0000ff" stroke-width="2" stroke-linecap="butt" stroke-linejoin="bevel" fill="none" points="754,1061 1382,1063 2011,1064 " />
    <text x="760" y="1079" font-family="Tahoma" font-size="16" fill="#0000ff">(1,0.0003876)</text>
    <text x="1388" y="1081" font-family="Tahoma" font-size="16" fill="#0000ff">(2,0.0002342)</text>
    <text x="2017" y="1082" font-family="Tahoma" font-size="16" fill="#0000ff">(3,0.0001603)</text>
    <circle stroke="#000000" stroke-width="1" stroke-linecap="round" stroke-linejoin="round" fill="#0000ff" cx="754" cy="1061" r="3" />
    <circle stroke="#000000" stroke-width="1" stroke-linecap="round" stroke-linejoin="round" fill="#0000ff" cx="1382" cy="1063" r="3" />
    <circle stroke="#000000" stroke-width="1" stroke-linecap="round" stroke-linejoin="round" fill="#0000ff" cx="2011" cy="1064" r="3" />
  </g>
</svg>
