<?xml version="1.0" encoding="UTF-8"?>
<!DOCTYPE svg PUBLIC "-//W3C//DTD SVG 1.1//EN" "http://www.w3.org/Graphics/SVG/1.1/DTD/svg11.dtd">
<svg width="2325px" height="1303px" viewBox="0 0 2325 1303" version="1.1" xmlns="http://www.w3.org/2000/svg" xmlns:xlink="http://www.w3.org/1999/xlink">
  <g>
    <line stroke="#9999ff" stroke-width="1" stroke-dasharray="1,10" stroke-linecap="round" stroke-linejoin="round" x1="664.5" y1="0.5" x2="664.5" y2="1302.5" />
    <line stroke="#9999ff" stroke-width="1" stroke-dasharray="1,10" stroke-linecap="round" stroke-linejoin="round" x1="1218.5" y1="0.5" x2="1218.5" y2="1302.5" />
    <line stroke="#9999ff" stroke-width="1" stroke-dasharray="1,10" stroke-linecap="round" stroke-linejoin="round" x1="1771.5" y1="0.5" x2="1771.5" y2="1302.5" />
    <line stroke="#9999ff" stroke-width="1" stroke-dasharray="1,10" stroke-linecap="round" stroke-linejoin="round" x1="0.5" y1="1231.5" x2="2324.5" y2="1231.5" />
    <line stroke="#9999ff" stroke-width="1" stroke-dasharray="1,10" stroke-linecap="round" stroke-linejoin="round" x1="0.5" y1="1194.5" x2="2324.5" y2="1194.5" />
    <line stroke="#9999ff" stroke-width="1" stroke-dasharray="1,10" stroke-linecap="round" stroke-linejoin="round" x1="0.5" y1="1158.5" x2="2324.5" y2="1158.5" />
    <line stroke="#9999ff" stroke-width="1" stroke-dasharray="1,10" stroke-linecap="round" stroke-linejoin="round" x1="0.5" y1="1122.5" x2="2324.5" y2="1122.5" />
    <line stroke="#9999ff" stroke-width="1" stroke-dasharray="1,10" stroke-linecap="round" stroke-linejoin="round" x1="0.5" y1="1086.5" x2="2324.5" y2="1086.5" />
    <line stroke="#9999ff" stroke-width="1" stroke-dasharray="1,10" stroke-linecap="round" stroke-linejoin="round" x1="0.5" y1="1050.5" x2="2324.5" y2="1050.5" />
    <line stroke="#9999ff" stroke-width="1" stroke-dasharray="1,10" stroke-linecap="round" stroke-linejoin="round" x1="0.5" y1="1013.5" x2="2324.5" y2="1013.5" />
    <line stroke="#9999ff" stroke-width="1" stroke-dasharray="1,10" stroke-linecap="round" stroke-linejoin="round" x1="0.5" y1="977.5" x2="2324.5" y2="977.5" />
    <line stroke="#9999ff" stroke-width="1" stroke-dasharray="1,10" stroke-linecap="round" stroke-linejoin="round" x1="0.5" y1="941.5" x2="2324.5" y2="941.5" />
    <line stroke="#9999ff" stroke-width="1" stroke-dasharray="1,10" stroke-linecap="round" stroke-linejoin="round" x1="0.5" y1="905.5" x2="2324.5" y2="905.5" />
    <line stroke="#9999ff" stroke-width="1" stroke-dasharray="1,10" stroke-linecap="round" stroke-linejoin="round" x1="0.5" y1="869.5" x2="2324.5" y2="869.5" />
    <line stroke="#9999ff" stroke-width="1" stroke-dasharray="1,10" stroke-linecap="round" stroke-linejoin="round" x1="0.5" y1="832.5" x2="2324.5" y2="832.5" />
    <line stroke="#9999ff" stroke-width="1" stroke-dasharray="1,10" stroke-linecap="round" stroke-linejoin="round" x1="0.5" y1="796.5" x2="2324.5" y2="796.5" />
    <line stroke="#9999ff" stroke-width="1" stroke-dasharray="1,10" stroke-linecap="round" stroke-linejoin="round" x1="0.5" y1="760.5" x2="2324.5" y2="760.5" />
    <line stroke="#9999ff" stroke-width="1" stroke-dasharray="1,10" stroke-linecap="round" stroke-linejoin="round" x1="0.5" y1="724.5" x2="2324.5" y2="724.5" />
    <line stroke="#9999ff" stroke-width="1" stroke-dasharray="1,10" stroke-linecap="round" stroke-linejoin="round" x1="0.5" y1="688.5" x2="2324.5" y2="688.5" />
    <line stroke="#9999ff" stroke-width="1" stroke-dasharray="1,10" stroke-linecap="round" stroke-linejoin="round" x1="0.5" y1="652.5" x2="2324.5" y2="652.5" />
    <line stroke="#9999ff" stroke-width="1" stroke-dasharray="1,10" stroke-linecap="round" stroke-linejoin="round" x1="0.5" y1="615.5" x2="2324.5" y2="615.5" />
    <line stroke="#9999ff" stroke-width="1" stroke-dasharray="1,10" stroke-linecap="round" stroke-linejoin="round" x1="0.5" y1="579.5" x2="2324.5" y2="579.5" />
    <line stroke="#9999ff" stroke-width="1" stroke-dasharray="1,10" stroke-linecap="round" stroke-linejoin="round" x1="0.5" y1="543.5" x2="2324.5" y2="543.5" />
    <line stroke="#9999ff" stroke-width="1" stroke-dasharray="1,10" stroke-linecap="round" stroke-linejoin="round" x1="0.5" y1="507.5" x2="2324.5" y2="507.5" />
    <line stroke="#9999ff" stroke-width="1" stroke-dasharray="1,10" stroke-linecap="round" stroke-linejoin="round" x1="0.5" y1="471.5" x2="2324.5" y2="471.5" />
    <line stroke="#9999ff" stroke-width="1" stroke-dasharray="1,10" stroke-linecap="round" stroke-linejoin="round" x1="0.5" y1="434.5" x2="2324.5" y2="434.5" />
    <line stroke="#9999ff" stroke-width="1" stroke-dasharray="1,10" stroke-linecap="round" stroke-linejoin="round" x1="0.5" y1="398.5" x2="2324.5" y2="398.5" />
    <line stroke="#9999ff" stroke-width="1" stroke-dasharray="1,10" stroke-linecap="round" stroke-linejoin="round" x1="0.5" y1="362.5" x2="2324.5" y2="362.5" />
    <line stroke="#9999ff" stroke-width="1" stroke-dasharray="1,10" stroke-linecap="round" stroke-linejoin="round" x1="0.5" y1="326.5" x2="2324.5" y2="326.5" />
    <line stroke="#9999ff" stroke-width="1" stroke-dasharray="1,10" stroke-linecap="round" stroke-linejoin="round" x1="0.5" y1="290.5" x2="2324.5" y2="290.5" />
    <line stroke="#9999ff" stroke-width="1" stroke-dasharray="1,10" stroke-linecap="round" stroke-linejoin="round" x1="0.5" y1="253.5" x2="2324.5" y2="253.5" />
    <line stroke="#9999ff" stroke-width="1" stroke-dasharray="1,10" stroke-linecap="round" stroke-linejoin="round" x1="0.5" y1="217.5" x2="2324.5" y2="217.5" />
    <line stroke="#9999ff" stroke-width="1" stroke-dasharray="1,10" stroke-linecap="round" stroke-linejoin="round" x1="0.5" y1="181.5" x2="2324.5" y2="181.5" />
    <line stroke="#9999ff" stroke-width="1" stroke-dasharray="1,10" stroke-linecap="round" stroke-linejoin="round" x1="0.5" y1="145.5" x2="2324.5" y2="145.5" />
    <line stroke="#9999ff" stroke-width="1" stroke-dasharray="1,10" stroke-linecap="round" stroke-linejoin="round" x1="0.5" y1="109.5" x2="2324.5" y2="109.5" />
    <line stroke="#9999ff" stroke-width="1" stroke-dasharray="1,10" stroke-linecap="round" stroke-linejoin="round" x1="0.5" y1="72.5" x2="2324.5" y2="72.5" />
    <line stroke="#9999ff" stroke-width="1" stroke-dasharray="1,10" stroke-linecap="round" stroke-linejoin="round" x1="0.5" y1="36.5" x2="2324.5" y2="36.5" />
    <text x="659" y="1289" font-family="Times New Roman" font-size="21" fill="#000000">1</text>
    <text x="1213" y="1289" font-family="Times New Roman" font-size="21" fill="#000000">2</text>
    <text x="1766" y="1289" font-family="Times New Roman" font-size="21" fill="#000000">3</text>
    <text x="66" y="1238" font-family="Times New Roman" font-size="21" fill="#000000">0.01</text>
    <text x="66" y="1201" font-family="Times New Roman" font-size="21" fill="#000000">0.02</text>
    <text x="66" y="1165" font-family="Times New Roman" font-size="21" fill="#000000">0.03</text>
    <text x="66" y="1129" font-family="Times New Roman" font-size="21" fill="#000000">0.04</text>
    <text x="66" y="1093" font-family="Times New Roman" font-size="21" fill="#000000">0.05</text>
    <text x="66" y="1057" font-family="Times New Roman" font-size="21" fill="#000000">0.06</text>
    <text x="66" y="1020" font-family="Times New Roman" font-size="21" fill="#000000">0.07</text>
    <text x="66" y="984" font-family="Times New Roman" font-size="21" fill="#000000">0.08</text>
    <text x="66" y="948" font-family="Times New Roman" font-size="21" fill="#000000">0.09</text>
    <text x="77" y="912" font-family="Times New Roman" font-size="21" fill="#000000">0.1</text>
    <text x="66" y="876" font-family="Times New Roman" font-size="21" fill="#000000">0.11</text>
    <text x="66" y="839" font-family="Times New Roman" font-size="21" fill="#000000">0.12</text>
    <text x="66" y="803" font-family="Times New Roman" font-size="21" fill="#000000">0.13</text>
    <text x="66" y="767" font-family="Times New Roman" font-size="21" fill="#000000">0.14</text>
    <text x="66" y="731" font-family="Times New Roman" font-size="21" fill="#000000">0.15</text>
    <text x="66" y="695" font-family="Times New Roman" font-size="21" fill="#000000">0.16</text>
    <text x="66" y="658" font-family="Times New Roman" font-size="21" fill="#000000">0.17</text>
    <text x="66" y="622" font-family="Times New Roman" font-size="21" fill="#000000">0.18</text>
    <text x="66" y="586" font-family="Times New Roman" font-size="21" fill="#000000">0.19</text>
    <text x="77" y="550" font-family="Times New Roman" font-size="21" fill="#000000">0.2</text>
    <text x="66" y="514" font-family="Times New Roman" font-size="21" fill="#000000">0.21</text>
    <text x="66" y="478" font-family="Times New Roman" font-size="21" fill="#000000">0.22</text>
    <text x="66" y="441" font-family="Times New Roman" font-size="21" fill="#000000">0.23</text>
    <text x="66" y="405" font-family="Times New Roman" font-size="21" fill="#000000">0.24</text>
    <text x="66" y="369" font-family="Times New Roman" font-size="21" fill="#000000">0.25</text>
    <text x="66" y="333" font-family="Times New Roman" font-size="21" fill="#000000">0.26</text>
    <text x="66" y="297" font-family="Times New Roman" font-size="21" fill="#000000">0.27</text>
    <text x="66" y="260" font-family="Times New Roman" font-size="21" fill="#000000">0.28</text>
    <text x="66" y="224" font-family="Times New Roman" font-size="21" fill="#000000">0.29</text>
    <text x="77" y="188" font-family="Times New Roman" font-size="21" fill="#000000">0.3</text>
    <text x="66" y="152" font-family="Times New Roman" font-size="21" fill="#000000">0.31</text>
    <text x="66" y="116" font-family="Times New Roman" font-size="21" fill="#000000">0.32</text>
    <text x="66" y="79" font-family="Times New Roman" font-size="21" fill="#000000">0.33</text>
    <text x="66" y="43" font-family="Times New Roman" font-size="21" fill="#000000">0.34</text>
    <text x="2312" y="1255" font-family="Times New Roman" font-size="21" font-weight="700" fill="#000000">x</text>
    <text x="123" y="15" font-family="Times New Roman" font-size="21" font-weight="700" fill="#000000">y</text>
    <line stroke="#0000ff" stroke-width="2" stroke-linecap="butt" stroke-linejoin="bevel" x1="0" y1="1267" x2="2320" y2="1267" />
    <polygon stroke="#0000ff" stroke-width="1" stroke-linecap="round" stroke-linejoin="round" fill="#0000ff" points="2318.5,1260.5 2324.5,1266.5 2324.5,1267.5 2318.5,1273.5 " />
    <line stroke="#0000ff" stroke-width="1" stroke-linecap="round" stroke-linejoin="round" x1="664.5" y1="1272.5" x2="664.5" y2="1261.5" />
    <line stroke="#0000ff" stroke-width="1" stroke-linecap="round" stroke-linejoin="round" x1="1218.5" y1="1272.5" x2="1218.5" y2="1261.5" />
    <line stroke="#0000ff" stroke-width="1" stroke-linecap="round" stroke-linejoin="round" x1="1771.5" y1="1272.5" x2="1771.5" y2="1261.5" />
    <line stroke="#0000ff" stroke-width="2" stroke-linecap="butt" stroke-linejoin="bevel" x1="111" y1="3" x2="111" y2="1302" />
    <polygon stroke="#0000ff" stroke-width="1" stroke-linecap="round" stroke-linejoin="round" fill="#0000ff" points="104.5,6.5 110.5,0.5 111.5,0.5 117.5,6.5 " />
    <line stroke="#0000ff" stroke-width="1" stroke-linecap="round" stroke-linejoin="round" x1="105.5" y1="1231.5" x2="116.5" y2="1231.5" />
    <line stroke="#0000ff" stroke-width="1" stroke-linecap="round" stroke-linejoin="round" x1="105.5" y1="1194.5" x2="116.5" y2="1194.5" />
    <line stroke="#0000ff" stroke-width="1" stroke-linecap="round" stroke-linejoin="round" x1="105.5" y1="1158.5" x2="116.5" y2="1158.5" />
    <line stroke="#0000ff" stroke-width="1" stroke-linecap="round" stroke-linejoin="round" x1="105.5" y1="1122.5" x2="116.5" y2="1122.5" />
    <line stroke="#0000ff" stroke-width="1" stroke-linecap="round" stroke-linejoin="round" x1="105.5" y1="1086.5" x2="116.5" y2="1086.5" />
    <line stroke="#0000ff" stroke-width="1" stroke-linecap="round" stroke-linejoin="round" x1="105.5" y1="1050.5" x2="116.5" y2="1050.5" />
    <line stroke="#0000ff" stroke-width="1" stroke-linecap="round" stroke-linejoin="round" x1="105.5" y1="1013.5" x2="116.5" y2="1013.5" />
    <line stroke="#0000ff" stroke-width="1" stroke-linecap="round" stroke-linejoin="round" x1="105.5" y1="977.5" x2="116.5" y2="977.5" />
    <line stroke="#0000ff" stroke-width="1" stroke-linecap="round" stroke-linejoin="round" x1="105.5" y1="941.5" x2="116.5" y2="941.5" />
    <line stroke="#0000ff" stroke-width="1" stroke-linecap="round" stroke-linejoin="round" x1="105.5" y1="905.5" x2="116.5" y2="905.5" />
    <line stroke="#0000ff" stroke-width="1" stroke-linecap="round" stroke-linejoin="round" x1="105.5" y1="869.5" x2="116.5" y2="869.5" />
    <line stroke="#0000ff" stroke-width="1" stroke-linecap="round" stroke-linejoin="round" x1="105.5" y1="832.5" x2="116.5" y2="832.5" />
    <line stroke="#0000ff" stroke-width="1" stroke-linecap="round" stroke-linejoin="round" x1="105.5" y1="796.5" x2="116.5" y2="796.5" />
    <line stroke="#0000ff" stroke-width="1" stroke-linecap="round" stroke-linejoin="round" x1="105.5" y1="760.5" x2="116.5" y2="760.5" />
    <line stroke="#0000ff" stroke-width="1" stroke-linecap="round" stroke-linejoin="round" x1="105.5" y1="724.5" x2="116.5" y2="724.5" />
    <line stroke="#0000ff" stroke-width="1" stroke-linecap="round" stroke-linejoin="round" x1="105.5" y1="688.5" x2="116.5" y2="688.5" />
    <line stroke="#0000ff" stroke-width="1" stroke-linecap="round" stroke-linejoin="round" x1="105.5" y1="652.5" x2="116.5" y2="652.5" />
    <line stroke="#0000ff" stroke-width="1" stroke-linecap="round" stroke-linejoin="round" x1="105.5" y1="615.5" x2="116.5" y2="615.5" />
    <line stroke="#0000ff" stroke-width="1" stroke-linecap="round" stroke-linejoin="round" x1="105.5" y1="579.5" x2="116.5" y2="579.5" />
    <line stroke="#0000ff" stroke-width="1" stroke-linecap="round" stroke-linejoin="round" x1="105.5" y1="543.5" x2="116.5" y2="543.5" />
    <line stroke="#0000ff" stroke-width="1" stroke-linecap="round" stroke-linejoin="round" x1="105.5" y1="507.5" x2="116.5" y2="507.5" />
    <line stroke="#0000ff" stroke-width="1" stroke-linecap="round" stroke-linejoin="round" x1="105.5" y1="471.5" x2="116.5" y2="471.5" />
    <line stroke="#0000ff" stroke-width="1" stroke-linecap="round" stroke-linejoin="round" x1="105.5" y1="434.5" x2="116.5" y2="434.5" />
    <line stroke="#0000ff" stroke-width="1" stroke-linecap="round" stroke-linejoin="round" x1="105.5" y1="398.5" x2="116.5" y2="398.5" />
    <line stroke="#0000ff" stroke-width="1" stroke-linecap="round" stroke-linejoin="round" x1="105.5" y1="362.5" x2="116.5" y2="362.5" />
    <line stroke="#0000ff" stroke-width="1" stroke-linecap="round" stroke-linejoin="round" x1="105.5" y1="326.5" x2="116.5" y2="326.5" />
    <line stroke="#0000ff" stroke-width="1" stroke-linecap="round" stroke-linejoin="round" x1="105.5" y1="290.5" x2="116.5" y2="290.5" />
    <line stroke="#0000ff" stroke-width="1" stroke-linecap="round" stroke-linejoin="round" x1="105.5" y1="253.5" x2="116.5" y2="253.5" />
    <line stroke="#0000ff" stroke-width="1" stroke-linecap="round" stroke-linejoin="round" x1="105.5" y1="217.5" x2="116.5" y2="217.5" />
    <line stroke="#0000ff" stroke-width="1" stroke-linecap="round" stroke-linejoin="round" x1="105.5" y1="181.5" x2="116.5" y2="181.5" />
    <line stroke="#0000ff" stroke-width="1" stroke-linecap="round" stroke-linejoin="round" x1="105.5" y1="145.5" x2="116.5" y2="145.5" />
    <line stroke="#0000ff" stroke-width="1" stroke-linecap="round" stroke-linejoin="round" x1="105.5" y1="109.5" x2="116.5" y2="109.5" />
    <line stroke="#0000ff" stroke-width="1" stroke-linecap="round" stroke-linejoin="round" x1="105.5" y1="72.5" x2="116.5" y2="72.5" />
    <line stroke="#0000ff" stroke-width="1" stroke-linecap="round" stroke-linejoin="round" x1="105.5" y1="36.5" x2="116.5" y2="36.5" />
    <polyline stroke="#000000" stroke-width="1" stroke-linecap="round" stroke-linejoin="round" fill="none" points="664,405 1218,176 1771,140 " />
    <text x="585" y="398" font-family="Tahoma" font-size="16" fill="#000000">(1,0.2381)</text>
    <text x="1130" y="169" font-family="Tahoma" font-size="16" fill="#000000">(2,0.30129)</text>
    <text x="1683" y="133" font-family="Tahoma" font-size="16" fill="#000000">(3,0.31134)</text>
    <circle stroke="#000000" stroke-width="1" stroke-linecap="round" stroke-linejoin="round" fill="#000000" cx="664" cy="405" r="3" />
    <circle stroke="#000000" stroke-width="1" stroke-linecap="round" stroke-linejoin="round" fill="#000000" cx="1218" cy="176" r="3" />
    <circle stroke="#000000" stroke-width="1" stroke-linecap="round" stroke-linejoin="round" fill="#000000" cx="1771" cy="140" r="3" />
  </g>
</svg>
